<?xml version="1.0" encoding="us-ascii" standalone="no"?><svg xmlns="http://www.w3.org/2000/svg" xmlns:xlink="http://www.w3.org/1999/xlink" contentStyleType="text/css" height="1754px" preserveAspectRatio="none" style="width:1171px;height:1754px;background:#FFFFFF;" version="1.1" viewBox="0 0 1171 1754" width="1171px" zoomAndPan="magnify"><defs/><g><g id="elem_CurrencyExchange"><rect codeLine="1" fill="#F1F1F1" height="163.418" id="CurrencyExchange" rx="2.5" ry="2.5" style="stroke:#181818;stroke-width:0.5;" width="215" x="35" y="147.15"/><ellipse cx="74.3" cy="163.15" fill="#ADD1B2" rx="11" ry="11" style="stroke:#181818;stroke-width:1.0;"/><path d="M76.7731,169.2931 Q76.1921,169.5919 75.5529,169.7413 Q74.9138,169.8907 74.2082,169.8907 Q71.7014,169.8907 70.3815,168.2389 Q69.0617,166.587 69.0617,163.4659 Q69.0617,160.3365 70.3815,158.6847 Q71.7014,157.0328 74.2082,157.0328 Q74.9138,157.0328 75.5612,157.1822 Q76.2087,157.3316 76.7731,157.6305 L76.7731,160.3531 Q76.1423,159.7721 75.5488,159.5023 Q74.9553,159.2325 74.3244,159.2325 Q72.9797,159.2325 72.2949,160.2992 Q71.6101,161.3658 71.6101,163.4659 Q71.6101,165.5577 72.2949,166.6244 Q72.9797,167.691 74.3244,167.691 Q74.9553,167.691 75.5488,167.4212 Q76.1423,167.1515 76.7731,166.5704 Z " fill="#000000"/><text fill="#000000" font-family="sans-serif" font-size="14" lengthAdjust="spacing" textLength="129" x="93.7" y="168.441">CurrencyExchange</text><line style="stroke:#181818;stroke-width:0.5;" x1="36" x2="249" y1="179.15" y2="179.15"/><text fill="#000000" font-family="sans-serif" font-size="14" lengthAdjust="spacing" textLength="184" x="41" y="196.6852">currencyExchangeId:String</text><text fill="#000000" font-family="sans-serif" font-size="14" lengthAdjust="spacing" textLength="195" x="41" y="213.1734">currencyExchangeKey:String</text><text fill="#000000" font-family="sans-serif" font-size="14" lengthAdjust="spacing" textLength="153" x="41" y="229.6617">sourceCurrency:String</text><text fill="#000000" font-family="sans-serif" font-size="14" lengthAdjust="spacing" textLength="148" x="41" y="246.15">targetCurrency:String</text><text fill="#000000" font-family="sans-serif" font-size="14" lengthAdjust="spacing" textLength="203" x="41" y="262.6383">currencyExchangeDesc:String</text><text fill="#000000" font-family="sans-serif" font-size="14" lengthAdjust="spacing" textLength="142" x="41" y="279.1266">exchangeRate:String</text><text fill="#000000" font-family="sans-serif" font-size="14" lengthAdjust="spacing" textLength="127" x="41" y="295.6148">rateDateTime:Date</text><line style="stroke:#181818;stroke-width:0.5;" x1="36" x2="249" y1="302.568" y2="302.568"/></g><g id="elem_Identifier"><rect codeLine="10" fill="#F1F1F1" height="163.418" id="Identifier" rx="2.5" ry="2.5" style="stroke:#181818;stroke-width:0.5;" width="187" x="330" y="147.15"/><ellipse cx="388.25" cy="163.15" fill="#ADD1B2" rx="11" ry="11" style="stroke:#181818;stroke-width:1.0;"/><path d="M390.7231,169.2931 Q390.1421,169.5919 389.5029,169.7413 Q388.8638,169.8907 388.1582,169.8907 Q385.6514,169.8907 384.3315,168.2389 Q383.0117,166.587 383.0117,163.4659 Q383.0117,160.3365 384.3315,158.6847 Q385.6514,157.0328 388.1582,157.0328 Q388.8638,157.0328 389.5112,157.1822 Q390.1587,157.3316 390.7231,157.6305 L390.7231,160.3531 Q390.0923,159.7721 389.4988,159.5023 Q388.9053,159.2325 388.2744,159.2325 Q386.9297,159.2325 386.2449,160.2992 Q385.5601,161.3658 385.5601,163.4659 Q385.5601,165.5577 386.2449,166.6244 Q386.9297,167.691 388.2744,167.691 Q388.9053,167.691 389.4988,167.4212 Q390.0923,167.1515 390.7231,166.5704 Z " fill="#000000"/><text fill="#000000" font-family="sans-serif" font-size="14" lengthAdjust="spacing" textLength="62" x="408.75" y="168.441">Identifier</text><line style="stroke:#181818;stroke-width:0.5;" x1="331" x2="516" y1="179.15" y2="179.15"/><text fill="#000000" font-family="sans-serif" font-size="14" lengthAdjust="spacing" textLength="120" x="336" y="196.6852">identifierId:String</text><text fill="#000000" font-family="sans-serif" font-size="14" lengthAdjust="spacing" textLength="131" x="336" y="213.1734">identifierKey:String</text><text fill="#000000" font-family="sans-serif" font-size="14" lengthAdjust="spacing" textLength="97" x="336" y="229.6617">context:String</text><text fill="#000000" font-family="sans-serif" font-size="14" lengthAdjust="spacing" textLength="81" x="336" y="246.15">value:String</text><text fill="#000000" font-family="sans-serif" font-size="14" lengthAdjust="spacing" textLength="83" x="336" y="262.6383">detail:String</text><text fill="#000000" font-family="sans-serif" font-size="14" lengthAdjust="spacing" textLength="140" x="336" y="279.1266">identifierType:String</text><text fill="#000000" font-family="sans-serif" font-size="14" lengthAdjust="spacing" textLength="175" x="336" y="295.6148">systemCodes:List&lt;Code&gt;</text><line style="stroke:#181818;stroke-width:0.5;" x1="331" x2="516" y1="302.568" y2="302.568"/></g><g id="elem_Money"><rect codeLine="19" fill="#F1F1F1" height="163.418" id="Money" rx="2.5" ry="2.5" style="stroke:#181818;stroke-width:0.5;" width="271" x="7" y="725.07"/><ellipse cx="115.75" cy="741.07" fill="#ADD1B2" rx="11" ry="11" style="stroke:#181818;stroke-width:1.0;"/><path d="M118.2231,747.2131 Q117.6421,747.5119 117.0029,747.6613 Q116.3638,747.8107 115.6582,747.8107 Q113.1514,747.8107 111.8315,746.1589 Q110.5117,744.507 110.5117,741.3859 Q110.5117,738.2565 111.8315,736.6047 Q113.1514,734.9528 115.6582,734.9528 Q116.3638,734.9528 117.0112,735.1022 Q117.6587,735.2516 118.2231,735.5505 L118.2231,738.2731 Q117.5923,737.6921 116.9988,737.4223 Q116.4053,737.1525 115.7744,737.1525 Q114.4297,737.1525 113.7449,738.2192 Q113.0601,739.2858 113.0601,741.3859 Q113.0601,743.4777 113.7449,744.5444 Q114.4297,745.611 115.7744,745.611 Q116.4053,745.611 116.9988,745.3412 Q117.5923,745.0715 118.2231,744.4904 Z " fill="#000000"/><text fill="#000000" font-family="sans-serif" font-size="14" lengthAdjust="spacing" textLength="45" x="136.25" y="746.361">Money</text><line style="stroke:#181818;stroke-width:0.5;" x1="8" x2="277" y1="757.07" y2="757.07"/><text fill="#000000" font-family="sans-serif" font-size="14" lengthAdjust="spacing" textLength="115" x="13" y="774.6052">moneyKey:String</text><text fill="#000000" font-family="sans-serif" font-size="14" lengthAdjust="spacing" textLength="104" x="13" y="791.0934">moneyId:String</text><text fill="#000000" font-family="sans-serif" font-size="14" lengthAdjust="spacing" textLength="140" x="13" y="807.5817">currencyCode:String</text><text fill="#000000" font-family="sans-serif" font-size="14" lengthAdjust="spacing" textLength="131" x="13" y="824.07">displayValue:String</text><text fill="#000000" font-family="sans-serif" font-size="14" lengthAdjust="spacing" textLength="85" x="13" y="840.5583">locale:String</text><text fill="#000000" font-family="sans-serif" font-size="14" lengthAdjust="spacing" textLength="81" x="13" y="857.0466">value:String</text><text fill="#000000" font-family="sans-serif" font-size="14" lengthAdjust="spacing" textLength="259" x="13" y="873.5348">currencyExchange:CurrencyExchange</text><line style="stroke:#181818;stroke-width:0.5;" x1="8" x2="277" y1="880.488" y2="880.488"/></g><g id="elem_Payment"><rect codeLine="28" fill="#F1F1F1" height="163.418" id="Payment" rx="2.5" ry="2.5" style="stroke:#181818;stroke-width:0.5;" width="347" x="295" y="1584.11"/><ellipse cx="435.25" cy="1600.11" fill="#ADD1B2" rx="11" ry="11" style="stroke:#181818;stroke-width:1.0;"/><path d="M437.7231,1606.2531 Q437.1421,1606.5519 436.5029,1606.7013 Q435.8638,1606.8507 435.1582,1606.8507 Q432.6514,1606.8507 431.3315,1605.1989 Q430.0117,1603.547 430.0117,1600.4259 Q430.0117,1597.2965 431.3315,1595.6447 Q432.6514,1593.9928 435.1582,1593.9928 Q435.8638,1593.9928 436.5112,1594.1422 Q437.1587,1594.2916 437.7231,1594.5905 L437.7231,1597.3131 Q437.0923,1596.7321 436.4988,1596.4623 Q435.9053,1596.1925 435.2744,1596.1925 Q433.9297,1596.1925 433.2449,1597.2592 Q432.5601,1598.3258 432.5601,1600.4259 Q432.5601,1602.5177 433.2449,1603.5844 Q433.9297,1604.651 435.2744,1604.651 Q435.9053,1604.651 436.4988,1604.3812 Q437.0923,1604.1115 437.7231,1603.5304 Z " fill="#000000"/><text fill="#000000" font-family="sans-serif" font-size="14" lengthAdjust="spacing" textLength="58" x="455.75" y="1605.401">Payment</text><line style="stroke:#181818;stroke-width:0.5;" x1="296" x2="641" y1="1616.11" y2="1616.11"/><text fill="#000000" font-family="sans-serif" font-size="14" lengthAdjust="spacing" textLength="117" x="301" y="1633.6452">paymentId:String</text><text fill="#000000" font-family="sans-serif" font-size="14" lengthAdjust="spacing" textLength="128" x="301" y="1650.1334">paymentKey:String</text><text fill="#000000" font-family="sans-serif" font-size="14" lengthAdjust="spacing" textLength="335" x="301" y="1666.6217">paymentTransactions:List&lt;PaymentTransaction&gt;</text><text fill="#000000" font-family="sans-serif" font-size="14" lengthAdjust="spacing" textLength="145" x="301" y="1683.11">targetAmount:Money</text><text fill="#000000" font-family="sans-serif" font-size="14" lengthAdjust="spacing" textLength="278" x="301" y="1699.5983">paymentStatusType:PaymentStatusTypes</text><text fill="#000000" font-family="sans-serif" font-size="14" lengthAdjust="spacing" textLength="97" x="301" y="1716.0866">context:String</text><text fill="#000000" font-family="sans-serif" font-size="14" lengthAdjust="spacing" textLength="176" x="301" y="1732.5748">occurrenceDateTime:Date</text><line style="stroke:#181818;stroke-width:0.5;" x1="296" x2="641" y1="1739.528" y2="1739.528"/></g><g id="elem_PaymentMethodReference"><rect codeLine="37" fill="#F1F1F1" height="179.9063" id="PaymentMethodReference" rx="2.5" ry="2.5" style="stroke:#181818;stroke-width:0.5;" width="310" x="313.5" y="716.82"/><ellipse cx="375.25" cy="732.82" fill="#ADD1B2" rx="11" ry="11" style="stroke:#181818;stroke-width:1.0;"/><path d="M377.7231,738.9631 Q377.1421,739.2619 376.5029,739.4113 Q375.8638,739.5607 375.1582,739.5607 Q372.6514,739.5607 371.3315,737.9089 Q370.0117,736.257 370.0117,733.1359 Q370.0117,730.0065 371.3315,728.3547 Q372.6514,726.7028 375.1582,726.7028 Q375.8638,726.7028 376.5112,726.8522 Q377.1587,727.0016 377.7231,727.3005 L377.7231,730.0231 Q377.0923,729.4421 376.4988,729.1723 Q375.9053,728.9025 375.2744,728.9025 Q373.9297,728.9025 373.2449,729.9692 Q372.5601,731.0358 372.5601,733.1359 Q372.5601,735.2277 373.2449,736.2944 Q373.9297,737.361 375.2744,737.361 Q375.9053,737.361 376.4988,737.0912 Q377.0923,736.8215 377.7231,736.2404 Z " fill="#000000"/><text fill="#000000" font-family="sans-serif" font-size="14" lengthAdjust="spacing" textLength="178" x="395.75" y="738.111">PaymentMethodReference</text><line style="stroke:#181818;stroke-width:0.5;" x1="314.5" x2="622.5" y1="748.82" y2="748.82"/><text fill="#000000" font-family="sans-serif" font-size="14" lengthAdjust="spacing" textLength="237" x="319.5" y="766.3552">paymentMethodReferenceId:String</text><text fill="#000000" font-family="sans-serif" font-size="14" lengthAdjust="spacing" textLength="248" x="319.5" y="782.8434">paymentMethodReferenceKey:String</text><text fill="#000000" font-family="sans-serif" font-size="14" lengthAdjust="spacing" textLength="180" x="319.5" y="799.3317">paymentMethodKey:String</text><text fill="#000000" font-family="sans-serif" font-size="14" lengthAdjust="spacing" textLength="97" x="319.5" y="815.82">context:String</text><text fill="#000000" font-family="sans-serif" font-size="14" lengthAdjust="spacing" textLength="298" x="319.5" y="832.3083">paymentMethodType:PaymentMethodTypes</text><text fill="#000000" font-family="sans-serif" font-size="14" lengthAdjust="spacing" textLength="188" x="319.5" y="848.7966">processorOptions:Identifier</text><text fill="#000000" font-family="sans-serif" font-size="14" lengthAdjust="spacing" textLength="175" x="319.5" y="865.2848">snapshotDetails:Identifier</text><text fill="#000000" font-family="sans-serif" font-size="14" lengthAdjust="spacing" textLength="176" x="319.5" y="881.7731">occurrenceDateTime:Date</text><line style="stroke:#181818;stroke-width:0.5;" x1="314.5" x2="622.5" y1="888.7262" y2="888.7262"/></g><g id="elem_PaymentTransaction"><rect codeLine="47" fill="#F1F1F1" height="146.9297" id="PaymentTransaction" rx="2.5" ry="2.5" style="stroke:#181818;stroke-width:0.5;" width="452" x="242.5" y="1270.01"/><ellipse cx="394.75" cy="1286.01" fill="#ADD1B2" rx="11" ry="11" style="stroke:#181818;stroke-width:1.0;"/><path d="M397.2231,1292.1531 Q396.6421,1292.4519 396.0029,1292.6013 Q395.3638,1292.7507 394.6582,1292.7507 Q392.1514,1292.7507 390.8315,1291.0989 Q389.5117,1289.447 389.5117,1286.3259 Q389.5117,1283.1965 390.8315,1281.5447 Q392.1514,1279.8928 394.6582,1279.8928 Q395.3638,1279.8928 396.0112,1280.0422 Q396.6587,1280.1916 397.2231,1280.4905 L397.2231,1283.2131 Q396.5923,1282.6321 395.9988,1282.3623 Q395.4053,1282.0925 394.7744,1282.0925 Q393.4297,1282.0925 392.7449,1283.1592 Q392.0601,1284.2258 392.0601,1286.3259 Q392.0601,1288.4177 392.7449,1289.4844 Q393.4297,1290.551 394.7744,1290.551 Q395.4053,1290.551 395.9988,1290.2812 Q396.5923,1290.0115 397.2231,1289.4304 Z " fill="#000000"/><text fill="#000000" font-family="sans-serif" font-size="14" lengthAdjust="spacing" textLength="139" x="415.25" y="1291.301">PaymentTransaction</text><line style="stroke:#181818;stroke-width:0.5;" x1="243.5" x2="693.5" y1="1302.01" y2="1302.01"/><text fill="#000000" font-family="sans-serif" font-size="14" lengthAdjust="spacing" textLength="183" x="248.5" y="1319.5452">paymentAmountKey:String</text><text fill="#000000" font-family="sans-serif" font-size="14" lengthAdjust="spacing" textLength="172" x="248.5" y="1336.0334">paymentAmountId:String</text><text fill="#000000" font-family="sans-serif" font-size="14" lengthAdjust="spacing" textLength="304" x="248.5" y="1352.5217">paymentAmountType:PaymentAmountTypes</text><text fill="#000000" font-family="sans-serif" font-size="14" lengthAdjust="spacing" textLength="361" x="248.5" y="1369.01">paymentMethodReference:PaymentMethodReference</text><text fill="#000000" font-family="sans-serif" font-size="14" lengthAdjust="spacing" textLength="102" x="248.5" y="1385.4983">amount:Money</text><text fill="#000000" font-family="sans-serif" font-size="14" lengthAdjust="spacing" textLength="440" x="248.5" y="1401.9866">paymentTransactionStatusType:PaymentTransactionStatusTypes</text><line style="stroke:#181818;stroke-width:0.5;" x1="243.5" x2="693.5" y1="1408.9397" y2="1408.9397"/></g><g id="elem_PaymentAmountTypes"><rect codeLine="55" fill="#FAFF91" height="410.7422" id="PaymentAmountTypes" rx="2.5" ry="2.5" style="stroke:#181818;stroke-width:0.5;" width="217" x="659" y="601.41"/><ellipse cx="688.4" cy="617.41" fill="#ADD1B2" rx="11" ry="11" style="stroke:#181818;stroke-width:1.0;"/><path d="M690.8731,623.5531 Q690.2921,623.8519 689.6529,624.0013 Q689.0138,624.1507 688.3082,624.1507 Q685.8014,624.1507 684.4815,622.4989 Q683.1617,620.847 683.1617,617.7259 Q683.1617,614.5965 684.4815,612.9447 Q685.8014,611.2928 688.3082,611.2928 Q689.0138,611.2928 689.6612,611.4422 Q690.3087,611.5916 690.8731,611.8905 L690.8731,614.6131 Q690.2423,614.0321 689.6488,613.7623 Q689.0553,613.4925 688.4244,613.4925 Q687.0797,613.4925 686.3949,614.5592 Q685.7101,615.6258 685.7101,617.7259 Q685.7101,619.8177 686.3949,620.8844 Q687.0797,621.951 688.4244,621.951 Q689.0553,621.951 689.6488,621.6812 Q690.2423,621.4115 690.8731,620.8304 Z " fill="#000000"/><text fill="#000000" font-family="sans-serif" font-size="14" lengthAdjust="spacing" textLength="153" x="705.6" y="622.701">PaymentAmountTypes</text><line style="stroke:#181818;stroke-width:0.5;" x1="660" x2="875" y1="633.41" y2="633.41"/><text fill="#000000" font-family="sans-serif" font-size="14" lengthAdjust="spacing" textLength="77" x="665" y="650.9452">ADMIN_FEE</text><text fill="#000000" font-family="sans-serif" font-size="14" lengthAdjust="spacing" textLength="158" x="665" y="667.4334">BASE_PAYMENT_EVENT</text><text fill="#000000" font-family="sans-serif" font-size="14" lengthAdjust="spacing" textLength="111" x="665" y="683.9217">CASH_PAYMENT</text><text fill="#000000" font-family="sans-serif" font-size="14" lengthAdjust="spacing" textLength="120" x="665" y="700.41">CHECK_PAYMENT</text><text fill="#000000" font-family="sans-serif" font-size="14" lengthAdjust="spacing" textLength="169" x="665" y="716.8983">CREDIT_CARD_PAYMENT</text><text fill="#000000" font-family="sans-serif" font-size="14" lengthAdjust="spacing" textLength="130" x="665" y="733.3866">DESIRED_PAYMENT</text><text fill="#000000" font-family="sans-serif" font-size="14" lengthAdjust="spacing" textLength="116" x="665" y="749.8748">DOWN_PAYMENT</text><text fill="#000000" font-family="sans-serif" font-size="14" lengthAdjust="spacing" textLength="98" x="665" y="766.3631">EFT_PAYMENT</text><text fill="#000000" font-family="sans-serif" font-size="14" lengthAdjust="spacing" textLength="127" x="665" y="782.8514">GOVERNMENT_FEE</text><text fill="#000000" font-family="sans-serif" font-size="14" lengthAdjust="spacing" textLength="65" x="665" y="799.3397">LATE_FEE</text><text fill="#000000" font-family="sans-serif" font-size="14" lengthAdjust="spacing" textLength="47" x="665" y="815.828">OTHER</text><text fill="#000000" font-family="sans-serif" font-size="14" lengthAdjust="spacing" textLength="119" x="665" y="832.3163">PARTIAL_REFUND</text><text fill="#000000" font-family="sans-serif" font-size="14" lengthAdjust="spacing" textLength="117" x="665" y="848.8045">PAYMENT_EVENT</text><text fill="#000000" font-family="sans-serif" font-size="14" lengthAdjust="spacing" textLength="61" x="665" y="865.2928">PAYROLL</text><text fill="#000000" font-family="sans-serif" font-size="14" lengthAdjust="spacing" textLength="205" x="665" y="881.7811">SCHEDULED_PAYMENT_EVENT</text><text fill="#000000" font-family="sans-serif" font-size="14" lengthAdjust="spacing" textLength="87" x="665" y="898.2694">SERVICE_FEE</text><text fill="#000000" font-family="sans-serif" font-size="14" lengthAdjust="spacing" textLength="123" x="665" y="914.7577">TOTAL_FINANCED</text><text fill="#000000" font-family="sans-serif" font-size="14" lengthAdjust="spacing" textLength="118" x="665" y="931.2459">TOTAL_INTEREST</text><text fill="#000000" font-family="sans-serif" font-size="14" lengthAdjust="spacing" textLength="119" x="665" y="947.7342">TOTAL_PAYMENT</text><text fill="#000000" font-family="sans-serif" font-size="14" lengthAdjust="spacing" textLength="123" x="665" y="964.2225">TOTAL_PRINCIPAL</text><text fill="#000000" font-family="sans-serif" font-size="14" lengthAdjust="spacing" textLength="108" x="665" y="980.7108">TOTAL_REFUND</text><text fill="#000000" font-family="sans-serif" font-size="14" lengthAdjust="spacing" textLength="159" x="665" y="997.1991">TRADE_IN_ALLOWANCE</text><line style="stroke:#181818;stroke-width:0.5;" x1="660" x2="875" y1="1004.1522" y2="1004.1522"/></g><g id="elem_PaymentMethodTypes"><rect codeLine="79" fill="#FAFF91" height="443.7188" id="PaymentMethodTypes" rx="2.5" ry="2.5" style="stroke:#181818;stroke-width:0.5;" width="216" x="551.5" y="7"/><ellipse cx="581.8" cy="23" fill="#ADD1B2" rx="11" ry="11" style="stroke:#181818;stroke-width:1.0;"/><path d="M584.2731,29.1431 Q583.6921,29.4419 583.0529,29.5913 Q582.4138,29.7407 581.7082,29.7407 Q579.2014,29.7407 577.8815,28.0889 Q576.5617,26.437 576.5617,23.3159 Q576.5617,20.1865 577.8815,18.5347 Q579.2014,16.8828 581.7082,16.8828 Q582.4138,16.8828 583.0612,17.0322 Q583.7087,17.1816 584.2731,17.4805 L584.2731,20.2031 Q583.6423,19.6221 583.0488,19.3523 Q582.4553,19.0825 581.8244,19.0825 Q580.4797,19.0825 579.7949,20.1492 Q579.1101,21.2158 579.1101,23.3159 Q579.1101,25.4077 579.7949,26.4744 Q580.4797,27.541 581.8244,27.541 Q582.4553,27.541 583.0488,27.2712 Q583.6423,27.0015 584.2731,26.4204 Z " fill="#000000"/><text fill="#000000" font-family="sans-serif" font-size="14" lengthAdjust="spacing" textLength="150" x="599.2" y="28.291">PaymentMethodTypes</text><line style="stroke:#181818;stroke-width:0.5;" x1="552.5" x2="766.5" y1="39" y2="39"/><text fill="#000000" font-family="sans-serif" font-size="14" lengthAdjust="spacing" textLength="38" x="557.5" y="56.5352">CASH</text><text fill="#000000" font-family="sans-serif" font-size="14" lengthAdjust="spacing" textLength="137" x="557.5" y="73.0234">CASH_ON_DELIVERY</text><text fill="#000000" font-family="sans-serif" font-size="14" lengthAdjust="spacing" textLength="47" x="557.5" y="89.5117">CHECK</text><text fill="#000000" font-family="sans-serif" font-size="14" lengthAdjust="spacing" textLength="96" x="557.5" y="106">CREDIT_CARD</text><text fill="#000000" font-family="sans-serif" font-size="14" lengthAdjust="spacing" textLength="131" x="557.5" y="122.4883">CRYPTOCURRENCY</text><text fill="#000000" font-family="sans-serif" font-size="14" lengthAdjust="spacing" textLength="85" x="557.5" y="138.9766">DEBIT_CARD</text><text fill="#000000" font-family="sans-serif" font-size="14" lengthAdjust="spacing" textLength="119" x="557.5" y="155.4648">DUE_ON_RECEIPT</text><text fill="#000000" font-family="sans-serif" font-size="14" lengthAdjust="spacing" textLength="25" x="557.5" y="171.9531">EFT</text><text fill="#000000" font-family="sans-serif" font-size="14" lengthAdjust="spacing" textLength="75" x="557.5" y="188.4414">EXCHANGE</text><text fill="#000000" font-family="sans-serif" font-size="14" lengthAdjust="spacing" textLength="60" x="557.5" y="204.9297">FINANCE</text><text fill="#000000" font-family="sans-serif" font-size="14" lengthAdjust="spacing" textLength="77" x="557.5" y="221.418">GIFT_CARD</text><text fill="#000000" font-family="sans-serif" font-size="14" lengthAdjust="spacing" textLength="41" x="557.5" y="237.9063">LEASE</text><text fill="#000000" font-family="sans-serif" font-size="14" lengthAdjust="spacing" textLength="110" x="557.5" y="254.3945">MOBILE_WALLET</text><text fill="#000000" font-family="sans-serif" font-size="14" lengthAdjust="spacing" textLength="104" x="557.5" y="270.8828">MONEY_ORDER</text><text fill="#000000" font-family="sans-serif" font-size="14" lengthAdjust="spacing" textLength="117" x="557.5" y="287.3711">NOT_APPLICABLE</text><text fill="#000000" font-family="sans-serif" font-size="14" lengthAdjust="spacing" textLength="172" x="557.5" y="303.8594">ONLINE_BANK_TRANSFER</text><text fill="#000000" font-family="sans-serif" font-size="14" lengthAdjust="spacing" textLength="204" x="557.5" y="320.3477">ONLINE_PAYMENT_PLATFORM</text><text fill="#000000" font-family="sans-serif" font-size="14" lengthAdjust="spacing" textLength="47" x="557.5" y="336.8359">OTHER</text><text fill="#000000" font-family="sans-serif" font-size="14" lengthAdjust="spacing" textLength="150" x="557.5" y="353.3242">PAYROLL_DEDUCTION</text><text fill="#000000" font-family="sans-serif" font-size="14" lengthAdjust="spacing" textLength="53" x="557.5" y="369.8125">RENTAL</text><text fill="#000000" font-family="sans-serif" font-size="14" lengthAdjust="spacing" textLength="115" x="557.5" y="386.3008">REWARD_POINTS</text><text fill="#000000" font-family="sans-serif" font-size="14" lengthAdjust="spacing" textLength="102" x="557.5" y="402.7891">STORE_CREDIT</text><text fill="#000000" font-family="sans-serif" font-size="14" lengthAdjust="spacing" textLength="46" x="557.5" y="419.2773">TERMS</text><text fill="#000000" font-family="sans-serif" font-size="14" lengthAdjust="spacing" textLength="67" x="557.5" y="435.7656">TRADE_IN</text><line style="stroke:#181818;stroke-width:0.5;" x1="552.5" x2="766.5" y1="442.7188" y2="442.7188"/></g><g id="elem_PaymentStatusTypes"><rect codeLine="105" fill="#FAFF91" height="361.2773" id="PaymentStatusTypes" rx="2.5" ry="2.5" style="stroke:#181818;stroke-width:0.5;" width="172" x="729.5" y="1162.83"/><ellipse cx="744.5" cy="1178.83" fill="#ADD1B2" rx="11" ry="11" style="stroke:#181818;stroke-width:1.0;"/><path d="M746.9731,1184.9731 Q746.3921,1185.2719 745.7529,1185.4213 Q745.1138,1185.5707 744.4082,1185.5707 Q741.9014,1185.5707 740.5815,1183.9189 Q739.2617,1182.267 739.2617,1179.1459 Q739.2617,1176.0165 740.5815,1174.3647 Q741.9014,1172.7128 744.4082,1172.7128 Q745.1138,1172.7128 745.7612,1172.8622 Q746.4087,1173.0116 746.9731,1173.3105 L746.9731,1176.0331 Q746.3423,1175.4521 745.7488,1175.1823 Q745.1553,1174.9125 744.5244,1174.9125 Q743.1797,1174.9125 742.4949,1175.9792 Q741.8101,1177.0458 741.8101,1179.1459 Q741.8101,1181.2377 742.4949,1182.3044 Q743.1797,1183.371 744.5244,1183.371 Q745.1553,1183.371 745.7488,1183.1012 Q746.3423,1182.8315 746.9731,1182.2504 Z " fill="#000000"/><text fill="#000000" font-family="sans-serif" font-size="14" lengthAdjust="spacing" textLength="140" x="758.5" y="1184.121">PaymentStatusTypes</text><line style="stroke:#181818;stroke-width:0.5;" x1="730.5" x2="900.5" y1="1194.83" y2="1194.83"/><text fill="#000000" font-family="sans-serif" font-size="14" lengthAdjust="spacing" textLength="80" x="735.5" y="1212.3652">CANCELLED</text><text fill="#000000" font-family="sans-serif" font-size="14" lengthAdjust="spacing" textLength="62" x="735.5" y="1228.8534">CLEARED</text><text fill="#000000" font-family="sans-serif" font-size="14" lengthAdjust="spacing" textLength="83" x="735.5" y="1245.3417">COMPLETED</text><text fill="#000000" font-family="sans-serif" font-size="14" lengthAdjust="spacing" textLength="64" x="735.5" y="1261.83">CREATED</text><text fill="#000000" font-family="sans-serif" font-size="14" lengthAdjust="spacing" textLength="70" x="735.5" y="1278.3183">DEFERRED</text><text fill="#000000" font-family="sans-serif" font-size="14" lengthAdjust="spacing" textLength="50" x="735.5" y="1294.8066">DENIED</text><text fill="#000000" font-family="sans-serif" font-size="14" lengthAdjust="spacing" textLength="56" x="735.5" y="1311.2948">EXPIRED</text><text fill="#000000" font-family="sans-serif" font-size="14" lengthAdjust="spacing" textLength="47" x="735.5" y="1327.7831">FAILED</text><text fill="#000000" font-family="sans-serif" font-size="14" lengthAdjust="spacing" textLength="104" x="735.5" y="1344.2714">FRAUD_REVIEW</text><text fill="#000000" font-family="sans-serif" font-size="14" lengthAdjust="spacing" textLength="64" x="735.5" y="1360.7597">INACTIVE</text><text fill="#000000" font-family="sans-serif" font-size="14" lengthAdjust="spacing" textLength="32" x="735.5" y="1377.248">PAID</text><text fill="#000000" font-family="sans-serif" font-size="14" lengthAdjust="spacing" textLength="86" x="735.5" y="1393.7363">PROCESSING</text><text fill="#000000" font-family="sans-serif" font-size="14" lengthAdjust="spacing" textLength="73" x="735.5" y="1410.2245">REFUNDED</text><text fill="#000000" font-family="sans-serif" font-size="14" lengthAdjust="spacing" textLength="66" x="735.5" y="1426.7128">REJECTED</text><text fill="#000000" font-family="sans-serif" font-size="14" lengthAdjust="spacing" textLength="73" x="735.5" y="1443.2011">RETURNED</text><text fill="#000000" font-family="sans-serif" font-size="14" lengthAdjust="spacing" textLength="81" x="735.5" y="1459.6894">SCHEDULED</text><text fill="#000000" font-family="sans-serif" font-size="14" lengthAdjust="spacing" textLength="78" x="735.5" y="1476.1777">SUBMITTED</text><text fill="#000000" font-family="sans-serif" font-size="14" lengthAdjust="spacing" textLength="82" x="735.5" y="1492.6659">SUCCEEDED</text><text fill="#000000" font-family="sans-serif" font-size="14" lengthAdjust="spacing" textLength="52" x="735.5" y="1509.1542">VOIDED</text><line style="stroke:#181818;stroke-width:0.5;" x1="730.5" x2="900.5" y1="1516.1073" y2="1516.1073"/></g><g id="elem_PaymentTransactionStatusTypes"><rect codeLine="126" fill="#FAFF91" height="592.1133" id="PaymentTransactionStatusTypes" rx="2.5" ry="2.5" style="stroke:#181818;stroke-width:0.5;" width="253" x="911" y="510.72"/><ellipse cx="926" cy="526.72" fill="#ADD1B2" rx="11" ry="11" style="stroke:#181818;stroke-width:1.0;"/><path d="M928.4731,532.8631 Q927.8921,533.1619 927.2529,533.3113 Q926.6138,533.4607 925.9082,533.4607 Q923.4014,533.4607 922.0815,531.8089 Q920.7617,530.157 920.7617,527.0359 Q920.7617,523.9065 922.0815,522.2547 Q923.4014,520.6028 925.9082,520.6028 Q926.6138,520.6028 927.2612,520.7522 Q927.9087,520.9016 928.4731,521.2005 L928.4731,523.9231 Q927.8423,523.3421 927.2488,523.0723 Q926.6553,522.8025 926.0244,522.8025 Q924.6797,522.8025 923.9949,523.8692 Q923.3101,524.9358 923.3101,527.0359 Q923.3101,529.1277 923.9949,530.1944 Q924.6797,531.261 926.0244,531.261 Q926.6553,531.261 927.2488,530.9912 Q927.8423,530.7215 928.4731,530.1404 Z " fill="#000000"/><text fill="#000000" font-family="sans-serif" font-size="14" lengthAdjust="spacing" textLength="221" x="940" y="532.011">PaymentTransactionStatusTypes</text><line style="stroke:#181818;stroke-width:0.5;" x1="912" x2="1163" y1="542.72" y2="542.72"/><text fill="#000000" font-family="sans-serif" font-size="14" lengthAdjust="spacing" textLength="79" x="917" y="560.2552">ACTIVATED</text><text fill="#000000" font-family="sans-serif" font-size="14" lengthAdjust="spacing" textLength="91" x="917" y="576.7434">ADMIN_HOLD</text><text fill="#000000" font-family="sans-serif" font-size="14" lengthAdjust="spacing" textLength="63" x="917" y="593.2317">APPROVE</text><text fill="#000000" font-family="sans-serif" font-size="14" lengthAdjust="spacing" textLength="79" x="917" y="609.72">AUTHORIZE</text><text fill="#000000" font-family="sans-serif" font-size="14" lengthAdjust="spacing" textLength="55" x="917" y="626.2083">CANCEL</text><text fill="#000000" font-family="sans-serif" font-size="14" lengthAdjust="spacing" textLength="74" x="917" y="642.6966">CAPTURED</text><text fill="#000000" font-family="sans-serif" font-size="14" lengthAdjust="spacing" textLength="44" x="917" y="659.1848">CLOSE</text><text fill="#000000" font-family="sans-serif" font-size="14" lengthAdjust="spacing" textLength="64" x="917" y="675.6731">CONFIRM</text><text fill="#000000" font-family="sans-serif" font-size="14" lengthAdjust="spacing" textLength="108" x="917" y="692.1614">CONFIRMATION</text><text fill="#000000" font-family="sans-serif" font-size="14" lengthAdjust="spacing" textLength="106" x="917" y="708.6497">CUSTOM_CODE</text><text fill="#000000" font-family="sans-serif" font-size="14" lengthAdjust="spacing" textLength="87" x="917" y="725.138">DEACTIVATE</text><text fill="#000000" font-family="sans-serif" font-size="14" lengthAdjust="spacing" textLength="57" x="917" y="741.6263">DECLINE</text><text fill="#000000" font-family="sans-serif" font-size="14" lengthAdjust="spacing" textLength="90" x="917" y="758.1145">DOWNGRADE</text><text fill="#000000" font-family="sans-serif" font-size="14" lengthAdjust="spacing" textLength="28" x="917" y="774.6028">DUE</text><text fill="#000000" font-family="sans-serif" font-size="14" lengthAdjust="spacing" textLength="56" x="917" y="791.0911">EXPIRED</text><text fill="#000000" font-family="sans-serif" font-size="14" lengthAdjust="spacing" textLength="110" x="917" y="807.5794">HOLD_ON_DATE</text><text fill="#000000" font-family="sans-serif" font-size="14" lengthAdjust="spacing" textLength="137" x="917" y="824.0677">HOLD_ON_RENEWAL</text><text fill="#000000" font-family="sans-serif" font-size="14" lengthAdjust="spacing" textLength="70" x="917" y="840.5559">INCURRED</text><text fill="#000000" font-family="sans-serif" font-size="14" lengthAdjust="spacing" textLength="39" x="917" y="857.0442">NONE</text><text fill="#000000" font-family="sans-serif" font-size="14" lengthAdjust="spacing" textLength="37" x="917" y="873.5325">OPEN</text><text fill="#000000" font-family="sans-serif" font-size="14" lengthAdjust="spacing" textLength="68" x="917" y="890.0208">OVERRIDE</text><text fill="#000000" font-family="sans-serif" font-size="14" lengthAdjust="spacing" textLength="153" x="917" y="906.5091">PARTIALLY_REFUNDED</text><text fill="#000000" font-family="sans-serif" font-size="14" lengthAdjust="spacing" textLength="66" x="917" y="922.9973">PAYMENT</text><text fill="#000000" font-family="sans-serif" font-size="14" lengthAdjust="spacing" textLength="36" x="917" y="939.4856">PEND</text><text fill="#000000" font-family="sans-serif" font-size="14" lengthAdjust="spacing" textLength="145" x="917" y="955.9739">PENDING_MERCHANT</text><text fill="#000000" font-family="sans-serif" font-size="14" lengthAdjust="spacing" textLength="62" x="917" y="972.4622">PROCESS</text><text fill="#000000" font-family="sans-serif" font-size="14" lengthAdjust="spacing" textLength="73" x="917" y="988.9505">REFUNDED</text><text fill="#000000" font-family="sans-serif" font-size="14" lengthAdjust="spacing" textLength="99" x="917" y="1005.4388">SUBSCRIPTION</text><text fill="#000000" font-family="sans-serif" font-size="14" lengthAdjust="spacing" textLength="80" x="917" y="1021.927">SUSPENDED</text><text fill="#000000" font-family="sans-serif" font-size="14" lengthAdjust="spacing" textLength="39" x="917" y="1038.4153">TRIAL</text><text fill="#000000" font-family="sans-serif" font-size="14" lengthAdjust="spacing" textLength="65" x="917" y="1054.9036">UPGRADE</text><text fill="#000000" font-family="sans-serif" font-size="14" lengthAdjust="spacing" textLength="80" x="917" y="1071.3919">USER_HOLD</text><text fill="#000000" font-family="sans-serif" font-size="14" lengthAdjust="spacing" textLength="34" x="917" y="1087.8802">VOID</text><line style="stroke:#181818;stroke-width:0.5;" x1="912" x2="1163" y1="1094.8333" y2="1094.8333"/></g><g id="link_CurrencyExchange_Money"><path codeLine="161" d="M142.5,310.85 C142.5,420.53 142.5,615.14 142.5,724.8 " fill="none" id="CurrencyExchange-Money" style="stroke:#181818;stroke-width:1.0;"/></g><g id="link_Identifier_PaymentMethodReference"><path codeLine="162" d="M429.83,310.85 C438.19,417.89 452.88,605.84 461.54,716.76 " fill="none" id="Identifier-PaymentMethodReference" style="stroke:#181818;stroke-width:1.0;"/></g><g id="link_Money_Payment"><path codeLine="163" d="M129.7,888.93 C111.83,1030.53 94.77,1326.46 224.5,1524.11 C242.34,1551.3 267.38,1573.85 294.67,1592.35 " fill="none" id="Money-Payment" style="stroke:#181818;stroke-width:1.0;"/></g><g id="link_Money_PaymentTransaction"><path codeLine="164" d="M180.48,888.74 C209.72,949.03 252.32,1032.69 295.5,1102.83 C331.21,1160.84 376.4,1223.13 411.64,1269.66 " fill="none" id="Money-PaymentTransaction" style="stroke:#181818;stroke-width:1.0;"/></g><g id="link_PaymentAmountTypes_PaymentTransaction"><path codeLine="165" d="M687.04,1012.61 C672.95,1043.39 657.6,1074.35 641.5,1102.83 C608.24,1161.69 563.39,1223.44 527.69,1269.51 " fill="none" id="PaymentAmountTypes-PaymentTransaction" style="stroke:#181818;stroke-width:1.0;"/></g><g id="link_PaymentMethodReference_PaymentTransaction"><path codeLine="166" d="M468.5,896.97 C468.5,1001.56 468.5,1172.91 468.5,1269.79 " fill="none" id="PaymentMethodReference-PaymentTransaction" style="stroke:#181818;stroke-width:1.0;"/></g><g id="link_PaymentMethodTypes_PaymentMethodReference"><path codeLine="167" d="M586.2,450.88 C555.53,543.35 521.64,645.56 498.12,716.45 " fill="none" id="PaymentMethodTypes-PaymentMethodReference" style="stroke:#181818;stroke-width:1.0;"/></g><g id="link_PaymentStatusTypes_Payment"><path codeLine="168" d="M729,1505.9 C723.72,1512.28 718.21,1518.39 712.5,1524.11 C690.31,1546.36 663.89,1566.3 636.76,1583.69 " fill="none" id="PaymentStatusTypes-Payment" style="stroke:#181818;stroke-width:1.0;"/></g><g id="link_PaymentTransactionStatusTypes_PaymentTransaction"><path codeLine="169" d="M910.56,1086.53 C905.09,1092.23 899.4,1097.68 893.5,1102.83 C829.33,1158.84 787.14,1123.69 711.5,1162.83 C655.12,1192.01 597.75,1233.74 552.92,1269.63 " fill="none" id="PaymentTransactionStatusTypes-PaymentTransaction" style="stroke:#181818;stroke-width:1.0;"/></g><g id="link_PaymentTransaction_Payment"><path codeLine="170" d="M468.5,1429.17 C468.5,1478.73 468.5,1532.42 468.5,1583.69 " fill="none" id="PaymentTransaction-backto-Payment" style="stroke:#181818;stroke-width:1.0;"/><polygon fill="#181818" points="468.5,1417.17,464.5,1423.17,468.5,1429.17,472.5,1423.17,468.5,1417.17" style="stroke:#181818;stroke-width:1.0;"/></g></g></svg>
