<svg xmlns="http://www.w3.org/2000/svg" xmlns:xlink="http://www.w3.org/1999/xlink" contentStyleType="text/css" data-diagram-type="STATE" height="1958px" preserveAspectRatio="none" style="width:674px;height:1958px;background:#FFFFFF;" version="1.1" viewBox="0 0 674 1958" width="674px" zoomAndPan="magnify"><title>Labor Operation Status</title><defs/><g><g class="title" data-source-line="9"><text fill="#808080" font-family="Arial" font-size="24" font-weight="bold" lengthAdjust="spacing" textLength="266.6953" x="196.8834" y="32.5117">Labor Operation Status</text></g><ellipse cx="440.47" cy="64.5977" fill="#222222" rx="10" ry="10" style="stroke:#222222;stroke-width:1;"/><g id="SCHEDULED"><rect fill="#F1F1F1" height="50" rx="12.5" ry="12.5" style="stroke:#181818;stroke-width:0.5;" width="100.8281" x="390.06" y="135.5977"/><line style="stroke:#181818;stroke-width:0.5;" x1="390.06" x2="490.8881" y1="162.0859" y2="162.0859"/><text fill="#000000" font-family="sans-serif" font-size="14" lengthAdjust="spacing" textLength="80.8281" x="400.06" y="154.1328">SCHEDULED</text></g><g id="DISPATCHED"><rect fill="#F1F1F1" height="50" rx="12.5" ry="12.5" style="stroke:#181818;stroke-width:0.5;" width="106.3584" x="237.29" y="262.5977"/><line style="stroke:#181818;stroke-width:0.5;" x1="237.29" x2="343.6484" y1="289.0859" y2="289.0859"/><text fill="#000000" font-family="sans-serif" font-size="14" lengthAdjust="spacing" textLength="86.3584" x="247.29" y="281.1328">DISPATCHED</text></g><g id="CANCELLED"><rect fill="#F1F1F1" height="50" rx="12.5" ry="12.5" style="stroke:#181818;stroke-width:0.5;" width="99.9668" x="412.49" y="1438.5977"/><line style="stroke:#181818;stroke-width:0.5;" x1="412.49" x2="512.4568" y1="1465.0859" y2="1465.0859"/><text fill="#000000" font-family="sans-serif" font-size="14" lengthAdjust="spacing" textLength="79.9668" x="422.49" y="1457.1328">CANCELLED</text></g><g id="EN_ROUTE"><rect fill="#F1F1F1" height="50" rx="12.5" ry="12.5" style="stroke:#181818;stroke-width:0.5;" width="90.7998" x="245.07" y="389.5977"/><line style="stroke:#181818;stroke-width:0.5;" x1="245.07" x2="335.8698" y1="416.0859" y2="416.0859"/><text fill="#000000" font-family="sans-serif" font-size="14" lengthAdjust="spacing" textLength="70.7998" x="255.07" y="408.1328">EN_ROUTE</text></g><g id="ARRIVED"><rect fill="#F1F1F1" height="50" rx="12.5" ry="12.5" style="stroke:#181818;stroke-width:0.5;" width="78.625" x="128.16" y="516.5977"/><line style="stroke:#181818;stroke-width:0.5;" x1="128.16" x2="206.785" y1="543.0859" y2="543.0859"/><text fill="#000000" font-family="sans-serif" font-size="14" lengthAdjust="spacing" textLength="58.625" x="138.16" y="535.1328">ARRIVED</text></g><g id="ON_SITE"><rect fill="#F1F1F1" height="50" rx="12.5" ry="12.5" style="stroke:#181818;stroke-width:0.5;" width="76.2324" x="288.36" y="516.5977"/><line style="stroke:#181818;stroke-width:0.5;" x1="288.36" x2="364.5924" y1="543.0859" y2="543.0859"/><text fill="#000000" font-family="sans-serif" font-size="14" lengthAdjust="spacing" textLength="56.2324" x="298.36" y="535.1328">ON_SITE</text></g><g id="ONBOARDING"><rect fill="#F1F1F1" height="50" rx="12.5" ry="12.5" style="stroke:#181818;stroke-width:0.5;" width="113.6387" x="174.65" y="643.5977"/><line style="stroke:#181818;stroke-width:0.5;" x1="174.65" x2="288.2887" y1="670.0859" y2="670.0859"/><text fill="#000000" font-family="sans-serif" font-size="14" lengthAdjust="spacing" textLength="93.6387" x="184.65" y="662.1328">ONBOARDING</text></g><g id="IN_TRANSIT"><rect fill="#F1F1F1" height="50" rx="12.5" ry="12.5" style="stroke:#181818;stroke-width:0.5;" width="99.5088" x="386.72" y="389.5977"/><line style="stroke:#181818;stroke-width:0.5;" x1="386.72" x2="486.2288" y1="416.0859" y2="416.0859"/><text fill="#000000" font-family="sans-serif" font-size="14" lengthAdjust="spacing" textLength="79.5088" x="396.72" y="408.1328">IN_TRANSIT</text></g><g id="ONBOARDED"><rect fill="#F1F1F1" height="50" rx="12.5" ry="12.5" style="stroke:#181818;stroke-width:0.5;" width="107.2197" x="177.86" y="770.5977"/><line style="stroke:#181818;stroke-width:0.5;" x1="177.86" x2="285.0797" y1="797.0859" y2="797.0859"/><text fill="#000000" font-family="sans-serif" font-size="14" lengthAdjust="spacing" textLength="87.2197" x="187.86" y="789.1328">ONBOARDED</text></g><g id="STAGED"><rect fill="#F1F1F1" height="50" rx="12.5" ry="12.5" style="stroke:#181818;stroke-width:0.5;" width="74.2432" x="113.35" y="897.5977"/><line style="stroke:#181818;stroke-width:0.5;" x1="113.35" x2="187.5932" y1="924.0859" y2="924.0859"/><text fill="#000000" font-family="sans-serif" font-size="14" lengthAdjust="spacing" textLength="54.2432" x="123.35" y="916.1328">STAGED</text></g><g id="PENDING"><rect fill="#F1F1F1" height="50" rx="12.5" ry="12.5" style="stroke:#181818;stroke-width:0.5;" width="80.6484" x="120.15" y="1024.5977"/><line style="stroke:#181818;stroke-width:0.5;" x1="120.15" x2="200.7984" y1="1051.0859" y2="1051.0859"/><text fill="#000000" font-family="sans-serif" font-size="14" lengthAdjust="spacing" textLength="60.6484" x="130.15" y="1043.1328">PENDING</text></g><g id="IN_PROGRESS"><rect fill="#F1F1F1" height="50" rx="12.5" ry="12.5" style="stroke:#181818;stroke-width:0.5;" width="110.4805" x="218.23" y="1151.5977"/><line style="stroke:#181818;stroke-width:0.5;" x1="218.23" x2="328.7105" y1="1178.0859" y2="1178.0859"/><text fill="#000000" font-family="sans-serif" font-size="14" lengthAdjust="spacing" textLength="90.4805" x="228.23" y="1170.1328">IN_PROGRESS</text></g><g id="DEFERRED"><rect fill="#F1F1F1" height="50" rx="12.5" ry="12.5" style="stroke:#181818;stroke-width:0.5;" width="88.9473" x="7" y="1231.5977"/><line style="stroke:#181818;stroke-width:0.5;" x1="7" x2="95.9473" y1="1258.0859" y2="1258.0859"/><text fill="#000000" font-family="sans-serif" font-size="14" lengthAdjust="spacing" textLength="68.9473" x="17" y="1250.1328">DEFERRED</text></g><g id="COMPLETED"><rect fill="#F1F1F1" height="50" rx="12.5" ry="12.5" style="stroke:#181818;stroke-width:0.5;" width="102.3389" x="111.3" y="1311.5977"/><line style="stroke:#181818;stroke-width:0.5;" x1="111.3" x2="213.6389" y1="1338.0859" y2="1338.0859"/><text fill="#000000" font-family="sans-serif" font-size="14" lengthAdjust="spacing" textLength="82.3389" x="121.3" y="1330.1328">COMPLETED</text></g><g id="ON_HOLD"><rect fill="#F1F1F1" height="50" rx="12.5" ry="12.5" style="stroke:#181818;stroke-width:0.5;" width="87.334" x="414.81" y="1311.5977"/><line style="stroke:#181818;stroke-width:0.5;" x1="414.81" x2="502.144" y1="1338.0859" y2="1338.0859"/><text fill="#000000" font-family="sans-serif" font-size="14" lengthAdjust="spacing" textLength="67.334" x="424.81" y="1330.1328">ON_HOLD</text></g><g id="READY_FOR_PICKUP"><rect fill="#F1F1F1" height="50" rx="12.5" ry="12.5" style="stroke:#181818;stroke-width:0.5;" width="154.5791" x="98.18" y="1438.5977"/><line style="stroke:#181818;stroke-width:0.5;" x1="98.18" x2="252.7591" y1="1465.0859" y2="1465.0859"/><text fill="#000000" font-family="sans-serif" font-size="14" lengthAdjust="spacing" textLength="134.5791" x="108.18" y="1457.1328">READY_FOR_PICKUP</text></g><g id="PENDING_PAYMENT"><rect fill="#F1F1F1" height="50" rx="12.5" ry="12.5" style="stroke:#181818;stroke-width:0.5;" width="152.6104" x="98.17" y="1565.5977"/><line style="stroke:#181818;stroke-width:0.5;" x1="98.17" x2="250.7804" y1="1592.0859" y2="1592.0859"/><text fill="#000000" font-family="sans-serif" font-size="14" lengthAdjust="spacing" textLength="132.6104" x="108.17" y="1584.1328">PENDING_PAYMENT</text></g><g id="OFFBOARDED"><rect fill="#F1F1F1" height="50" rx="12.5" ry="12.5" style="stroke:#181818;stroke-width:0.5;" width="111.8887" x="194.53" y="1692.5977"/><line style="stroke:#181818;stroke-width:0.5;" x1="194.53" x2="306.4187" y1="1719.0859" y2="1719.0859"/><text fill="#000000" font-family="sans-serif" font-size="14" lengthAdjust="spacing" textLength="91.8887" x="204.53" y="1711.1328">OFFBOARDED</text></g><g id="DEPARTED"><rect fill="#F1F1F1" height="50" rx="12.5" ry="12.5" style="stroke:#181818;stroke-width:0.5;" width="91.251" x="204.85" y="1819.5977"/><line style="stroke:#181818;stroke-width:0.5;" x1="204.85" x2="296.101" y1="1846.0859" y2="1846.0859"/><text fill="#000000" font-family="sans-serif" font-size="14" lengthAdjust="spacing" textLength="71.251" x="214.85" y="1838.1328">DEPARTED</text></g><ellipse cx="250.47" cy="1941.5977" fill="none" rx="11" ry="11" style="stroke:#222222;stroke-width:1;"/><ellipse cx="250.47" cy="1941.5977" fill="#222222" rx="6" ry="6" style="stroke:#222222;stroke-width:1;"/><!--link *start* to SCHEDULED--><g class="link" data-entity-1=".start." data-entity-2="SCHEDULED" data-source-line="10" data-uid="lnk4" id="link_.start._SCHEDULED"><path d="M440.47,74.9577 C440.47,88.8877 440.47,109.5477 440.47,129.2477" fill="none" id="*start*-to-SCHEDULED" style="stroke:#181818;stroke-width:1;"/><polygon fill="#181818" points="440.47,135.2477,444.47,126.2477,440.47,130.2477,436.47,126.2477,440.47,135.2477" style="stroke:#181818;stroke-width:1;"/></g><!--link SCHEDULED to DISPATCHED--><g class="link" data-entity-1="SCHEDULED" data-entity-2="DISPATCHED" data-source-line="11" data-uid="lnk6" id="link_SCHEDULED_DISPATCHED"><path d="M431.5,186.0877 C425.02,201.0477 415.02,219.7077 401.47,232.5977 C385.25,248.0377 369.2806,257.4712 349.5406,266.0712" fill="none" id="SCHEDULED-to-DISPATCHED" style="stroke:#181818;stroke-width:1;"/><polygon fill="#181818" points="344.04,268.4677,353.8886,268.5401,348.6239,266.4706,350.6933,261.2059,344.04,268.4677" style="stroke:#181818;stroke-width:1;"/><text fill="#000000" font-family="sans-serif" font-size="13" lengthAdjust="spacing" textLength="103.6318" x="416.54" y="229.166">Assign Resource</text></g><!--link DISPATCHED to SCHEDULED--><g class="link" data-entity-1="DISPATCHED" data-entity-2="SCHEDULED" data-source-line="14" data-uid="lnk11" id="link_DISPATCHED_SCHEDULED"><path d="M266.13,262.2677 C254.76,247.9077 245.83,229.8177 256.47,215.5977 C272.54,194.1477 335.2653,179.3828 383.9953,170.5928" fill="none" id="DISPATCHED-to-SCHEDULED" style="stroke:#181818;stroke-width:1;"/><polygon fill="#181818" points="389.9,169.5277,380.3329,167.1888,384.9794,170.4152,381.753,175.0618,389.9,169.5277" style="stroke:#181818;stroke-width:1;"/><text fill="#000000" font-family="sans-serif" font-size="13" lengthAdjust="spacing" textLength="135.5669" x="257.47" y="229.166">Unassign/Reschedule</text></g><!--link SCHEDULED to CANCELLED--><g class="link" data-entity-1="SCHEDULED" data-entity-2="CANCELLED" data-source-line="12" data-uid="lnk8" id="link_SCHEDULED_CANCELLED"><path d="M491.06,185.8877 C526.84,206.9677 568.47,241.2477 568.47,286.5977 C568.47,286.5977 568.47,286.5977 568.47,1337.5977 C568.47,1371.3577 562.37,1382.0777 541.47,1408.5977 C532.43,1420.0777 525.2332,1426.691 513.1732,1434.831" fill="none" id="SCHEDULED-to-CANCELLED" style="stroke:#181818;stroke-width:1;"/><polygon fill="#181818" points="508.2,1438.1877,517.8976,1436.4681,512.3443,1435.3904,513.422,1429.8372,508.2,1438.1877" style="stroke:#181818;stroke-width:1;"/><text fill="#000000" font-family="sans-serif" font-size="13" lengthAdjust="spacing" textLength="96.9922" x="569.47" y="800.666">Cancel Booking</text></g><!--link DISPATCHED to EN_ROUTE--><g class="link" data-entity-1="DISPATCHED" data-entity-2="EN_ROUTE" data-source-line="13" data-uid="lnk10" id="link_DISPATCHED_EN_ROUTE"><path d="M290.47,312.9977 C290.47,335.0177 290.47,361.2577 290.47,383.2577" fill="none" id="DISPATCHED-to-EN_ROUTE" style="stroke:#181818;stroke-width:1;"/><polygon fill="#181818" points="290.47,389.2577,294.47,380.2577,290.47,384.2577,286.47,380.2577,290.47,389.2577" style="stroke:#181818;stroke-width:1;"/><text fill="#000000" font-family="sans-serif" font-size="13" lengthAdjust="spacing" textLength="71.7856" x="291.47" y="356.166">Start Travel</text></g><!--link EN_ROUTE to ARRIVED--><g class="link" data-entity-1="EN_ROUTE" data-entity-2="ARRIVED" data-source-line="15" data-uid="lnk13" id="link_EN_ROUTE_ARRIVED"><path d="M244.68,432.3477 C226.32,441.0277 206.29,453.2977 192.47,469.5977 C181.24,482.8577 176.2952,495.665 172.8252,510.515" fill="none" id="EN_ROUTE-to-ARRIVED" style="stroke:#181818;stroke-width:1;"/><polygon fill="#181818" points="171.46,516.3577,177.4029,508.5039,172.5977,511.4888,169.6128,506.6836,171.46,516.3577" style="stroke:#181818;stroke-width:1;"/><text fill="#000000" font-family="sans-serif" font-size="13" lengthAdjust="spacing" textLength="95.2656" x="193.47" y="483.166">Enter Geofence</text></g><!--link EN_ROUTE to ON_SITE--><g class="link" data-entity-1="EN_ROUTE" data-entity-2="ON_SITE" data-source-line="16" data-uid="lnk15" id="link_EN_ROUTE_ON_SITE"><path d="M292.55,439.9677 C294.15,453.8377 296.89,471.4377 301.47,486.5977 C304.49,496.5877 306.4108,501.6947 310.7908,510.7647" fill="none" id="EN_ROUTE-to-ON_SITE" style="stroke:#181818;stroke-width:1;"/><polygon fill="#181818" points="313.4,516.1677,313.0883,506.3237,311.2257,511.6652,305.8843,509.8026,313.4,516.1677" style="stroke:#181818;stroke-width:1;"/><text fill="#000000" font-family="sans-serif" font-size="13" lengthAdjust="spacing" textLength="90.5938" x="302.47" y="483.166">Manual Arrival</text></g><!--link ON_SITE to ONBOARDING--><g class="link" data-entity-1="ON_SITE" data-entity-2="ONBOARDING" data-source-line="17" data-uid="lnk17" id="link_ON_SITE_ONBOARDING"><path d="M315.34,567.0377 C308.31,581.2677 298.5,599.1877 287.47,613.5977 C279.43,624.1077 273.7156,630.3823 264.3256,639.1923" fill="none" id="ON_SITE-to-ONBOARDING" style="stroke:#181818;stroke-width:1;"/><polygon fill="#181818" points="259.95,643.2977,269.2503,640.0567,263.5964,639.8765,263.7765,634.2225,259.95,643.2977" style="stroke:#181818;stroke-width:1;"/><text fill="#000000" font-family="sans-serif" font-size="13" lengthAdjust="spacing" textLength="91.2476" x="299.75" y="610.166">Start Check-in</text></g><!--link IN_TRANSIT to ON_SITE--><g class="link" data-entity-1="IN_TRANSIT" data-entity-2="ON_SITE" data-source-line="18" data-uid="lnk19" id="link_IN_TRANSIT_ON_SITE"><path d="M426.26,439.8677 C419.43,454.3777 409.5,472.6477 397.47,486.5977 C387.97,497.6277 380.6951,504.2713 369.1951,512.7713" fill="none" id="IN_TRANSIT-to-ON_SITE" style="stroke:#181818;stroke-width:1;"/><polygon fill="#181818" points="364.37,516.3377,373.9851,514.2048,368.3909,513.3657,369.23,507.7714,364.37,516.3377" style="stroke:#181818;stroke-width:1;"/><text fill="#000000" font-family="sans-serif" font-size="13" lengthAdjust="spacing" textLength="93.9072" x="410.34" y="483.166">Stop Transport</text></g><!--link ARRIVED to ONBOARDING--><g class="link" data-entity-1="ARRIVED" data-entity-2="ONBOARDING" data-source-line="19" data-uid="lnk20" id="link_ARRIVED_ONBOARDING"><path d="M160.92,567.0777 C158.42,581.3277 157.61,599.2377 164.47,613.5977 C170.02,625.1877 174.7198,631.3332 184.7298,639.3632" fill="none" id="ARRIVED-to-ONBOARDING" style="stroke:#181818;stroke-width:1;"/><polygon fill="#181818" points="189.41,643.1177,184.8927,634.3659,185.5098,639.989,179.8868,640.6061,189.41,643.1177" style="stroke:#181818;stroke-width:1;"/><text fill="#000000" font-family="sans-serif" font-size="13" lengthAdjust="spacing" textLength="117.2856" x="165.47" y="610.166">Initiate Handshake</text></g><!--link ONBOARDING to ONBOARDED--><g class="link" data-entity-1="ONBOARDING" data-entity-2="ONBOARDED" data-source-line="20" data-uid="lnk22" id="link_ONBOARDING_ONBOARDED"><path d="M231.47,693.9977 C231.47,716.0177 231.47,742.2577 231.47,764.2577" fill="none" id="ONBOARDING-to-ONBOARDED" style="stroke:#181818;stroke-width:1;"/><polygon fill="#181818" points="231.47,770.2577,235.47,761.2577,231.47,765.2577,227.47,761.2577,231.47,770.2577" style="stroke:#181818;stroke-width:1;"/><text fill="#000000" font-family="sans-serif" font-size="13" lengthAdjust="spacing" textLength="134.2148" x="232.47" y="737.166">Complete Handshake</text></g><!--link ONBOARDED to STAGED--><g class="link" data-entity-1="ONBOARDED" data-entity-2="STAGED" data-source-line="21" data-uid="lnk24" id="link_ONBOARDED_STAGED"><path d="M195.31,821.0977 C185.34,829.4177 175.38,839.4577 168.47,850.5977 C159.76,864.6477 156.2044,876.814 153.8844,891.214" fill="none" id="ONBOARDED-to-STAGED" style="stroke:#181818;stroke-width:1;"/><polygon fill="#181818" points="152.93,897.1377,158.3106,888.8885,153.7253,892.2013,150.4125,887.616,152.93,897.1377" style="stroke:#181818;stroke-width:1;"/><text fill="#000000" font-family="sans-serif" font-size="13" lengthAdjust="spacing" textLength="67.7168" x="169.47" y="864.166">Assign Bay</text></g><!--link ONBOARDED to PENDING--><g class="link" data-entity-1="ONBOARDED" data-entity-2="PENDING" data-source-line="22" data-uid="lnk26" id="link_ONBOARDED_PENDING"><path d="M240.29,820.8877 C252.92,860.0577 271.52,938.4577 241.47,994.5977 C232.7,1010.9877 221.7553,1020.3544 206.1453,1029.0244" fill="none" id="ONBOARDED-to-PENDING" style="stroke:#181818;stroke-width:1;"/><polygon fill="#181818" points="200.9,1031.9377,210.7101,1031.0646,205.2711,1029.5099,206.8257,1024.0709,200.9,1031.9377" style="stroke:#181818;stroke-width:1;"/><text fill="#000000" font-family="sans-serif" font-size="13" lengthAdjust="spacing" textLength="110.9824" x="258.67" y="927.666">Queue for Service</text></g><!--link STAGED to PENDING--><g class="link" data-entity-1="STAGED" data-entity-2="PENDING" data-source-line="23" data-uid="lnk27" id="link_STAGED_PENDING"><path d="M143.83,947.9877 C140.98,961.7277 138.84,979.1677 141.47,994.5977 C143.18,1004.5877 144.4299,1009.5809 147.8599,1018.7109" fill="none" id="STAGED-to-PENDING" style="stroke:#181818;stroke-width:1;"/><polygon fill="#181818" points="149.97,1024.3277,150.5493,1014.4959,148.2116,1019.6471,143.0604,1017.3093,149.97,1024.3277" style="stroke:#181818;stroke-width:1;"/><text fill="#000000" font-family="sans-serif" font-size="13" lengthAdjust="spacing" textLength="94.1167" x="142.47" y="991.166">Ready for Tech</text></g><!--link PENDING to IN_PROGRESS--><g class="link" data-entity-1="PENDING" data-entity-2="IN_PROGRESS" data-source-line="24" data-uid="lnk29" id="link_PENDING_IN_PROGRESS"><path d="M182.53,1074.9977 C202.44,1097.0177 227.5562,1124.807 247.4462,1146.807" fill="none" id="PENDING-to-IN_PROGRESS" style="stroke:#181818;stroke-width:1;"/><polygon fill="#181818" points="251.47,1151.2577,248.4014,1141.899,248.1168,1147.5487,242.4671,1147.2642,251.47,1151.2577" style="stroke:#181818;stroke-width:1;"/><text fill="#000000" font-family="sans-serif" font-size="13" lengthAdjust="spacing" textLength="50.9209" x="224.74" y="1118.166">Clock In</text></g><!--link PENDING to DEFERRED--><g class="link" data-entity-1="PENDING" data-entity-2="DEFERRED" data-source-line="25" data-uid="lnk31" id="link_PENDING_DEFERRED"><path d="M131.58,1074.9377 C122.62,1083.5877 113.31,1093.8677 106.47,1104.5977 C80.53,1145.3077 65.9706,1194.1207 58.3206,1225.2807" fill="none" id="PENDING-to-DEFERRED" style="stroke:#181818;stroke-width:1;"/><polygon fill="#181818" points="56.89,1231.1077,62.9205,1223.3209,58.0821,1226.2519,55.1512,1221.4135,56.89,1231.1077" style="stroke:#181818;stroke-width:1;"/><text fill="#000000" font-family="sans-serif" font-size="13" lengthAdjust="spacing" textLength="94.2754" x="107.47" y="1118.166">Postpone Work</text></g><!--link IN_PROGRESS to COMPLETED--><g class="link" data-entity-1="IN_PROGRESS" data-entity-2="COMPLETED" data-source-line="26" data-uid="lnk33" id="link_IN_PROGRESS_COMPLETED"><path d="M218.05,1184.2777 C188.27,1191.0077 153.97,1204.5077 135.47,1231.5977 C119.07,1255.6377 129.6431,1283.823 142.7831,1306.213" fill="none" id="IN_PROGRESS-to-COMPLETED" style="stroke:#181818;stroke-width:1;"/><polygon fill="#181818" points="145.82,1311.3877,144.7145,1301.601,143.2893,1307.0754,137.8149,1305.6502,145.82,1311.3877" style="stroke:#181818;stroke-width:1;"/><text fill="#000000" font-family="sans-serif" font-size="13" lengthAdjust="spacing" textLength="106.2026" x="136.47" y="1261.666">Clock Out/Finish</text></g><!--link IN_PROGRESS to ON_HOLD--><g class="link" data-entity-1="IN_PROGRESS" data-entity-2="ON_HOLD" data-source-line="27" data-uid="lnk35" id="link_IN_PROGRESS_ON_HOLD"><path d="M268.79,1201.8877 C265.8,1224.9677 265.37,1259.3777 283.47,1281.5977 C315,1320.2977 367.6978,1331.3758 408.3678,1334.5158" fill="none" id="IN_PROGRESS-to-ON_HOLD" style="stroke:#181818;stroke-width:1;"/><polygon fill="#181818" points="414.35,1334.9777,405.6846,1330.2967,409.3648,1334.5928,405.0688,1338.273,414.35,1334.9777" style="stroke:#181818;stroke-width:1;"/><text fill="#000000" font-family="sans-serif" font-size="13" lengthAdjust="spacing" textLength="130.5713" x="284.47" y="1261.666">Pause for Parts/Auth</text></g><!--link ON_HOLD to IN_PROGRESS--><g class="link" data-entity-1="ON_HOLD" data-entity-2="IN_PROGRESS" data-source-line="28" data-uid="lnk36" id="link_ON_HOLD_IN_PROGRESS"><path d="M455.28,1311.4377 C450.98,1288.1077 441.2,1253.2277 419.47,1231.5977 C395.25,1207.4777 365.1348,1195.447 334.9848,1187.997" fill="none" id="ON_HOLD-to-IN_PROGRESS" style="stroke:#181818;stroke-width:1;"/><polygon fill="#181818" points="329.16,1186.5577,336.9377,1192.5998,334.014,1187.7571,338.8567,1184.8334,329.16,1186.5577" style="stroke:#181818;stroke-width:1;"/><text fill="#000000" font-family="sans-serif" font-size="13" lengthAdjust="spacing" textLength="85.6743" x="448.42" y="1261.666">Resume Work</text></g><!--link ON_HOLD to CANCELLED--><g class="link" data-entity-1="ON_HOLD" data-entity-2="CANCELLED" data-source-line="29" data-uid="lnk37" id="link_ON_HOLD_CANCELLED"><path d="M459.25,1361.9977 C459.96,1384.0177 460.7992,1410.2607 461.4992,1432.2607" fill="none" id="ON_HOLD-to-CANCELLED" style="stroke:#181818;stroke-width:1;"/><polygon fill="#181818" points="461.69,1438.2577,465.4018,1429.135,461.531,1433.2602,457.4058,1429.3894,461.69,1438.2577" style="stroke:#181818;stroke-width:1;"/><text fill="#000000" font-family="sans-serif" font-size="13" lengthAdjust="spacing" textLength="71.4556" x="461.71" y="1405.166">Abort Work</text></g><!--link COMPLETED to READY_FOR_PICKUP--><g class="link" data-entity-1="COMPLETED" data-entity-2="READY_FOR_PICKUP" data-source-line="30" data-uid="lnk39" id="link_COMPLETED_READY_FOR_PICKUP"><path d="M165.01,1361.9977 C167.3,1384.0177 170.0288,1410.2899 172.3188,1432.2899" fill="none" id="COMPLETED-to-READY_FOR_PICKUP" style="stroke:#181818;stroke-width:1;"/><polygon fill="#181818" points="172.94,1438.2577,175.9867,1428.8919,172.4223,1433.2845,168.0297,1429.7201,172.94,1438.2577" style="stroke:#181818;stroke-width:1;"/><text fill="#000000" font-family="sans-serif" font-size="13" lengthAdjust="spacing" textLength="118.9233" x="170.75" y="1405.166">Quality Check Pass</text></g><!--link READY_FOR_PICKUP to PENDING_PAYMENT--><g class="link" data-entity-1="READY_FOR_PICKUP" data-entity-2="PENDING_PAYMENT" data-source-line="31" data-uid="lnk41" id="link_READY_FOR_PICKUP_PENDING_PAYMENT"><path d="M175.28,1488.9977 C175.1,1511.0177 174.8864,1537.2578 174.7164,1559.2578" fill="none" id="READY_FOR_PICKUP-to-PENDING_PAYMENT" style="stroke:#181818;stroke-width:1;"/><polygon fill="#181818" points="174.67,1565.2577,178.7394,1556.2888,174.7086,1560.2578,170.7397,1556.227,174.67,1565.2577" style="stroke:#181818;stroke-width:1;"/><text fill="#000000" font-family="sans-serif" font-size="13" lengthAdjust="spacing" textLength="96.4844" x="176.03" y="1532.166">Finalize Invoice</text></g><!--link READY_FOR_PICKUP to OFFBOARDED--><g class="link" data-entity-1="READY_FOR_PICKUP" data-entity-2="OFFBOARDED" data-source-line="32" data-uid="lnk43" id="link_READY_FOR_PICKUP_OFFBOARDED"><path d="M247.17,1489.0677 C260.39,1496.6177 272.76,1506.2977 281.47,1518.5977 C318.73,1571.1877 321.38,1602.3577 298.47,1662.5977 C294.28,1673.6177 290.7877,1679.4355 282.8677,1687.9455" fill="none" id="READY_FOR_PICKUP-to-OFFBOARDED" style="stroke:#181818;stroke-width:1;"/><polygon fill="#181818" points="278.78,1692.3377,287.8396,1688.4745,282.1864,1688.6775,281.9834,1683.0243,278.78,1692.3377" style="stroke:#181818;stroke-width:1;"/><text fill="#000000" font-family="sans-serif" font-size="13" lengthAdjust="spacing" textLength="87.8071" x="314.14" y="1595.666">Quick Release</text></g><!--link PENDING_PAYMENT to OFFBOARDED--><g class="link" data-entity-1="PENDING_PAYMENT" data-entity-2="OFFBOARDED" data-source-line="33" data-uid="lnk44" id="link_PENDING_PAYMENT_OFFBOARDED"><path d="M170.92,1615.9877 C169.98,1630.3577 170.89,1648.4477 178.47,1662.5977 C184.75,1674.3077 189.9954,1680.5804 200.6154,1688.5704" fill="none" id="PENDING_PAYMENT-to-OFFBOARDED" style="stroke:#181818;stroke-width:1;"/><polygon fill="#181818" points="205.41,1692.1777,200.6229,1683.5704,201.4145,1689.1716,195.8133,1689.9632,205.41,1692.1777" style="stroke:#181818;stroke-width:1;"/><text fill="#000000" font-family="sans-serif" font-size="13" lengthAdjust="spacing" textLength="114.4292" x="179.47" y="1659.166">Verify Transaction</text></g><!--link OFFBOARDED to DEPARTED--><g class="link" data-entity-1="OFFBOARDED" data-entity-2="DEPARTED" data-source-line="34" data-uid="lnk46" id="link_OFFBOARDED_DEPARTED"><path d="M250.47,1742.9977 C250.47,1765.0177 250.47,1791.2577 250.47,1813.2577" fill="none" id="OFFBOARDED-to-DEPARTED" style="stroke:#181818;stroke-width:1;"/><polygon fill="#181818" points="250.47,1819.2577,254.47,1810.2577,250.47,1814.2577,246.47,1810.2577,250.47,1819.2577" style="stroke:#181818;stroke-width:1;"/><text fill="#000000" font-family="sans-serif" font-size="13" lengthAdjust="spacing" textLength="86.3662" x="251.47" y="1786.166">Exit Geofence</text></g><!--link DEPARTED to *end*--><g class="link" data-entity-1="DEPARTED" data-entity-2=".end." data-source-line="35" data-uid="lnk48" id="link_DEPARTED_.end."><path d="M250.47,1870.0577 C250.47,1889.6377 250.47,1910.0877 250.47,1924.3977" fill="none" id="DEPARTED-to-*end*" style="stroke:#181818;stroke-width:1;"/><polygon fill="#181818" points="250.47,1930.3977,254.47,1921.3977,250.47,1925.3977,246.47,1921.3977,250.47,1930.3977" style="stroke:#181818;stroke-width:1;"/></g><!--link CANCELLED to *end*--><g class="link" data-entity-1="CANCELLED" data-entity-2=".end." data-source-line="36" data-uid="lnk49" id="link_CANCELLED_.end."><path d="M462.47,1489.0277 C462.47,1514.2277 462.47,1554.6577 462.47,1589.5977 C462.47,1589.5977 462.47,1589.5977 462.47,1845.5977 C462.47,1934.3277 311.91,1940.7122 267.87,1940.7522" fill="none" id="CANCELLED-to-*end*" style="stroke:#181818;stroke-width:1;"/><polygon fill="#181818" points="261.87,1940.7577,270.8736,1944.7495,266.87,1940.7531,270.8664,1936.7495,261.87,1940.7577" style="stroke:#181818;stroke-width:1;"/></g><!--link DEFERRED to *end*--><g class="link" data-entity-1="DEFERRED" data-entity-2=".end." data-source-line="37" data-uid="lnk50" id="link_DEFERRED_.end."><path d="M49.82,1281.8677 C48.04,1310.0477 45.47,1357.9177 45.47,1399.0977 C45.47,1399.0977 45.47,1399.0977 45.47,1845.5977 C45.47,1931.6977 190.1806,1939.9011 233.1606,1940.5211" fill="none" id="DEFERRED-to-*end*" style="stroke:#181818;stroke-width:1;"/><polygon fill="#181818" points="239.16,1940.6077,230.2186,1936.4783,234.1605,1940.5355,230.1032,1944.4774,239.16,1940.6077" style="stroke:#181818;stroke-width:1;"/></g><!--SRC=[RPJRYjim48RlzHI2tXMMBQKNPLaM54TEJBssLtQsBAK4rPcDXHqfI79eMlhkbUp4SGxa9inyC_FFGJQra5kk-GORootWlmZZ2I_hjLQjN0MgKVhniG2z4P8tJqyu5klAPaBMjxX82YjEs4m3IFGF8JCKAOHj85JITX7umzTF_dSBoCKVm9-_t78bV0EOQ5S9MM_3CV_bagLRqDmA9N7kMcaD-l7n9xwxUy9vCAVJHKodQFZNsQTHdf72c_039iQ8jSGCZ6fr2HTeG9A0nd571boMqE29KaxQ6esoU98cIvOk2kf09qDRN6Y-W-OIEwL_m0l9k-BthdXPmQfj00rfF4mOYruxb4eB6iz0lOCJSKwboJAFkiBFNBQySIFIOkU6T7Jqq2GbR1ebiq5WK45Ptmc9ecHPC98uzY9VRjNMzo7DLccBZdAkylNxTrSqvt9bAbu36lb7U3z7jTasS8i-pgWWi_5k9dn_GMGqEPH-QQ45_ExE80Uz4tw1VVGvne2lzXrMG5cXeyD3hlkCfJD6yzoBQrHPkuREa2aDAMETf4mPkrKIy7UbQpIExSubVSvYMlHjTfdIrjw7GWfJNS5kplCqxfBorlHDP6unvfwqja97zxL6Toxjvg1WJ8sFbRYNONla9Cf3Z9Bfsp9CsJABWc-Bh9iXRuJTzmVX91Y3hgZHE9SPUNkcIU4YG_zry0ysaZlbXtypBWt3q_PVMk6AC6Y06q2NAQ_mLz3YVTyV8I_zAqSZVx-SZB1-vFItiAT7CZWyvRu9w3IVesLOxC7m7m00]--></g></svg>