<?xml version="1.0" encoding="us-ascii" standalone="no"?><svg xmlns="http://www.w3.org/2000/svg" xmlns:xlink="http://www.w3.org/1999/xlink" contentStyleType="text/css" height="435px" preserveAspectRatio="none" style="width:2104px;height:435px;background:#FFFFFF;" version="1.1" viewBox="0 0 2104 435" width="2104px" zoomAndPan="magnify"><defs/><g><g id="elem_CurrencyExchange"><rect fill="#F1F1F1" height="36.4883" rx="2.5" ry="2.5" style="stroke:#181818;stroke-width:0.5;" width="149" x="7" y="103.49"/><text fill="#000000" font-family="sans-serif" font-size="14" lengthAdjust="spacing" textLength="129" x="17" y="127.0252">CurrencyExchange</text></g><g id="elem_EffectivePeriod"><rect fill="#F1F1F1" height="36.4883" rx="2.5" ry="2.5" style="stroke:#181818;stroke-width:0.5;" width="121" x="651" y="103.49"/><text fill="#000000" font-family="sans-serif" font-size="14" lengthAdjust="spacing" textLength="101" x="661" y="127.0252">EffectivePeriod</text></g><g id="elem_EventMessage"><rect fill="#F1F1F1" height="36.4883" rx="2.5" ry="2.5" style="stroke:#181818;stroke-width:0.5;" width="116" x="1766.5" y="199.98"/><text fill="#000000" font-family="sans-serif" font-size="14" lengthAdjust="spacing" textLength="96" x="1776.5" y="223.5152">EventMessage</text></g><g id="elem_Identifier"><rect fill="#F1F1F1" height="36.4883" rx="2.5" ry="2.5" style="stroke:#181818;stroke-width:0.5;" width="82" x="986.5" y="103.49"/><text fill="#000000" font-family="sans-serif" font-size="14" lengthAdjust="spacing" textLength="62" x="996.5" y="127.0252">Identifier</text></g><g id="elem_Locale"><rect fill="#F1F1F1" height="36.4883" rx="2.5" ry="2.5" style="stroke:#181818;stroke-width:0.5;" width="63" x="262" y="296.46"/><text fill="#000000" font-family="sans-serif" font-size="14" lengthAdjust="spacing" textLength="43" x="272" y="319.9952">Locale</text></g><g id="elem_PartIdentifier"><rect fill="#F1F1F1" height="36.4883" rx="2.5" ry="2.5" style="stroke:#181818;stroke-width:0.5;" width="109" x="1365" y="199.98"/><text fill="#000000" font-family="sans-serif" font-size="14" lengthAdjust="spacing" textLength="89" x="1375" y="223.5152">PartIdentifier</text></g><g id="elem_PartName"><rect fill="#F1F1F1" height="36.4883" rx="2.5" ry="2.5" style="stroke:#181818;stroke-width:0.5;" width="86" x="1664.5" y="103.49"/><text fill="#000000" font-family="sans-serif" font-size="14" lengthAdjust="spacing" textLength="66" x="1674.5" y="127.0252">PartName</text></g><g id="elem_PartyReference"><rect fill="#F1F1F1" height="36.4883" rx="2.5" ry="2.5" style="stroke:#181818;stroke-width:0.5;" width="122" x="650.5" y="199.98"/><text fill="#000000" font-family="sans-serif" font-size="14" lengthAdjust="spacing" textLength="102" x="660.5" y="223.5152">PartyReference</text></g><g id="elem_Price"><rect fill="#F1F1F1" height="36.4883" rx="2.5" ry="2.5" style="stroke:#181818;stroke-width:0.5;" width="53" x="456" y="199.98"/><text fill="#000000" font-family="sans-serif" font-size="14" lengthAdjust="spacing" textLength="33" x="466" y="223.5152">Price</text></g><g id="elem_PriceCriteria"><rect fill="#F1F1F1" height="36.4883" rx="2.5" ry="2.5" style="stroke:#181818;stroke-width:0.5;" width="104" x="659.5" y="392.95"/><text fill="#000000" font-family="sans-serif" font-size="14" lengthAdjust="spacing" textLength="84" x="669.5" y="416.4852">PriceCriteria</text></g><g id="elem_PriceCriteriaItem"><rect fill="#F1F1F1" height="36.4883" rx="2.5" ry="2.5" style="stroke:#181818;stroke-width:0.5;" width="134" x="1203.5" y="296.46"/><text fill="#000000" font-family="sans-serif" font-size="14" lengthAdjust="spacing" textLength="114" x="1213.5" y="319.9952">PriceCriteriaItem</text></g><g id="elem_TimeSlot"><rect fill="#F1F1F1" height="36.4883" rx="2.5" ry="2.5" style="stroke:#181818;stroke-width:0.5;" width="80" x="823.5" y="199.98"/><text fill="#000000" font-family="sans-serif" font-size="14" lengthAdjust="spacing" textLength="60" x="833.5" y="223.5152">TimeSlot</text></g><g id="elem_DaysOfWeekTypes"><rect fill="#FAFF91" height="36.4883" rx="2.5" ry="2.5" style="stroke:#181818;stroke-width:0.5;" width="144" x="807.5" y="103.49"/><text fill="#000000" font-family="sans-serif" font-size="14" lengthAdjust="spacing" textLength="124" x="817.5" y="127.0252">DaysOfWeekTypes</text></g><g id="elem_DurationUOMTypes"><rect fill="#FAFF91" height="36.4883" rx="2.5" ry="2.5" style="stroke:#181818;stroke-width:0.5;" width="153" x="635" y="7"/><text fill="#000000" font-family="sans-serif" font-size="14" lengthAdjust="spacing" textLength="133" x="645" y="30.5352">DurationUOMTypes</text></g><g id="elem_EventMessageTypes"><rect fill="#FAFF91" height="36.4883" rx="2.5" ry="2.5" style="stroke:#181818;stroke-width:0.5;" width="156" x="1785.5" y="103.49"/><text fill="#000000" font-family="sans-serif" font-size="14" lengthAdjust="spacing" textLength="136" x="1795.5" y="127.0252">EventMessageTypes</text></g><g id="elem_PartIdentifierTypes"><rect fill="#FAFF91" height="36.4883" rx="2.5" ry="2.5" style="stroke:#181818;stroke-width:0.5;" width="149" x="1481" y="103.49"/><text fill="#000000" font-family="sans-serif" font-size="14" lengthAdjust="spacing" textLength="129" x="1491" y="127.0252">PartIdentifierTypes</text></g><g id="elem_PartNameTypes"><rect fill="#FAFF91" height="36.4883" rx="2.5" ry="2.5" style="stroke:#181818;stroke-width:0.5;" width="126" x="1644.5" y="7"/><text fill="#000000" font-family="sans-serif" font-size="14" lengthAdjust="spacing" textLength="106" x="1654.5" y="30.5352">PartNameTypes</text></g><g id="elem_PartStatusTypes"><rect fill="#FAFF91" height="36.4883" rx="2.5" ry="2.5" style="stroke:#181818;stroke-width:0.5;" width="129" x="1317" y="103.49"/><text fill="#000000" font-family="sans-serif" font-size="14" lengthAdjust="spacing" textLength="109" x="1327" y="127.0252">PartStatusTypes</text></g><g id="elem_PartyRelationshipTypes"><rect fill="#FAFF91" height="36.4883" rx="2.5" ry="2.5" style="stroke:#181818;stroke-width:0.5;" width="179" x="437" y="103.49"/><text fill="#000000" font-family="sans-serif" font-size="14" lengthAdjust="spacing" textLength="159" x="447" y="127.0252">PartyRelationshipTypes</text></g><g id="elem_PartyTypes"><rect fill="#FAFF91" height="36.4883" rx="2.5" ry="2.5" style="stroke:#181818;stroke-width:0.5;" width="94" x="1082.5" y="199.98"/><text fill="#000000" font-family="sans-serif" font-size="14" lengthAdjust="spacing" textLength="74" x="1092.5" y="223.5152">PartyTypes</text></g><g id="elem_PayTypes"><rect fill="#FAFF91" height="36.4883" rx="2.5" ry="2.5" style="stroke:#181818;stroke-width:0.5;" width="83" x="191" y="103.49"/><text fill="#000000" font-family="sans-serif" font-size="14" lengthAdjust="spacing" textLength="63" x="201" y="127.0252">PayTypes</text></g><g id="elem_PaymentTypes"><rect fill="#FAFF91" height="36.4883" rx="2.5" ry="2.5" style="stroke:#181818;stroke-width:0.5;" width="118" x="1211.5" y="199.98"/><text fill="#000000" font-family="sans-serif" font-size="14" lengthAdjust="spacing" textLength="98" x="1221.5" y="223.5152">PaymentTypes</text></g><g id="elem_PriceTypes"><rect fill="#FAFF91" height="36.4883" rx="2.5" ry="2.5" style="stroke:#181818;stroke-width:0.5;" width="93" x="309" y="103.49"/><text fill="#000000" font-family="sans-serif" font-size="14" lengthAdjust="spacing" textLength="73" x="319" y="127.0252">PriceTypes</text></g><g id="elem_StaffRoleTypes"><rect fill="#FAFF91" height="36.4883" rx="2.5" ry="2.5" style="stroke:#181818;stroke-width:0.5;" width="121" x="1977" y="103.49"/><text fill="#000000" font-family="sans-serif" font-size="14" lengthAdjust="spacing" textLength="101" x="1987" y="127.0252">StaffRoleTypes</text></g><g id="elem_TimeslotDirectiveTypes"><rect fill="#FAFF91" height="36.4883" rx="2.5" ry="2.5" style="stroke:#181818;stroke-width:0.5;" width="178" x="1103.5" y="103.49"/><text fill="#000000" font-family="sans-serif" font-size="14" lengthAdjust="spacing" textLength="158" x="1113.5" y="127.0252">TimeslotDirectiveTypes</text></g><g id="link_CurrencyExchange_Price"><path d="M156.45,140.39 C247.13,161.76 395.13,196.63 455.54,210.87 " fill="none" id="CurrencyExchange-Price" style="stroke:#181818;stroke-width:1.0;"/></g><g id="link_CurrencyExchange_Locale"><path d="M109.9763,148.3911 C150.3663,184.7711 233.64,259.78 273.98,296.13 " fill="none" id="CurrencyExchange-backto-Locale" style="stroke:#181818;stroke-width:1.0;"/><polygon fill="#181818" points="101.06,140.36,102.8411,147.3477,109.9763,148.3911,108.1952,141.4034,101.06,140.36" style="stroke:#181818;stroke-width:1.0;"/></g><g id="link_DaysOfWeekTypes_TimeSlot"><path d="M876.57,140.06 C873.7,157 869.35,182.66 866.47,199.68 " fill="none" id="DaysOfWeekTypes-TimeSlot" style="stroke:#181818;stroke-width:1.0;"/></g><g id="link_DurationUOMTypes_EffectivePeriod"><path d="M711.5,43.57 C711.5,60.52 711.5,86.18 711.5,103.19 " fill="none" id="DurationUOMTypes-EffectivePeriod" style="stroke:#181818;stroke-width:1.0;"/></g><g id="link_EffectivePeriod_PartyReference"><path d="M711.5,140.06 C711.5,157 711.5,182.66 711.5,199.68 " fill="none" id="EffectivePeriod-PartyReference" style="stroke:#181818;stroke-width:1.0;"/></g><g id="link_EffectivePeriod_Price"><path d="M668.7,140.39 C621.96,159.68 548.57,189.96 509.34,206.15 " fill="none" id="EffectivePeriod-Price" style="stroke:#181818;stroke-width:1.0;"/></g><g id="link_EffectivePeriod_TimeSlot"><path d="M729.26,140.28 C752.95,157.2 793.9,182.66 824.67,199.6 " fill="none" id="EffectivePeriod-TimeSlot" style="stroke:#181818;stroke-width:1.0;"/></g><g id="link_TimeSlot_EffectivePeriod"><path d="M845.87,199.76 C822.17,182.82 781.05,157.25 750.21,140.28 " fill="none" id="TimeSlot-EffectivePeriod" style="stroke:#181818;stroke-width:1.0;"/></g><g id="link_EventMessageTypes_EventMessage"><path d="M1856.35,140.06 C1849.35,157 1838.76,182.66 1831.74,199.68 " fill="none" id="EventMessageTypes-EventMessage" style="stroke:#181818;stroke-width:1.0;"/></g><g id="link_EventMessage_PriceCriteria"><path d="M1754.7833,238.8355 C1666.4633,263.2355 1504.45,305.9 1354.5,332.95 C1136.8,372.23 873.92,396.76 763.9,406.01 " fill="none" id="EventMessage-backto-PriceCriteria" style="stroke:#181818;stroke-width:1.0;"/><polygon fill="#181818" points="1766.35,235.64,1759.5015,233.3822,1754.7833,238.8355,1761.6318,241.0933,1766.35,235.64" style="stroke:#181818;stroke-width:1.0;"/></g><g id="link_EventMessage_PriceCriteriaItem"><path d="M1754.4308,231.1676 C1650.9508,248.8176 1447.46,283.53 1337.81,302.23 " fill="none" id="EventMessage-backto-PriceCriteriaItem" style="stroke:#181818;stroke-width:1.0;"/><polygon fill="#181818" points="1766.26,229.15,1759.6729,226.2158,1754.4308,231.1676,1761.018,234.1019,1766.26,229.15" style="stroke:#181818;stroke-width:1.0;"/></g><g id="link_Identifier_PartyReference"><path d="M986.19,135.08 C931.15,151.54 833.42,180.76 770.6,199.55 " fill="none" id="Identifier-PartyReference" style="stroke:#181818;stroke-width:1.0;"/></g><g id="link_Identifier_PartIdentifier"><path d="M1080.5457,138.4606 C1086.4057,140.1206 1080.82,138.49 1086.5,139.98 C1201.67,170.02 1231.62,172.78 1347.5,199.98 C1353.13,201.3 1359.01,202.69 1364.87,204.08 " fill="none" id="Identifier-backto-PartIdentifier" style="stroke:#181818;stroke-width:1.0;"/><polygon fill="#181818" points="1069,135.19,1073.6826,140.6739,1080.5457,138.4606,1075.8631,132.9767,1069,135.19" style="stroke:#181818;stroke-width:1.0;"/></g><g id="link_Locale_PriceCriteria"><path d="M325.26,322.89 C396.8,339.06 571.15,378.47 659.03,398.34 " fill="none" id="Locale-PriceCriteria" style="stroke:#181818;stroke-width:1.0;"/></g><g id="link_PartIdentifierTypes_PartIdentifier"><path d="M1530.24,140.28 C1505.81,157.25 1469.01,182.82 1444.63,199.76 " fill="none" id="PartIdentifierTypes-PartIdentifier" style="stroke:#181818;stroke-width:1.0;"/></g><g id="link_PartIdentifier_PriceCriteriaItem"><path d="M1381.6861,243.1968 C1355.0061,260.1168 1324.99,279.15 1298.28,296.09 " fill="none" id="PartIdentifier-backto-PriceCriteriaItem" style="stroke:#181818;stroke-width:1.0;"/><polygon fill="#181818" points="1391.82,236.77,1384.6108,236.6054,1381.6861,243.1968,1388.8953,243.3614,1391.82,236.77" style="stroke:#181818;stroke-width:1.0;"/></g><g id="link_PartNameTypes_PartName"><path d="M1707.5,43.57 C1707.5,60.52 1707.5,86.18 1707.5,103.19 " fill="none" id="PartNameTypes-PartName" style="stroke:#181818;stroke-width:1.0;"/></g><g id="link_PartName_PartIdentifier"><path d="M1652.668,140.721 C1601.678,157.451 1528.48,181.46 1473.36,199.55 " fill="none" id="PartName-backto-PartIdentifier" style="stroke:#181818;stroke-width:1.0;"/><polygon fill="#181818" points="1664.07,136.98,1657.122,135.0499,1652.668,140.721,1659.616,142.6512,1664.07,136.98" style="stroke:#181818;stroke-width:1.0;"/></g><g id="link_PartName_PriceCriteriaItem"><path d="M1667.0467,146.3883 C1625.9467,170.1083 1559.89,206.7 1491.5,236.46 C1437.46,259.98 1373.74,281.64 1328.64,296 " fill="none" id="PartName-backto-PriceCriteriaItem" style="stroke:#181818;stroke-width:1.0;"/><polygon fill="#181818" points="1677.44,140.39,1670.2439,139.9247,1667.0467,146.3883,1674.2428,146.8536,1677.44,140.39" style="stroke:#181818;stroke-width:1.0;"/></g><g id="link_PartStatusTypes_PartIdentifier"><path d="M1388.47,140.06 C1395.28,157 1405.6,182.66 1412.45,199.68 " fill="none" id="PartStatusTypes-PartIdentifier" style="stroke:#181818;stroke-width:1.0;"/></g><g id="link_PartyReference_PriceCriteria"><path d="M711.5,248.84 C711.5,285.23 711.5,356.27 711.5,392.61 " fill="none" id="PartyReference-backto-PriceCriteria" style="stroke:#181818;stroke-width:1.0;"/><polygon fill="#181818" points="711.5,236.84,707.5,242.84,711.5,248.84,715.5,242.84,711.5,236.84" style="stroke:#181818;stroke-width:1.0;"/></g><g id="link_PartyRelationshipTypes_PartyReference"><path d="M571.5469,145.738 C604.6769,162.658 643.84,182.66 677.01,199.6 " fill="none" id="PartyRelationshipTypes-backto-PartyReference" style="stroke:#181818;stroke-width:1.0;"/><polygon fill="#181818" points="560.86,140.28,564.3841,146.5713,571.5469,145.738,568.0228,139.4467,560.86,140.28" style="stroke:#181818;stroke-width:1.0;"/></g><g id="link_PartyTypes_PriceCriteriaItem"><path d="M1165.6594,243.4491 C1190.9894,260.4191 1219.17,279.31 1244.45,296.25 " fill="none" id="PartyTypes-backto-PriceCriteriaItem" style="stroke:#181818;stroke-width:1.0;"/><polygon fill="#181818" points="1155.69,236.77,1158.4484,243.4327,1165.6594,243.4491,1162.9011,236.7864,1155.69,236.77" style="stroke:#181818;stroke-width:1.0;"/></g><g id="link_PayTypes_Price"><path d="M274.34,138.55 C325.91,158.04 412.04,190.59 455.57,207.04 " fill="none" id="PayTypes-Price" style="stroke:#181818;stroke-width:1.0;"/></g><g id="link_PaymentTypes_PriceCriteriaItem"><path d="M1270.5,248.55 C1270.5,265.49 1270.5,279.15 1270.5,296.17 " fill="none" id="PaymentTypes-backto-PriceCriteriaItem" style="stroke:#181818;stroke-width:1.0;"/><polygon fill="#181818" points="1270.5,236.55,1266.5,242.55,1270.5,248.55,1274.5,242.55,1270.5,236.55" style="stroke:#181818;stroke-width:1.0;"/></g><g id="link_Price_PriceCriteria"><path d="M503.63,236.84 C547.26,273.23 646.84,356.27 690.42,392.61 " fill="none" id="Price-PriceCriteria" style="stroke:#181818;stroke-width:1.0;"/></g><g id="link_Price_PriceCriteriaItem"><path d="M509.17,222.42 C618.99,235.59 1038.21,285.85 1203.21,305.64 " fill="none" id="Price-PriceCriteriaItem" style="stroke:#181818;stroke-width:1.0;"/></g><g id="link_PriceCriteriaItem_PriceCriteria"><path d="M1191.2377,329.1091 C1078.4277,348.1691 865.62,384.14 763.81,401.35 " fill="none" id="PriceCriteriaItem-backto-PriceCriteria" style="stroke:#181818;stroke-width:1.0;"/><polygon fill="#181818" points="1203.07,327.11,1196.4875,324.1655,1191.2377,329.1091,1197.8202,332.0537,1203.07,327.11" style="stroke:#181818;stroke-width:1.0;"/></g><g id="link_PriceTypes_Price"><path d="M388.7178,147.4428 C411.5278,164.4128 436.27,182.82 459.04,199.76 " fill="none" id="PriceTypes-backto-Price" style="stroke:#181818;stroke-width:1.0;"/><polygon fill="#181818" points="379.09,140.28,381.5163,147.0707,388.7178,147.4428,386.2915,140.6521,379.09,140.28" style="stroke:#181818;stroke-width:1.0;"/></g><g id="link_StaffRoleTypes_EventMessage"><path d="M1997.94,140.28 C1959.8,157.2 1902.4,182.66 1864.21,199.6 " fill="none" id="StaffRoleTypes-EventMessage" style="stroke:#181818;stroke-width:1.0;"/></g><g id="link_TimeslotDirectiveTypes_TimeSlot"><path d="M1119.4664,143.7029 C1053.0764,162.7729 960.75,189.29 903.95,205.6 " fill="none" id="TimeslotDirectiveTypes-backto-TimeSlot" style="stroke:#181818;stroke-width:1.0;"/><polygon fill="#181818" points="1131,140.39,1124.1289,138.2019,1119.4664,143.7029,1126.3375,145.891,1131,140.39" style="stroke:#181818;stroke-width:1.0;"/></g></g></svg>
