<?xml version="1.0" encoding="us-ascii" standalone="no"?><svg xmlns="http://www.w3.org/2000/svg" xmlns:xlink="http://www.w3.org/1999/xlink" contentStyleType="text/css" height="531px" preserveAspectRatio="none" style="width:4118px;height:531px;background:#FFFFFF;" version="1.1" viewBox="0 0 4118 531" width="4118px" zoomAndPan="magnify"><defs/><g><g id="elem_AddressReference"><rect fill="#F1F1F1" height="36.4883" rx="2.5" ry="2.5" style="stroke:#181818;stroke-width:0.5;" width="144" x="3296" y="199.98"/><text fill="#000000" font-family="sans-serif" font-size="14" lengthAdjust="spacing" textLength="124" x="3306" y="223.5152">AddressReference</text></g><g id="elem_ControlAccountReference"><rect fill="#F1F1F1" height="36.4883" rx="2.5" ry="2.5" style="stroke:#181818;stroke-width:0.5;" width="196" x="7" y="296.47"/><text fill="#000000" font-family="sans-serif" font-size="14" lengthAdjust="spacing" textLength="176" x="17" y="320.0052">ControlAccountReference</text></g><g id="elem_CreditReference"><rect fill="#F1F1F1" height="36.4883" rx="2.5" ry="2.5" style="stroke:#181818;stroke-width:0.5;" width="130" x="238" y="296.47"/><text fill="#000000" font-family="sans-serif" font-size="14" lengthAdjust="spacing" textLength="110" x="248" y="320.0052">CreditReference</text></g><g id="elem_CurrencyExchange"><rect fill="#F1F1F1" height="36.4883" rx="2.5" ry="2.5" style="stroke:#181818;stroke-width:0.5;" width="149" x="2386.5" y="103.49"/><text fill="#000000" font-family="sans-serif" font-size="14" lengthAdjust="spacing" textLength="129" x="2396.5" y="127.0252">CurrencyExchange</text></g><g id="elem_DiscountMetricValue"><rect fill="#F1F1F1" height="36.4883" rx="2.5" ry="2.5" style="stroke:#181818;stroke-width:0.5;" width="160" x="1420" y="199.98"/><text fill="#000000" font-family="sans-serif" font-size="14" lengthAdjust="spacing" textLength="140" x="1430" y="223.5152">DiscountMetricValue</text></g><g id="elem_DiscountReference"><rect fill="#F1F1F1" height="36.4883" rx="2.5" ry="2.5" style="stroke:#181818;stroke-width:0.5;" width="148" x="1676" y="296.47"/><text fill="#000000" font-family="sans-serif" font-size="14" lengthAdjust="spacing" textLength="128" x="1686" y="320.0052">DiscountReference</text></g><g id="elem_EffectivePeriod"><rect fill="#F1F1F1" height="36.4883" rx="2.5" ry="2.5" style="stroke:#181818;stroke-width:0.5;" width="121" x="2591.5" y="103.49"/><text fill="#000000" font-family="sans-serif" font-size="14" lengthAdjust="spacing" textLength="101" x="2601.5" y="127.0252">EffectivePeriod</text></g><g id="elem_EventMessage"><rect fill="#F1F1F1" height="36.4883" rx="2.5" ry="2.5" style="stroke:#181818;stroke-width:0.5;" width="116" x="3820" y="199.98"/><text fill="#000000" font-family="sans-serif" font-size="14" lengthAdjust="spacing" textLength="96" x="3830" y="223.5152">EventMessage</text></g><g id="elem_FeeReference"><rect fill="#F1F1F1" height="36.4883" rx="2.5" ry="2.5" style="stroke:#181818;stroke-width:0.5;" width="112" x="1037" y="296.47"/><text fill="#000000" font-family="sans-serif" font-size="14" lengthAdjust="spacing" textLength="92" x="1047" y="320.0052">FeeReference</text></g><g id="elem_FinancialCategoryReference"><rect fill="#F1F1F1" height="36.4883" rx="2.5" ry="2.5" style="stroke:#181818;stroke-width:0.5;" width="211" x="1184.5" y="296.47"/><text fill="#000000" font-family="sans-serif" font-size="14" lengthAdjust="spacing" textLength="191" x="1194.5" y="320.0052">FinancialCategoryReference</text></g><g id="elem_FinancialSplit"><rect fill="#F1F1F1" height="36.4883" rx="2.5" ry="2.5" style="stroke:#181818;stroke-width:0.5;" width="111" x="1444.5" y="392.95"/><text fill="#000000" font-family="sans-serif" font-size="14" lengthAdjust="spacing" textLength="91" x="1454.5" y="416.4852">FinancialSplit</text></g><g id="elem_Identifier"><rect fill="#F1F1F1" height="36.4883" rx="2.5" ry="2.5" style="stroke:#181818;stroke-width:0.5;" width="82" x="1196" y="103.49"/><text fill="#000000" font-family="sans-serif" font-size="14" lengthAdjust="spacing" textLength="62" x="1206" y="127.0252">Identifier</text></g><g id="elem_Locale"><rect fill="#F1F1F1" height="36.4883" rx="2.5" ry="2.5" style="stroke:#181818;stroke-width:0.5;" width="63" x="2573.5" y="199.98"/><text fill="#000000" font-family="sans-serif" font-size="14" lengthAdjust="spacing" textLength="43" x="2583.5" y="223.5152">Locale</text></g><g id="elem_PartIdentifier"><rect fill="#F1F1F1" height="36.4883" rx="2.5" ry="2.5" style="stroke:#181818;stroke-width:0.5;" width="109" x="3475.5" y="199.98"/><text fill="#000000" font-family="sans-serif" font-size="14" lengthAdjust="spacing" textLength="89" x="3485.5" y="223.5152">PartIdentifier</text></g><g id="elem_PartName"><rect fill="#F1F1F1" height="36.4883" rx="2.5" ry="2.5" style="stroke:#181818;stroke-width:0.5;" width="86" x="3679" y="103.49"/><text fill="#000000" font-family="sans-serif" font-size="14" lengthAdjust="spacing" textLength="66" x="3689" y="127.0252">PartName</text></g><g id="elem_PartyReference"><rect fill="#F1F1F1" height="36.4883" rx="2.5" ry="2.5" style="stroke:#181818;stroke-width:0.5;" width="122" x="2658" y="296.47"/><text fill="#000000" font-family="sans-serif" font-size="14" lengthAdjust="spacing" textLength="102" x="2668" y="320.0052">PartyReference</text></g><g id="elem_Price"><rect fill="#F1F1F1" height="36.4883" rx="2.5" ry="2.5" style="stroke:#181818;stroke-width:0.5;" width="53" x="2414.5" y="199.98"/><text fill="#000000" font-family="sans-serif" font-size="14" lengthAdjust="spacing" textLength="33" x="2424.5" y="223.5152">Price</text></g><g id="elem_PriceCriteria"><rect fill="#F1F1F1" height="36.4883" rx="2.5" ry="2.5" style="stroke:#181818;stroke-width:0.5;" width="104" x="2610" y="489.44"/><text fill="#000000" font-family="sans-serif" font-size="14" lengthAdjust="spacing" textLength="84" x="2620" y="512.9752">PriceCriteria</text></g><g id="elem_PriceCriteriaItem"><rect fill="#F1F1F1" height="36.4883" rx="2.5" ry="2.5" style="stroke:#181818;stroke-width:0.5;" width="134" x="3463" y="296.47"/><text fill="#000000" font-family="sans-serif" font-size="14" lengthAdjust="spacing" textLength="114" x="3473" y="320.0052">PriceCriteriaItem</text></g><g id="elem_RebateReference"><rect fill="#F1F1F1" height="36.4883" rx="2.5" ry="2.5" style="stroke:#181818;stroke-width:0.5;" width="135" x="2217.5" y="296.47"/><text fill="#000000" font-family="sans-serif" font-size="14" lengthAdjust="spacing" textLength="115" x="2227.5" y="320.0052">RebateReference</text></g><g id="elem_RewardReference"><rect fill="#F1F1F1" height="36.4883" rx="2.5" ry="2.5" style="stroke:#181818;stroke-width:0.5;" width="139" x="1430.5" y="296.47"/><text fill="#000000" font-family="sans-serif" font-size="14" lengthAdjust="spacing" textLength="119" x="1440.5" y="320.0052">RewardReference</text></g><g id="elem_TaxSplit"><rect fill="#F1F1F1" height="36.4883" rx="2.5" ry="2.5" style="stroke:#181818;stroke-width:0.5;" width="76" x="2071" y="296.47"/><text fill="#000000" font-family="sans-serif" font-size="14" lengthAdjust="spacing" textLength="56" x="2081" y="320.0052">TaxSplit</text></g><g id="elem_TimeSlot"><rect fill="#F1F1F1" height="36.4883" rx="2.5" ry="2.5" style="stroke:#181818;stroke-width:0.5;" width="80" x="3181" y="199.98"/><text fill="#000000" font-family="sans-serif" font-size="14" lengthAdjust="spacing" textLength="60" x="3191" y="223.5152">TimeSlot</text></g><g id="elem_AddressTypes"><rect fill="#FAFF91" height="36.4883" rx="2.5" ry="2.5" style="stroke:#181818;stroke-width:0.5;" width="116" x="3181" y="103.49"/><text fill="#000000" font-family="sans-serif" font-size="14" lengthAdjust="spacing" textLength="96" x="3191" y="127.0252">AddressTypes</text></g><g id="elem_DaysOfWeekTypes"><rect fill="#FAFF91" height="36.4883" rx="2.5" ry="2.5" style="stroke:#181818;stroke-width:0.5;" width="144" x="2789" y="103.49"/><text fill="#000000" font-family="sans-serif" font-size="14" lengthAdjust="spacing" textLength="124" x="2799" y="127.0252">DaysOfWeekTypes</text></g><g id="elem_DurationUOMTypes"><rect fill="#FAFF91" height="36.4883" rx="2.5" ry="2.5" style="stroke:#181818;stroke-width:0.5;" width="153" x="2575.5" y="7"/><text fill="#000000" font-family="sans-serif" font-size="14" lengthAdjust="spacing" textLength="133" x="2585.5" y="30.5352">DurationUOMTypes</text></g><g id="elem_EventMessageTypes"><rect fill="#FAFF91" height="36.4883" rx="2.5" ry="2.5" style="stroke:#181818;stroke-width:0.5;" width="156" x="3800" y="103.49"/><text fill="#000000" font-family="sans-serif" font-size="14" lengthAdjust="spacing" textLength="136" x="3810" y="127.0252">EventMessageTypes</text></g><g id="elem_FinancialTransactionTypes"><rect fill="#FAFF91" height="36.4883" rx="2.5" ry="2.5" style="stroke:#181818;stroke-width:0.5;" width="202" x="403" y="296.47"/><text fill="#000000" font-family="sans-serif" font-size="14" lengthAdjust="spacing" textLength="182" x="413" y="320.0052">FinancialTransactionTypes</text></g><g id="elem_IncentiveTypes"><rect fill="#FAFF91" height="36.4883" rx="2.5" ry="2.5" style="stroke:#181818;stroke-width:0.5;" width="121" x="2258.5" y="199.98"/><text fill="#000000" font-family="sans-serif" font-size="14" lengthAdjust="spacing" textLength="101" x="2268.5" y="223.5152">IncentiveTypes</text></g><g id="elem_LedgerActionTypes"><rect fill="#FAFF91" height="36.4883" rx="2.5" ry="2.5" style="stroke:#181818;stroke-width:0.5;" width="151" x="640.5" y="296.47"/><text fill="#000000" font-family="sans-serif" font-size="14" lengthAdjust="spacing" textLength="131" x="650.5" y="320.0052">LedgerActionTypes</text></g><g id="elem_OrderCategoryTypes"><rect fill="#FAFF91" height="36.4883" rx="2.5" ry="2.5" style="stroke:#181818;stroke-width:0.5;" width="162" x="1869" y="199.98"/><text fill="#000000" font-family="sans-serif" font-size="14" lengthAdjust="spacing" textLength="142" x="1879" y="223.5152">OrderCategoryTypes</text></g><g id="elem_PartIdentifierTypes"><rect fill="#FAFF91" height="36.4883" rx="2.5" ry="2.5" style="stroke:#181818;stroke-width:0.5;" width="149" x="3331.5" y="103.49"/><text fill="#000000" font-family="sans-serif" font-size="14" lengthAdjust="spacing" textLength="129" x="3341.5" y="127.0252">PartIdentifierTypes</text></g><g id="elem_PartNameTypes"><rect fill="#FAFF91" height="36.4883" rx="2.5" ry="2.5" style="stroke:#181818;stroke-width:0.5;" width="126" x="3659" y="7"/><text fill="#000000" font-family="sans-serif" font-size="14" lengthAdjust="spacing" textLength="106" x="3669" y="30.5352">PartNameTypes</text></g><g id="elem_PartStatusTypes"><rect fill="#FAFF91" height="36.4883" rx="2.5" ry="2.5" style="stroke:#181818;stroke-width:0.5;" width="129" x="3515.5" y="103.49"/><text fill="#000000" font-family="sans-serif" font-size="14" lengthAdjust="spacing" textLength="109" x="3525.5" y="127.0252">PartStatusTypes</text></g><g id="elem_PartyRelationshipTypes"><rect fill="#FAFF91" height="36.4883" rx="2.5" ry="2.5" style="stroke:#181818;stroke-width:0.5;" width="179" x="2742.5" y="199.98"/><text fill="#000000" font-family="sans-serif" font-size="14" lengthAdjust="spacing" textLength="159" x="2752.5" y="223.5152">PartyRelationshipTypes</text></g><g id="elem_PartyTypes"><rect fill="#FAFF91" height="36.4883" rx="2.5" ry="2.5" style="stroke:#181818;stroke-width:0.5;" width="94" x="3691" y="199.98"/><text fill="#000000" font-family="sans-serif" font-size="14" lengthAdjust="spacing" textLength="74" x="3701" y="223.5152">PartyTypes</text></g><g id="elem_PayTypes"><rect fill="#FAFF91" height="36.4883" rx="2.5" ry="2.5" style="stroke:#181818;stroke-width:0.5;" width="83" x="1325.5" y="103.49"/><text fill="#000000" font-family="sans-serif" font-size="14" lengthAdjust="spacing" textLength="63" x="1335.5" y="127.0252">PayTypes</text></g><g id="elem_PaymentTypes"><rect fill="#FAFF91" height="36.4883" rx="2.5" ry="2.5" style="stroke:#181818;stroke-width:0.5;" width="118" x="2957" y="199.98"/><text fill="#000000" font-family="sans-serif" font-size="14" lengthAdjust="spacing" textLength="98" x="2967" y="223.5152">PaymentTypes</text></g><g id="elem_PriceTypes"><rect fill="#FAFF91" height="36.4883" rx="2.5" ry="2.5" style="stroke:#181818;stroke-width:0.5;" width="93" x="2258.5" y="103.49"/><text fill="#000000" font-family="sans-serif" font-size="14" lengthAdjust="spacing" textLength="73" x="2268.5" y="127.0252">PriceTypes</text></g><g id="elem_ProductPriceItemTypes"><rect fill="#FAFF91" height="36.4883" rx="2.5" ry="2.5" style="stroke:#181818;stroke-width:0.5;" width="176" x="826" y="296.47"/><text fill="#000000" font-family="sans-serif" font-size="14" lengthAdjust="spacing" textLength="156" x="836" y="320.0052">ProductPriceItemTypes</text></g><g id="elem_ProductStateTypes"><rect fill="#FAFF91" height="36.4883" rx="2.5" ry="2.5" style="stroke:#181818;stroke-width:0.5;" width="147" x="1686.5" y="199.98"/><text fill="#000000" font-family="sans-serif" font-size="14" lengthAdjust="spacing" textLength="127" x="1696.5" y="223.5152">ProductStateTypes</text></g><g id="elem_StaffRoleTypes"><rect fill="#FAFF91" height="36.4883" rx="2.5" ry="2.5" style="stroke:#181818;stroke-width:0.5;" width="121" x="3991.5" y="103.49"/><text fill="#000000" font-family="sans-serif" font-size="14" lengthAdjust="spacing" textLength="101" x="4001.5" y="127.0252">StaffRoleTypes</text></g><g id="elem_TaxTypes"><rect fill="#FAFF91" height="36.4883" rx="2.5" ry="2.5" style="stroke:#181818;stroke-width:0.5;" width="86" x="2066" y="199.98"/><text fill="#000000" font-family="sans-serif" font-size="14" lengthAdjust="spacing" textLength="66" x="2076" y="223.5152">TaxTypes</text></g><g id="elem_TimeslotDirectiveTypes"><rect fill="#FAFF91" height="36.4883" rx="2.5" ry="2.5" style="stroke:#181818;stroke-width:0.5;" width="178" x="2968" y="103.49"/><text fill="#000000" font-family="sans-serif" font-size="14" lengthAdjust="spacing" textLength="158" x="2978" y="127.0252">TimeslotDirectiveTypes</text></g><g id="elem_UnitOfMeasureTypes"><rect fill="#FAFF91" height="36.4883" rx="2.5" ry="2.5" style="stroke:#181818;stroke-width:0.5;" width="162" x="1444" y="103.49"/><text fill="#000000" font-family="sans-serif" font-size="14" lengthAdjust="spacing" textLength="142" x="1454" y="127.0252">UnitOfMeasureTypes</text></g><g id="link_AddressReference_PartyReference"><path d="M3284.038,235.5056 C3278.008,236.5856 3283.81,235.51 3278,236.47 C3097.72,266.17 2883.43,293.59 2780.37,306.29 " fill="none" id="AddressReference-backto-PartyReference" style="stroke:#181818;stroke-width:1.0;"/><polygon fill="#181818" points="3295.85,233.39,3289.2388,230.5104,3284.038,235.5056,3290.6492,238.3851,3295.85,233.39" style="stroke:#181818;stroke-width:1.0;"/></g><g id="link_AddressTypes_AddressReference"><path d="M3272.6391,147.3733 C3295.8091,164.3533 3321.04,182.82 3344.17,199.76 " fill="none" id="AddressTypes-backto-AddressReference" style="stroke:#181818;stroke-width:1.0;"/><polygon fill="#181818" points="3262.96,140.28,3265.4351,147.053,3272.6391,147.3733,3270.164,140.6003,3262.96,140.28" style="stroke:#181818;stroke-width:1.0;"/></g><g id="link_ControlAccountReference_FinancialSplit"><path d="M203.42,331.05 C209.02,331.74 214.58,332.38 220,332.95 C691.88,382.47 1265.22,403.08 1444.02,408.59 " fill="none" id="ControlAccountReference-FinancialSplit" style="stroke:#181818;stroke-width:1.0;"/></g><g id="link_CreditReference_FinancialSplit"><path d="M380.014,332.3744 C385.684,333.3844 379.52,332.19 385,332.95 C788.6,389.1 1280.34,405.11 1444.03,409.05 " fill="none" id="CreditReference-backto-FinancialSplit" style="stroke:#181818;stroke-width:1.0;"/><polygon fill="#181818" points="368.2,330.27,373.4055,335.2602,380.014,332.3744,374.8085,327.3842,368.2,330.27" style="stroke:#181818;stroke-width:1.0;"/></g><g id="link_CurrencyExchange_Price"><path d="M2457.33,140.06 C2453.75,157.01 2448.31,182.67 2444.71,199.68 " fill="none" id="CurrencyExchange-Price" style="stroke:#181818;stroke-width:1.0;"/></g><g id="link_DaysOfWeekTypes_TimeSlot"><path d="M2928.29,140.39 C3002.47,159.86 3119.38,190.55 3180.59,206.61 " fill="none" id="DaysOfWeekTypes-TimeSlot" style="stroke:#181818;stroke-width:1.0;"/></g><g id="link_DiscountMetricValue_DiscountReference"><path d="M1557.955,241.1227 C1602.615,258.0027 1658.35,279.07 1703.08,295.97 " fill="none" id="DiscountMetricValue-backto-DiscountReference" style="stroke:#181818;stroke-width:1.0;"/><polygon fill="#181818" points="1546.73,236.88,1550.9283,242.743,1557.955,241.1227,1553.7567,235.2597,1546.73,236.88" style="stroke:#181818;stroke-width:1.0;"/></g><g id="link_DiscountReference_FinancialSplit"><path d="M1692.045,337.6127 C1647.385,354.4927 1591.65,375.56 1546.92,392.46 " fill="none" id="DiscountReference-backto-FinancialSplit" style="stroke:#181818;stroke-width:1.0;"/><polygon fill="#181818" points="1703.27,333.37,1696.2433,331.7497,1692.045,337.6127,1699.0717,339.233,1703.27,333.37" style="stroke:#181818;stroke-width:1.0;"/></g><g id="link_DurationUOMTypes_EffectivePeriod"><path d="M2652,43.57 C2652,60.52 2652,86.18 2652,103.19 " fill="none" id="DurationUOMTypes-EffectivePeriod" style="stroke:#181818;stroke-width:1.0;"/></g><g id="link_EffectivePeriod_DiscountReference"><path d="M2591.15,134.36 C2578.57,136.48 2565.38,138.48 2553,139.98 C2455.26,151.77 1736.22,128.04 1669,199.98 C1640.04,230.97 1688.52,272.74 1722.11,296.07 " fill="none" id="EffectivePeriod-DiscountReference" style="stroke:#181818;stroke-width:1.0;"/></g><g id="link_EffectivePeriod_PartyReference"><path d="M2712.77,132.34 C2832.27,151.39 3086.88,192.7 3093,199.98 C3179.65,303.13 2907.07,314.69 2780.24,314.68 " fill="none" id="EffectivePeriod-PartyReference" style="stroke:#181818;stroke-width:1.0;"/></g><g id="link_EffectivePeriod_Price"><path d="M2612.81,140.28 C2570.62,159.18 2504.64,188.72 2467.93,205.16 " fill="none" id="EffectivePeriod-Price" style="stroke:#181818;stroke-width:1.0;"/></g><g id="link_EffectivePeriod_RebateReference"><path d="M2629.81,140.3 C2598.77,164.29 2539.98,207.62 2485,236.47 C2438.2,261.02 2381.78,282.1 2340.82,296.01 " fill="none" id="EffectivePeriod-RebateReference" style="stroke:#181818;stroke-width:1.0;"/></g><g id="link_EffectivePeriod_TimeSlot"><path d="M2712.55,133.21 C2833.39,152.28 3095.04,191.47 3136.5,199.98 C3150.62,202.87 3166.22,206.84 3180.62,210.24 " fill="none" id="EffectivePeriod-TimeSlot" style="stroke:#181818;stroke-width:1.0;"/></g><g id="link_TimeSlot_EffectivePeriod"><path d="M3180.82,201.99 C3177.69,201.28 3174.56,200.6 3171.5,199.98 C3127.88,191.03 2840.54,148.11 2712.67,130.4 " fill="none" id="TimeSlot-EffectivePeriod" style="stroke:#181818;stroke-width:1.0;"/></g><g id="link_EventMessageTypes_EventMessage"><path d="M3878,140.06 C3878,157.01 3878,182.67 3878,199.68 " fill="none" id="EventMessageTypes-EventMessage" style="stroke:#181818;stroke-width:1.0;"/></g><g id="link_EventMessage_PriceCriteria"><path d="M3832.7247,242.3022 C3783.1347,267.0722 3699.1,306.61 3614,332.95 C3279.97,436.36 2859.84,486.46 2714.38,501.58 " fill="none" id="EventMessage-backto-PriceCriteria" style="stroke:#181818;stroke-width:1.0;"/><polygon fill="#181818" points="3843.46,236.94,3836.3049,236.0427,3832.7247,242.3022,3839.8798,243.1995,3843.46,236.94" style="stroke:#181818;stroke-width:1.0;"/></g><g id="link_EventMessage_PriceCriteriaItem"><path d="M3808.169,238.1832 C3746.159,255.0132 3659.82,278.46 3595.26,295.99 " fill="none" id="EventMessage-backto-PriceCriteriaItem" style="stroke:#181818;stroke-width:1.0;"/><polygon fill="#181818" points="3819.75,235.04,3812.9118,232.7512,3808.169,238.1832,3815.0072,240.4719,3819.75,235.04" style="stroke:#181818;stroke-width:1.0;"/></g><g id="link_FeeReference_FinancialSplit"><path d="M1160.8481,331.5182 C1166.8681,332.9182 1161.22,331.61 1167,332.95 C1264.4,355.6 1377.85,381.9 1444.02,397.23 " fill="none" id="FeeReference-backto-FinancialSplit" style="stroke:#181818;stroke-width:1.0;"/><polygon fill="#181818" points="1149.16,328.8,1154.098,334.0551,1160.8481,331.5182,1155.9101,326.263,1149.16,328.8" style="stroke:#181818;stroke-width:1.0;"/></g><g id="link_FinancialCategoryReference_FinancialSplit"><path d="M1339.9531,338.1844 C1377.5531,355.1044 1423.2,375.64 1460.85,392.58 " fill="none" id="FinancialCategoryReference-backto-FinancialSplit" style="stroke:#181818;stroke-width:1.0;"/><polygon fill="#181818" points="1329.01,333.26,1332.8401,339.3699,1339.9531,338.1844,1336.123,332.0745,1329.01,333.26" style="stroke:#181818;stroke-width:1.0;"/></g><g id="link_FinancialSplit_PriceCriteria"><path d="M1567.6105,417.6926 C1764.9905,433.7426 2417.98,486.84 2609.8,502.44 " fill="none" id="FinancialSplit-backto-PriceCriteria" style="stroke:#181818;stroke-width:1.0;"/><polygon fill="#181818" points="1555.65,416.72,1561.3061,421.1931,1567.6105,417.6926,1561.9545,413.2194,1555.65,416.72" style="stroke:#181818;stroke-width:1.0;"/></g><g id="link_FinancialTransactionTypes_FinancialSplit"><path d="M605.22,330.77 C611.23,331.54 617.19,332.28 623,332.95 C932.53,368.98 1305.27,396.62 1444.23,406.38 " fill="none" id="FinancialTransactionTypes-FinancialSplit" style="stroke:#181818;stroke-width:1.0;"/></g><g id="link_Identifier_ControlAccountReference"><path d="M1195.72,127.65 C1103.29,138.84 872.73,167.76 681,199.98 C504.08,229.71 298.18,272.32 186.76,296.04 " fill="none" id="Identifier-ControlAccountReference" style="stroke:#181818;stroke-width:1.0;"/></g><g id="link_Identifier_CreditReference"><path d="M1195.75,131.05 C1072.56,155.91 696.54,231.95 385,296.47 C379.59,297.59 373.97,298.75 368.34,299.93 " fill="none" id="Identifier-CreditReference" style="stroke:#181818;stroke-width:1.0;"/></g><g id="link_Identifier_DiscountReference"><path d="M1257.2,140.44 C1287.01,165.62 1345.49,211.48 1403,236.47 C1492.44,275.32 1603.65,295.64 1675.7,305.5 " fill="none" id="Identifier-DiscountReference" style="stroke:#181818;stroke-width:1.0;"/></g><g id="link_Identifier_FeeReference"><path d="M1223.71,140.36 C1196.28,176.74 1133.66,259.78 1106.26,296.13 " fill="none" id="Identifier-FeeReference" style="stroke:#181818;stroke-width:1.0;"/></g><g id="link_Identifier_FinancialCategoryReference"><path d="M1223.12,140.15 C1206.81,162.86 1183.78,203.59 1199,236.47 C1211.01,262.42 1236.52,282.84 1257.48,296.15 " fill="none" id="Identifier-FinancialCategoryReference" style="stroke:#181818;stroke-width:1.0;"/></g><g id="link_Identifier_PartyReference"><path d="M1278.41,134.22 C1288.05,136.49 1298.33,138.6 1308,139.98 C1456.21,161.08 2526.22,121.98 2654,199.98 C2689.33,221.54 2707.28,269.93 2714.7,296.1 " fill="none" id="Identifier-PartyReference" style="stroke:#181818;stroke-width:1.0;"/></g><g id="link_Identifier_RebateReference"><path d="M1278.44,134.04 C1288.08,136.32 1298.35,138.48 1308,139.98 C1497.53,169.38 1994.07,121.32 2169,199.98 C2215.82,221.03 2254.7,269.63 2273.26,295.97 " fill="none" id="Identifier-RebateReference" style="stroke:#181818;stroke-width:1.0;"/></g><g id="link_Identifier_RewardReference"><path d="M1237.25,140.2 C1238.54,164.88 1244.52,209.91 1270,236.47 C1292.45,259.87 1371.12,283.07 1430.25,297.84 " fill="none" id="Identifier-RewardReference" style="stroke:#181818;stroke-width:1.0;"/></g><g id="link_Identifier_Locale"><path d="M1290.0978,136.932 C1299.7378,139.212 1298.33,138.57 1308,139.98 C1826.32,215.45 1963.66,149.34 2485,199.98 C2514.96,202.89 2548.89,207.93 2573.01,211.81 " fill="none" id="Identifier-backto-Locale" style="stroke:#181818;stroke-width:1.0;"/><polygon fill="#181818" points="1278.42,134.17,1283.3383,139.4436,1290.0978,136.932,1285.1796,131.6584,1278.42,134.17" style="stroke:#181818;stroke-width:1.0;"/></g><g id="link_Identifier_PartIdentifier"><path d="M1290.0712,137.0778 C1299.7212,139.3478 1298.32,138.68 1308,139.98 C2255.48,266.82 2510.32,74.65 3458,199.98 C3463.61,200.72 3469.41,201.71 3475.18,202.86 " fill="none" id="Identifier-backto-PartIdentifier" style="stroke:#181818;stroke-width:1.0;"/><polygon fill="#181818" points="1278.39,134.33,1283.3146,139.5976,1290.0712,137.0778,1285.1465,131.8102,1278.39,134.33" style="stroke:#181818;stroke-width:1.0;"/></g><g id="link_IncentiveTypes_RebateReference"><path d="M2312.76,236.55 C2306.67,253.49 2297.43,279.15 2291.31,296.17 " fill="none" id="IncentiveTypes-RebateReference" style="stroke:#181818;stroke-width:1.0;"/></g><g id="link_LedgerActionTypes_FinancialSplit"><path d="M791.8,330.23 C797.61,331.2 803.4,332.12 809,332.95 C1044.23,367.86 1326.62,394.79 1444.29,405.34 " fill="none" id="LedgerActionTypes-FinancialSplit" style="stroke:#181818;stroke-width:1.0;"/></g><g id="link_Locale_PartyReference"><path d="M2626.18,236.77 C2646.65,253.74 2677.5,279.31 2697.94,296.25 " fill="none" id="Locale-PartyReference" style="stroke:#181818;stroke-width:1.0;"/></g><g id="link_Locale_PriceCriteria"><path d="M2608.48,236.77 C2618.66,288.09 2648.28,437.51 2658.49,489 " fill="none" id="Locale-PriceCriteria" style="stroke:#181818;stroke-width:1.0;"/></g><g id="link_OrderCategoryTypes_DiscountReference"><path d="M1902.0002,241.8965 C1866.1902,258.8165 1823.15,279.15 1787.29,296.09 " fill="none" id="OrderCategoryTypes-backto-DiscountReference" style="stroke:#181818;stroke-width:1.0;"/><polygon fill="#181818" points="1912.85,236.77,1905.7162,235.7166,1902.0002,241.8965,1909.1339,242.9499,1912.85,236.77" style="stroke:#181818;stroke-width:1.0;"/></g><g id="link_OrderCategoryTypes_RebateReference"><path d="M2012.62,236.88 C2072.46,253.76 2162.19,279.07 2222.12,295.97 " fill="none" id="OrderCategoryTypes-RebateReference" style="stroke:#181818;stroke-width:1.0;"/></g><g id="link_PartIdentifierTypes_PartIdentifier"><path d="M3429.03,140.28 C3451.31,157.26 3484.86,182.82 3507.09,199.76 " fill="none" id="PartIdentifierTypes-PartIdentifier" style="stroke:#181818;stroke-width:1.0;"/></g><g id="link_PartIdentifier_PriceCriteriaItem"><path d="M3530,248.55 C3530,265.49 3530,279.15 3530,296.17 " fill="none" id="PartIdentifier-backto-PriceCriteriaItem" style="stroke:#181818;stroke-width:1.0;"/><polygon fill="#181818" points="3530,236.55,3526,242.55,3530,248.55,3534,242.55,3530,236.55" style="stroke:#181818;stroke-width:1.0;"/></g><g id="link_PartNameTypes_PartName"><path d="M3722,43.57 C3722,60.52 3722,86.18 3722,103.19 " fill="none" id="PartNameTypes-PartName" style="stroke:#181818;stroke-width:1.0;"/></g><g id="link_PartName_PartIdentifier"><path d="M3675.5733,145.5788 C3641.1933,162.4988 3600.22,182.66 3565.8,199.6 " fill="none" id="PartName-backto-PartIdentifier" style="stroke:#181818;stroke-width:1.0;"/><polygon fill="#181818" points="3686.34,140.28,3679.1904,139.3405,3675.5733,145.5788,3682.7229,146.5183,3686.34,140.28" style="stroke:#181818;stroke-width:1.0;"/></g><g id="link_PartName_PriceCriteriaItem"><path d="M3695.7715,148.822 C3659.1915,185.202 3584.22,259.78 3547.68,296.13 " fill="none" id="PartName-backto-PriceCriteriaItem" style="stroke:#181818;stroke-width:1.0;"/><polygon fill="#181818" points="3704.28,140.36,3697.2051,141.7548,3695.7715,148.822,3702.8464,147.4272,3704.28,140.36" style="stroke:#181818;stroke-width:1.0;"/></g><g id="link_PartStatusTypes_PartIdentifier"><path d="M3570.83,140.06 C3561.86,157.01 3548.29,182.67 3539.28,199.68 " fill="none" id="PartStatusTypes-PartIdentifier" style="stroke:#181818;stroke-width:1.0;"/></g><g id="link_PartyReference_FinancialSplit"><path d="M2645.7459,321.3875 C2435.4959,337.6875 1757.28,390.25 1555.73,405.88 " fill="none" id="PartyReference-backto-FinancialSplit" style="stroke:#181818;stroke-width:1.0;"/><polygon fill="#181818" points="2657.71,320.46,2651.4188,316.9357,2645.7459,321.3875,2652.0371,324.9118,2657.71,320.46" style="stroke:#181818;stroke-width:1.0;"/></g><g id="link_PartyReference_PriceCriteria"><path d="M2710.3084,344.8289 C2699.4484,381.2189 2678.1,452.76 2667.25,489.1 " fill="none" id="PartyReference-backto-PriceCriteria" style="stroke:#181818;stroke-width:1.0;"/><polygon fill="#181818" points="2713.74,333.33,2708.1912,337.9355,2710.3084,344.8289,2715.8571,340.2233,2713.74,333.33" style="stroke:#181818;stroke-width:1.0;"/></g><g id="link_PartyRelationshipTypes_PartyReference"><path d="M2801.8033,244.4665 C2781.5033,261.4365 2760.14,279.31 2739.88,296.25 " fill="none" id="PartyRelationshipTypes-backto-PartyReference" style="stroke:#181818;stroke-width:1.0;"/><polygon fill="#181818" points="2811.01,236.77,2803.8411,237.5493,2801.8033,244.4665,2808.9721,243.6872,2811.01,236.77" style="stroke:#181818;stroke-width:1.0;"/></g><g id="link_PartyTypes_PriceCriteriaItem"><path d="M3688.4348,241.7339 C3651.1948,258.6539 3606.07,279.15 3568.78,296.09 " fill="none" id="PartyTypes-backto-PriceCriteriaItem" style="stroke:#181818;stroke-width:1.0;"/><polygon fill="#181818" points="3699.36,236.77,3692.2428,235.6102,3688.4348,241.7339,3695.552,242.8937,3699.36,236.77" style="stroke:#181818;stroke-width:1.0;"/></g><g id="link_PayTypes_FinancialSplit"><path d="M1367.73,140.27 C1369.7,165.02 1376.9,210.14 1403,236.47 C1463.56,297.55 1536.48,226.85 1587,296.47 C1612.04,330.97 1564.49,370.29 1530.36,392.48 " fill="none" id="PayTypes-FinancialSplit" style="stroke:#181818;stroke-width:1.0;"/></g><g id="link_PayTypes_Price"><path d="M1408.95,136.23 C1414.64,137.69 1420.43,139 1426,139.98 C1851.92,214.42 1974.82,106.63 2397,199.98 C2402.77,201.25 2408.77,203.17 2414.42,205.28 " fill="none" id="PayTypes-Price" style="stroke:#181818;stroke-width:1.0;"/></g><g id="link_PaymentTypes_PriceCriteriaItem"><path d="M3087.2622,232.3198 C3183.5922,250.0298 3361.33,282.7 3462.55,301.31 " fill="none" id="PaymentTypes-backto-PriceCriteriaItem" style="stroke:#181818;stroke-width:1.0;"/><polygon fill="#181818" points="3075.46,230.15,3080.6378,235.169,3087.2622,232.3198,3082.0844,227.3008,3075.46,230.15" style="stroke:#181818;stroke-width:1.0;"/></g><g id="link_PaymentTypes_RebateReference"><path d="M2945.0899,235.4973 C2939.0799,236.7173 2944.81,235.47 2939,236.47 C2726.27,272.75 2471.71,297.52 2352.64,308.03 " fill="none" id="PaymentTypes-backto-RebateReference" style="stroke:#181818;stroke-width:1.0;"/><polygon fill="#181818" points="2956.85,233.11,2950.1742,230.3836,2945.0899,235.4973,2951.7657,238.2237,2956.85,233.11" style="stroke:#181818;stroke-width:1.0;"/></g><g id="link_Price_DiscountReference"><path d="M2414.36,230.91 C2408.72,233.03 2402.73,235.03 2397,236.47 C2193.76,287.53 1945.86,305.14 1824.37,310.97 " fill="none" id="Price-DiscountReference" style="stroke:#181818;stroke-width:1.0;"/></g><g id="link_Price_FinancialSplit"><path d="M2435.68,236.68 C2426.76,262.65 2406.1,310.79 2370,332.95 C2300.7,375.5 1736.74,400.98 1555.71,408.12 " fill="none" id="Price-FinancialSplit" style="stroke:#181818;stroke-width:1.0;"/></g><g id="link_Price_PriceCriteria"><path d="M2454.49,236.77 C2493.95,288.09 2608.82,437.51 2648.4,489 " fill="none" id="Price-PriceCriteria" style="stroke:#181818;stroke-width:1.0;"/></g><g id="link_Price_PriceCriteriaItem"><path d="M2467.88,223.79 C2491.15,227.62 2525.71,233 2556,236.47 C2895.58,275.34 3304.02,300.87 3462.54,309.98 " fill="none" id="Price-PriceCriteriaItem" style="stroke:#181818;stroke-width:1.0;"/></g><g id="link_Price_RebateReference"><path d="M2414.18,235.46 C2386.31,252.35 2342.81,278.69 2314.11,296.08 " fill="none" id="Price-RebateReference" style="stroke:#181818;stroke-width:1.0;"/></g><g id="link_Price_TaxSplit"><path d="M2414.18,230.28 C2408.55,232.45 2402.61,234.62 2397,236.47 C2308.73,265.5 2202.65,291.79 2147.14,304.92 " fill="none" id="Price-TaxSplit" style="stroke:#181818;stroke-width:1.0;"/></g><g id="link_PriceCriteriaItem_PriceCriteria"><path d="M3450.8902,333.1182 C3283.7002,369.8982 2864.26,462.18 2714.32,495.17 " fill="none" id="PriceCriteriaItem-backto-PriceCriteria" style="stroke:#181818;stroke-width:1.0;"/><polygon fill="#181818" points="3462.61,330.54,3455.8907,327.9225,3450.8902,333.1182,3457.6095,335.7357,3462.61,330.54" style="stroke:#181818;stroke-width:1.0;"/></g><g id="link_PriceTypes_Price"><path d="M2340.1137,147.1288 C2364.5437,164.1088 2391.49,182.82 2415.87,199.76 " fill="none" id="PriceTypes-backto-Price" style="stroke:#181818;stroke-width:1.0;"/><polygon fill="#181818" points="2330.26,140.28,2332.9039,146.9889,2340.1137,147.1288,2337.4697,140.4198,2330.26,140.28" style="stroke:#181818;stroke-width:1.0;"/></g><g id="link_ProductPriceItemTypes_FinancialSplit"><path d="M1002.22,330.22 C1007.9,331.15 1013.53,332.06 1019,332.95 C1172.82,357.93 1354.38,386.97 1444.08,401.28 " fill="none" id="ProductPriceItemTypes-FinancialSplit" style="stroke:#181818;stroke-width:1.0;"/></g><g id="link_ProductStateTypes_DiscountReference"><path d="M1756.902,248.4828 C1755.102,265.4228 1753.66,279.15 1751.86,296.17 " fill="none" id="ProductStateTypes-backto-DiscountReference" style="stroke:#181818;stroke-width:1.0;"/><polygon fill="#181818" points="1758.17,236.55,1753.5584,242.0938,1756.902,248.4828,1761.5136,242.9391,1758.17,236.55" style="stroke:#181818;stroke-width:1.0;"/></g><g id="link_ProductStateTypes_RebateReference"><path d="M1833.99,233.31 C1839.74,234.39 1845.46,235.45 1851,236.47 C1980.47,260.25 2131.88,286.94 2217.3,301.9 " fill="none" id="ProductStateTypes-RebateReference" style="stroke:#181818;stroke-width:1.0;"/></g><g id="link_RebateReference_FinancialSplit"><path d="M2205.2606,327.4871 C2188.2506,329.9171 2181.91,330.76 2165,332.95 C1939.38,362.26 1669.98,391.91 1555.67,404.25 " fill="none" id="RebateReference-backto-FinancialSplit" style="stroke:#181818;stroke-width:1.0;"/><polygon fill="#181818" points="2217.14,325.79,2210.6346,322.6787,2205.2606,327.4871,2211.766,330.5983,2217.14,325.79" style="stroke:#181818;stroke-width:1.0;"/></g><g id="link_RewardReference_FinancialSplit"><path d="M1500,345.04 C1500,361.98 1500,375.64 1500,392.66 " fill="none" id="RewardReference-backto-FinancialSplit" style="stroke:#181818;stroke-width:1.0;"/><polygon fill="#181818" points="1500,333.04,1496,339.04,1500,345.04,1504,339.04,1500,333.04" style="stroke:#181818;stroke-width:1.0;"/></g><g id="link_StaffRoleTypes_EventMessage"><path d="M4019.68,140.28 C3988.52,157.2 3941.64,182.66 3910.44,199.6 " fill="none" id="StaffRoleTypes-EventMessage" style="stroke:#181818;stroke-width:1.0;"/></g><g id="link_TaxSplit_FinancialSplit"><path d="M2059.0419,323.4598 C1955.1419,339.5798 1678.33,382.53 1555.97,401.51 " fill="none" id="TaxSplit-backto-FinancialSplit" style="stroke:#181818;stroke-width:1.0;"/><polygon fill="#181818" points="2070.9,321.62,2064.3577,318.5872,2059.0419,323.4598,2065.5842,326.4926,2070.9,321.62" style="stroke:#181818;stroke-width:1.0;"/></g><g id="link_TaxTypes_TaxSplit"><path d="M2109,236.55 C2109,253.49 2109,279.15 2109,296.17 " fill="none" id="TaxTypes-TaxSplit" style="stroke:#181818;stroke-width:1.0;"/></g><g id="link_TimeslotDirectiveTypes_TimeSlot"><path d="M3097.8579,146.2702 C3127.2279,163.1902 3161.02,182.66 3190.42,199.6 " fill="none" id="TimeslotDirectiveTypes-backto-TimeSlot" style="stroke:#181818;stroke-width:1.0;"/><polygon fill="#181818" points="3087.46,140.28,3090.6622,146.7411,3097.8579,146.2702,3094.6557,139.8091,3087.46,140.28" style="stroke:#181818;stroke-width:1.0;"/></g><g id="link_UnitOfMeasureTypes_DiscountMetricValue"><path d="M1520.41,140.06 C1515.93,157.01 1509.14,182.67 1504.64,199.68 " fill="none" id="UnitOfMeasureTypes-DiscountMetricValue" style="stroke:#181818;stroke-width:1.0;"/></g></g></svg>
