<?xml version="1.0" encoding="us-ascii" standalone="no"?><svg xmlns="http://www.w3.org/2000/svg" xmlns:xlink="http://www.w3.org/1999/xlink" contentStyleType="text/css" height="531px" preserveAspectRatio="none" style="width:4208px;height:531px;background:#FFFFFF;" version="1.1" viewBox="0 0 4208 531" width="4208px" zoomAndPan="magnify"><defs/><g><g id="elem_AddressReference"><rect fill="#F1F1F1" height="36.4883" rx="2.5" ry="2.5" style="stroke:#181818;stroke-width:0.5;" width="144" x="3050" y="103.49"/><text fill="#000000" font-family="sans-serif" font-size="14" lengthAdjust="spacing" textLength="124" x="3060" y="127.0252">AddressReference</text></g><g id="elem_AppointmentReference"><rect fill="#F1F1F1" height="36.4883" rx="2.5" ry="2.5" style="stroke:#181818;stroke-width:0.5;" width="178" x="220" y="199.98"/><text fill="#000000" font-family="sans-serif" font-size="14" lengthAdjust="spacing" textLength="158" x="230" y="223.5152">AppointmentReference</text></g><g id="elem_BillOfMaterialReference"><rect fill="#F1F1F1" height="36.4883" rx="2.5" ry="2.5" style="stroke:#181818;stroke-width:0.5;" width="179" x="1235.5" y="296.47"/><text fill="#000000" font-family="sans-serif" font-size="14" lengthAdjust="spacing" textLength="159" x="1245.5" y="320.0052">BillOfMaterialReference</text></g><g id="elem_CurrencyExchange"><rect fill="#F1F1F1" height="36.4883" rx="2.5" ry="2.5" style="stroke:#181818;stroke-width:0.5;" width="149" x="574.5" y="199.98"/><text fill="#000000" font-family="sans-serif" font-size="14" lengthAdjust="spacing" textLength="129" x="584.5" y="223.5152">CurrencyExchange</text></g><g id="elem_EffectivePeriod"><rect fill="#F1F1F1" height="36.4883" rx="2.5" ry="2.5" style="stroke:#181818;stroke-width:0.5;" width="121" x="2501.5" y="103.49"/><text fill="#000000" font-family="sans-serif" font-size="14" lengthAdjust="spacing" textLength="101" x="2511.5" y="127.0252">EffectivePeriod</text></g><g id="elem_FinancialSplitReference"><rect fill="#F1F1F1" height="36.4883" rx="2.5" ry="2.5" style="stroke:#181818;stroke-width:0.5;" width="179" x="1054.5" y="199.98"/><text fill="#000000" font-family="sans-serif" font-size="14" lengthAdjust="spacing" textLength="159" x="1064.5" y="223.5152">FinancialSplitReference</text></g><g id="elem_Identifier"><rect fill="#F1F1F1" height="36.4883" rx="2.5" ry="2.5" style="stroke:#181818;stroke-width:0.5;" width="82" x="1103" y="103.49"/><text fill="#000000" font-family="sans-serif" font-size="14" lengthAdjust="spacing" textLength="62" x="1113" y="127.0252">Identifier</text></g><g id="elem_Inspection"><rect fill="#F1F1F1" height="36.4883" rx="2.5" ry="2.5" style="stroke:#181818;stroke-width:0.5;" width="91" x="2974.5" y="296.47"/><text fill="#000000" font-family="sans-serif" font-size="14" lengthAdjust="spacing" textLength="71" x="2984.5" y="320.0052">Inspection</text></g><g id="elem_LaborOperation"><rect fill="#F1F1F1" height="36.4883" rx="2.5" ry="2.5" style="stroke:#181818;stroke-width:0.5;" width="128" x="2091" y="392.95"/><text fill="#000000" font-family="sans-serif" font-size="14" lengthAdjust="spacing" textLength="108" x="2101" y="416.4852">LaborOperation</text></g><g id="elem_LaborOperationEvent"><rect fill="#F1F1F1" height="36.4883" rx="2.5" ry="2.5" style="stroke:#181818;stroke-width:0.5;" width="165" x="1449.5" y="296.47"/><text fill="#000000" font-family="sans-serif" font-size="14" lengthAdjust="spacing" textLength="145" x="1459.5" y="320.0052">LaborOperationEvent</text></g><g id="elem_LaborResource"><rect fill="#F1F1F1" height="36.4883" rx="2.5" ry="2.5" style="stroke:#181818;stroke-width:0.5;" width="122" x="1721" y="296.47"/><text fill="#000000" font-family="sans-serif" font-size="14" lengthAdjust="spacing" textLength="102" x="1731" y="320.0052">LaborResource</text></g><g id="elem_Locale"><rect fill="#F1F1F1" height="36.4883" rx="2.5" ry="2.5" style="stroke:#181818;stroke-width:0.5;" width="63" x="504.5" y="296.47"/><text fill="#000000" font-family="sans-serif" font-size="14" lengthAdjust="spacing" textLength="43" x="514.5" y="320.0052">Locale</text></g><g id="elem_Manifest"><rect fill="#F1F1F1" height="36.4883" rx="2.5" ry="2.5" style="stroke:#181818;stroke-width:0.5;" width="78" x="3385" y="392.95"/><text fill="#000000" font-family="sans-serif" font-size="14" lengthAdjust="spacing" textLength="58" x="3395" y="416.4852">Manifest</text></g><g id="elem_ManifestItem"><rect fill="#F1F1F1" height="36.4883" rx="2.5" ry="2.5" style="stroke:#181818;stroke-width:0.5;" width="108" x="3560" y="296.47"/><text fill="#000000" font-family="sans-serif" font-size="14" lengthAdjust="spacing" textLength="88" x="3570" y="320.0052">ManifestItem</text></g><g id="elem_Media"><rect fill="#F1F1F1" height="36.4883" rx="2.5" ry="2.5" style="stroke:#181818;stroke-width:0.5;" width="61" x="3464.5" y="296.47"/><text fill="#000000" font-family="sans-serif" font-size="14" lengthAdjust="spacing" textLength="41" x="3474.5" y="320.0052">Media</text></g><g id="elem_MediaAccessMetric"><rect fill="#F1F1F1" height="36.4883" rx="2.5" ry="2.5" style="stroke:#181818;stroke-width:0.5;" width="149" x="3313.5" y="199.98"/><text fill="#000000" font-family="sans-serif" font-size="14" lengthAdjust="spacing" textLength="129" x="3323.5" y="223.5152">MediaAccessMetric</text></g><g id="elem_MetricValue"><rect fill="#F1F1F1" height="36.4883" rx="2.5" ry="2.5" style="stroke:#181818;stroke-width:0.5;" width="100" x="745" y="296.47"/><text fill="#000000" font-family="sans-serif" font-size="14" lengthAdjust="spacing" textLength="80" x="755" y="320.0052">MetricValue</text></g><g id="elem_Money"><rect fill="#F1F1F1" height="36.4883" rx="2.5" ry="2.5" style="stroke:#181818;stroke-width:0.5;" width="65" x="880.5" y="296.47"/><text fill="#000000" font-family="sans-serif" font-size="14" lengthAdjust="spacing" textLength="45" x="890.5" y="320.0052">Money</text></g><g id="elem_MultiPointInspection"><rect fill="#F1F1F1" height="36.4883" rx="2.5" ry="2.5" style="stroke:#181818;stroke-width:0.5;" width="160" x="2075" y="489.44"/><text fill="#000000" font-family="sans-serif" font-size="14" lengthAdjust="spacing" textLength="140" x="2085" y="512.9752">MultiPointInspection</text></g><g id="elem_PartyReference"><rect fill="#F1F1F1" height="36.4883" rx="2.5" ry="2.5" style="stroke:#181818;stroke-width:0.5;" width="122" x="3059" y="199.98"/><text fill="#000000" font-family="sans-serif" font-size="14" lengthAdjust="spacing" textLength="102" x="3069" y="223.5152">PartyReference</text></g><g id="elem_PricePlanReference"><rect fill="#F1F1F1" height="36.4883" rx="2.5" ry="2.5" style="stroke:#181818;stroke-width:0.5;" width="150" x="980" y="296.47"/><text fill="#000000" font-family="sans-serif" font-size="14" lengthAdjust="spacing" textLength="130" x="990" y="320.0052">PricePlanReference</text></g><g id="elem_StaffAssignmentReference"><rect fill="#F1F1F1" height="36.4883" rx="2.5" ry="2.5" style="stroke:#181818;stroke-width:0.5;" width="200" x="2668" y="296.47"/><text fill="#000000" font-family="sans-serif" font-size="14" lengthAdjust="spacing" textLength="180" x="2678" y="320.0052">StaffAssignmentReference</text></g><g id="elem_TextualDetail"><rect fill="#F1F1F1" height="36.4883" rx="2.5" ry="2.5" style="stroke:#181818;stroke-width:0.5;" width="111" x="2060.5" y="199.98"/><text fill="#000000" font-family="sans-serif" font-size="14" lengthAdjust="spacing" textLength="91" x="2070.5" y="223.5152">TextualDetail</text></g><g id="elem_TimeSlot"><rect fill="#F1F1F1" height="36.4883" rx="2.5" ry="2.5" style="stroke:#181818;stroke-width:0.5;" width="80" x="2741" y="199.98"/><text fill="#000000" font-family="sans-serif" font-size="14" lengthAdjust="spacing" textLength="60" x="2751" y="223.5152">TimeSlot</text></g><g id="elem_VehicleIdentifier"><rect fill="#F1F1F1" height="36.4883" rx="2.5" ry="2.5" style="stroke:#181818;stroke-width:0.5;" width="131" x="677.5" y="392.95"/><text fill="#000000" font-family="sans-serif" font-size="14" lengthAdjust="spacing" textLength="111" x="687.5" y="416.4852">VehicleIdentifier</text></g><g id="elem_VehicleLicense"><rect fill="#F1F1F1" height="36.4883" rx="2.5" ry="2.5" style="stroke:#181818;stroke-width:0.5;" width="119" x="900.5" y="199.98"/><text fill="#000000" font-family="sans-serif" font-size="14" lengthAdjust="spacing" textLength="99" x="910.5" y="223.5152">VehicleLicense</text></g><g id="elem_AddressTypes"><rect fill="#FAFF91" height="36.4883" rx="2.5" ry="2.5" style="stroke:#181818;stroke-width:0.5;" width="116" x="3064" y="7"/><text fill="#000000" font-family="sans-serif" font-size="14" lengthAdjust="spacing" textLength="96" x="3074" y="30.5352">AddressTypes</text></g><g id="elem_AppointmentStatusTypes"><rect fill="#FAFF91" height="36.4883" rx="2.5" ry="2.5" style="stroke:#181818;stroke-width:0.5;" width="192" x="7" y="103.49"/><text fill="#000000" font-family="sans-serif" font-size="14" lengthAdjust="spacing" textLength="172" x="17" y="127.0252">AppointmentStatusTypes</text></g><g id="elem_AppointmentTypes"><rect fill="#FAFF91" height="36.4883" rx="2.5" ry="2.5" style="stroke:#181818;stroke-width:0.5;" width="150" x="234" y="103.49"/><text fill="#000000" font-family="sans-serif" font-size="14" lengthAdjust="spacing" textLength="130" x="244" y="127.0252">AppointmentTypes</text></g><g id="elem_DaysOfWeekTypes"><rect fill="#FAFF91" height="36.4883" rx="2.5" ry="2.5" style="stroke:#181818;stroke-width:0.5;" width="144" x="2871" y="103.49"/><text fill="#000000" font-family="sans-serif" font-size="14" lengthAdjust="spacing" textLength="124" x="2881" y="127.0252">DaysOfWeekTypes</text></g><g id="elem_DeviceTypes"><rect fill="#FAFF91" height="36.4883" rx="2.5" ry="2.5" style="stroke:#181818;stroke-width:0.5;" width="104" x="3442" y="103.49"/><text fill="#000000" font-family="sans-serif" font-size="14" lengthAdjust="spacing" textLength="84" x="3452" y="127.0252">DeviceTypes</text></g><g id="elem_DurationUOMTypes"><rect fill="#FAFF91" height="36.4883" rx="2.5" ry="2.5" style="stroke:#181818;stroke-width:0.5;" width="153" x="2485.5" y="7"/><text fill="#000000" font-family="sans-serif" font-size="14" lengthAdjust="spacing" textLength="133" x="2495.5" y="30.5352">DurationUOMTypes</text></g><g id="elem_LaborLocationTypes"><rect fill="#FAFF91" height="36.4883" rx="2.5" ry="2.5" style="stroke:#181818;stroke-width:0.5;" width="157" x="1878.5" y="296.47"/><text fill="#000000" font-family="sans-serif" font-size="14" lengthAdjust="spacing" textLength="137" x="1888.5" y="320.0052">LaborLocationTypes</text></g><g id="elem_LaborOperationStatusTypes"><rect fill="#FAFF91" height="36.4883" rx="2.5" ry="2.5" style="stroke:#181818;stroke-width:0.5;" width="210" x="1529" y="199.98"/><text fill="#000000" font-family="sans-serif" font-size="14" lengthAdjust="spacing" textLength="190" x="1539" y="223.5152">LaborOperationStatusTypes</text></g><g id="elem_LaborOperationTypes"><rect fill="#FAFF91" height="36.4883" rx="2.5" ry="2.5" style="stroke:#181818;stroke-width:0.5;" width="168" x="2071" y="296.47"/><text fill="#000000" font-family="sans-serif" font-size="14" lengthAdjust="spacing" textLength="148" x="2081" y="320.0052">LaborOperationTypes</text></g><g id="elem_LaborResourceTypes"><rect fill="#FAFF91" height="36.4883" rx="2.5" ry="2.5" style="stroke:#181818;stroke-width:0.5;" width="162" x="1774" y="199.98"/><text fill="#000000" font-family="sans-serif" font-size="14" lengthAdjust="spacing" textLength="142" x="1784" y="223.5152">LaborResourceTypes</text></g><g id="elem_MediaDeliveryMethodTypes"><rect fill="#FAFF91" height="36.4883" rx="2.5" ry="2.5" style="stroke:#181818;stroke-width:0.5;" width="207" x="3497.5" y="199.98"/><text fill="#000000" font-family="sans-serif" font-size="14" lengthAdjust="spacing" textLength="187" x="3507.5" y="223.5152">MediaDeliveryMethodTypes</text></g><g id="elem_MediaFormatTypes"><rect fill="#FAFF91" height="36.4883" rx="2.5" ry="2.5" style="stroke:#181818;stroke-width:0.5;" width="150" x="3739" y="199.98"/><text fill="#000000" font-family="sans-serif" font-size="14" lengthAdjust="spacing" textLength="130" x="3749" y="223.5152">MediaFormatTypes</text></g><g id="elem_MediaTypes"><rect fill="#FAFF91" height="36.4883" rx="2.5" ry="2.5" style="stroke:#181818;stroke-width:0.5;" width="101" x="3923.5" y="199.98"/><text fill="#000000" font-family="sans-serif" font-size="14" lengthAdjust="spacing" textLength="81" x="3933.5" y="223.5152">MediaTypes</text></g><g id="elem_MediaUsageTypes"><rect fill="#FAFF91" height="36.4883" rx="2.5" ry="2.5" style="stroke:#181818;stroke-width:0.5;" width="143" x="4059.5" y="199.98"/><text fill="#000000" font-family="sans-serif" font-size="14" lengthAdjust="spacing" textLength="123" x="4069.5" y="223.5152">MediaUsageTypes</text></g><g id="elem_NarrativeUomTypes"><rect fill="#FAFF91" height="36.4883" rx="2.5" ry="2.5" style="stroke:#181818;stroke-width:0.5;" width="154" x="1269" y="199.98"/><text fill="#000000" font-family="sans-serif" font-size="14" lengthAdjust="spacing" textLength="134" x="1279" y="223.5152">NarrativeUomTypes</text></g><g id="elem_PartyRelationshipTypes"><rect fill="#FAFF91" height="36.4883" rx="2.5" ry="2.5" style="stroke:#181818;stroke-width:0.5;" width="179" x="3228.5" y="103.49"/><text fill="#000000" font-family="sans-serif" font-size="14" lengthAdjust="spacing" textLength="159" x="3238.5" y="127.0252">PartyRelationshipTypes</text></g><g id="elem_PayTypes"><rect fill="#FAFF91" height="36.4883" rx="2.5" ry="2.5" style="stroke:#181818;stroke-width:0.5;" width="83" x="2273.5" y="296.47"/><text fill="#000000" font-family="sans-serif" font-size="14" lengthAdjust="spacing" textLength="63" x="2283.5" y="320.0052">PayTypes</text></g><g id="elem_PayeeTypes"><rect fill="#FAFF91" height="36.4883" rx="2.5" ry="2.5" style="stroke:#181818;stroke-width:0.5;" width="99" x="2391.5" y="296.47"/><text fill="#000000" font-family="sans-serif" font-size="14" lengthAdjust="spacing" textLength="79" x="2401.5" y="320.0052">PayeeTypes</text></g><g id="elem_RepairStatusTypes"><rect fill="#FAFF91" height="36.4883" rx="2.5" ry="2.5" style="stroke:#181818;stroke-width:0.5;" width="146" x="3498" y="392.95"/><text fill="#000000" font-family="sans-serif" font-size="14" lengthAdjust="spacing" textLength="126" x="3508" y="416.4852">RepairStatusTypes</text></g><g id="elem_RoleTypes"><rect fill="#FAFF91" height="36.4883" rx="2.5" ry="2.5" style="stroke:#181818;stroke-width:0.5;" width="90" x="2616" y="199.98"/><text fill="#000000" font-family="sans-serif" font-size="14" lengthAdjust="spacing" textLength="70" x="2626" y="223.5152">RoleTypes</text></g><g id="elem_ServiceJobTypes"><rect fill="#FAFF91" height="36.4883" rx="2.5" ry="2.5" style="stroke:#181818;stroke-width:0.5;" width="130" x="2856" y="199.98"/><text fill="#000000" font-family="sans-serif" font-size="14" lengthAdjust="spacing" textLength="110" x="2866" y="223.5152">ServiceJobTypes</text></g><g id="elem_TimeslotDirectiveTypes"><rect fill="#FAFF91" height="36.4883" rx="2.5" ry="2.5" style="stroke:#181818;stroke-width:0.5;" width="178" x="2658" y="103.49"/><text fill="#000000" font-family="sans-serif" font-size="14" lengthAdjust="spacing" textLength="158" x="2668" y="127.0252">TimeslotDirectiveTypes</text></g><g id="link_AddressReference_PartyReference"><path d="M3121.3752,152.0573 C3121.0152,169.0073 3120.73,182.67 3120.37,199.68 " fill="none" id="AddressReference-backto-PartyReference" style="stroke:#181818;stroke-width:1.0;"/><polygon fill="#181818" points="3121.63,140.06,3117.5035,145.9737,3121.3752,152.0573,3125.5017,146.1436,3121.63,140.06" style="stroke:#181818;stroke-width:1.0;"/></g><g id="link_AddressTypes_AddressReference"><path d="M3122,55.57 C3122,72.52 3122,86.18 3122,103.19 " fill="none" id="AddressTypes-backto-AddressReference" style="stroke:#181818;stroke-width:1.0;"/><polygon fill="#181818" points="3122,43.57,3118,49.57,3122,55.57,3126,49.57,3122,43.57" style="stroke:#181818;stroke-width:1.0;"/></g><g id="link_AppointmentReference_MultiPointInspection"><path d="M315.3057,248.4733 C324.9857,290.4633 353.11,384.81 425,429.44 C495.84,473.42 1743.41,499.19 2074.75,505.28 " fill="none" id="AppointmentReference-backto-MultiPointInspection" style="stroke:#181818;stroke-width:1.0;"/><polygon fill="#181818" points="312.61,236.78,310.0601,243.5252,315.3057,248.4733,317.8556,241.7281,312.61,236.78" style="stroke:#181818;stroke-width:1.0;"/></g><g id="link_AppointmentStatusTypes_AppointmentReference"><path d="M141.26,140.28 C178.15,157.2 233.66,182.66 270.59,199.6 " fill="none" id="AppointmentStatusTypes-AppointmentReference" style="stroke:#181818;stroke-width:1.0;"/></g><g id="link_AppointmentTypes_AppointmentReference"><path d="M296.0902,151.801 C292.5102,168.751 294.98,182.67 298.53,199.68 " fill="none" id="AppointmentTypes-backto-AppointmentReference" style="stroke:#181818;stroke-width:1.0;"/><polygon fill="#181818" points="298.57,140.06,293.4164,145.1039,296.0902,151.801,301.2438,146.7571,298.57,140.06" style="stroke:#181818;stroke-width:1.0;"/></g><g id="link_AppointmentTypes_AppointmentReference"><path d="M319.43,140.06 C323.01,157.01 323.02,182.67 319.47,199.68 " fill="none" id="AppointmentTypes-AppointmentReference" style="stroke:#181818;stroke-width:1.0;"/></g><g id="link_BillOfMaterialReference_LaborOperation"><path d="M1426.7261,332.27 C1432.5261,333.11 1426.41,332.2 1432,332.95 C1674.42,365.41 1964.03,392.99 2090.54,404.47 " fill="none" id="BillOfMaterialReference-backto-LaborOperation" style="stroke:#181818;stroke-width:1.0;"/><polygon fill="#181818" points="1414.85,330.55,1420.2147,335.3687,1426.7261,332.27,1421.3614,327.4513,1414.85,330.55" style="stroke:#181818;stroke-width:1.0;"/></g><g id="link_CurrencyExchange_Money"><path d="M698.35,236.88 C751.48,255.9 834.5,285.61 880.16,301.95 " fill="none" id="CurrencyExchange-Money" style="stroke:#181818;stroke-width:1.0;"/></g><g id="link_CurrencyExchange_Locale"><path d="M618.8033,244.4665 C598.5033,261.4365 577.14,279.31 556.88,296.25 " fill="none" id="CurrencyExchange-backto-Locale" style="stroke:#181818;stroke-width:1.0;"/><polygon fill="#181818" points="628.01,236.77,620.8411,237.5493,618.8033,244.4665,625.9721,243.6872,628.01,236.77" style="stroke:#181818;stroke-width:1.0;"/></g><g id="link_DaysOfWeekTypes_TimeSlot"><path d="M2912.91,140.28 C2883.9,157.2 2840.25,182.66 2811.2,199.6 " fill="none" id="DaysOfWeekTypes-TimeSlot" style="stroke:#181818;stroke-width:1.0;"/></g><g id="link_DeviceTypes_MediaAccessMetric"><path d="M3474.56,140.06 C3455.55,157.01 3426.76,182.67 3407.68,199.68 " fill="none" id="DeviceTypes-MediaAccessMetric" style="stroke:#181818;stroke-width:1.0;"/></g><g id="link_DurationUOMTypes_EffectivePeriod"><path d="M2562,43.57 C2562,60.52 2562,86.18 2562,103.19 " fill="none" id="DurationUOMTypes-EffectivePeriod" style="stroke:#181818;stroke-width:1.0;"/></g><g id="link_EffectivePeriod_AppointmentReference"><path d="M2501.27,124.39 C2257.2,131.18 1323.99,158.55 557,199.98 C504.42,202.82 445.63,206.87 398.5,210.33 " fill="none" id="EffectivePeriod-AppointmentReference" style="stroke:#181818;stroke-width:1.0;"/></g><g id="link_EffectivePeriod_LaborOperation"><path d="M2566.53,140.4 C2575.62,180.34 2591.26,278.39 2542,332.95 C2499.71,379.8 2317.82,399.23 2219.19,406.44 " fill="none" id="EffectivePeriod-LaborOperation" style="stroke:#181818;stroke-width:1.0;"/></g><g id="link_EffectivePeriod_MultiPointInspection"><path d="M2622.69,136.67 C2628.86,137.88 2635.04,139.01 2641,139.98 C2763.88,159.95 3114.82,107.35 3198,199.98 C3208.84,212.04 3201.37,220.6 3198,236.47 C3172.3,357.28 3115.2,390.44 2998,429.44 C2857.77,476.1 2417.55,497.12 2235.27,503.99 " fill="none" id="EffectivePeriod-MultiPointInspection" style="stroke:#181818;stroke-width:1.0;"/></g><g id="link_EffectivePeriod_PartyReference"><path d="M2622.75,136.35 C2628.9,137.62 2635.07,138.85 2641,139.98 C2720.14,154.98 2948.37,190.68 3058.76,207.78 " fill="none" id="EffectivePeriod-PartyReference" style="stroke:#181818;stroke-width:1.0;"/></g><g id="link_EffectivePeriod_TimeSlot"><path d="M2592.2,140.28 C2631.04,158.7 2697.5,187.23 2740.61,203.88 " fill="none" id="EffectivePeriod-TimeSlot" style="stroke:#181818;stroke-width:1.0;"/></g><g id="link_TimeSlot_EffectivePeriod"><path d="M2750.41,199.49 C2714.72,182.58 2656.05,157.27 2613.43,140.39 " fill="none" id="TimeSlot-EffectivePeriod" style="stroke:#181818;stroke-width:1.0;"/></g><g id="link_EffectivePeriod_VehicleLicense"><path d="M2501.36,122.12 C2295.14,120.83 1602.39,122.92 1037,199.98 C1031.43,200.74 1025.68,201.69 1019.93,202.77 " fill="none" id="EffectivePeriod-VehicleLicense" style="stroke:#181818;stroke-width:1.0;"/></g><g id="link_FinancialSplitReference_BillOfMaterialReference"><path d="M1177.62,236.77 C1210.03,253.69 1258.8,279.15 1291.25,296.09 " fill="none" id="FinancialSplitReference-BillOfMaterialReference" style="stroke:#181818;stroke-width:1.0;"/></g><g id="link_FinancialSplitReference_LaborOperation"><path d="M1149.75,236.73 C1159.31,262.77 1181.19,310.98 1218,332.95 C1292.59,377.47 1891.03,401.36 2090.54,408.15 " fill="none" id="FinancialSplitReference-LaborOperation" style="stroke:#181818;stroke-width:1.0;"/></g><g id="link_FinancialSplitReference_PricePlanReference"><path d="M1127.68,236.55 C1111.72,253.49 1087.55,279.15 1071.52,296.17 " fill="none" id="FinancialSplitReference-PricePlanReference" style="stroke:#181818;stroke-width:1.0;"/></g><g id="link_Identifier_BillOfMaterialReference"><path d="M1185.41,127.32 C1259.48,136.48 1409.84,159.67 1441,199.98 C1470.07,237.57 1410.62,274.95 1366.58,296.11 " fill="none" id="Identifier-BillOfMaterialReference" style="stroke:#181818;stroke-width:1.0;"/></g><g id="link_Identifier_FinancialSplitReference"><path d="M1133.57,140.06 C1129.99,157.01 1129.98,182.67 1133.53,199.68 " fill="none" id="Identifier-FinancialSplitReference" style="stroke:#181818;stroke-width:1.0;"/></g><g id="link_Identifier_FinancialSplitReference"><path d="M1156.9098,151.801 C1160.4898,168.751 1158.02,182.67 1154.47,199.68 " fill="none" id="Identifier-backto-FinancialSplitReference" style="stroke:#181818;stroke-width:1.0;"/><polygon fill="#181818" points="1154.43,140.06,1151.7562,146.7571,1156.9098,151.801,1159.5836,145.1039,1154.43,140.06" style="stroke:#181818;stroke-width:1.0;"/></g><g id="link_Identifier_PartyReference"><path d="M1185.35,122.83 C1385.94,123.63 2277.65,131.1 3004,199.98 C3021.84,201.67 3041.12,204.23 3058.74,206.87 " fill="none" id="Identifier-PartyReference" style="stroke:#181818;stroke-width:1.0;"/></g><g id="link_Identifier_PricePlanReference"><path d="M1102.57,128.91 C1035.84,139.81 909.37,164.67 883,199.98 C849.37,245.01 921.68,277.58 982.64,296.04 " fill="none" id="Identifier-PricePlanReference" style="stroke:#181818;stroke-width:1.0;"/></g><g id="link_Identifier_StaffAssignmentReference"><path d="M1185.02,123.99 C1325.56,128.68 1800.47,147.65 2189,199.98 C2371.49,224.55 2583.16,270.69 2693.07,295.99 " fill="none" id="Identifier-StaffAssignmentReference" style="stroke:#181818;stroke-width:1.0;"/></g><g id="link_Identifier_AppointmentReference"><path d="M1090.643,127.7164 C980.333,138.1164 682.15,167.06 425,199.98 C416.32,201.09 407.28,202.31 398.25,203.58 " fill="none" id="Identifier-backto-AppointmentReference" style="stroke:#181818;stroke-width:1.0;"/><polygon fill="#181818" points="1102.59,126.59,1096.241,123.1708,1090.643,127.7164,1096.9919,131.1355,1102.59,126.59" style="stroke:#181818;stroke-width:1.0;"/></g><g id="link_Identifier_Locale"><path d="M1090.8303,122.0432 C970.5903,121.1732 635.54,125.39 557,199.98 C530.79,224.86 531.06,270.98 533.52,296.17 " fill="none" id="Identifier-backto-Locale" style="stroke:#181818;stroke-width:1.0;"/><polygon fill="#181818" points="1102.83,122.13,1096.8591,118.0867,1090.8303,122.0432,1096.8012,126.0865,1102.83,122.13" style="stroke:#181818;stroke-width:1.0;"/></g><g id="link_Identifier_MultiPointInspection"><path d="M1090.6304,122.8829 C967.9604,123.8329 621.13,132.36 530,199.98 C480.12,236.99 461.24,276.43 487,332.95 C514.11,392.43 537.36,405.04 598,429.44 C735.35,484.71 1775.41,501.93 2074.67,505.77 " fill="none" id="Identifier-backto-MultiPointInspection" style="stroke:#181818;stroke-width:1.0;"/><polygon fill="#181818" points="1102.63,122.79,1096.5992,118.8366,1090.6304,122.8829,1096.6612,126.8363,1102.63,122.79" style="stroke:#181818;stroke-width:1.0;"/></g><g id="link_Identifier_TextualDetail"><path d="M1197.2194,127.6207 C1316.3094,138.5907 1658.9,170.38 1953,199.98 C1988.68,203.57 2028.72,207.8 2060.19,211.17 " fill="none" id="Identifier-backto-TextualDetail" style="stroke:#181818;stroke-width:1.0;"/><polygon fill="#181818" points="1185.27,126.52,1190.8778,131.0535,1197.2194,127.6207,1191.6116,123.0872,1185.27,126.52" style="stroke:#181818;stroke-width:1.0;"/></g><g id="link_Identifier_VehicleIdentifier"><path d="M1090.7646,124.2127 C998.3546,128.7827 788.58,154.15 709,296.47 C691.4,327.94 713.75,369.53 729.66,392.7 " fill="none" id="Identifier-backto-VehicleIdentifier" style="stroke:#181818;stroke-width:1.0;"/><polygon fill="#181818" points="1102.75,123.62,1096.5598,119.9212,1090.7646,124.2127,1096.9549,127.9115,1102.75,123.62" style="stroke:#181818;stroke-width:1.0;"/></g><g id="link_Inspection_LaborOperation"><path d="M2962.5375,330.1655 C2953.5475,332.2055 2955.86,331.48 2947,332.95 C2678.69,377.52 2354.65,399.22 2219.29,406.87 " fill="none" id="Inspection-backto-LaborOperation" style="stroke:#181818;stroke-width:1.0;"/><polygon fill="#181818" points="2974.24,327.51,2967.5036,324.9369,2962.5375,330.1655,2969.2739,332.7386,2974.24,327.51" style="stroke:#181818;stroke-width:1.0;"/></g><g id="link_LaborLocationTypes_LaborOperation"><path d="M1993.78,333.26 C2029.23,350.18 2082.58,375.64 2118.08,392.58 " fill="none" id="LaborLocationTypes-LaborOperation" style="stroke:#181818;stroke-width:1.0;"/></g><g id="link_LaborOperationEvent_LaborOperation"><path d="M1626.7381,330.6003 C1635.8881,332.0203 1633.21,331.6 1642,332.95 C1803.35,357.75 1993.38,386.15 2090.6,400.63 " fill="none" id="LaborOperationEvent-backto-LaborOperation" style="stroke:#181818;stroke-width:1.0;"/><polygon fill="#181818" points="1614.88,328.76,1620.1956,333.6328,1626.7381,330.6003,1621.4224,325.7274,1614.88,328.76" style="stroke:#181818;stroke-width:1.0;"/></g><g id="link_LaborOperationStatusTypes_LaborOperation"><path d="M1639.55,236.74 C1648.64,262.33 1669.23,309.45 1704,332.95 C1766.11,374.93 1981.81,397 2090.84,405.7 " fill="none" id="LaborOperationStatusTypes-LaborOperation" style="stroke:#181818;stroke-width:1.0;"/></g><g id="link_LaborOperationStatusTypes_LaborOperationEvent"><path d="M1615.29,236.55 C1597,253.49 1569.3,279.15 1550.94,296.17 " fill="none" id="LaborOperationStatusTypes-LaborOperationEvent" style="stroke:#181818;stroke-width:1.0;"/></g><g id="link_LaborOperationTypes_LaborOperation"><path d="M2155,333.04 C2155,349.98 2155,375.64 2155,392.66 " fill="none" id="LaborOperationTypes-LaborOperation" style="stroke:#181818;stroke-width:1.0;"/></g><g id="link_LaborOperation_MultiPointInspection"><path d="M2155,441.53 C2155,458.47 2155,472.13 2155,489.15 " fill="none" id="LaborOperation-backto-MultiPointInspection" style="stroke:#181818;stroke-width:1.0;"/><polygon fill="#181818" points="2155,429.53,2151,435.53,2155,441.53,2159,435.53,2155,429.53" style="stroke:#181818;stroke-width:1.0;"/></g><g id="link_LaborResourceTypes_LaborResource"><path d="M1841.61,236.55 C1828.52,253.49 1808.7,279.15 1795.55,296.17 " fill="none" id="LaborResourceTypes-LaborResource" style="stroke:#181818;stroke-width:1.0;"/></g><g id="link_LaborResource_LaborOperation"><path d="M1854.8128,334.1557 C1923.0128,351.4257 2021.2,376.3 2090.66,393.9 " fill="none" id="LaborResource-backto-LaborOperation" style="stroke:#181818;stroke-width:1.0;"/><polygon fill="#181818" points="1843.18,331.21,1848.0145,336.5605,1854.8128,334.1557,1849.9783,328.8053,1843.18,331.21" style="stroke:#181818;stroke-width:1.0;"/></g><g id="link_Locale_MultiPointInspection"><path d="M548.47,333.14 C568.52,359.54 610.7,408.78 660,429.44 C790.63,484.2 1782.89,501.71 2074.59,505.7 " fill="none" id="Locale-MultiPointInspection" style="stroke:#181818;stroke-width:1.0;"/></g><g id="link_ManifestItem_Manifest"><path d="M3567.9655,338.6038 C3533.9455,355.5238 3493.49,375.64 3459.43,392.58 " fill="none" id="ManifestItem-backto-Manifest" style="stroke:#181818;stroke-width:1.0;"/><polygon fill="#181818" points="3578.71,333.26,3571.5565,332.3504,3567.9655,338.6038,3575.119,339.5134,3578.71,333.26" style="stroke:#181818;stroke-width:1.0;"/></g><g id="link_Manifest_MultiPointInspection"><path d="M3373.1938,426.6823 C3364.4238,428.8923 3366.77,428.03 3358,429.44 C2939.34,496.94 2429.77,505.98 2235.48,506.81 " fill="none" id="Manifest-backto-MultiPointInspection" style="stroke:#181818;stroke-width:1.0;"/><polygon fill="#181818" points="3384.83,423.75,3378.0345,421.3374,3373.1938,426.6823,3379.9893,429.0949,3384.83,423.75" style="stroke:#181818;stroke-width:1.0;"/></g><g id="link_MediaAccessMetric_Media"><path d="M3416.8734,244.7147 C3436.0834,261.6847 3456.05,279.31 3475.23,296.25 " fill="none" id="MediaAccessMetric-backto-Media" style="stroke:#181818;stroke-width:1.0;"/><polygon fill="#181818" points="3407.88,236.77,3409.7285,243.7402,3416.8734,244.7147,3415.0249,237.7446,3407.88,236.77" style="stroke:#181818;stroke-width:1.0;"/></g><g id="link_MediaDeliveryMethodTypes_Media"><path d="M3581.56,236.55 C3562.55,253.49 3533.76,279.15 3514.68,296.17 " fill="none" id="MediaDeliveryMethodTypes-Media" style="stroke:#181818;stroke-width:1.0;"/></g><g id="link_MediaFormatTypes_Media"><path d="M3747.08,236.95 C3692,251.86 3612.04,274.25 3543,296.47 C3537.44,298.26 3531.55,300.27 3525.88,302.27 " fill="none" id="MediaFormatTypes-Media" style="stroke:#181818;stroke-width:1.0;"/></g><g id="link_MediaTypes_Media"><path d="M3923.24,232.59 C3917.44,233.97 3911.6,235.29 3906,236.47 C3745.94,269.93 3701.26,255.32 3543,296.47 C3537.43,297.91 3531.59,299.74 3525.99,301.65 " fill="none" id="MediaTypes-Media" style="stroke:#181818;stroke-width:1.0;"/></g><g id="link_MediaUsageTypes_Media"><path d="M4059.19,233.59 C4053.38,234.62 4047.6,235.59 4042,236.47 C3821.32,271.07 3760.38,245.04 3543,296.47 C3537.4,297.79 3531.55,299.55 3525.93,301.45 " fill="none" id="MediaUsageTypes-Media" style="stroke:#181818;stroke-width:1.0;"/></g><g id="link_Media_MultiPointInspection"><path d="M3456.386,339.4698 C3408.656,368.5898 3324.13,418.59 3287,429.44 C3089.41,487.17 2459.95,502.12 2235.48,505.67 " fill="none" id="Media-backto-MultiPointInspection" style="stroke:#181818;stroke-width:1.0;"/><polygon fill="#181818" points="3466.63,333.22,3459.4247,332.9303,3456.386,339.4698,3463.5913,339.7596,3466.63,333.22" style="stroke:#181818;stroke-width:1.0;"/></g><g id="link_MetricValue_MultiPointInspection"><path d="M845.36,329.16 C851.28,330.54 857.26,331.84 863,332.95 C1317.69,420.88 1870.97,479.24 2074.72,499.13 " fill="none" id="MetricValue-MultiPointInspection" style="stroke:#181818;stroke-width:1.0;"/></g><g id="link_MetricValue_VehicleIdentifier"><path d="M785.46,333.04 C776.14,349.98 762.02,375.64 752.65,392.66 " fill="none" id="MetricValue-VehicleIdentifier" style="stroke:#181818;stroke-width:1.0;"/></g><g id="link_Money_LaborOperation"><path d="M945.74,328.39 C951.42,330.19 957.33,331.81 963,332.95 C1181.81,376.95 1875.38,401.57 2090.64,408.29 " fill="none" id="Money-LaborOperation" style="stroke:#181818;stroke-width:1.0;"/></g><g id="link_NarrativeUomTypes_Inspection"><path d="M1423.14,228.26 C1450.82,231.24 1482.28,234.34 1511,236.47 C2121.02,281.61 2276.56,244.05 2886,296.47 C2915.45,299 2948.37,303.21 2974.21,306.84 " fill="none" id="NarrativeUomTypes-Inspection" style="stroke:#181818;stroke-width:1.0;"/></g><g id="link_NarrativeUomTypes_MetricValue"><path d="M1268.52,233.46 C1262.59,234.49 1256.7,235.51 1251,236.47 C1078.92,265.38 1033.98,261.65 863,296.47 C857.27,297.63 851.3,298.97 845.38,300.37 " fill="none" id="NarrativeUomTypes-MetricValue" style="stroke:#181818;stroke-width:1.0;"/></g><g id="link_PartyReference_Inspection"><path d="M3092.9373,244.7911 C3075.0073,261.7311 3056.57,279.15 3038.56,296.17 " fill="none" id="PartyReference-backto-Inspection" style="stroke:#181818;stroke-width:1.0;"/><polygon fill="#181818" points="3101.66,236.55,3094.5516,237.763,3092.9373,244.7911,3100.0457,243.5781,3101.66,236.55" style="stroke:#181818;stroke-width:1.0;"/></g><g id="link_PartyReference_LaborOperation"><path d="M3119.3779,248.7677 C3118.2179,274.4177 3112.47,309.63 3083,332.95 C3015.54,386.36 2418.59,404.36 2219.39,408.91 " fill="none" id="PartyReference-backto-LaborOperation" style="stroke:#181818;stroke-width:1.0;"/><polygon fill="#181818" points="3119.92,236.78,3115.653,242.5932,3119.3779,248.7677,3123.6448,242.9546,3119.92,236.78" style="stroke:#181818;stroke-width:1.0;"/></g><g id="link_PartyReference_Media"><path d="M3192.7162,237.5424 C3273.8662,257.9924 3402.51,290.41 3464.29,305.97 " fill="none" id="PartyReference-backto-Media" style="stroke:#181818;stroke-width:1.0;"/><polygon fill="#181818" points="3181.08,234.61,3185.9207,239.9549,3192.7162,237.5424,3187.8756,232.1974,3181.08,234.61" style="stroke:#181818;stroke-width:1.0;"/></g><g id="link_PartyReference_MultiPointInspection"><path d="M3130.4576,248.3531 C3138.5176,272.9431 3144.55,305.99 3122,332.95 C3008.74,468.37 2446.4,498.38 2235.27,504.91 " fill="none" id="PartyReference-backto-MultiPointInspection" style="stroke:#181818;stroke-width:1.0;"/><polygon fill="#181818" points="3126.72,236.95,3124.7878,243.8974,3130.4576,248.3531,3132.3898,241.4057,3126.72,236.95" style="stroke:#181818;stroke-width:1.0;"/></g><g id="link_PartyRelationshipTypes_PartyReference"><path d="M3270.3903,145.4489 C3234.9403,162.3689 3192.42,182.66 3156.92,199.6 " fill="none" id="PartyRelationshipTypes-backto-PartyReference" style="stroke:#181818;stroke-width:1.0;"/><polygon fill="#181818" points="3281.22,140.28,3274.0822,139.2546,3270.3903,145.4489,3277.5281,146.4744,3281.22,140.28" style="stroke:#181818;stroke-width:1.0;"/></g><g id="link_PayTypes_LaborOperation"><path d="M2285.28,333.26 C2256.63,350.18 2213.52,375.64 2184.83,392.58 " fill="none" id="PayTypes-LaborOperation" style="stroke:#181818;stroke-width:1.0;"/></g><g id="link_PayeeTypes_LaborOperation"><path d="M2391.18,332.17 C2340.13,349.03 2261.01,375.17 2208.62,392.48 " fill="none" id="PayeeTypes-LaborOperation" style="stroke:#181818;stroke-width:1.0;"/></g><g id="link_PricePlanReference_LaborOperation"><path d="M1142.2221,331.0537 C1151.1821,332.4237 1148.35,331.89 1157,332.95 C1508,376.12 1931.6,399.47 2090.58,407.23 " fill="none" id="PricePlanReference-backto-LaborOperation" style="stroke:#181818;stroke-width:1.0;"/><polygon fill="#181818" points="1130.36,329.24,1135.6865,334.1009,1142.2221,331.0537,1136.8957,326.1928,1130.36,329.24" style="stroke:#181818;stroke-width:1.0;"/></g><g id="link_RepairStatusTypes_MultiPointInspection"><path d="M3497.62,426.94 C3491.67,427.88 3485.75,428.73 3480,429.44 C3010.61,487.35 2442.16,502.06 2235.23,505.61 " fill="none" id="RepairStatusTypes-MultiPointInspection" style="stroke:#181818;stroke-width:1.0;"/></g><g id="link_RoleTypes_StaffAssignmentReference"><path d="M2689.8734,244.7147 C2709.0834,261.6847 2729.05,279.31 2748.23,296.25 " fill="none" id="RoleTypes-backto-StaffAssignmentReference" style="stroke:#181818;stroke-width:1.0;"/><polygon fill="#181818" points="2680.88,236.77,2682.7285,243.7402,2689.8734,244.7147,2688.0249,237.7446,2680.88,236.77" style="stroke:#181818;stroke-width:1.0;"/></g><g id="link_ServiceJobTypes_LaborOperation"><path d="M2921.18,236.67 C2920.41,262.17 2914.87,309.19 2886,332.95 C2835.01,374.93 2388.54,399.53 2219.49,407.4 " fill="none" id="ServiceJobTypes-LaborOperation" style="stroke:#181818;stroke-width:1.0;"/></g><g id="link_ServiceJobTypes_StaffAssignmentReference"><path d="M2892.58,236.77 C2865.19,253.69 2823.96,279.15 2796.53,296.09 " fill="none" id="ServiceJobTypes-StaffAssignmentReference" style="stroke:#181818;stroke-width:1.0;"/></g><g id="link_StaffAssignmentReference_LaborOperation"><path d="M2655.9402,332.9788 C2529.1602,352.5288 2326.32,383.79 2219.44,400.26 " fill="none" id="StaffAssignmentReference-backto-LaborOperation" style="stroke:#181818;stroke-width:1.0;"/><polygon fill="#181818" points="2667.8,331.15,2661.2605,328.1111,2655.9402,332.9788,2662.4797,336.0177,2667.8,331.15" style="stroke:#181818;stroke-width:1.0;"/></g><g id="link_TextualDetail_LaborOperation"><path d="M2183.9789,222.5115 C2281.9589,228.3315 2466.1,245.5 2508,296.47 C2587.74,393.45 2341.18,408.67 2219.16,410.42 " fill="none" id="TextualDetail-backto-LaborOperation" style="stroke:#181818;stroke-width:1.0;"/><polygon fill="#181818" points="2172,221.8,2177.7523,226.1487,2183.9789,222.5115,2178.2266,218.1628,2172,221.8" style="stroke:#181818;stroke-width:1.0;"/></g><g id="link_TimeSlot_StaffAssignmentReference"><path d="M2776.978,248.4371 C2774.638,265.3771 2772.75,279.15 2770.41,296.17 " fill="none" id="TimeSlot-backto-StaffAssignmentReference" style="stroke:#181818;stroke-width:1.0;"/><polygon fill="#181818" points="2778.62,236.55,2773.8366,241.9462,2776.978,248.4371,2781.7614,243.0409,2778.62,236.55" style="stroke:#181818;stroke-width:1.0;"/></g><g id="link_TimeslotDirectiveTypes_TimeSlot"><path d="M2757.2976,151.3532 C2763.3876,168.3032 2768.57,182.67 2774.69,199.68 " fill="none" id="TimeslotDirectiveTypes-backto-TimeSlot" style="stroke:#181818;stroke-width:1.0;"/><polygon fill="#181818" points="2753.24,140.06,2751.5044,147.0591,2757.2976,151.3532,2759.0332,144.3541,2753.24,140.06" style="stroke:#181818;stroke-width:1.0;"/></g><g id="link_VehicleIdentifier_MultiPointInspection"><path d="M808.74,416.6 C1040.81,432.13 1821.29,484.35 2074.76,501.32 " fill="none" id="VehicleIdentifier-MultiPointInspection" style="stroke:#181818;stroke-width:1.0;"/></g><g id="link_VehicleLicense_VehicleIdentifier"><path d="M900.25,220.58 C845.18,225.4 766.23,242.13 727,296.47 C706.34,325.08 721.9,368.49 733.47,392.56 " fill="none" id="VehicleLicense-VehicleIdentifier" style="stroke:#181818;stroke-width:1.0;"/></g></g></svg>
