<?xml version="1.0" encoding="us-ascii" standalone="no"?><svg xmlns="http://www.w3.org/2000/svg" xmlns:xlink="http://www.w3.org/1999/xlink" contentStyleType="text/css" height="782px" preserveAspectRatio="none" style="width:524px;height:782px;background:#FFFFFF;" version="1.1" viewBox="0 0 524 782" width="524px" zoomAndPan="magnify"><defs/><g><text fill="#808080" font-family="Arial" font-size="24" font-weight="bold" lengthAdjust="spacing" textLength="130" x="190.06" y="32.5117">Deal Status</text><g id="IN_PROGRESS"><rect fill="#FFB3BA" height="50" rx="5" ry="5" style="stroke:#181818;stroke-width:0.5;" width="112" x="7" y="135.5977"/><line style="stroke:#181818;stroke-width:0.5;" x1="7" x2="119" y1="162.0859" y2="162.0859"/><text fill="#000000" font-family="sans-serif" font-size="14" lengthAdjust="spacing" textLength="92" x="17" y="154.1328">IN_PROGRESS</text></g><g id="ABANDONED"><rect fill="#FFDFBA" height="50" rx="5" ry="5" style="stroke:#181818;stroke-width:0.5;" width="107" x="11.5" y="389.5977"/><line style="stroke:#181818;stroke-width:0.5;" x1="11.5" x2="118.5" y1="416.0859" y2="416.0859"/><text fill="#000000" font-family="sans-serif" font-size="14" lengthAdjust="spacing" textLength="87" x="21.5" y="408.1328">ABANDONED</text></g><g id="ACCEPTED"><rect fill="#FFFFBA" height="50" rx="5" ry="5" style="stroke:#181818;stroke-width:0.5;" width="93" x="236.5" y="262.5977"/><line style="stroke:#181818;stroke-width:0.5;" x1="236.5" x2="329.5" y1="289.0859" y2="289.0859"/><text fill="#000000" font-family="sans-serif" font-size="14" lengthAdjust="spacing" textLength="73" x="246.5" y="281.1328">ACCEPTED</text></g><g id="POSTED"><rect fill="#BAFFC9" height="50" rx="5" ry="5" style="stroke:#181818;stroke-width:0.5;" width="74" x="296" y="389.5977"/><line style="stroke:#181818;stroke-width:0.5;" x1="296" x2="370" y1="416.0859" y2="416.0859"/><text fill="#000000" font-family="sans-serif" font-size="14" lengthAdjust="spacing" textLength="54" x="306" y="408.1328">POSTED</text></g><g id="FUNDED"><rect fill="#BAE1FF" height="50" rx="5" ry="5" style="stroke:#181818;stroke-width:0.5;" width="76" x="322" y="516.5977"/><line style="stroke:#181818;stroke-width:0.5;" x1="322" x2="398" y1="543.0859" y2="543.0859"/><text fill="#000000" font-family="sans-serif" font-size="14" lengthAdjust="spacing" textLength="56" x="332" y="535.1328">FUNDED</text></g><g id="REVERSED"><rect fill="#E0BBE4" height="50" rx="5" ry="5" style="stroke:#181818;stroke-width:0.5;" width="89" x="141.5" y="643.5977"/><line style="stroke:#181818;stroke-width:0.5;" x1="141.5" x2="230.5" y1="670.0859" y2="670.0859"/><text fill="#000000" font-family="sans-serif" font-size="14" lengthAdjust="spacing" textLength="69" x="151.5" y="662.1328">REVERSED</text></g><ellipse cx="63" cy="64.5977" fill="#222222" rx="10" ry="10" style="stroke:#222222;stroke-width:1.0;"/><ellipse cx="186" cy="765.5977" fill="none" rx="11" ry="11" style="stroke:#222222;stroke-width:1.0;"/><ellipse cx="186" cy="765.5977" fill="#222222" rx="6" ry="6" style="stroke:#222222;stroke-width:1.0;"/><g id="link_*start*_IN_PROGRESS"><path d="M63,74.9577 C63,88.8877 63,109.5477 63,129.2477 " fill="none" id="*start*-to-IN_PROGRESS" style="stroke:#181818;stroke-width:1.0;"/><polygon fill="#181818" points="63,135.2477,67,126.2477,63,130.2477,59,126.2477,63,135.2477" style="stroke:#181818;stroke-width:1.0;"/></g><g id="link_IN_PROGRESS_ACCEPTED"><path d="M105.94,185.9977 C144.71,208.0177 196.2229,237.2942 234.9529,259.2942 " fill="none" id="IN_PROGRESS-to-ACCEPTED" style="stroke:#181818;stroke-width:1.0;"/><polygon fill="#181818" points="240.17,262.2577,234.32,254.3344,235.8224,259.7881,230.3687,261.2905,240.17,262.2577" style="stroke:#181818;stroke-width:1.0;"/><text fill="#000000" font-family="sans-serif" font-size="13" lengthAdjust="spacing" textLength="106" x="187.17" y="229.166">Finalize Contract</text></g><g id="link_IN_PROGRESS_ABANDONED"><path d="M59.18,185.9077 C54.96,215.7477 49.13,267.8777 52,312.5977 C53.68,338.8877 56.8915,362.8584 60.0515,383.2584 " fill="none" id="IN_PROGRESS-to-ABANDONED" style="stroke:#181818;stroke-width:1.0;"/><polygon fill="#181818" points="60.97,389.1877,63.5452,379.6814,60.2046,384.2466,55.6395,380.906,60.97,389.1877" style="stroke:#181818;stroke-width:1.0;"/><text fill="#000000" font-family="sans-serif" font-size="13" lengthAdjust="spacing" textLength="165" x="53" y="292.666">Deal Bust Before Signature</text></g><g id="link_ABANDONED_*end*"><path d="M66.08,439.9977 C69.15,490.0877 80.77,607.0977 124,693.5977 C137.61,720.8277 159.6361,742.0378 173.1461,753.7478 " fill="none" id="ABANDONED-to-*end*" style="stroke:#181818;stroke-width:1.0;"/><polygon fill="#181818" points="177.68,757.6777,173.499,748.7603,173.9017,754.4028,168.2592,754.8055,177.68,757.6777" style="stroke:#181818;stroke-width:1.0;"/></g><g id="link_ACCEPTED_POSTED"><path d="M292.76,312.9977 C301.57,335.0177 312.2295,361.6877 321.0395,383.6877 " fill="none" id="ACCEPTED-to-POSTED" style="stroke:#181818;stroke-width:1.0;"/><polygon fill="#181818" points="323.27,389.2577,323.6375,379.4157,321.4112,384.616,316.2109,382.3897,323.27,389.2577" style="stroke:#181818;stroke-width:1.0;"/><text fill="#000000" font-family="sans-serif" font-size="13" lengthAdjust="spacing" textLength="144" x="311.99" y="356.166">Push to General Ledger</text></g><g id="link_ACCEPTED_ABANDONED"><path d="M236.14,304.2177 C227.16,307.0877 217.81,309.9977 209,312.5977 C159.16,327.2877 135.43,308.7577 96,342.5977 C82.12,354.5077 75.8607,368.0307 71.5207,383.5007 " fill="none" id="ACCEPTED-to-ABANDONED" style="stroke:#181818;stroke-width:1.0;"/><polygon fill="#181818" points="69.9,389.2777,76.1823,381.6927,71.2506,384.4635,68.4797,379.5317,69.9,389.2777" style="stroke:#181818;stroke-width:1.0;"/><text fill="#000000" font-family="sans-serif" font-size="13" lengthAdjust="spacing" textLength="199" x="97" y="356.166">Contract Voided Post-Signature</text></g><g id="link_POSTED_FUNDED"><path d="M338.27,439.9977 C343.03,462.0177 348.7237,488.3928 353.4737,510.3928 " fill="none" id="POSTED-to-FUNDED" style="stroke:#181818;stroke-width:1.0;"/><polygon fill="#181818" points="354.74,516.2577,356.7505,506.6162,353.6848,511.3703,348.9307,508.3046,354.74,516.2577" style="stroke:#181818;stroke-width:1.0;"/><text fill="#000000" font-family="sans-serif" font-size="13" lengthAdjust="spacing" textLength="167" x="349.12" y="483.166">Bank Receipt Confirmation</text></g><g id="link_POSTED_REVERSED"><path d="M295.63,426.7477 C256.35,440.6877 196.64,468.7477 170,516.5977 C147.75,556.5577 160.8463,606.1114 172.9863,637.5114 " fill="none" id="POSTED-to-REVERSED" style="stroke:#181818;stroke-width:1.0;"/><polygon fill="#181818" points="175.15,643.1077,175.6354,633.2708,173.3469,638.4441,168.1736,636.1557,175.15,643.1077" style="stroke:#181818;stroke-width:1.0;"/><text fill="#000000" font-family="sans-serif" font-size="13" lengthAdjust="spacing" textLength="132" x="171" y="546.666">Rollback Posted Deal</text></g><g id="link_FUNDED_*end*"><path d="M363.14,567.0977 C363.89,581.3477 362.93,599.2577 356,613.5977 C319.4,689.2977 231.32,740.7452 200.98,756.8452 " fill="none" id="FUNDED-to-*end*" style="stroke:#181818;stroke-width:1.0;"/><polygon fill="#181818" points="195.68,759.6577,205.505,758.9723,200.0967,757.3139,201.755,751.9056,195.68,759.6577" style="stroke:#181818;stroke-width:1.0;"/></g><g id="link_FUNDED_REVERSED"><path d="M321.56,556.9477 C312.84,560.1577 303.61,563.5277 295,566.5977 C256.48,580.3477 236.46,567.2277 208,596.5977 C195.88,609.1077 191.3736,622.2439 188.9236,637.4639 " fill="none" id="FUNDED-to-REVERSED" style="stroke:#181818;stroke-width:1.0;"/><polygon fill="#181818" points="187.97,643.3877,193.3495,635.1377,188.7646,638.4512,185.4512,633.8663,187.97,643.3877" style="stroke:#181818;stroke-width:1.0;"/><text fill="#000000" font-family="sans-serif" font-size="13" lengthAdjust="spacing" textLength="142" x="209" y="610.166">Post-Funding Reversal</text></g><g id="link_REVERSED_*end*"><path d="M186,694.0577 C186,713.6377 186,734.0877 186,748.3977 " fill="none" id="REVERSED-to-*end*" style="stroke:#181818;stroke-width:1.0;"/><polygon fill="#181818" points="186,754.3977,190,745.3977,186,749.3977,182,745.3977,186,754.3977" style="stroke:#181818;stroke-width:1.0;"/></g></g></svg>
