<?xml version="1.0" encoding="us-ascii" standalone="no"?><svg xmlns="http://www.w3.org/2000/svg" xmlns:xlink="http://www.w3.org/1999/xlink" contentStyleType="text/css" height="1908px" preserveAspectRatio="none" style="width:1492px;height:1908px;background:#FFFFFF;" version="1.1" viewBox="0 0 1492 1908" width="1492px" zoomAndPan="magnify"><defs/><g><text fill="#808080" font-family="Arial" font-size="24" font-weight="bold" lengthAdjust="spacing" textLength="163" x="657.5" y="32.5117">Invoice Status</text><g id="DRAFT"><rect fill="#FFB3BA" height="50" rx="5" ry="5" style="stroke:#181818;stroke-width:0.5;" width="66" x="263" y="135.5977"/><line style="stroke:#181818;stroke-width:0.5;" x1="263" x2="329" y1="162.0859" y2="162.0859"/><text fill="#000000" font-family="sans-serif" font-size="14" lengthAdjust="spacing" textLength="46" x="273" y="154.1328">DRAFT</text></g><g id="PENDING_APPROVAL"><rect fill="#FFDFBA" height="50" rx="5" ry="5" style="stroke:#181818;stroke-width:0.5;" width="159" x="149.5" y="262.5977"/><line style="stroke:#181818;stroke-width:0.5;" x1="149.5" x2="308.5" y1="289.0859" y2="289.0859"/><text fill="#000000" font-family="sans-serif" font-size="14" lengthAdjust="spacing" textLength="139" x="159.5" y="281.1328">PENDING_APPROVAL</text></g><g id="ISSUED"><rect fill="#FFFFBA" height="50" rx="5" ry="5" style="stroke:#181818;stroke-width:0.5;" width="68" x="400" y="422.5977"/><line style="stroke:#181818;stroke-width:0.5;" x1="400" x2="468" y1="449.0859" y2="449.0859"/><text fill="#000000" font-family="sans-serif" font-size="14" lengthAdjust="spacing" textLength="48" x="410" y="441.1328">ISSUED</text></g><g id="ACKNOWLEDGED"><rect fill="#BAFFC9" height="50" rx="5" ry="5" style="stroke:#181818;stroke-width:0.5;" width="135" x="451.5" y="582.5977"/><line style="stroke:#181818;stroke-width:0.5;" x1="451.5" x2="586.5" y1="609.0859" y2="609.0859"/><text fill="#000000" font-family="sans-serif" font-size="14" lengthAdjust="spacing" textLength="115" x="461.5" y="601.1328">ACKNOWLEDGED</text></g><g id="PROCESSING_FULFILLMENT"><rect fill="#BAE1FF" height="50" rx="5" ry="5" style="stroke:#181818;stroke-width:0.5;" width="203" x="555.5" y="709.5977"/><line style="stroke:#181818;stroke-width:0.5;" x1="555.5" x2="758.5" y1="736.0859" y2="736.0859"/><text fill="#000000" font-family="sans-serif" font-size="14" lengthAdjust="spacing" textLength="183" x="565.5" y="728.1328">PROCESSING_FULFILLMENT</text></g><g id="BACKORDERED"><rect fill="#E0BBE4" height="50" rx="5" ry="5" style="stroke:#181818;stroke-width:0.5;" width="122" x="611" y="836.5977"/><line style="stroke:#181818;stroke-width:0.5;" x1="611" x2="733" y1="863.0859" y2="863.0859"/><text fill="#000000" font-family="sans-serif" font-size="14" lengthAdjust="spacing" textLength="102" x="621" y="855.1328">BACKORDERED</text></g><g id="PARTIALLY_SHIPPED"><rect fill="#957DAD" height="50" rx="5" ry="5" style="stroke:#181818;stroke-width:0.5;" width="156" x="783" y="836.5977"/><line style="stroke:#181818;stroke-width:0.5;" x1="783" x2="939" y1="863.0859" y2="863.0859"/><text fill="#000000" font-family="sans-serif" font-size="14" lengthAdjust="spacing" textLength="136" x="793" y="855.1328">PARTIALLY_SHIPPED</text></g><g id="SHIPPED"><rect fill="#D291BC" height="50" rx="5" ry="5" style="stroke:#181818;stroke-width:0.5;" width="76" x="916" y="963.5977"/><line style="stroke:#181818;stroke-width:0.5;" x1="916" x2="992" y1="990.0859" y2="990.0859"/><text fill="#000000" font-family="sans-serif" font-size="14" lengthAdjust="spacing" textLength="56" x="926" y="982.1328">SHIPPED</text></g><g id="DELIVERED"><rect fill="#FEC8D8" height="50" rx="5" ry="5" style="stroke:#181818;stroke-width:0.5;" width="93" x="907.5" y="1090.5977"/><line style="stroke:#181818;stroke-width:0.5;" x1="907.5" x2="1000.5" y1="1117.0859" y2="1117.0859"/><text fill="#000000" font-family="sans-serif" font-size="14" lengthAdjust="spacing" textLength="73" x="917.5" y="1109.1328">DELIVERED</text></g><g id="OPEN"><rect fill="#FFDFD3" height="50" rx="5" ry="5" style="stroke:#181818;stroke-width:0.5;" width="57" x="1034.5" y="1217.5977"/><line style="stroke:#181818;stroke-width:0.5;" x1="1034.5" x2="1091.5" y1="1244.0859" y2="1244.0859"/><text fill="#000000" font-family="sans-serif" font-size="14" lengthAdjust="spacing" textLength="37" x="1044.5" y="1236.1328">OPEN</text></g><g id="PARTIALLY_PAID"><rect fill="#D4F0F0" height="50" rx="5" ry="5" style="stroke:#181818;stroke-width:0.5;" width="132" x="1246" y="1344.5977"/><line style="stroke:#181818;stroke-width:0.5;" x1="1246" x2="1378" y1="1371.0859" y2="1371.0859"/><text fill="#000000" font-family="sans-serif" font-size="14" lengthAdjust="spacing" textLength="112" x="1256" y="1363.1328">PARTIALLY_PAID</text></g><g id="PENDING_PAYMENT"><rect fill="#CCE2CB" height="50" rx="5" ry="5" style="stroke:#181818;stroke-width:0.5;" width="153" x="696.5" y="1344.5977"/><line style="stroke:#181818;stroke-width:0.5;" x1="696.5" x2="849.5" y1="1371.0859" y2="1371.0859"/><text fill="#000000" font-family="sans-serif" font-size="14" lengthAdjust="spacing" textLength="133" x="706.5" y="1363.1328">PENDING_PAYMENT</text></g><g id="OVERDUE"><rect fill="#B6CFB6" height="50" rx="5" ry="5" style="stroke:#181818;stroke-width:0.5;" width="85" x="554.5" y="1344.5977"/><line style="stroke:#181818;stroke-width:0.5;" x1="554.5" x2="639.5" y1="1371.0859" y2="1371.0859"/><text fill="#000000" font-family="sans-serif" font-size="14" lengthAdjust="spacing" textLength="65" x="564.5" y="1363.1328">OVERDUE</text></g><g id="PAID"><rect fill="#97C1A9" height="50" rx="5" ry="5" style="stroke:#181818;stroke-width:0.5;" width="52" x="747" y="1471.5977"/><line style="stroke:#181818;stroke-width:0.5;" x1="747" x2="799" y1="1498.0859" y2="1498.0859"/><text fill="#000000" font-family="sans-serif" font-size="14" lengthAdjust="spacing" textLength="32" x="757" y="1490.1328">PAID</text></g><g id="SETTLED"><rect fill="#FCB9AA" height="50" rx="5" ry="5" style="stroke:#181818;stroke-width:0.5;" width="79" x="566.5" y="1598.5977"/><line style="stroke:#181818;stroke-width:0.5;" x1="566.5" x2="645.5" y1="1625.0859" y2="1625.0859"/><text fill="#000000" font-family="sans-serif" font-size="14" lengthAdjust="spacing" textLength="59" x="576.5" y="1617.1328">SETTLED</text></g><g id="CLOSED"><rect fill="#A2E1DB" height="50" rx="5" ry="5" style="stroke:#181818;stroke-width:0.5;" width="74" x="367" y="1725.5977"/><line style="stroke:#181818;stroke-width:0.5;" x1="367" x2="441" y1="1752.0859" y2="1752.0859"/><text fill="#000000" font-family="sans-serif" font-size="14" lengthAdjust="spacing" textLength="54" x="377" y="1744.1328">CLOSED</text></g><g id="VOIDED"><rect fill="#55CBCD" height="50" rx="5" ry="5" style="stroke:#181818;stroke-width:0.5;" width="72" x="1006" y="342.5977"/><line style="stroke:#181818;stroke-width:0.5;" x1="1006" x2="1078" y1="369.0859" y2="369.0859"/><text fill="#000000" font-family="sans-serif" font-size="14" lengthAdjust="spacing" textLength="52" x="1016" y="361.1328">VOIDED</text></g><g id="CANCELLED"><rect fill="#C1E1C1" height="50" rx="5" ry="5" style="stroke:#181818;stroke-width:0.5;" width="100" x="226" y="963.5977"/><line style="stroke:#181818;stroke-width:0.5;" x1="226" x2="326" y1="990.0859" y2="990.0859"/><text fill="#000000" font-family="sans-serif" font-size="14" lengthAdjust="spacing" textLength="80" x="236" y="982.1328">CANCELLED</text></g><g id="DISPUTED"><rect fill="#FDFD96" height="50" rx="5" ry="5" style="stroke:#181818;stroke-width:0.5;" width="87" x="1123.5" y="1344.5977"/><line style="stroke:#181818;stroke-width:0.5;" x1="1123.5" x2="1210.5" y1="1371.0859" y2="1371.0859"/><text fill="#000000" font-family="sans-serif" font-size="14" lengthAdjust="spacing" textLength="67" x="1133.5" y="1363.1328">DISPUTED</text></g><g id="ON_HOLD"><rect fill="#FFB7CE" height="50" rx="5" ry="5" style="stroke:#181818;stroke-width:0.5;" width="86" x="324" y="836.5977"/><line style="stroke:#181818;stroke-width:0.5;" x1="324" x2="410" y1="863.0859" y2="863.0859"/><text fill="#000000" font-family="sans-serif" font-size="14" lengthAdjust="spacing" textLength="66" x="334" y="855.1328">ON_HOLD</text></g><g id="ADJUSTED"><rect fill="#C3B1E1" height="50" rx="5" ry="5" style="stroke:#181818;stroke-width:0.5;" width="89" x="26.5" y="1852.5977"/><line style="stroke:#181818;stroke-width:0.5;" x1="26.5" x2="115.5" y1="1879.0859" y2="1879.0859"/><text fill="#000000" font-family="sans-serif" font-size="14" lengthAdjust="spacing" textLength="69" x="36.5" y="1871.1328">ADJUSTED</text></g><g id="REFUNDED"><rect fill="#F4978E" height="50" rx="5" ry="5" style="stroke:#181818;stroke-width:0.5;" width="93" x="597.5" y="1725.5977"/><line style="stroke:#181818;stroke-width:0.5;" x1="597.5" x2="690.5" y1="1752.0859" y2="1752.0859"/><text fill="#000000" font-family="sans-serif" font-size="14" lengthAdjust="spacing" textLength="73" x="607.5" y="1744.1328">REFUNDED</text></g><g id="DECLINED"><rect fill="#F8AD9D" height="50" rx="5" ry="5" style="stroke:#181818;stroke-width:0.5;" width="87" x="45.5" y="502.5977"/><line style="stroke:#181818;stroke-width:0.5;" x1="45.5" x2="132.5" y1="529.0859" y2="529.0859"/><text fill="#000000" font-family="sans-serif" font-size="14" lengthAdjust="spacing" textLength="67" x="55.5" y="521.1328">DECLINED</text></g><ellipse cx="296" cy="64.5977" fill="#222222" rx="10" ry="10" style="stroke:#222222;stroke-width:1.0;"/><g id="INTERNAL_HOLD"><rect fill="#F1F1F1" height="50" rx="5" ry="5" style="stroke:#181818;stroke-width:0.5;" width="132" x="367" y="1471.5977"/><line style="stroke:#181818;stroke-width:0.5;" x1="367" x2="499" y1="1498.0859" y2="1498.0859"/><text fill="#000000" font-family="sans-serif" font-size="14" lengthAdjust="spacing" textLength="112" x="377" y="1490.1328">INTERNAL_HOLD</text></g><ellipse cx="404" cy="1877.5977" fill="none" rx="11" ry="11" style="stroke:#222222;stroke-width:1.0;"/><ellipse cx="404" cy="1877.5977" fill="#222222" rx="6" ry="6" style="stroke:#222222;stroke-width:1.0;"/><g id="link_*start*_DRAFT"><path d="M296,74.9577 C296,88.8877 296,109.5477 296,129.2477 " fill="none" id="*start*-to-DRAFT" style="stroke:#181818;stroke-width:1.0;"/><polygon fill="#181818" points="296,135.2477,300,126.2477,296,130.2477,292,126.2477,296,135.2477" style="stroke:#181818;stroke-width:1.0;"/></g><g id="link_DRAFT_PENDING_APPROVAL"><path d="M282.92,185.9977 C271.12,208.0177 256.676,234.9702 244.876,256.9702 " fill="none" id="DRAFT-to-PENDING_APPROVAL" style="stroke:#181818;stroke-width:1.0;"/><polygon fill="#181818" points="242.04,262.2577,249.819,256.2171,244.4033,257.8514,242.769,252.4358,242.04,262.2577" style="stroke:#181818;stroke-width:1.0;"/><text fill="#000000" font-family="sans-serif" font-size="13" lengthAdjust="spacing" textLength="113" x="267.51" y="229.166">Submit for Review</text></g><g id="link_PENDING_APPROVAL_DRAFT"><path d="M149.46,272.7277 C108.09,261.8977 70.27,243.8277 92,215.5977 C112.73,188.6677 204.5819,173.2048 256.8719,166.2848 " fill="none" id="PENDING_APPROVAL-to-DRAFT" style="stroke:#181818;stroke-width:1.0;"/><polygon fill="#181818" points="262.82,165.4977,253.373,162.713,257.8632,166.1536,254.4226,170.6438,262.82,165.4977" style="stroke:#181818;stroke-width:1.0;"/><text fill="#000000" font-family="sans-serif" font-size="13" lengthAdjust="spacing" textLength="156" x="93" y="229.166">Send back for Correction</text></g><g id="link_DRAFT_ISSUED"><path d="M329.27,172.5177 C349.93,181.0177 375.26,194.8977 390,215.5977 C435.35,279.2777 437.7102,370.9525 435.9002,416.1325 " fill="none" id="DRAFT-to-ISSUED" style="stroke:#181818;stroke-width:1.0;"/><polygon fill="#181818" points="435.66,422.1277,440.0171,413.295,435.8601,417.1317,432.0235,412.9748,435.66,422.1277" style="stroke:#181818;stroke-width:1.0;"/><text fill="#000000" font-family="sans-serif" font-size="13" lengthAdjust="spacing" textLength="109" x="428.68" y="292.666">Finalize and Send</text></g><g id="link_DRAFT_VOIDED"><path d="M329.02,170.6677 C451.4,204.2977 872.8145,320.1077 1000.1345,355.0977 " fill="none" id="DRAFT-to-VOIDED" style="stroke:#181818;stroke-width:1.0;"/><polygon fill="#181818" points="1005.92,356.6877,998.3017,350.4457,1001.0988,355.3627,996.1818,358.1597,1005.92,356.6877" style="stroke:#181818;stroke-width:1.0;"/><text fill="#000000" font-family="sans-serif" font-size="13" lengthAdjust="spacing" textLength="84" x="544.34" y="229.166">Discard Draft</text></g><g id="link_PENDING_APPROVAL_ISSUED"><path d="M256.65,312.9677 C281.55,334.5877 319.46,366.6677 354,392.5977 C368.61,403.5577 380.2791,411.6624 394.6091,421.1624 " fill="none" id="PENDING_APPROVAL-to-ISSUED" style="stroke:#181818;stroke-width:1.0;"/><polygon fill="#181818" points="399.61,424.4777,394.3189,416.1708,395.4426,421.7149,389.8985,422.8386,399.61,424.4777" style="stroke:#181818;stroke-width:1.0;"/><text fill="#000000" font-family="sans-serif" font-size="13" lengthAdjust="spacing" textLength="52" x="355" y="372.666">Approve</text></g><g id="link_PENDING_APPROVAL_DECLINED"><path d="M214.81,312.7277 C187.97,358.3477 133.1317,451.5658 106.2717,497.2358 " fill="none" id="PENDING_APPROVAL-to-DECLINED" style="stroke:#181818;stroke-width:1.0;"/><polygon fill="#181818" points="103.23,502.4077,111.2405,496.6777,105.7648,498.0978,104.3447,492.6221,103.23,502.4077" style="stroke:#181818;stroke-width:1.0;"/><text fill="#000000" font-family="sans-serif" font-size="13" lengthAdjust="spacing" textLength="38" x="197.21" y="372.666">Reject</text></g><g id="link_ISSUED_ACKNOWLEDGED"><path d="M447.09,472.9377 C463.07,502.6277 487.0671,547.2439 503.0471,576.9439 " fill="none" id="ISSUED-to-ACKNOWLEDGED" style="stroke:#181818;stroke-width:1.0;"/><polygon fill="#181818" points="505.89,582.2277,505.1481,572.4068,503.5209,577.8245,498.1032,576.1973,505.89,582.2277" style="stroke:#181818;stroke-width:1.0;"/><text fill="#000000" font-family="sans-serif" font-size="13" lengthAdjust="spacing" textLength="101" x="490.08" y="532.666">Confirm Receipt</text></g><g id="link_ISSUED_OPEN"><path d="M468.41,451.2677 C627.62,464.0777 1285,522.0677 1285,606.5977 C1285,606.5977 1285,606.5977 1285,1116.5977 C1285,1204.3977 1157.4824,1230.4432 1097.5224,1238.0432 " fill="none" id="ISSUED-to-OPEN" style="stroke:#181818;stroke-width:1.0;"/><polygon fill="#181818" points="1091.57,1238.7977,1101.0015,1241.6342,1096.5303,1238.1689,1099.9956,1233.6977,1091.57,1238.7977" style="stroke:#181818;stroke-width:1.0;"/><text fill="#000000" font-family="sans-serif" font-size="13" lengthAdjust="spacing" textLength="145" x="1286" y="866.666">Awaiting Payment Only</text></g><g id="link_ISSUED_CANCELLED"><path d="M399.51,452.7077 C327.13,463.4377 166,499.3877 166,606.5977 C166,606.5977 166,606.5977 166,862.5977 C166,905.8177 198.6017,937.7368 229.8217,959.6868 " fill="none" id="ISSUED-to-CANCELLED" style="stroke:#181818;stroke-width:1.0;"/><polygon fill="#181818" points="234.73,963.1377,229.6682,954.6891,230.6398,960.2619,225.067,961.2335,234.73,963.1377" style="stroke:#181818;stroke-width:1.0;"/><text fill="#000000" font-family="sans-serif" font-size="13" lengthAdjust="spacing" textLength="136" x="167" y="739.666">Cancel Issued Invoice</text></g><g id="link_ACKNOWLEDGED_PROCESSING_FULFILLMENT"><path d="M545.94,632.9977 C570.25,655.0177 601.3929,683.2298 625.6829,705.2298 " fill="none" id="ACKNOWLEDGED-to-PROCESSING_FULFILLMENT" style="stroke:#181818;stroke-width:1.0;"/><polygon fill="#181818" points="630.13,709.2577,626.1446,700.2512,626.4241,705.9011,620.7741,706.1806,630.13,709.2577" style="stroke:#181818;stroke-width:1.0;"/><text fill="#000000" font-family="sans-serif" font-size="13" lengthAdjust="spacing" textLength="179" x="597.26" y="676.166">Release to Warehouse (Parts)</text></g><g id="link_ACKNOWLEDGED_OPEN"><path d="M586.55,613.7277 C706.07,626.9177 951.63,673.5377 1052,836.5977 C1130.29,963.7877 1080.77,1021.4677 1089,1170.5977 C1089.42,1178.1377 1090.68,1180.2277 1089,1187.5977 C1086.69,1197.7377 1084.9408,1202.8551 1080.3508,1211.8351 " fill="none" id="ACKNOWLEDGED-to-OPEN" style="stroke:#181818;stroke-width:1.0;"/><polygon fill="#181818" points="1077.62,1217.1777,1085.2779,1210.9843,1079.8956,1212.7255,1078.1545,1207.3433,1077.62,1217.1777" style="stroke:#181818;stroke-width:1.0;"/><text fill="#000000" font-family="sans-serif" font-size="13" lengthAdjust="spacing" textLength="149" x="1093.13" y="930.166">Move to Billing (Service)</text></g><g id="link_ACKNOWLEDGED_CANCELLED"><path d="M487.88,633.0377 C448.06,663.9177 376.49,718.0177 312,759.5977 C289.25,774.2677 272.63,766.2177 259,789.5977 C226.76,844.8877 247.9927,918.4167 263.3327,957.8067 " fill="none" id="ACKNOWLEDGED-to-CANCELLED" style="stroke:#181818;stroke-width:1.0;"/><polygon fill="#181818" points="265.51,963.3977,265.9713,953.5596,263.6955,958.7385,258.5167,956.4627,265.51,963.3977" style="stroke:#181818;stroke-width:1.0;"/><text fill="#000000" font-family="sans-serif" font-size="13" lengthAdjust="spacing" textLength="88" x="260" y="803.166">Reject Receipt</text></g><g id="link_PROCESSING_FULFILLMENT_SHIPPED"><path d="M758.7,744.8977 C827.57,753.0777 910.81,767.2377 938,789.5977 C990.21,832.5377 1005.31,868.5177 987,933.5977 C984.08,943.9677 981.8167,949.2684 976.1167,958.0884 " fill="none" id="PROCESSING_FULFILLMENT-to-SHIPPED" style="stroke:#181818;stroke-width:1.0;"/><polygon fill="#181818" points="972.86,963.1277,981.1045,957.7399,975.5739,958.9283,974.3855,953.3977,972.86,963.1277" style="stroke:#181818;stroke-width:1.0;"/><text fill="#000000" font-family="sans-serif" font-size="13" lengthAdjust="spacing" textLength="48" x="995.45" y="866.666">Ship All</text></g><g id="link_PROCESSING_FULFILLMENT_PARTIALLY_SHIPPED"><path d="M758.99,743.2577 C791.62,750.7077 825.16,764.4877 848,789.5977 C859.38,802.1077 862.2697,815.1687 862.5497,830.3987 " fill="none" id="PROCESSING_FULFILLMENT-to-PARTIALLY_SHIPPED" style="stroke:#181818;stroke-width:1.0;"/><polygon fill="#181818" points="862.66,836.3977,866.4939,827.3257,862.5681,831.3985,858.4952,827.4727,862.66,836.3977" style="stroke:#181818;stroke-width:1.0;"/><text fill="#000000" font-family="sans-serif" font-size="13" lengthAdjust="spacing" textLength="70" x="858.64" y="803.166">Ship Partial</text></g><g id="link_PROCESSING_FULFILLMENT_BACKORDERED"><path d="M724.08,759.9077 C736.42,767.4877 747.69,777.2177 755,789.5977 C765.9,808.0477 756.1341,820.9326 736.0941,833.0526 " fill="none" id="PROCESSING_FULFILLMENT-to-BACKORDERED" style="stroke:#181818;stroke-width:1.0;"/><polygon fill="#181818" points="730.96,836.1577,740.7311,834.9228,735.2384,833.5701,736.5911,828.0774,730.96,836.1577" style="stroke:#181818;stroke-width:1.0;"/><text fill="#000000" font-family="sans-serif" font-size="13" lengthAdjust="spacing" textLength="79" x="759.68" y="803.166">Out of Stock</text></g><g id="link_BACKORDERED_PROCESSING_FULFILLMENT"><path d="M659.73,836.2177 C655.8,827.1577 651.97,816.6277 650,806.5977 C647,791.2777 647.599,779.7549 650.049,765.9849 " fill="none" id="BACKORDERED-to-PROCESSING_FULFILLMENT" style="stroke:#181818;stroke-width:1.0;"/><polygon fill="#181818" points="651.1,760.0777,645.5853,768.2378,650.2241,765.0003,653.4616,769.6392,651.1,760.0777" style="stroke:#181818;stroke-width:1.0;"/><text fill="#000000" font-family="sans-serif" font-size="13" lengthAdjust="spacing" textLength="95" x="651" y="803.166">Restock Arrival</text></g><g id="link_PROCESSING_FULFILLMENT_ON_HOLD"><path d="M555.35,740.8077 C480.69,747.0077 388.24,760.4777 364,789.5977 C353.42,802.3077 353.3257,815.3267 356.9857,830.4167 " fill="none" id="PROCESSING_FULFILLMENT-to-ON_HOLD" style="stroke:#181818;stroke-width:1.0;"/><polygon fill="#181818" points="358.4,836.2477,360.1659,826.5584,357.2214,831.3885,352.3913,828.4441,358.4,836.2477" style="stroke:#181818;stroke-width:1.0;"/><text fill="#000000" font-family="sans-serif" font-size="13" lengthAdjust="spacing" textLength="125" x="365" y="803.166">Suspend Fulfillment</text></g><g id="link_ON_HOLD_PROCESSING_FULFILLMENT"><path d="M410.31,842.4977 C435.14,832.0877 466.86,818.6977 495,806.5977 C530.69,791.2477 565.1696,776.1576 596.4796,762.3576 " fill="none" id="ON_HOLD-to-PROCESSING_FULFILLMENT" style="stroke:#181818;stroke-width:1.0;"/><polygon fill="#181818" points="601.97,759.9377,592.1212,759.9073,597.3947,761.9542,595.3477,767.2277,601.97,759.9377" style="stroke:#181818;stroke-width:1.0;"/><text fill="#000000" font-family="sans-serif" font-size="13" lengthAdjust="spacing" textLength="81" x="531.57" y="803.166">Release Hold</text></g><g id="link_PARTIALLY_SHIPPED_SHIPPED"><path d="M855.67,886.8677 C853.81,901.3777 853.88,919.6377 862,933.5977 C873.64,953.6077 890.3337,964.5875 910.0137,973.0075 " fill="none" id="PARTIALLY_SHIPPED-to-SHIPPED" style="stroke:#181818;stroke-width:1.0;"/><polygon fill="#181818" points="915.53,975.3677,908.8289,968.1499,910.9331,973.4009,905.6821,975.505,915.53,975.3677" style="stroke:#181818;stroke-width:1.0;"/><text fill="#000000" font-family="sans-serif" font-size="13" lengthAdjust="spacing" textLength="119" x="863" y="930.166">Complete Shipping</text></g><g id="link_SHIPPED_DELIVERED"><path d="M954,1013.9977 C954,1036.0177 954,1062.2577 954,1084.2577 " fill="none" id="SHIPPED-to-DELIVERED" style="stroke:#181818;stroke-width:1.0;"/><polygon fill="#181818" points="954,1090.2577,958,1081.2577,954,1085.2577,950,1081.2577,954,1090.2577" style="stroke:#181818;stroke-width:1.0;"/><text fill="#000000" font-family="sans-serif" font-size="13" lengthAdjust="spacing" textLength="106" x="955" y="1057.166">Confirm Delivery</text></g><g id="link_DELIVERED_OPEN"><path d="M946.4,1141.0577 C943.39,1155.6377 942.4,1173.9077 951,1187.5977 C969.08,1216.3877 1001.4728,1228.8093 1028.2128,1235.1693 " fill="none" id="DELIVERED-to-OPEN" style="stroke:#181818;stroke-width:1.0;"/><polygon fill="#181818" points="1034.05,1236.5577,1026.2198,1230.5837,1029.1857,1235.4007,1024.3687,1238.3666,1034.05,1236.5577" style="stroke:#181818;stroke-width:1.0;"/><text fill="#000000" font-family="sans-serif" font-size="13" lengthAdjust="spacing" textLength="132" x="952" y="1184.166">Begin Payment Aging</text></g><g id="link_OPEN_PARTIALLY_PAID"><path d="M1091.72,1246.5277 C1130.74,1251.6277 1201.41,1264.9077 1252,1297.5977 C1270.43,1309.5077 1282.7983,1323.879 1293.5383,1339.349 " fill="none" id="OPEN-to-PARTIALLY_PAID" style="stroke:#181818;stroke-width:1.0;"/><polygon fill="#181818" points="1296.96,1344.2777,1295.1132,1334.6035,1294.1086,1340.1704,1288.5416,1339.1658,1296.96,1344.2777" style="stroke:#181818;stroke-width:1.0;"/><text fill="#000000" font-family="sans-serif" font-size="13" lengthAdjust="spacing" textLength="147" x="1272.56" y="1311.166">Receive Partial Payment</text></g><g id="link_OPEN_PAID"><path d="M1034.28,1263.5377 C1022.11,1272.9277 1008.37,1284.8577 998,1297.5977 C983.06,1315.9477 983.08,1323.1877 973,1344.5977 C953.14,1386.7877 967.04,1409.7277 933,1441.5977 C895.44,1476.7677 840.1354,1488.3671 805.3254,1492.6371 " fill="none" id="OPEN-to-PAID" style="stroke:#181818;stroke-width:1.0;"/><polygon fill="#181818" points="799.37,1493.3677,808.7901,1496.2421,804.3328,1492.7589,807.816,1488.3016,799.37,1493.3677" style="stroke:#181818;stroke-width:1.0;"/><text fill="#000000" font-family="sans-serif" font-size="13" lengthAdjust="spacing" textLength="131" x="974" y="1374.666">Receive Full Payment</text></g><g id="link_OPEN_OVERDUE"><path d="M1034.27,1248.7877 C987.53,1257.4577 892.28,1276.0677 813,1297.5977 C752.05,1314.1477 688.564,1335.7397 645.284,1351.1097 " fill="none" id="OPEN-to-OVERDUE" style="stroke:#181818;stroke-width:1.0;"/><polygon fill="#181818" points="639.63,1353.1177,649.4497,1353.8751,644.3417,1351.4444,646.7725,1346.3364,639.63,1353.1177" style="stroke:#181818;stroke-width:1.0;"/><text fill="#000000" font-family="sans-serif" font-size="13" lengthAdjust="spacing" textLength="114" x="814" y="1311.166">Due Date Reached</text></g><g id="link_OPEN_DISPUTED"><path d="M1034.06,1262.1277 C1015.51,1276.3577 997.13,1296.5677 1010,1314.5977 C1010.44,1315.2077 1071.0405,1335.9328 1117.3305,1351.7028 " fill="none" id="OPEN-to-DISPUTED" style="stroke:#181818;stroke-width:1.0;"/><polygon fill="#181818" points="1123.01,1353.6377,1115.7807,1346.949,1118.2771,1352.0253,1113.2009,1354.5217,1123.01,1353.6377" style="stroke:#181818;stroke-width:1.0;"/><text fill="#000000" font-family="sans-serif" font-size="13" lengthAdjust="spacing" textLength="114" x="1011" y="1311.166">Customer Dispute</text></g><g id="link_DISPUTED_OPEN"><path d="M1157.4,1344.4177 C1150.96,1329.9477 1141.54,1311.6777 1130,1297.5977 C1119.11,1284.3077 1109.3165,1275.622 1096.5065,1266.162 " fill="none" id="DISPUTED-to-OPEN" style="stroke:#181818;stroke-width:1.0;"/><polygon fill="#181818" points="1091.68,1262.5977,1096.5436,1271.1619,1095.7021,1265.5679,1101.296,1264.7265,1091.68,1262.5977" style="stroke:#181818;stroke-width:1.0;"/><text fill="#000000" font-family="sans-serif" font-size="13" lengthAdjust="spacing" textLength="101" x="1142.35" y="1311.166">Resolve Dispute</text></g><g id="link_PARTIALLY_PAID_PAID"><path d="M1245.61,1389.9577 C1239.67,1391.5777 1233.73,1393.1477 1228,1394.5977 C1066.04,1435.6677 875.1913,1475.01 805.1713,1489.15 " fill="none" id="PARTIALLY_PAID-to-PAID" style="stroke:#181818;stroke-width:1.0;"/><polygon fill="#181818" points="799.29,1490.3377,808.9037,1492.477,804.1911,1489.3479,807.3201,1484.6353,799.29,1490.3377" style="stroke:#181818;stroke-width:1.0;"/><text fill="#000000" font-family="sans-serif" font-size="13" lengthAdjust="spacing" textLength="117" x="1104.58" y="1438.166">Receive Remainder</text></g><g id="link_PENDING_PAYMENT_PAID"><path d="M771.35,1395.0477 C770.81,1404.2977 770.27,1414.9277 770,1424.5977 C769.57,1440.1377 769.9231,1451.5889 770.7631,1465.2989 " fill="none" id="PENDING_PAYMENT-to-PAID" style="stroke:#181818;stroke-width:1.0;"/><polygon fill="#181818" points="771.13,1471.2877,774.5721,1462.0599,770.8242,1466.297,766.5871,1462.5491,771.13,1471.2877" style="stroke:#181818;stroke-width:1.0;"/><text fill="#000000" font-family="sans-serif" font-size="13" lengthAdjust="spacing" textLength="157" x="771" y="1438.166">Final Payment Confirmed</text></g><g id="link_OVERDUE_PAID"><path d="M601.64,1394.8277 C605.71,1410.0577 613.06,1429.1177 626,1441.5977 C659.65,1474.0677 708.5152,1486.3405 740.8552,1491.5105 " fill="none" id="OVERDUE-to-PAID" style="stroke:#181818;stroke-width:1.0;"/><polygon fill="#181818" points="746.78,1492.4577,738.5243,1487.0871,741.8427,1491.6684,737.2614,1494.9868,746.78,1492.4577" style="stroke:#181818;stroke-width:1.0;"/><text fill="#000000" font-family="sans-serif" font-size="13" lengthAdjust="spacing" textLength="134" x="627" y="1438.166">Receive Late Payment</text></g><g id="link_OVERDUE_INTERNAL_HOLD"><path d="M554.02,1371.2277 C514.58,1374.3677 458.15,1385.9177 430,1424.5977 C420.35,1437.8677 420.203,1450.6562 423.573,1465.5162 " fill="none" id="OVERDUE-to-INTERNAL_HOLD" style="stroke:#181818;stroke-width:1.0;"/><polygon fill="#181818" points="424.9,1471.3677,426.8104,1461.7059,423.7942,1466.4915,419.0086,1463.4752,424.9,1471.3677" style="stroke:#181818;stroke-width:1.0;"/><text fill="#000000" font-family="sans-serif" font-size="13" lengthAdjust="spacing" textLength="122" x="431" y="1438.166">Send to Collections</text></g><g id="link_PAID_SETTLED"><path d="M746.62,1497.1277 C707.77,1498.0477 636.19,1506.2377 603,1551.5977 C593.31,1564.8377 593.1693,1577.6371 596.5493,1592.4971 " fill="none" id="PAID-to-SETTLED" style="stroke:#181818;stroke-width:1.0;"/><polygon fill="#181818" points="597.88,1598.3477,599.7843,1588.6846,596.771,1593.4722,591.9835,1590.459,597.88,1598.3477" style="stroke:#181818;stroke-width:1.0;"/><text fill="#000000" font-family="sans-serif" font-size="13" lengthAdjust="spacing" textLength="143" x="604" y="1565.166">Verify Funds Clearance</text></g><g id="link_PAID_CLOSED"><path d="M746.6,1500.5977 C693.46,1507.9477 572.46,1531.4377 500,1598.5977 C460.02,1635.6577 432.279,1687.4413 417.189,1719.7513 " fill="none" id="PAID-to-CLOSED" style="stroke:#181818;stroke-width:1.0;"/><polygon fill="#181818" points="414.65,1725.1877,422.0827,1718.7258,416.7658,1720.6574,414.8342,1715.3405,414.65,1725.1877" style="stroke:#181818;stroke-width:1.0;"/><text fill="#000000" font-family="sans-serif" font-size="13" lengthAdjust="spacing" textLength="47" x="501" y="1628.666">Archive</text></g><g id="link_PAID_REFUNDED"><path d="M777.37,1522.0677 C783.13,1562.1777 788.64,1642.7677 752,1695.5977 C737.66,1716.2677 718.6708,1727.3555 696.5508,1735.4955 " fill="none" id="PAID-to-REFUNDED" style="stroke:#181818;stroke-width:1.0;"/><polygon fill="#181818" points="690.92,1737.5677,700.7477,1738.2134,695.6124,1735.8409,697.9849,1730.7056,690.92,1737.5677" style="stroke:#181818;stroke-width:1.0;"/><text fill="#000000" font-family="sans-serif" font-size="13" lengthAdjust="spacing" textLength="83" x="781.86" y="1628.666">Return Funds</text></g><g id="link_SETTLED_CLOSED"><path d="M566.15,1639.1277 C542.06,1648.7277 511.22,1662.4877 486,1678.5977 C465.05,1691.9777 448.2572,1706.3127 432.6872,1721.0527 " fill="none" id="SETTLED-to-CLOSED" style="stroke:#181818;stroke-width:1.0;"/><polygon fill="#181818" points="428.33,1725.1777,437.6157,1721.8951,431.961,1721.7402,432.1158,1716.0855,428.33,1725.1777" style="stroke:#181818;stroke-width:1.0;"/><text fill="#000000" font-family="sans-serif" font-size="13" lengthAdjust="spacing" textLength="126" x="487" y="1692.166">Finalize and Archive</text></g><g id="link_SETTLED_REFUNDED"><path d="M613.09,1648.9477 C617.11,1662.6677 622.27,1680.1077 627,1695.5977 C629.96,1705.2777 631.4682,1710.1978 634.3982,1719.4478 " fill="none" id="SETTLED-to-REFUNDED" style="stroke:#181818;stroke-width:1.0;"/><polygon fill="#181818" points="636.21,1725.1677,637.3055,1715.3799,634.7002,1720.4011,629.679,1717.7957,636.21,1725.1677" style="stroke:#181818;stroke-width:1.0;"/><text fill="#000000" font-family="sans-serif" font-size="13" lengthAdjust="spacing" textLength="119" x="628" y="1692.166">Reverse Settlement</text></g><g id="link_CLOSED_ADJUSTED"><path d="M366.82,1763.0277 C333.6,1773.4577 283.72,1789.6277 241,1805.5977 C198.01,1821.6677 155.3038,1839.6484 121.2338,1854.4384 " fill="none" id="CLOSED-to-ADJUSTED" style="stroke:#181818;stroke-width:1.0;"/><polygon fill="#181818" points="115.73,1856.8277,125.5785,1856.913,120.3165,1854.8366,122.3929,1849.5746,115.73,1856.8277" style="stroke:#181818;stroke-width:1.0;"/><text fill="#000000" font-family="sans-serif" font-size="13" lengthAdjust="spacing" textLength="153" x="242" y="1819.166">Apply Credit/Debit Note</text></g><g id="link_CLOSED_CLOSED"><path d="M441.41,1739.0077 C459.74,1737.4977 476,1741.3577 476,1750.5977 C476,1759.8377 465.7197,1764.1903 447.3897,1762.6803 " fill="none" id="CLOSED-to-CLOSED" style="stroke:#181818;stroke-width:1.0;"/><polygon fill="#181818" points="441.41,1762.1877,450.0512,1766.9131,446.3931,1762.5982,450.708,1758.9401,441.41,1762.1877" style="stroke:#181818;stroke-width:1.0;"/><text fill="#000000" font-family="sans-serif" font-size="13" lengthAdjust="spacing" textLength="91" x="482" y="1755.666">Settle Account</text></g><g id="link_CLOSED_*end*"><path d="M404,1775.9977 C404,1803.4177 404,1840.6777 404,1860.2977 " fill="none" id="CLOSED-to-*end*" style="stroke:#181818;stroke-width:1.0;"/><polygon fill="#181818" points="404,1866.2977,408,1857.2977,404,1861.2977,400,1857.2977,404,1866.2977" style="stroke:#181818;stroke-width:1.0;"/></g><g id="link_VOIDED_*end*"><path d="M1078.25,373.5377 C1184.05,388.9777 1485,440.4477 1485,526.5977 C1485,526.5977 1485,526.5977 1485,1751.5977 C1485,1865.1877 536.9398,1875.6335 421.4098,1876.4835 " fill="none" id="VOIDED-to-*end*" style="stroke:#181818;stroke-width:1.0;"/><polygon fill="#181818" points="415.41,1876.5277,424.4392,1880.4613,420.4099,1876.4909,424.3803,1872.4615,415.41,1876.5277" style="stroke:#181818;stroke-width:1.0;"/></g><g id="link_CANCELLED_*end*"><path d="M288.02,1013.8377 C299.16,1038.5477 314,1078.3077 314,1114.5977 C314,1114.5977 314,1114.5977 314,1751.5977 C314,1806.6877 367.4121,1850.55 390.1721,1866.95 " fill="none" id="CANCELLED-to-*end*" style="stroke:#181818;stroke-width:1.0;"/><polygon fill="#181818" points="395.04,1870.4577,390.0766,1861.9509,390.9834,1867.5346,385.3997,1868.4415,395.04,1870.4577" style="stroke:#181818;stroke-width:1.0;"/></g><g id="link_ON_HOLD_CANCELLED"><path d="M349.24,886.9977 C333.2,909.0177 313.2719,936.4073 297.2519,958.4073 " fill="none" id="ON_HOLD-to-CANCELLED" style="stroke:#181818;stroke-width:1.0;"/><polygon fill="#181818" points="293.72,963.2577,302.2514,958.3368,296.6633,959.2157,295.7843,953.6276,293.72,963.2577" style="stroke:#181818;stroke-width:1.0;"/><text fill="#000000" font-family="sans-serif" font-size="13" lengthAdjust="spacing" textLength="133" x="327.95" y="930.166">Cancel while on Hold</text></g><g id="link_ADJUSTED_DRAFT"><path d="M49.36,1852.2077 C30.45,1828.3177 6,1789.9977 6,1751.5977 C6,286.5977 6,286.5977 6,286.5977 C6,175.8477 180.5604,162.1178 256.7304,161.2278 " fill="none" id="ADJUSTED-to-DRAFT" style="stroke:#181818;stroke-width:1.0;"/><polygon fill="#181818" points="262.73,161.1577,253.6839,157.2631,257.7303,161.2161,253.7773,165.2625,262.73,161.1577" style="stroke:#181818;stroke-width:1.0;"/><text fill="#000000" font-family="sans-serif" font-size="13" lengthAdjust="spacing" textLength="47" x="7" y="1057.166">Re-edit</text></g><g id="link_REFUNDED_*end*"><path d="M597.16,1775.9977 C539.04,1806.2677 449.2416,1853.0363 418.9216,1868.8263 " fill="none" id="REFUNDED-to-*end*" style="stroke:#181818;stroke-width:1.0;"/><polygon fill="#181818" points="413.6,1871.5977,423.43,1870.9883,418.0347,1869.2882,419.7348,1863.8929,413.6,1871.5977" style="stroke:#181818;stroke-width:1.0;"/></g><g id="link_DECLINED_*end*"><path d="M85.94,553.0977 C82.68,581.2677 78,628.9477 78,670.0977 C78,670.0977 78,670.0977 78,1751.5977 C78,1820.6977 330.6654,1864.9197 387.2254,1873.9697 " fill="none" id="DECLINED-to-*end*" style="stroke:#181818;stroke-width:1.0;"/><polygon fill="#181818" points="393.15,1874.9177,384.895,1869.5459,388.2128,1874.1277,383.6311,1877.4454,393.15,1874.9177" style="stroke:#181818;stroke-width:1.0;"/></g></g></svg>
