<?xml version="1.0" encoding="us-ascii" standalone="no"?><svg xmlns="http://www.w3.org/2000/svg" xmlns:xlink="http://www.w3.org/1999/xlink" contentStyleType="text/css" height="1229px" preserveAspectRatio="none" style="width:1478px;height:1229px;background:#FFFFFF;" version="1.1" viewBox="0 0 1478 1229" width="1478px" zoomAndPan="magnify"><defs/><g><text fill="#808080" font-family="Arial" font-size="24" font-weight="bold" lengthAdjust="spacing" textLength="136" x="664" y="32.5117">Lead Status</text><g id="NEW"><rect fill="#FFB3BA" height="50" rx="5" ry="5" style="stroke:#181818;stroke-width:0.5;" width="50" x="147" y="135.5977"/><line style="stroke:#181818;stroke-width:0.5;" x1="147" x2="197" y1="162.0859" y2="162.0859"/><text fill="#000000" font-family="sans-serif" font-size="14" lengthAdjust="spacing" textLength="30" x="157" y="154.1328">NEW</text></g><g id="UNQUALIFIED"><rect fill="#FFDFBA" height="50" rx="5" ry="5" style="stroke:#181818;stroke-width:0.5;" width="112" x="7" y="342.5977"/><line style="stroke:#181818;stroke-width:0.5;" x1="7" x2="119" y1="369.0859" y2="369.0859"/><text fill="#000000" font-family="sans-serif" font-size="14" lengthAdjust="spacing" textLength="92" x="17" y="361.1328">UNQUALIFIED</text></g><g id="CONTACTED"><rect fill="#FFFFBA" height="50" rx="5" ry="5" style="stroke:#181818;stroke-width:0.5;" width="107" x="296.5" y="262.5977"/><line style="stroke:#181818;stroke-width:0.5;" x1="296.5" x2="403.5" y1="289.0859" y2="289.0859"/><text fill="#000000" font-family="sans-serif" font-size="14" lengthAdjust="spacing" textLength="87" x="306.5" y="281.1328">CONTACTED</text></g><g id="IN_PROGRESS"><rect fill="#BAFFC9" height="50" rx="5" ry="5" style="stroke:#181818;stroke-width:0.5;" width="112" x="557" y="422.5977"/><line style="stroke:#181818;stroke-width:0.5;" x1="557" x2="669" y1="449.0859" y2="449.0859"/><text fill="#000000" font-family="sans-serif" font-size="14" lengthAdjust="spacing" textLength="92" x="567" y="441.1328">IN_PROGRESS</text></g><g id="FOLLOW_UP_SCHEDULED"><rect fill="#BAE1FF" height="50" rx="5" ry="5" style="stroke:#181818;stroke-width:0.5;" width="189" x="281.5" y="582.5977"/><line style="stroke:#181818;stroke-width:0.5;" x1="281.5" x2="470.5" y1="609.0859" y2="609.0859"/><text fill="#000000" font-family="sans-serif" font-size="14" lengthAdjust="spacing" textLength="169" x="291.5" y="601.1328">FOLLOW_UP_SCHEDULED</text></g><g id="DEMO_GIVEN"><rect fill="#E0BBE4" height="50" rx="5" ry="5" style="stroke:#181818;stroke-width:0.5;" width="109" x="608.5" y="582.5977"/><line style="stroke:#181818;stroke-width:0.5;" x1="608.5" x2="717.5" y1="609.0859" y2="609.0859"/><text fill="#000000" font-family="sans-serif" font-size="14" lengthAdjust="spacing" textLength="89" x="618.5" y="601.1328">DEMO_GIVEN</text></g><g id="PROPOSAL_SENT"><rect fill="#957DAD" height="50" rx="5" ry="5" style="stroke:#181818;stroke-width:0.5;" width="134" x="909" y="709.5977"/><line style="stroke:#181818;stroke-width:0.5;" x1="909" x2="1043" y1="736.0859" y2="736.0859"/><text fill="#000000" font-family="sans-serif" font-size="14" lengthAdjust="spacing" textLength="114" x="919" y="728.1328">PROPOSAL_SENT</text></g><g id="VERBAL_COMMITMENT"><rect fill="#D291BC" height="50" rx="5" ry="5" style="stroke:#181818;stroke-width:0.5;" width="175" x="803.5" y="836.5977"/><line style="stroke:#181818;stroke-width:0.5;" x1="803.5" x2="978.5" y1="863.0859" y2="863.0859"/><text fill="#000000" font-family="sans-serif" font-size="14" lengthAdjust="spacing" textLength="155" x="813.5" y="855.1328">VERBAL_COMMITMENT</text></g><g id="NEGOTIATION"><rect fill="#FEC8D8" height="50" rx="5" ry="5" style="stroke:#181818;stroke-width:0.5;" width="116" x="1014" y="836.5977"/><line style="stroke:#181818;stroke-width:0.5;" x1="1014" x2="1130" y1="863.0859" y2="863.0859"/><text fill="#000000" font-family="sans-serif" font-size="14" lengthAdjust="spacing" textLength="96" x="1024" y="855.1328">NEGOTIATION</text></g><g id="CONTRACT_SENT"><rect fill="#FFDFD3" height="50" rx="5" ry="5" style="stroke:#181818;stroke-width:0.5;" width="140" x="907" y="963.5977"/><line style="stroke:#181818;stroke-width:0.5;" x1="907" x2="1047" y1="990.0859" y2="990.0859"/><text fill="#000000" font-family="sans-serif" font-size="14" lengthAdjust="spacing" textLength="120" x="917" y="982.1328">CONTRACT_SENT</text></g><g id="WON"><rect fill="#D4F0F0" height="50" rx="5" ry="5" style="stroke:#181818;stroke-width:0.5;" width="53" x="1168.5" y="1090.5977"/><line style="stroke:#181818;stroke-width:0.5;" x1="1168.5" x2="1221.5" y1="1117.0859" y2="1117.0859"/><text fill="#000000" font-family="sans-serif" font-size="14" lengthAdjust="spacing" textLength="33" x="1178.5" y="1109.1328">WON</text></g><g id="LOST"><rect fill="#CCE2CB" height="50" rx="5" ry="5" style="stroke:#181818;stroke-width:0.5;" width="55" x="709.5" y="1090.5977"/><line style="stroke:#181818;stroke-width:0.5;" x1="709.5" x2="764.5" y1="1117.0859" y2="1117.0859"/><text fill="#000000" font-family="sans-serif" font-size="14" lengthAdjust="spacing" textLength="35" x="719.5" y="1109.1328">LOST</text></g><g id="DISQUALIFIED"><rect fill="#B6CFB6" height="50" rx="5" ry="5" style="stroke:#181818;stroke-width:0.5;" width="114" x="1081" y="502.5977"/><line style="stroke:#181818;stroke-width:0.5;" x1="1081" x2="1195" y1="529.0859" y2="529.0859"/><text fill="#000000" font-family="sans-serif" font-size="14" lengthAdjust="spacing" textLength="94" x="1091" y="521.1328">DISQUALIFIED</text></g><ellipse cx="172" cy="64.5977" fill="#222222" rx="10" ry="10" style="stroke:#222222;stroke-width:1.0;"/><ellipse cx="1042" cy="1212.5977" fill="none" rx="11" ry="11" style="stroke:#222222;stroke-width:1.0;"/><ellipse cx="1042" cy="1212.5977" fill="#222222" rx="6" ry="6" style="stroke:#222222;stroke-width:1.0;"/><g id="link_*start*_NEW"><path d="M172,74.9577 C172,88.8877 172,109.5477 172,129.2477 " fill="none" id="*start*-to-NEW" style="stroke:#181818;stroke-width:1.0;"/><polygon fill="#181818" points="172,135.2477,176,126.2477,172,130.2477,168,126.2477,172,135.2477" style="stroke:#181818;stroke-width:1.0;"/></g><g id="link_NEW_CONTACTED"><path d="M197.13,179.2377 C227.98,200.9077 275.5792,234.3403 310.3092,258.7203 " fill="none" id="NEW-to-CONTACTED" style="stroke:#181818;stroke-width:1.0;"/><polygon fill="#181818" points="315.22,262.1677,310.152,253.7228,311.1277,259.2949,305.5556,260.2705,315.22,262.1677" style="stroke:#181818;stroke-width:1.0;"/><text fill="#000000" font-family="sans-serif" font-size="13" lengthAdjust="spacing" textLength="97" x="272.66" y="229.166">Initial Outreach</text></g><g id="link_NEW_UNQUALIFIED"><path d="M153.47,186.0077 C146.96,195.0677 139.82,205.5877 134,215.5977 C109.04,258.5577 87.9747,306.1921 75.2547,336.6121 " fill="none" id="NEW-to-UNQUALIFIED" style="stroke:#181818;stroke-width:1.0;"/><polygon fill="#181818" points="72.94,342.1477,80.1024,335.3874,74.8689,337.5347,72.7216,332.3012,72.94,342.1477" style="stroke:#181818;stroke-width:1.0;"/><text fill="#000000" font-family="sans-serif" font-size="13" lengthAdjust="spacing" textLength="106" x="135" y="229.166">Review and Filter</text></g><g id="link_UNQUALIFIED_*end*"><path d="M61.75,392.9477 C60.27,423.9777 58,479.2577 58,526.5977 C58,526.5977 58,526.5977 58,1116.5977 C58,1219.4677 915.0404,1213.0456 1024.6104,1211.8056 " fill="none" id="UNQUALIFIED-to-*end*" style="stroke:#181818;stroke-width:1.0;"/><polygon fill="#181818" points="1030.61,1211.7377,1021.5653,1207.8398,1025.6103,1211.7942,1021.6558,1215.8392,1030.61,1211.7377" style="stroke:#181818;stroke-width:1.0;"/></g><g id="link_CONTACTED_IN_PROGRESS"><path d="M390.52,312.9377 C439.94,342.6277 517.8464,389.4384 567.2964,419.1384 " fill="none" id="CONTACTED-to-IN_PROGRESS" style="stroke:#181818;stroke-width:1.0;"/><polygon fill="#181818" points="572.44,422.2277,566.7841,414.1647,568.1537,419.6533,562.6651,421.0228,572.44,422.2277" style="stroke:#181818;stroke-width:1.0;"/><text fill="#000000" font-family="sans-serif" font-size="13" lengthAdjust="spacing" textLength="125" x="521.42" y="372.666">Engagement Started</text></g><g id="link_CONTACTED_FOLLOW_UP_SCHEDULED"><path d="M296.18,312.0977 C231.63,343.9077 136.4,404.5877 173,472.5977 C201.52,525.5877 255.6994,558.6657 303.0094,579.7457 " fill="none" id="CONTACTED-to-FOLLOW_UP_SCHEDULED" style="stroke:#181818;stroke-width:1.0;"/><polygon fill="#181818" points="308.49,582.1877,301.8971,574.871,303.9229,580.1527,298.6411,582.1784,308.49,582.1877" style="stroke:#181818;stroke-width:1.0;"/><text fill="#000000" font-family="sans-serif" font-size="13" lengthAdjust="spacing" textLength="132" x="174" y="452.666">Schedule Touchpoint</text></g><g id="link_FOLLOW_UP_SCHEDULED_CONTACTED"><path d="M374.03,582.5277 C369.21,523.5477 357.3388,378.3377 352.4888,319.0077 " fill="none" id="FOLLOW_UP_SCHEDULED-to-CONTACTED" style="stroke:#181818;stroke-width:1.0;"/><polygon fill="#181818" points="352,313.0277,348.7466,322.3236,352.4074,318.011,356.72,321.6718,352,313.0277" style="stroke:#181818;stroke-width:1.0;"/><text fill="#000000" font-family="sans-serif" font-size="13" lengthAdjust="spacing" textLength="170" x="365.73" y="452.666">Execute Scheduled Contact</text></g><g id="link_CONTACTED_DISQUALIFIED"><path d="M403.85,295.0077 C465.33,303.0377 568.57,318.7177 655,342.5977 C815.01,386.8177 990.5031,460.79 1078.5831,499.76 " fill="none" id="CONTACTED-to-DISQUALIFIED" style="stroke:#181818;stroke-width:1.0;"/><polygon fill="#181818" points="1084.07,502.1877,1077.458,494.8882,1079.4975,500.1646,1074.2212,502.2042,1084.07,502.1877" style="stroke:#181818;stroke-width:1.0;"/><text fill="#000000" font-family="sans-serif" font-size="13" lengthAdjust="spacing" textLength="134" x="810.52" y="372.666">Early Disqualification</text></g><g id="link_IN_PROGRESS_DEMO_GIVEN"><path d="M620.7,472.9377 C630.1,502.6277 644.0795,546.8073 653.4795,576.5073 " fill="none" id="IN_PROGRESS-to-DEMO_GIVEN" style="stroke:#181818;stroke-width:1.0;"/><polygon fill="#181818" points="655.29,582.2277,656.3878,572.4402,653.7813,577.4607,648.7607,574.8541,655.29,582.2277" style="stroke:#181818;stroke-width:1.0;"/><text fill="#000000" font-family="sans-serif" font-size="13" lengthAdjust="spacing" textLength="102" x="646.4" y="532.666">Present Solution</text></g><g id="link_IN_PROGRESS_FOLLOW_UP_SCHEDULED"><path d="M556.84,465.2177 C547.88,467.7577 538.7,470.2977 530,472.5977 C474.77,487.2077 446.13,462.9377 405,502.5977 C383.41,523.4177 377.8372,552.8483 376.4272,576.4883 " fill="none" id="IN_PROGRESS-to-FOLLOW_UP_SCHEDULED" style="stroke:#181818;stroke-width:1.0;"/><polygon fill="#181818" points="376.07,582.4777,380.5988,573.7318,376.3677,577.4865,372.6129,573.2555,376.07,582.4777" style="stroke:#181818;stroke-width:1.0;"/><text fill="#000000" font-family="sans-serif" font-size="13" lengthAdjust="spacing" textLength="135" x="406" y="532.666">Maintain Engagement</text></g><g id="link_IN_PROGRESS_LOST"><path d="M600.17,472.7377 C570.98,530.8177 504.74,682.7277 539,806.5977 C571.96,925.7677 665.0729,1037.2273 709.8629,1086.0273 " fill="none" id="IN_PROGRESS-to-LOST" style="stroke:#181818;stroke-width:1.0;"/><polygon fill="#181818" points="713.92,1090.4477,710.7812,1081.1123,710.5391,1086.764,704.8874,1086.5219,713.92,1090.4477" style="stroke:#181818;stroke-width:1.0;"/><text fill="#000000" font-family="sans-serif" font-size="13" lengthAdjust="spacing" textLength="94" x="540" y="803.166">Nurture Failure</text></g><g id="link_FOLLOW_UP_SCHEDULED_LOST"><path d="M380.66,632.9277 C385.07,658.0377 391,698.4077 391,733.5977 C391,733.5977 391,733.5977 391,989.5977 C391,1057.1377 621.2362,1097.5087 703.3362,1109.8087 " fill="none" id="FOLLOW_UP_SCHEDULED-to-LOST" style="stroke:#181818;stroke-width:1.0;"/><polygon fill="#181818" points="709.27,1110.6977,700.962,1105.4083,704.3252,1109.9568,699.7767,1113.32,709.27,1110.6977" style="stroke:#181818;stroke-width:1.0;"/><text fill="#000000" font-family="sans-serif" font-size="13" lengthAdjust="spacing" textLength="82" x="392" y="866.666">No Response</text></g><g id="link_DEMO_GIVEN_PROPOSAL_SENT"><path d="M717.88,630.5177 C772.93,652.4977 851.968,684.0622 909.178,706.9122 " fill="none" id="DEMO_GIVEN-to-PROPOSAL_SENT" style="stroke:#181818;stroke-width:1.0;"/><polygon fill="#181818" points="914.75,709.1377,907.8757,702.0848,910.1067,707.2831,904.9083,709.5141,914.75,709.1377" style="stroke:#181818;stroke-width:1.0;"/><text fill="#000000" font-family="sans-serif" font-size="13" lengthAdjust="spacing" textLength="119" x="839.24" y="676.166">Send Formal Quote</text></g><g id="link_DEMO_GIVEN_LOST"><path d="M658.16,633.0177 C649.32,681.7177 632.97,794.1777 650,886.5977 C664.28,964.0977 701.0462,1043.9764 721.5562,1084.7964 " fill="none" id="DEMO_GIVEN-to-LOST" style="stroke:#181818;stroke-width:1.0;"/><polygon fill="#181818" points="724.25,1090.1577,723.7835,1080.3199,722.0052,1085.6899,716.6351,1083.9116,724.25,1090.1577" style="stroke:#181818;stroke-width:1.0;"/><text fill="#000000" font-family="sans-serif" font-size="13" lengthAdjust="spacing" textLength="134" x="651" y="866.666">Post-Demo Rejection</text></g><g id="link_PROPOSAL_SENT_VERBAL_COMMITMENT"><path d="M929.03,759.8877 C917.82,767.8777 907.07,777.7977 900,789.5977 C891.64,803.5577 889.5296,815.8279 889.4096,830.3379 " fill="none" id="PROPOSAL_SENT-to-VERBAL_COMMITMENT" style="stroke:#181818;stroke-width:1.0;"/><polygon fill="#181818" points="889.36,836.3377,893.4343,827.371,889.4013,831.3378,885.4346,827.3049,889.36,836.3377" style="stroke:#181818;stroke-width:1.0;"/><text fill="#000000" font-family="sans-serif" font-size="13" lengthAdjust="spacing" textLength="115" x="901" y="803.166">Secure Handshake</text></g><g id="link_PROPOSAL_SENT_NEGOTIATION"><path d="M996.99,760.0277 C1004.69,769.1877 1013.38,779.7577 1021,789.5977 C1032.8,804.8377 1041.9878,817.5203 1051.7378,831.3803 " fill="none" id="PROPOSAL_SENT-to-NEGOTIATION" style="stroke:#181818;stroke-width:1.0;"/><polygon fill="#181818" points="1055.19,836.2877,1053.2833,826.6251,1052.3132,832.1982,1046.7401,831.228,1055.19,836.2877" style="stroke:#181818;stroke-width:1.0;"/><text fill="#000000" font-family="sans-serif" font-size="13" lengthAdjust="spacing" textLength="174" x="1033.55" y="803.166">Counter-Offer Management</text></g><g id="link_PROPOSAL_SENT_LOST"><path d="M1043.34,742.4577 C1106.02,750.2477 1193.23,765.1677 1217,789.5977 C1287.22,861.7677 1313.7,934.8077 1251,1013.5977 C1189.56,1090.8077 868.9551,1109.445 770.8751,1113.415 " fill="none" id="PROPOSAL_SENT-to-LOST" style="stroke:#181818;stroke-width:1.0;"/><polygon fill="#181818" points="764.88,1113.6577,774.0344,1117.2904,769.8759,1113.4554,773.7109,1109.2969,764.88,1113.6577" style="stroke:#181818;stroke-width:1.0;"/><text fill="#000000" font-family="sans-serif" font-size="13" lengthAdjust="spacing" textLength="128" x="1287.36" y="930.166">Price/Terms Friction</text></g><g id="link_VERBAL_COMMITMENT_CONTRACT_SENT"><path d="M814.34,887.0877 C790.45,898.8777 773.68,914.6077 788,933.5977 C791.81,938.6477 848.7862,954.4358 900.9562,968.1158 " fill="none" id="VERBAL_COMMITMENT-to-CONTRACT_SENT" style="stroke:#181818;stroke-width:1.0;"/><polygon fill="#181818" points="906.76,969.6377,899.0689,963.4857,901.9235,968.3694,897.0397,971.224,906.76,969.6377" style="stroke:#181818;stroke-width:1.0;"/><text fill="#000000" font-family="sans-serif" font-size="13" lengthAdjust="spacing" textLength="168" x="789" y="930.166">Generate Legal Documents</text></g><g id="link_VERBAL_COMMITMENT_LOST"><path d="M818.85,886.9077 C785.6,902.6977 750.73,927.2477 738,963.5977 C723.1,1006.1577 726.8633,1053.7566 731.5333,1084.3066 " fill="none" id="VERBAL_COMMITMENT-to-LOST" style="stroke:#181818;stroke-width:1.0;"/><polygon fill="#181818" points="732.44,1090.2377,735.0341,1080.7366,731.6845,1085.2951,727.126,1081.9454,732.44,1090.2377" style="stroke:#181818;stroke-width:1.0;"/><text fill="#000000" font-family="sans-serif" font-size="13" lengthAdjust="spacing" textLength="150" x="739" y="993.666">Last-Minute Withdrawal</text></g><g id="link_NEGOTIATION_CONTRACT_SENT"><path d="M1028.64,887.0577 C1017.33,895.1977 1006.06,905.1577 998,916.5977 C988.3,930.3577 984.1787,942.7386 981.3387,957.2986 " fill="none" id="NEGOTIATION-to-CONTRACT_SENT" style="stroke:#181818;stroke-width:1.0;"/><polygon fill="#181818" points="980.19,963.1877,985.839,955.1199,981.1472,958.2801,977.987,953.5883,980.19,963.1877" style="stroke:#181818;stroke-width:1.0;"/><text fill="#000000" font-family="sans-serif" font-size="13" lengthAdjust="spacing" textLength="91" x="999" y="930.166">Finalize Terms</text></g><g id="link_NEGOTIATION_LOST"><path d="M1084.82,886.9277 C1088.93,895.9777 1092.94,906.5177 1095,916.5977 C1104.05,960.9477 1093.13,978.9577 1064,1013.5977 C986.95,1105.2377 834.61,1115.1792 770.68,1115.2692 " fill="none" id="NEGOTIATION-to-LOST" style="stroke:#181818;stroke-width:1.0;"/><polygon fill="#181818" points="764.68,1115.2777,773.6856,1119.265,769.68,1115.2706,773.6744,1111.265,764.68,1115.2777" style="stroke:#181818;stroke-width:1.0;"/><text fill="#000000" font-family="sans-serif" font-size="13" lengthAdjust="spacing" textLength="146" x="1096.39" y="993.666">Negotiation Breakdown</text></g><g id="link_CONTRACT_SENT_WON"><path d="M1019.55,1013.9977 C1063.54,1039.2177 1125.6651,1074.8428 1162.8251,1096.1528 " fill="none" id="CONTRACT_SENT-to-WON" style="stroke:#181818;stroke-width:1.0;"/><polygon fill="#181818" points="1168.03,1099.1377,1162.2126,1091.1905,1163.6926,1096.6503,1158.2328,1098.1303,1168.03,1099.1377" style="stroke:#181818;stroke-width:1.0;"/><text fill="#000000" font-family="sans-serif" font-size="13" lengthAdjust="spacing" textLength="183" x="1100.05" y="1057.166">Customer Signature Received</text></g><g id="link_CONTRACT_SENT_LOST"><path d="M930.16,1013.9977 C881.05,1039.5777 810.8212,1076.1454 770.3012,1097.2554 " fill="none" id="CONTRACT_SENT-to-LOST" style="stroke:#181818;stroke-width:1.0;"/><polygon fill="#181818" points="764.98,1100.0277,774.8099,1099.4168,769.4143,1097.7175,771.1136,1092.3219,764.98,1100.0277" style="stroke:#181818;stroke-width:1.0;"/><text fill="#000000" font-family="sans-serif" font-size="13" lengthAdjust="spacing" textLength="105" x="872.37" y="1057.166">Signature Failure</text></g><g id="link_WON_*end*"><path d="M1168.35,1133.1477 C1133.42,1154.8377 1079.0277,1188.6132 1056.2977,1202.7232 " fill="none" id="WON-to-*end*" style="stroke:#181818;stroke-width:1.0;"/><polygon fill="#181818" points="1051.2,1205.8877,1060.9561,1204.5394,1055.4481,1203.2506,1056.7369,1197.7425,1051.2,1205.8877" style="stroke:#181818;stroke-width:1.0;"/></g><g id="link_LOST_*end*"><path d="M764.88,1125.2777 C829.87,1145.5277 983.4515,1193.3631 1025.7915,1206.5531 " fill="none" id="LOST-to-*end*" style="stroke:#181818;stroke-width:1.0;"/><polygon fill="#181818" points="1031.52,1208.3377,1024.117,1201.8418,1026.7463,1206.8505,1021.7376,1209.4798,1031.52,1208.3377" style="stroke:#181818;stroke-width:1.0;"/></g><g id="link_DISQUALIFIED_*end*"><path d="M1195.24,528.2277 C1290.45,530.9377 1471,551.6877 1471,670.0977 C1471,670.0977 1471,670.0977 1471,1116.5977 C1471,1204.8977 1126.1799,1211.1528 1059.0399,1211.5428 " fill="none" id="DISQUALIFIED-to-*end*" style="stroke:#181818;stroke-width:1.0;"/><polygon fill="#181818" points="1053.04,1211.5777,1062.0631,1215.5253,1058.0399,1211.5486,1062.0166,1207.5254,1053.04,1211.5777" style="stroke:#181818;stroke-width:1.0;"/></g></g></svg>
