<?xml version="1.0" encoding="us-ascii" standalone="no"?><svg xmlns="http://www.w3.org/2000/svg" xmlns:xlink="http://www.w3.org/1999/xlink" contentStyleType="text/css" height="942px" preserveAspectRatio="none" style="width:934px;height:942px;background:#FFFFFF;" version="1.1" viewBox="0 0 934 942" width="934px" zoomAndPan="magnify"><defs/><g><text fill="#808080" font-family="Arial" font-size="24" font-weight="bold" lengthAdjust="spacing" textLength="181" x="369.88" y="32.5117">Oem Rdr Status</text><g id="OPEN"><rect fill="#FFB3BA" height="50" rx="5" ry="5" style="stroke:#181818;stroke-width:0.5;" width="57" x="686.26" y="135.5977"/><line style="stroke:#181818;stroke-width:0.5;" x1="686.26" x2="743.26" y1="162.0859" y2="162.0859"/><text fill="#000000" font-family="sans-serif" font-size="14" lengthAdjust="spacing" textLength="37" x="696.26" y="154.1328">OPEN</text></g><g id="LOCKED"><rect fill="#FFDFBA" height="50" rx="5" ry="5" style="stroke:#181818;stroke-width:0.5;" width="75" x="552.26" y="262.5977"/><line style="stroke:#181818;stroke-width:0.5;" x1="552.26" x2="627.26" y1="289.0859" y2="289.0859"/><text fill="#000000" font-family="sans-serif" font-size="14" lengthAdjust="spacing" textLength="55" x="562.26" y="281.1328">LOCKED</text></g><g id="NEW_INTERFACE"><rect fill="#FFFFBA" height="50" rx="5" ry="5" style="stroke:#181818;stroke-width:0.5;" width="133" x="287.26" y="389.5977"/><line style="stroke:#181818;stroke-width:0.5;" x1="287.26" x2="420.26" y1="416.0859" y2="416.0859"/><text fill="#000000" font-family="sans-serif" font-size="14" lengthAdjust="spacing" textLength="113" x="297.26" y="408.1328">NEW_INTERFACE</text></g><g id="TRANSMITTED"><rect fill="#BAFFC9" height="50" rx="5" ry="5" style="stroke:#181818;stroke-width:0.5;" width="118" x="122.76" y="516.5977"/><line style="stroke:#181818;stroke-width:0.5;" x1="122.76" x2="240.76" y1="543.0859" y2="543.0859"/><text fill="#000000" font-family="sans-serif" font-size="14" lengthAdjust="spacing" textLength="98" x="132.76" y="535.1328">TRANSMITTED</text></g><g id="APPROVED"><rect fill="#BAE1FF" height="50" rx="5" ry="5" style="stroke:#181818;stroke-width:0.5;" width="93" x="13.26" y="723.5977"/><line style="stroke:#181818;stroke-width:0.5;" x1="13.26" x2="106.26" y1="750.0859" y2="750.0859"/><text fill="#000000" font-family="sans-serif" font-size="14" lengthAdjust="spacing" textLength="73" x="23.26" y="742.1328">APPROVED</text></g><g id="REJECTED"><rect fill="#E0BBE4" height="50" rx="5" ry="5" style="stroke:#181818;stroke-width:0.5;" width="86" x="157.76" y="643.5977"/><line style="stroke:#181818;stroke-width:0.5;" x1="157.76" x2="243.76" y1="670.0859" y2="670.0859"/><text fill="#000000" font-family="sans-serif" font-size="14" lengthAdjust="spacing" textLength="66" x="167.76" y="662.1328">REJECTED</text></g><g id="CANCELLED"><rect fill="#957DAD" height="50" rx="5" ry="5" style="stroke:#181818;stroke-width:0.5;" width="100" x="303.76" y="803.5977"/><line style="stroke:#181818;stroke-width:0.5;" x1="303.76" x2="403.76" y1="830.0859" y2="830.0859"/><text fill="#000000" font-family="sans-serif" font-size="14" lengthAdjust="spacing" textLength="80" x="313.76" y="822.1328">CANCELLED</text></g><ellipse cx="714.76" cy="64.5977" fill="#222222" rx="10" ry="10" style="stroke:#222222;stroke-width:1.0;"/><ellipse cx="202.76" cy="925.5977" fill="none" rx="11" ry="11" style="stroke:#222222;stroke-width:1.0;"/><ellipse cx="202.76" cy="925.5977" fill="#222222" rx="6" ry="6" style="stroke:#222222;stroke-width:1.0;"/><g id="link_*start*_OPEN"><path d="M714.76,74.9577 C714.76,88.8877 714.76,109.5477 714.76,129.2477 " fill="none" id="*start*-to-OPEN" style="stroke:#181818;stroke-width:1.0;"/><polygon fill="#181818" points="714.76,135.2477,718.76,126.2477,714.76,130.2477,710.76,126.2477,714.76,135.2477" style="stroke:#181818;stroke-width:1.0;"/></g><g id="link_OPEN_LOCKED"><path d="M690.36,185.9977 C668.34,208.0177 640.3426,236.015 618.3426,258.015 " fill="none" id="OPEN-to-LOCKED" style="stroke:#181818;stroke-width:1.0;"/><polygon fill="#181818" points="614.1,262.2577,623.2924,258.7221,617.6355,258.7221,617.6355,253.0653,614.1,262.2577" style="stroke:#181818;stroke-width:1.0;"/><text fill="#000000" font-family="sans-serif" font-size="13" lengthAdjust="spacing" textLength="106" x="660.74" y="229.166">Secure Deal Data</text></g><g id="link_OPEN_CANCELLED"><path d="M743.75,174.7677 C780.68,193.7577 839.76,232.5877 839.76,286.5977 C839.76,286.5977 839.76,286.5977 839.76,669.5977 C839.76,760.5377 534.0669,806.43 409.8969,821.39 " fill="none" id="OPEN-to-CANCELLED" style="stroke:#181818;stroke-width:1.0;"/><polygon fill="#181818" points="403.94,822.1077,413.3538,825.0024,408.9041,821.5096,412.3969,817.0598,403.94,822.1077" style="stroke:#181818;stroke-width:1.0;"/><text fill="#000000" font-family="sans-serif" font-size="13" lengthAdjust="spacing" textLength="86" x="840.76" y="483.166">Abandon RDR</text></g><g id="link_LOCKED_NEW_INTERFACE"><path d="M551.89,287.7277 C504.8,288.7277 424.78,297.5977 376.76,342.5977 C363.9,354.6477 359.169,368.0048 356.669,383.4448 " fill="none" id="LOCKED-to-NEW_INTERFACE" style="stroke:#181818;stroke-width:1.0;"/><polygon fill="#181818" points="355.71,389.3677,361.0971,381.1227,356.5092,384.4319,353.1999,379.844,355.71,389.3677" style="stroke:#181818;stroke-width:1.0;"/><text fill="#000000" font-family="sans-serif" font-size="13" lengthAdjust="spacing" textLength="90" x="377.76" y="356.166">Purify for OEM</text></g><g id="link_LOCKED_CANCELLED"><path d="M623.79,312.9877 C651.05,335.6277 684.76,372.0277 684.76,413.5977 C684.76,413.5977 684.76,413.5977 684.76,669.5977 C684.76,792.4977 502.6173,819.4971 410.0173,825.5371 " fill="none" id="LOCKED-to-CANCELLED" style="stroke:#181818;stroke-width:1.0;"/><polygon fill="#181818" points="404.03,825.9277,413.2713,829.3334,409.0194,825.6022,412.7506,821.3503,404.03,825.9277" style="stroke:#181818;stroke-width:1.0;"/><text fill="#000000" font-family="sans-serif" font-size="13" lengthAdjust="spacing" textLength="100" x="685.76" y="546.666">Abort Reporting</text></g><g id="link_NEW_INTERFACE_TRANSMITTED"><path d="M286.76,421.1777 C252.91,427.5977 214.15,441.1677 190.76,469.5977 C180.18,482.4577 177.9987,495.3114 178.5287,510.3514 " fill="none" id="NEW_INTERFACE-to-TRANSMITTED" style="stroke:#181818;stroke-width:1.0;"/><polygon fill="#181818" points="178.74,516.3477,182.4206,507.2124,178.5639,511.3508,174.4255,507.4941,178.74,516.3477" style="stroke:#181818;stroke-width:1.0;"/><text fill="#000000" font-family="sans-serif" font-size="13" lengthAdjust="spacing" textLength="135" x="191.76" y="483.166">Push to OEM Gateway</text></g><g id="link_NEW_INTERFACE_CANCELLED"><path d="M353.76,439.8277 C353.76,512.7977 353.76,723.8677 353.76,797.1377 " fill="none" id="NEW_INTERFACE-to-CANCELLED" style="stroke:#181818;stroke-width:1.0;"/><polygon fill="#181818" points="353.76,803.1377,357.76,794.1377,353.76,798.1377,349.76,794.1377,353.76,803.1377" style="stroke:#181818;stroke-width:1.0;"/><text fill="#000000" font-family="sans-serif" font-size="13" lengthAdjust="spacing" textLength="116" x="354.76" y="610.166">Pull from Interface</text></g><g id="link_TRANSMITTED_APPROVED"><path d="M122.43,547.9677 C90.23,554.2577 52.98,567.7577 32.76,596.5977 C6,634.7577 25.6372,686.0025 42.5272,717.9725 " fill="none" id="TRANSMITTED-to-APPROVED" style="stroke:#181818;stroke-width:1.0;"/><polygon fill="#181818" points="45.33,723.2777,44.6626,713.4514,42.9944,718.8567,37.5891,717.1884,45.33,723.2777" style="stroke:#181818;stroke-width:1.0;"/><text fill="#000000" font-family="sans-serif" font-size="13" lengthAdjust="spacing" textLength="134" x="33.76" y="610.166">OEM Acceptance ACK</text></g><g id="link_TRANSMITTED_REJECTED"><path d="M177.95,566.7977 C176.46,580.6277 175.75,598.2177 178.76,613.5977 C180.73,623.6277 182.1723,628.6532 186.1023,637.7132 " fill="none" id="TRANSMITTED-to-REJECTED" style="stroke:#181818;stroke-width:1.0;"/><polygon fill="#181818" points="188.49,643.2177,188.5781,633.3692,186.5003,638.6306,181.2388,636.5528,188.49,643.2177" style="stroke:#181818;stroke-width:1.0;"/><text fill="#000000" font-family="sans-serif" font-size="13" lengthAdjust="spacing" textLength="130" x="179.76" y="610.166">OEM Rejection NACK</text></g><g id="link_APPROVED_*end*"><path d="M79.64,773.9277 C112.34,813.9377 172.0637,887.0313 192.4737,912.0113 " fill="none" id="APPROVED-to-*end*" style="stroke:#181818;stroke-width:1.0;"/><polygon fill="#181818" points="196.27,916.6577,193.6731,907.1573,193.1064,912.7857,187.478,912.219,196.27,916.6577" style="stroke:#181818;stroke-width:1.0;"/></g><g id="link_REJECTED_LOCKED"><path d="M244.06,664.9977 C312.78,659.9377 442.18,646.2177 472.76,613.5977 C516.9,566.4977 471.84,530.9977 491.76,469.5977 C511.17,409.7777 546.8712,351.6429 569.3812,318.0329 " fill="none" id="REJECTED-to-LOCKED" style="stroke:#181818;stroke-width:1.0;"/><polygon fill="#181818" points="572.72,313.0477,564.3883,318.2996,569.9377,317.202,571.0353,322.7514,572.72,313.0477" style="stroke:#181818;stroke-width:1.0;"/><text fill="#000000" font-family="sans-serif" font-size="13" lengthAdjust="spacing" textLength="165" x="492.76" y="483.166">Re-animate for Correction</text></g><g id="link_REJECTED_CANCELLED"><path d="M192.38,693.8677 C186.17,716.6177 181.31,750.4977 197.76,773.5977 C221.53,806.9777 261.4756,819.1025 297.3556,824.0225 " fill="none" id="REJECTED-to-CANCELLED" style="stroke:#181818;stroke-width:1.0;"/><polygon fill="#181818" points="303.3,824.8377,294.9268,819.6521,298.3464,824.1584,293.84,827.5779,303.3,824.8377" style="stroke:#181818;stroke-width:1.0;"/><text fill="#000000" font-family="sans-serif" font-size="13" lengthAdjust="spacing" textLength="128" x="198.76" y="753.666">Permanent Rejection</text></g><g id="link_CANCELLED_*end*"><path d="M314.87,854.0577 C280.1,875.9477 236.7183,903.2323 216.8683,915.7223 " fill="none" id="CANCELLED-to-*end*" style="stroke:#181818;stroke-width:1.0;"/><polygon fill="#181818" points="211.79,918.9177,221.5378,917.5101,216.0219,916.2548,217.2772,910.739,211.79,918.9177" style="stroke:#181818;stroke-width:1.0;"/></g></g></svg>
