<svg xmlns="http://www.w3.org/2000/svg" xmlns:xlink="http://www.w3.org/1999/xlink" contentStyleType="text/css" data-diagram-type="STATE" height="1654px" preserveAspectRatio="none" style="width:1305px;height:1654px;background:#FFFFFF;" version="1.1" viewBox="0 0 1305 1654" width="1305px" zoomAndPan="magnify"><title>Invoice Status</title><defs/><g><g class="title" data-source-line="9"><text fill="#808080" font-family="Arial" font-size="24" font-weight="bold" lengthAdjust="spacing" textLength="162.7148" x="564.4641" y="32.5117">Invoice Status</text></g><ellipse cx="810.33" cy="64.5977" fill="#222222" rx="10" ry="10" style="stroke:#222222;stroke-width:1;"/><g id="DRAFT"><rect fill="#F1F1F1" height="50" rx="12.5" ry="12.5" style="stroke:#181818;stroke-width:0.5;" width="65.3564" x="777.66" y="135.5977"/><line style="stroke:#181818;stroke-width:0.5;" x1="777.66" x2="843.0164" y1="162.0859" y2="162.0859"/><text fill="#000000" font-family="sans-serif" font-size="14" lengthAdjust="spacing" textLength="45.3564" x="787.66" y="154.1328">DRAFT</text></g><g id="PENDING_APPROVAL"><rect fill="#F1F1F1" height="50" rx="12.5" ry="12.5" style="stroke:#181818;stroke-width:0.5;" width="158.79" x="885.94" y="262.5977"/><line style="stroke:#181818;stroke-width:0.5;" x1="885.94" x2="1044.73" y1="289.0859" y2="289.0859"/><text fill="#000000" font-family="sans-serif" font-size="14" lengthAdjust="spacing" textLength="138.79" x="895.94" y="281.1328">PENDING_APPROVAL</text></g><g id="ISSUED"><rect fill="#F1F1F1" height="50" rx="12.5" ry="12.5" style="stroke:#181818;stroke-width:0.5;" width="66.8877" x="705.89" y="422.5977"/><line style="stroke:#181818;stroke-width:0.5;" x1="705.89" x2="772.7777" y1="449.0859" y2="449.0859"/><text fill="#000000" font-family="sans-serif" font-size="14" lengthAdjust="spacing" textLength="46.8877" x="715.89" y="441.1328">ISSUED</text></g><g id="VOIDED"><rect fill="#F1F1F1" height="50" rx="12.5" ry="12.5" style="stroke:#181818;stroke-width:0.5;" width="72.623" x="1226.02" y="342.5977"/><line style="stroke:#181818;stroke-width:0.5;" x1="1226.02" x2="1298.643" y1="369.0859" y2="369.0859"/><text fill="#000000" font-family="sans-serif" font-size="14" lengthAdjust="spacing" textLength="52.623" x="1236.02" y="361.1328">VOIDED</text></g><g id="DECLINED"><rect fill="#F1F1F1" height="50" rx="12.5" ry="12.5" style="stroke:#181818;stroke-width:0.5;" width="87.6758" x="1152.5" y="502.5977"/><line style="stroke:#181818;stroke-width:0.5;" x1="1152.5" x2="1240.1758" y1="529.0859" y2="529.0859"/><text fill="#000000" font-family="sans-serif" font-size="14" lengthAdjust="spacing" textLength="67.6758" x="1162.5" y="521.1328">DECLINED</text></g><g id="PROCESSING_FULFILLMENT"><rect fill="#F1F1F1" height="50" rx="12.5" ry="12.5" style="stroke:#181818;stroke-width:0.5;" width="201.2959" x="579.69" y="582.5977"/><line style="stroke:#181818;stroke-width:0.5;" x1="579.69" x2="780.9859" y1="609.0859" y2="609.0859"/><text fill="#000000" font-family="sans-serif" font-size="14" lengthAdjust="spacing" textLength="181.2959" x="589.69" y="601.1328">PROCESSING_FULFILLMENT</text></g><g id="OPEN"><rect fill="#F1F1F1" height="50" rx="12.5" ry="12.5" style="stroke:#181818;stroke-width:0.5;" width="56.5449" x="791.06" y="1090.5977"/><line style="stroke:#181818;stroke-width:0.5;" x1="791.06" x2="847.6049" y1="1117.0859" y2="1117.0859"/><text fill="#000000" font-family="sans-serif" font-size="14" lengthAdjust="spacing" textLength="36.5449" x="801.06" y="1109.1328">OPEN</text></g><g id="CANCELLED"><rect fill="#F1F1F1" height="50" rx="12.5" ry="12.5" style="stroke:#181818;stroke-width:0.5;" width="99.9668" x="207.35" y="836.5977"/><line style="stroke:#181818;stroke-width:0.5;" x1="207.35" x2="307.3168" y1="863.0859" y2="863.0859"/><text fill="#000000" font-family="sans-serif" font-size="14" lengthAdjust="spacing" textLength="79.9668" x="217.35" y="855.1328">CANCELLED</text></g><g id="SHIPPED"><rect fill="#F1F1F1" height="50" rx="12.5" ry="12.5" style="stroke:#181818;stroke-width:0.5;" width="75.4121" x="781.63" y="836.5977"/><line style="stroke:#181818;stroke-width:0.5;" x1="781.63" x2="857.0421" y1="863.0859" y2="863.0859"/><text fill="#000000" font-family="sans-serif" font-size="14" lengthAdjust="spacing" textLength="55.4121" x="791.63" y="855.1328">SHIPPED</text></g><g id="PARTIALLY_SHIPPED"><rect fill="#F1F1F1" height="50" rx="12.5" ry="12.5" style="stroke:#181818;stroke-width:0.5;" width="154.8594" x="502.9" y="709.5977"/><line style="stroke:#181818;stroke-width:0.5;" x1="502.9" x2="657.7594" y1="736.0859" y2="736.0859"/><text fill="#000000" font-family="sans-serif" font-size="14" lengthAdjust="spacing" textLength="134.8594" x="512.9" y="728.1328">PARTIALLY_SHIPPED</text></g><g id="BACKORDERED"><rect fill="#F1F1F1" height="50" rx="12.5" ry="12.5" style="stroke:#181818;stroke-width:0.5;" width="121.2676" x="704.7" y="709.5977"/><line style="stroke:#181818;stroke-width:0.5;" x1="704.7" x2="825.9676" y1="736.0859" y2="736.0859"/><text fill="#000000" font-family="sans-serif" font-size="14" lengthAdjust="spacing" textLength="101.2676" x="714.7" y="728.1328">BACKORDERED</text></g><g id="ON_HOLD"><rect fill="#F1F1F1" height="50" rx="12.5" ry="12.5" style="stroke:#181818;stroke-width:0.5;" width="87.334" x="235.67" y="709.5977"/><line style="stroke:#181818;stroke-width:0.5;" x1="235.67" x2="323.004" y1="736.0859" y2="736.0859"/><text fill="#000000" font-family="sans-serif" font-size="14" lengthAdjust="spacing" textLength="67.334" x="245.67" y="728.1328">ON_HOLD</text></g><g id="DELIVERED"><rect fill="#F1F1F1" height="50" rx="12.5" ry="12.5" style="stroke:#181818;stroke-width:0.5;" width="93.2402" x="772.71" y="963.5977"/><line style="stroke:#181818;stroke-width:0.5;" x1="772.71" x2="865.9502" y1="990.0859" y2="990.0859"/><text fill="#000000" font-family="sans-serif" font-size="14" lengthAdjust="spacing" textLength="73.2402" x="782.71" y="982.1328">DELIVERED</text></g><g id="PARTIALLY_PAID"><rect fill="#F1F1F1" height="50" rx="12.5" ry="12.5" style="stroke:#181818;stroke-width:0.5;" width="131.3643" x="497.65" y="1217.5977"/><line style="stroke:#181818;stroke-width:0.5;" x1="497.65" x2="629.0143" y1="1244.0859" y2="1244.0859"/><text fill="#000000" font-family="sans-serif" font-size="14" lengthAdjust="spacing" textLength="111.3643" x="507.65" y="1236.1328">PARTIALLY_PAID</text></g><g id="PAID"><rect fill="#F1F1F1" height="50" rx="12.5" ry="12.5" style="stroke:#181818;stroke-width:0.5;" width="51.917" x="609.38" y="1344.5977"/><line style="stroke:#181818;stroke-width:0.5;" x1="609.38" x2="661.297" y1="1371.0859" y2="1371.0859"/><text fill="#000000" font-family="sans-serif" font-size="14" lengthAdjust="spacing" textLength="31.917" x="619.38" y="1363.1328">PAID</text></g><g id="OVERDUE"><rect fill="#F1F1F1" height="50" rx="12.5" ry="12.5" style="stroke:#181818;stroke-width:0.5;" width="84.2441" x="1004.21" y="1217.5977"/><line style="stroke:#181818;stroke-width:0.5;" x1="1004.21" x2="1088.4541" y1="1244.0859" y2="1244.0859"/><text fill="#000000" font-family="sans-serif" font-size="14" lengthAdjust="spacing" textLength="64.2441" x="1014.21" y="1236.1328">OVERDUE</text></g><g id="DISPUTED"><rect fill="#F1F1F1" height="50" rx="12.5" ry="12.5" style="stroke:#181818;stroke-width:0.5;" width="86.4248" x="875.12" y="1217.5977"/><line style="stroke:#181818;stroke-width:0.5;" x1="875.12" x2="961.5448" y1="1244.0859" y2="1244.0859"/><text fill="#000000" font-family="sans-serif" font-size="14" lengthAdjust="spacing" textLength="66.4248" x="885.12" y="1236.1328">DISPUTED</text></g><g id="PENDING_PAYMENT"><rect fill="#F1F1F1" height="50" rx="12.5" ry="12.5" style="stroke:#181818;stroke-width:0.5;" width="152.6104" x="310.03" y="1217.5977"/><line style="stroke:#181818;stroke-width:0.5;" x1="310.03" x2="462.6404" y1="1244.0859" y2="1244.0859"/><text fill="#000000" font-family="sans-serif" font-size="14" lengthAdjust="spacing" textLength="132.6104" x="320.03" y="1236.1328">PENDING_PAYMENT</text></g><g id="INTERNAL_HOLD"><rect fill="#F1F1F1" height="50" rx="12.5" ry="12.5" style="stroke:#181818;stroke-width:0.5;" width="133.251" x="979.71" y="1344.5977"/><line style="stroke:#181818;stroke-width:0.5;" x1="979.71" x2="1112.961" y1="1371.0859" y2="1371.0859"/><text fill="#000000" font-family="sans-serif" font-size="14" lengthAdjust="spacing" textLength="113.251" x="989.71" y="1363.1328">INTERNAL_HOLD</text></g><g id="CLOSED"><rect fill="#F1F1F1" height="50" rx="12.5" ry="12.5" style="stroke:#181818;stroke-width:0.5;" width="73.6416" x="516.51" y="1471.5977"/><line style="stroke:#181818;stroke-width:0.5;" x1="516.51" x2="590.1516" y1="1498.0859" y2="1498.0859"/><text fill="#000000" font-family="sans-serif" font-size="14" lengthAdjust="spacing" textLength="53.6416" x="526.51" y="1490.1328">CLOSED</text></g><g id="REFUNDED"><rect fill="#F1F1F1" height="50" rx="12.5" ry="12.5" style="stroke:#181818;stroke-width:0.5;" width="92.5498" x="745.06" y="1471.5977"/><line style="stroke:#181818;stroke-width:0.5;" x1="745.06" x2="837.6098" y1="1498.0859" y2="1498.0859"/><text fill="#000000" font-family="sans-serif" font-size="14" lengthAdjust="spacing" textLength="72.5498" x="755.06" y="1490.1328">REFUNDED</text></g><g id="ADJUSTED"><rect fill="#F1F1F1" height="50" rx="12.5" ry="12.5" style="stroke:#181818;stroke-width:0.5;" width="88.667" x="7" y="1598.5977"/><line style="stroke:#181818;stroke-width:0.5;" x1="7" x2="95.667" y1="1625.0859" y2="1625.0859"/><text fill="#000000" font-family="sans-serif" font-size="14" lengthAdjust="spacing" textLength="68.667" x="17" y="1617.1328">ADJUSTED</text></g><ellipse cx="791.33" cy="1623.5977" fill="none" rx="11" ry="11" style="stroke:#222222;stroke-width:1;"/><ellipse cx="791.33" cy="1623.5977" fill="#222222" rx="6" ry="6" style="stroke:#222222;stroke-width:1;"/><!--link *start* to DRAFT--><g class="link" data-entity-1=".start." data-entity-2="DRAFT" data-source-line="10" data-uid="lnk4" id="link_.start._DRAFT"><path d="M810.33,74.9577 C810.33,88.8877 810.33,109.5477 810.33,129.2477" fill="none" id="*start*-to-DRAFT" style="stroke:#181818;stroke-width:1;"/><polygon fill="#181818" points="810.33,135.2477,814.33,126.2477,810.33,130.2477,806.33,126.2477,810.33,135.2477" style="stroke:#181818;stroke-width:1;"/></g><!--link DRAFT to PENDING_APPROVAL--><g class="link" data-entity-1="DRAFT" data-entity-2="PENDING_APPROVAL" data-source-line="11" data-uid="lnk6" id="link_DRAFT_PENDING_APPROVAL"><path d="M802.31,185.7777 C798.97,200.6077 797.79,219.2477 807.33,232.5977 C817.28,246.5077 845.8496,257.4592 879.9896,266.9592" fill="none" id="DRAFT-to-PENDING_APPROVAL" style="stroke:#181818;stroke-width:1;"/><polygon fill="#181818" points="885.77,268.5677,878.1718,262.3013,880.953,267.2273,876.0271,270.0085,885.77,268.5677" style="stroke:#181818;stroke-width:1;"/><text fill="#000000" font-family="sans-serif" font-size="13" lengthAdjust="spacing" textLength="113.5278" x="808.33" y="229.166">Submit for Review</text></g><!--link PENDING_APPROVAL to DRAFT--><g class="link" data-entity-1="PENDING_APPROVAL" data-entity-2="DRAFT" data-source-line="16" data-uid="lnk14" id="link_PENDING_APPROVAL_DRAFT"><path d="M956.58,262.3677 C950.14,247.3177 940.1,228.4677 926.33,215.5977 C902.73,193.5177 874.1862,180.9728 849.0162,172.6428" fill="none" id="PENDING_APPROVAL-to-DRAFT" style="stroke:#181818;stroke-width:1;"/><polygon fill="#181818" points="843.32,170.7577,850.6075,177.3828,848.0668,172.3286,853.121,169.7879,843.32,170.7577" style="stroke:#181818;stroke-width:1;"/><text fill="#000000" font-family="sans-serif" font-size="13" lengthAdjust="spacing" textLength="156.73" x="941.49" y="229.166">Send back for Correction</text></g><!--link DRAFT to ISSUED--><g class="link" data-entity-1="DRAFT" data-entity-2="ISSUED" data-source-line="12" data-uid="lnk8" id="link_DRAFT_ISSUED"><path d="M793.87,185.7077 C781.29,205.4577 764.74,234.6077 756.33,262.5977 C739.74,317.9077 737.9895,380.4082 738.4695,416.1982" fill="none" id="DRAFT-to-ISSUED" style="stroke:#181818;stroke-width:1;"/><polygon fill="#181818" points="738.55,422.1977,742.4289,413.1448,738.4829,417.1981,734.4297,413.2521,738.55,422.1977" style="stroke:#181818;stroke-width:1;"/><text fill="#000000" font-family="sans-serif" font-size="13" lengthAdjust="spacing" textLength="110.335" x="757.33" y="292.666">Finalize and Send</text></g><!--link DRAFT to VOIDED--><g class="link" data-entity-1="DRAFT" data-entity-2="VOIDED" data-source-line="13" data-uid="lnk10" id="link_DRAFT_VOIDED"><path d="M843.4,161.4977 C900.3,162.6277 1018.99,170.7077 1106.33,215.5977 C1166.34,246.4377 1215.0646,303.2044 1241.1346,337.4344" fill="none" id="DRAFT-to-VOIDED" style="stroke:#181818;stroke-width:1;"/><polygon fill="#181818" points="1244.77,342.2077,1242.4991,332.6242,1241.7405,338.2299,1236.1348,337.4713,1244.77,342.2077" style="stroke:#181818;stroke-width:1;"/><text fill="#000000" font-family="sans-serif" font-size="13" lengthAdjust="spacing" textLength="83.4526" x="1132.56" y="229.166">Discard Draft</text></g><!--link PENDING_APPROVAL to ISSUED--><g class="link" data-entity-1="PENDING_APPROVAL" data-entity-2="ISSUED" data-source-line="14" data-uid="lnk11" id="link_PENDING_APPROVAL_ISSUED"><path d="M930.52,312.9377 C887.68,342.8877 820.3473,389.9596 777.9973,419.5696" fill="none" id="PENDING_APPROVAL-to-ISSUED" style="stroke:#181818;stroke-width:1;"/><polygon fill="#181818" points="773.08,423.0077,782.748,421.1288,777.1777,420.1426,778.1639,414.5724,773.08,423.0077" style="stroke:#181818;stroke-width:1;"/><text fill="#000000" font-family="sans-serif" font-size="13" lengthAdjust="spacing" textLength="52.6094" x="886.78" y="372.666">Approve</text></g><!--link PENDING_APPROVAL to DECLINED--><g class="link" data-entity-1="PENDING_APPROVAL" data-entity-2="DECLINED" data-source-line="15" data-uid="lnk13" id="link_PENDING_APPROVAL_DECLINED"><path d="M988.75,312.7277 C1033.03,358.3477 1124.3515,452.4319 1168.6715,498.1019" fill="none" id="PENDING_APPROVAL-to-DECLINED" style="stroke:#181818;stroke-width:1;"/><polygon fill="#181818" points="1172.85,502.4077,1169.4527,493.1633,1169.3679,498.8195,1163.7117,498.7346,1172.85,502.4077" style="stroke:#181818;stroke-width:1;"/><text fill="#000000" font-family="sans-serif" font-size="13" lengthAdjust="spacing" textLength="38.1812" x="1067.02" y="372.666">Reject</text></g><!--link ISSUED to PROCESSING_FULFILLMENT--><g class="link" data-entity-1="ISSUED" data-entity-2="PROCESSING_FULFILLMENT" data-source-line="17" data-uid="lnk16" id="link_ISSUED_PROCESSING_FULFILLMENT"><path d="M730.24,472.9377 C719.16,502.6277 702.6305,546.9074 691.5305,576.6074" fill="none" id="ISSUED-to-PROCESSING_FULFILLMENT" style="stroke:#181818;stroke-width:1;"/><polygon fill="#181818" points="689.43,582.2277,696.3276,575.1975,691.1804,577.5441,688.8339,572.3969,689.43,582.2277" style="stroke:#181818;stroke-width:1;"/><text fill="#000000" font-family="sans-serif" font-size="13" lengthAdjust="spacing" textLength="137.4395" x="719.57" y="532.666">Release to Warehouse</text></g><!--link ISSUED to OPEN--><g class="link" data-entity-1="ISSUED" data-entity-2="OPEN" data-source-line="18" data-uid="lnk18" id="link_ISSUED_OPEN"><path d="M773.07,451.7577 C847.92,460.8077 1021.33,493.9377 1021.33,606.5977 C1021.33,606.5977 1021.33,606.5977 1021.33,989.5977 C1021.33,1070.2277 909.4383,1099.5625 853.7583,1109.4125" fill="none" id="ISSUED-to-OPEN" style="stroke:#181818;stroke-width:1;"/><polygon fill="#181818" points="847.85,1110.4577,857.4092,1112.8287,852.7736,1109.5867,856.0156,1104.951,847.85,1110.4577" style="stroke:#181818;stroke-width:1;"/><text fill="#000000" font-family="sans-serif" font-size="13" lengthAdjust="spacing" textLength="145.1265" x="1022.33" y="803.166">Awaiting Payment Only</text></g><!--link ISSUED to CANCELLED--><g class="link" data-entity-1="ISSUED" data-entity-2="CANCELLED" data-source-line="19" data-uid="lnk20" id="link_ISSUED_CANCELLED"><path d="M705.61,448.7977 C602.1,451.4477 288.09,475.2077 157.33,662.5977 C116.79,720.7077 181.7629,793.5179 224.0029,832.1579" fill="none" id="ISSUED-to-CANCELLED" style="stroke:#181818;stroke-width:1;"/><polygon fill="#181818" points="228.43,836.2077,224.4892,827.1816,224.7408,832.8328,219.0895,833.0844,228.43,836.2077" style="stroke:#181818;stroke-width:1;"/><text fill="#000000" font-family="sans-serif" font-size="13" lengthAdjust="spacing" textLength="134.8052" x="158.33" y="676.166">Cancel Issued Invoice</text></g><!--link PROCESSING_FULFILLMENT to SHIPPED--><g class="link" data-entity-1="PROCESSING_FULFILLMENT" data-entity-2="SHIPPED" data-source-line="20" data-uid="lnk22" id="link_PROCESSING_FULFILLMENT_SHIPPED"><path d="M781.29,625.7277 C820.83,634.6777 859.56,647.0377 871.33,662.5977 C911.22,715.3177 869.1108,791.0184 841.2408,831.1784" fill="none" id="PROCESSING_FULFILLMENT-to-SHIPPED" style="stroke:#181818;stroke-width:1;"/><polygon fill="#181818" points="837.82,836.1077,846.2374,830.9942,840.6707,831.9999,839.665,826.4332,837.82,836.1077" style="stroke:#181818;stroke-width:1;"/><text fill="#000000" font-family="sans-serif" font-size="13" lengthAdjust="spacing" textLength="47.6074" x="888" y="739.666">Ship All</text></g><!--link PROCESSING_FULFILLMENT to PARTIALLY_SHIPPED--><g class="link" data-entity-1="PROCESSING_FULFILLMENT" data-entity-2="PARTIALLY_SHIPPED" data-source-line="21" data-uid="lnk24" id="link_PROCESSING_FULFILLMENT_PARTIALLY_SHIPPED"><path d="M624.58,632.9277 C612.25,640.7377 600.46,650.5677 592.33,662.5977 C583.1,676.2777 580.4658,688.7335 579.8158,703.3935" fill="none" id="PROCESSING_FULFILLMENT-to-PARTIALLY_SHIPPED" style="stroke:#181818;stroke-width:1;"/><polygon fill="#181818" points="579.55,709.3877,583.9447,700.5737,579.7715,704.3926,575.9526,700.2193,579.55,709.3877" style="stroke:#181818;stroke-width:1;"/><text fill="#000000" font-family="sans-serif" font-size="13" lengthAdjust="spacing" textLength="70.3638" x="593.33" y="676.166">Ship Partial</text></g><!--link PROCESSING_FULFILLMENT to BACKORDERED--><g class="link" data-entity-1="PROCESSING_FULFILLMENT" data-entity-2="BACKORDERED" data-source-line="22" data-uid="lnk26" id="link_PROCESSING_FULFILLMENT_BACKORDERED"><path d="M673.18,633.0977 C670.4,647.5077 669.5,665.5977 677.33,679.5977 C684.16,691.7977 689.979,698.2929 701.749,705.9929" fill="none" id="PROCESSING_FULFILLMENT-to-BACKORDERED" style="stroke:#181818;stroke-width:1;"/><polygon fill="#181818" points="706.77,709.2777,701.4284,701.0032,702.5858,706.5404,697.0487,707.6978,706.77,709.2777" style="stroke:#181818;stroke-width:1;"/><text fill="#000000" font-family="sans-serif" font-size="13" lengthAdjust="spacing" textLength="78.127" x="678.33" y="676.166">Out of Stock</text></g><!--link BACKORDERED to PROCESSING_FULFILLMENT--><g class="link" data-entity-1="BACKORDERED" data-entity-2="PROCESSING_FULFILLMENT" data-source-line="24" data-uid="lnk29" id="link_BACKORDERED_PROCESSING_FULFILLMENT"><path d="M769.15,709.3877 C770.22,694.8977 769.36,676.6377 761.33,662.5977 C754.45,650.5677 748.6228,644.0944 737.1428,636.2444" fill="none" id="BACKORDERED-to-PROCESSING_FULFILLMENT" style="stroke:#181818;stroke-width:1;"/><polygon fill="#181818" points="732.19,632.8577,737.3614,641.2396,736.3173,635.6799,741.877,634.6359,732.19,632.8577" style="stroke:#181818;stroke-width:1;"/><text fill="#000000" font-family="sans-serif" font-size="13" lengthAdjust="spacing" textLength="94.3389" x="768.37" y="676.166">Restock Arrival</text></g><!--link PROCESSING_FULFILLMENT to ON_HOLD--><g class="link" data-entity-1="PROCESSING_FULFILLMENT" data-entity-2="ON_HOLD" data-source-line="23" data-uid="lnk28" id="link_PROCESSING_FULFILLMENT_ON_HOLD"><path d="M579.45,628.5477 C538.91,637.5377 492,649.1577 450.33,662.5977 C406.13,676.8577 362.8082,695.1681 328.7082,710.5681" fill="none" id="PROCESSING_FULFILLMENT-to-ON_HOLD" style="stroke:#181818;stroke-width:1;"/><polygon fill="#181818" points="323.24,713.0377,333.0887,712.9789,327.7969,710.9797,329.796,705.6879,323.24,713.0377" style="stroke:#181818;stroke-width:1;"/><text fill="#000000" font-family="sans-serif" font-size="13" lengthAdjust="spacing" textLength="124.6426" x="451.33" y="676.166">Suspend Fulfillment</text></g><!--link ON_HOLD to PROCESSING_FULFILLMENT--><g class="link" data-entity-1="ON_HOLD" data-entity-2="PROCESSING_FULFILLMENT" data-source-line="44" data-uid="lnk60" id="link_ON_HOLD_PROCESSING_FULFILLMENT"><path d="M285.71,709.3377 C291.18,693.4877 300.71,673.7277 316.33,662.5977 C357.44,633.3177 480.4734,620.0184 573.2334,613.8084" fill="none" id="ON_HOLD-to-PROCESSING_FULFILLMENT" style="stroke:#181818;stroke-width:1;"/><polygon fill="#181818" points="579.22,613.4077,569.9729,610.0178,574.2312,613.7416,570.5073,617.9999,579.22,613.4077" style="stroke:#181818;stroke-width:1;"/><text fill="#000000" font-family="sans-serif" font-size="13" lengthAdjust="spacing" textLength="81.104" x="317.33" y="676.166">Release Hold</text></g><!--link PARTIALLY_SHIPPED to SHIPPED--><g class="link" data-entity-1="PARTIALLY_SHIPPED" data-entity-2="SHIPPED" data-source-line="25" data-uid="lnk30" id="link_PARTIALLY_SHIPPED_SHIPPED"><path d="M626.98,759.9977 C672.08,783.5877 734.2536,816.0963 776.1336,838.0063" fill="none" id="PARTIALLY_SHIPPED-to-SHIPPED" style="stroke:#181818;stroke-width:1;"/><polygon fill="#181818" points="781.45,840.7877,775.3296,833.0714,777.0197,838.4699,771.6212,840.1599,781.45,840.7877" style="stroke:#181818;stroke-width:1;"/><text fill="#000000" font-family="sans-serif" font-size="13" lengthAdjust="spacing" textLength="119.6406" x="715.14" y="803.166">Complete Shipping</text></g><!--link SHIPPED to DELIVERED--><g class="link" data-entity-1="SHIPPED" data-entity-2="DELIVERED" data-source-line="26" data-uid="lnk32" id="link_SHIPPED_DELIVERED"><path d="M819.33,886.9977 C819.33,909.0177 819.33,935.2577 819.33,957.2577" fill="none" id="SHIPPED-to-DELIVERED" style="stroke:#181818;stroke-width:1;"/><polygon fill="#181818" points="819.33,963.2577,823.33,954.2577,819.33,958.2577,815.33,954.2577,819.33,963.2577" style="stroke:#181818;stroke-width:1;"/><text fill="#000000" font-family="sans-serif" font-size="13" lengthAdjust="spacing" textLength="105.7329" x="820.33" y="930.166">Confirm Delivery</text></g><!--link DELIVERED to OPEN--><g class="link" data-entity-1="DELIVERED" data-entity-2="OPEN" data-source-line="27" data-uid="lnk33" id="link_DELIVERED_OPEN"><path d="M819.33,1013.9977 C819.33,1036.0177 819.33,1062.2577 819.33,1084.2577" fill="none" id="DELIVERED-to-OPEN" style="stroke:#181818;stroke-width:1;"/><polygon fill="#181818" points="819.33,1090.2577,823.33,1081.2577,819.33,1085.2577,815.33,1081.2577,819.33,1090.2577" style="stroke:#181818;stroke-width:1;"/><text fill="#000000" font-family="sans-serif" font-size="13" lengthAdjust="spacing" textLength="133.3516" x="820.33" y="1057.166">Begin Payment Aging</text></g><!--link OPEN to PARTIALLY_PAID--><g class="link" data-entity-1="OPEN" data-entity-2="PARTIALLY_PAID" data-source-line="28" data-uid="lnk35" id="link_OPEN_PARTIALLY_PAID"><path d="M790.58,1117.4977 C724.17,1120.2477 563.27,1130.9377 530.33,1170.5977 C518.96,1184.2977 524.1722,1197.8426 535.5822,1212.4226" fill="none" id="OPEN-to-PARTIALLY_PAID" style="stroke:#181818;stroke-width:1;"/><polygon fill="#181818" points="539.28,1217.1477,536.8834,1207.5948,536.1985,1213.2101,530.5833,1212.5252,539.28,1217.1477" style="stroke:#181818;stroke-width:1;"/><text fill="#000000" font-family="sans-serif" font-size="13" lengthAdjust="spacing" textLength="148.0273" x="531.33" y="1184.166">Receive Partial Payment</text></g><!--link OPEN to PAID--><g class="link" data-entity-1="OPEN" data-entity-2="PAID" data-source-line="29" data-uid="lnk37" id="link_OPEN_PAID"><path d="M790.77,1134.4477 C777.07,1143.9977 761.12,1156.6477 749.33,1170.5977 C704.03,1224.2477 721.87,1255.2577 684.33,1314.5977 C677.7,1325.0777 673.0763,1331.0829 664.8163,1339.8829" fill="none" id="OPEN-to-PAID" style="stroke:#181818;stroke-width:1;"/><polygon fill="#181818" points="660.71,1344.2577,669.7859,1340.4331,664.1319,1340.612,663.9529,1334.958,660.71,1344.2577" style="stroke:#181818;stroke-width:1;"/><text fill="#000000" font-family="sans-serif" font-size="13" lengthAdjust="spacing" textLength="131.3394" x="721.69" y="1247.666">Receive Full Payment</text></g><!--link OPEN to OVERDUE--><g class="link" data-entity-1="OPEN" data-entity-2="OVERDUE" data-source-line="30" data-uid="lnk39" id="link_OPEN_OVERDUE"><path d="M847.99,1118.8777 C886.39,1123.2177 955.06,1135.6277 1001.33,1170.5977 C1017.17,1182.5677 1026.2598,1196.46 1033.7598,1211.91" fill="none" id="OPEN-to-OVERDUE" style="stroke:#181818;stroke-width:1;"/><polygon fill="#181818" points="1036.38,1217.3077,1036.0481,1207.4644,1034.1965,1212.8096,1028.8513,1210.958,1036.38,1217.3077" style="stroke:#181818;stroke-width:1;"/><text fill="#000000" font-family="sans-serif" font-size="13" lengthAdjust="spacing" textLength="115.0894" x="1018.46" y="1184.166">Due Date Reached</text></g><!--link OPEN to DISPUTED--><g class="link" data-entity-1="OPEN" data-entity-2="DISPUTED" data-source-line="31" data-uid="lnk41" id="link_OPEN_DISPUTED"><path d="M790.6,1133.0377 C769.76,1147.1277 747.47,1168.1677 761.33,1187.5977 C761.77,1188.2077 822.7703,1209.0735 869.0803,1224.8435" fill="none" id="OPEN-to-DISPUTED" style="stroke:#181818;stroke-width:1;"/><polygon fill="#181818" points="874.76,1226.7777,867.5298,1220.09,870.0269,1225.1659,864.951,1227.663,874.76,1226.7777" style="stroke:#181818;stroke-width:1;"/><text fill="#000000" font-family="sans-serif" font-size="13" lengthAdjust="spacing" textLength="113.8262" x="762.33" y="1184.166">Customer Dispute</text></g><!--link DISPUTED to OPEN--><g class="link" data-entity-1="DISPUTED" data-entity-2="OPEN" data-source-line="43" data-uid="lnk59" id="link_DISPUTED_OPEN"><path d="M907.97,1217.2977 C901.23,1202.9477 891.6,1184.8577 880.33,1170.5977 C871.04,1158.8377 863.5762,1151.4144 852.6362,1142.2344" fill="none" id="DISPUTED-to-OPEN" style="stroke:#181818;stroke-width:1;"/><polygon fill="#181818" points="848.04,1138.3777,852.3631,1147.227,851.8702,1141.5916,857.5055,1141.0987,848.04,1138.3777" style="stroke:#181818;stroke-width:1;"/><text fill="#000000" font-family="sans-serif" font-size="13" lengthAdjust="spacing" textLength="100.3945" x="892.64" y="1184.166">Resolve Dispute</text></g><!--link PARTIALLY_PAID to PAID--><g class="link" data-entity-1="PARTIALLY_PAID" data-entity-2="PAID" data-source-line="32" data-uid="lnk42" id="link_PARTIALLY_PAID_PAID"><path d="M556.55,1267.8877 C553.91,1282.2377 553.02,1300.3277 560.33,1314.5977 C570.5,1334.4477 586.399,1345.9238 603.689,1354.7738" fill="none" id="PARTIALLY_PAID-to-PAID" style="stroke:#181818;stroke-width:1;"/><polygon fill="#181818" points="609.03,1357.5077,602.8411,1349.8463,604.5792,1355.2295,599.196,1356.9676,609.03,1357.5077" style="stroke:#181818;stroke-width:1;"/><text fill="#000000" font-family="sans-serif" font-size="13" lengthAdjust="spacing" textLength="118.5552" x="561.33" y="1311.166">Receive Remainder</text></g><!--link PENDING_PAYMENT to PAID--><g class="link" data-entity-1="PENDING_PAYMENT" data-entity-2="PAID" data-source-line="33" data-uid="lnk44" id="link_PENDING_PAYMENT_PAID"><path d="M380.08,1267.9377 C377.74,1283.0177 377.79,1301.8777 388.33,1314.5977 C416.34,1348.3977 545.358,1361.8834 603.088,1366.3634" fill="none" id="PENDING_PAYMENT-to-PAID" style="stroke:#181818;stroke-width:1;"/><polygon fill="#181818" points="609.07,1366.8277,600.4065,1362.1433,604.085,1366.4408,599.7875,1370.1193,609.07,1366.8277" style="stroke:#181818;stroke-width:1;"/><text fill="#000000" font-family="sans-serif" font-size="13" lengthAdjust="spacing" textLength="157.8916" x="389.33" y="1311.166">Final Payment Confirmed</text></g><!--link OVERDUE to PAID--><g class="link" data-entity-1="OVERDUE" data-entity-2="PAID" data-source-line="34" data-uid="lnk45" id="link_OVERDUE_PAID"><path d="M1003.93,1259.2077 C995.79,1262.0877 987.32,1264.9977 979.33,1267.5977 C861.56,1305.9477 724.8065,1344.1215 667.1665,1359.9215" fill="none" id="OVERDUE-to-PAID" style="stroke:#181818;stroke-width:1;"/><polygon fill="#181818" points="661.38,1361.5077,671.1173,1362.9861,666.2021,1360.1858,669.0024,1355.2707,661.38,1361.5077" style="stroke:#181818;stroke-width:1;"/><text fill="#000000" font-family="sans-serif" font-size="13" lengthAdjust="spacing" textLength="135.002" x="876.87" y="1311.166">Receive Late Payment</text></g><!--link OVERDUE to INTERNAL_HOLD--><g class="link" data-entity-1="OVERDUE" data-entity-2="INTERNAL_HOLD" data-source-line="35" data-uid="lnk47" id="link_OVERDUE_INTERNAL_HOLD"><path d="M1046.33,1267.9977 C1046.33,1290.0177 1046.33,1316.2577 1046.33,1338.2577" fill="none" id="OVERDUE-to-INTERNAL_HOLD" style="stroke:#181818;stroke-width:1;"/><polygon fill="#181818" points="1046.33,1344.2577,1050.33,1335.2577,1046.33,1339.2577,1042.33,1335.2577,1046.33,1344.2577" style="stroke:#181818;stroke-width:1;"/><text fill="#000000" font-family="sans-serif" font-size="13" lengthAdjust="spacing" textLength="121.2656" x="1047.33" y="1311.166">Send to Collections</text></g><!--link PAID to CLOSED--><g class="link" data-entity-1="PAID" data-entity-2="CLOSED" data-source-line="36" data-uid="lnk49" id="link_PAID_CLOSED"><path d="M619.33,1394.9977 C604.88,1417.0177 587.0207,1444.2406 572.5907,1466.2406" fill="none" id="PAID-to-CLOSED" style="stroke:#181818;stroke-width:1;"/><polygon fill="#181818" points="569.3,1471.2577,577.5808,1465.9259,572.0423,1467.0768,570.8914,1461.5382,569.3,1471.2577" style="stroke:#181818;stroke-width:1;"/><text fill="#000000" font-family="sans-serif" font-size="13" lengthAdjust="spacing" textLength="46.7441" x="600.24" y="1438.166">Archive</text></g><!--link PAID to REFUNDED--><g class="link" data-entity-1="PAID" data-entity-2="REFUNDED" data-source-line="37" data-uid="lnk51" id="link_PAID_REFUNDED"><path d="M661.44,1391.5177 C688.85,1413.4777 727.2286,1444.2248 756.1686,1467.4248" fill="none" id="PAID-to-REFUNDED" style="stroke:#181818;stroke-width:1;"/><polygon fill="#181818" points="760.85,1471.1777,756.3298,1462.4274,756.9488,1468.0502,751.3259,1468.6693,760.85,1471.1777" style="stroke:#181818;stroke-width:1;"/><text fill="#000000" font-family="sans-serif" font-size="13" lengthAdjust="spacing" textLength="83.8081" x="723.67" y="1438.166">Return Funds</text></g><!--link CLOSED to ADJUSTED--><g class="link" data-entity-1="CLOSED" data-entity-2="ADJUSTED" data-source-line="38" data-uid="lnk53" id="link_CLOSED_ADJUSTED"><path d="M516.42,1506.7877 C426.08,1529.2877 199.9123,1585.598 101.9123,1609.998" fill="none" id="CLOSED-to-ADJUSTED" style="stroke:#181818;stroke-width:1;"/><polygon fill="#181818" points="96.09,1611.4477,105.7898,1613.1547,100.9419,1610.2396,103.857,1605.3917,96.09,1611.4477" style="stroke:#181818;stroke-width:1;"/><text fill="#000000" font-family="sans-serif" font-size="13" lengthAdjust="spacing" textLength="152.7627" x="333.39" y="1565.166">Apply Credit/Debit Note</text></g><!--link CLOSED to CLOSED--><g class="link" data-entity-1="CLOSED" data-entity-2="CLOSED" data-source-line="39" data-uid="lnk54" id="link_CLOSED_CLOSED"><path d="M590.29,1485.0477 C608.72,1483.4477 625.15,1487.2977 625.15,1496.5977 C625.15,1505.8977 614.6975,1510.2666 596.2675,1508.6666" fill="none" id="CLOSED-to-CLOSED" style="stroke:#181818;stroke-width:1;"/><polygon fill="#181818" points="590.29,1508.1477,598.9103,1512.9111,595.2713,1508.5801,599.6022,1504.9411,590.29,1508.1477" style="stroke:#181818;stroke-width:1;"/><text fill="#000000" font-family="sans-serif" font-size="13" lengthAdjust="spacing" textLength="90.3525" x="631.15" y="1501.666">Settle Account</text></g><!--link CLOSED to *end*--><g class="link" data-entity-1="CLOSED" data-entity-2=".end." data-source-line="40" data-uid="lnk56" id="link_CLOSED_.end."><path d="M590.52,1517.1277 C646.74,1546.6577 744.8578,1598.1883 776.5478,1614.8283" fill="none" id="CLOSED-to-*end*" style="stroke:#181818;stroke-width:1;"/><polygon fill="#181818" points="781.86,1617.6177,775.7513,1609.8921,777.4332,1615.2932,772.0321,1616.9751,781.86,1617.6177" style="stroke:#181818;stroke-width:1;"/></g><!--link VOIDED to *end*--><g class="link" data-entity-1="VOIDED" data-entity-2=".end." data-source-line="41" data-uid="lnk57" id="link_VOIDED_.end."><path d="M1264.83,392.9277 C1267.79,423.9277 1272.33,479.1877 1272.33,526.5977 C1272.33,526.5977 1272.33,526.5977 1272.33,1497.5977 C1272.33,1598.1177 879.8748,1618.9582 808.2748,1621.9382" fill="none" id="VOIDED-to-*end*" style="stroke:#181818;stroke-width:1;"/><polygon fill="#181818" points="802.28,1622.1877,811.4386,1625.8099,807.2757,1621.9797,811.1059,1617.8169,802.28,1622.1877" style="stroke:#181818;stroke-width:1;"/></g><!--link CANCELLED to *end*--><g class="link" data-entity-1="CANCELLED" data-entity-2=".end." data-source-line="42" data-uid="lnk58" id="link_CANCELLED_.end."><path d="M257.33,887.0277 C257.33,912.2277 257.33,952.6577 257.33,987.5977 C257.33,987.5977 257.33,987.5977 257.33,1497.5977 C257.33,1608.8777 696.5408,1621.0577 773.9308,1622.3477" fill="none" id="CANCELLED-to-*end*" style="stroke:#181818;stroke-width:1;"/><polygon fill="#181818" points="779.93,1622.4477,770.9979,1618.2982,774.9307,1622.3643,770.8646,1626.2971,779.93,1622.4477" style="stroke:#181818;stroke-width:1;"/></g><!--link ON_HOLD to CANCELLED--><g class="link" data-entity-1="ON_HOLD" data-entity-2="CANCELLED" data-source-line="45" data-uid="lnk61" id="link_ON_HOLD_CANCELLED"><path d="M275.04,759.9977 C271.16,782.0177 266.5295,808.3484 262.6595,830.3484" fill="none" id="ON_HOLD-to-CANCELLED" style="stroke:#181818;stroke-width:1;"/><polygon fill="#181818" points="261.62,836.2577,267.1188,828.0867,262.4862,831.3333,259.2397,826.7008,261.62,836.2577" style="stroke:#181818;stroke-width:1;"/><text fill="#000000" font-family="sans-serif" font-size="13" lengthAdjust="spacing" textLength="132.6152" x="270.65" y="803.166">Cancel while on Hold</text></g><!--link ADJUSTED to DRAFT--><g class="link" data-entity-1="ADJUSTED" data-entity-2="DRAFT" data-source-line="46" data-uid="lnk62" id="link_ADJUSTED_DRAFT"><path d="M42.32,1598.5477 C33.8,1573.6577 22.33,1533.4677 22.33,1497.5977 C22.33,286.5977 22.33,286.5977 22.33,286.5977 C22.33,208.8577 622.3487,171.6614 771.4887,163.6014" fill="none" id="ADJUSTED-to-DRAFT" style="stroke:#181818;stroke-width:1;"/><polygon fill="#181818" points="777.48,163.2777,768.2773,159.7692,772.4873,163.5475,768.709,167.7575,777.48,163.2777" style="stroke:#181818;stroke-width:1;"/><text fill="#000000" font-family="sans-serif" font-size="13" lengthAdjust="spacing" textLength="47.0298" x="23.33" y="930.166">Re-edit</text></g><!--link REFUNDED to *end*--><g class="link" data-entity-1="REFUNDED" data-entity-2=".end." data-source-line="47" data-uid="lnk63" id="link_REFUNDED_.end."><path d="M791.33,1521.9977 C791.33,1549.4177 791.33,1586.6777 791.33,1606.2977" fill="none" id="REFUNDED-to-*end*" style="stroke:#181818;stroke-width:1;"/><polygon fill="#181818" points="791.33,1612.2977,795.33,1603.2977,791.33,1607.2977,787.33,1603.2977,791.33,1612.2977" style="stroke:#181818;stroke-width:1;"/></g><!--link DECLINED to *end*--><g class="link" data-entity-1="DECLINED" data-entity-2=".end." data-source-line="48" data-uid="lnk64" id="link_DECLINED_.end."><path d="M1197.71,552.8777 C1199.19,581.0577 1201.33,628.9277 1201.33,670.0977 C1201.33,670.0977 1201.33,670.0977 1201.33,1497.5977 C1201.33,1583.5477 873.4784,1615.6588 808.2784,1621.2088" fill="none" id="DECLINED-to-*end*" style="stroke:#181818;stroke-width:1;"/><polygon fill="#181818" points="802.3,1621.7177,811.6068,1624.9399,807.282,1621.2936,810.9283,1616.9687,802.3,1621.7177" style="stroke:#181818;stroke-width:1;"/></g><!--SRC=[ZLHXQzim4FskNo7Ojq7P6FimIYcebjDwysnZEnrbZABQbqIBB1bPJid6_liantQSrkr6863flRjtJtVNRBcicMOLRWmpW7yZZAzOiLrhrShIKqBfYuiSTCKb4vUNEEJhZKcutCxX0iaDFyAkDO14Vn1gnYGvDm8MIfgEWTzyUkz-Su2C_mByuUFSLSGgm4JRJCYuCnp8dU85uCoMq3Re-ziV-Epi4jEKB7BK_NVVYH_H8Bg-9qcInhSanESuQnygRl3AQabXn-5n0W-oREbJ2rgusfqS9akSWImdeDiue1s8ygPWkiHKivL1prAT12HrhTKEvb7Kzy8Wwd0f_8JYXM072UUT7lnWNw8hmbDQMmfN4lNPkiBJsFEppCLOBCD548PV_IZl4WXW3M2Zy3UcOQFQ1gR4sAPsUX-PVLYvnWdRLo0DZgNOJt4UYJm_33lH7fC521mqJGlby3Je1GcEdDq4IT9HimslCH7YDNH2qZmWONXt_uINCEsQxpNk5V6-n2drquuLjmQhbMqQLMnVOyNH_KqSTddQfdPsBrgnua8uAz0qvZ-yRbmcsxYQxvpEPuMSck6fgXPWHz9LLrltqHH7_J2uxGlnb5nnNM4AWkz0xz7nSlA8Lx3cSdn1idOHkwjJLnCI75gl01jiS7NWJHadE6l932YsAkZIT-FH0gPkmQJ0YWsKHmmDicIP7mffhKKLQ3TCTMi0FP4rapU5Yd5PWXwd925tasO9nW4UI-_jSXfwUJDnGwTrh6U22wBSJoCIZZtX6iBEZrreuZ1v3Hh5Uc6S7IPU5nlk9dwuIVt5CgBzb9jMI-kWB1lKCno4qC_BB1yMXjXZJqF9pJiA3tPbHShwCq6FgJ8mRYUIeh2RsKmXTY-YVbyDdyV17Kx6vvYqZcrT9QmfmxCC4_5Vk-L6YVA4CRCi7ZVSIbRo01uBd-wv5CvSzMWqRXGyxCl-u2y0]--></g></svg>