<?xml version="1.0" encoding="us-ascii" standalone="no"?><svg xmlns="http://www.w3.org/2000/svg" xmlns:xlink="http://www.w3.org/1999/xlink" contentStyleType="text/css" height="435px" preserveAspectRatio="none" style="width:1639px;height:435px;background:#FFFFFF;" version="1.1" viewBox="0 0 1639 435" width="1639px" zoomAndPan="magnify"><defs/><g><g id="elem_BillOfMaterial"><rect fill="#F1F1F1" height="36.4883" rx="2.5" ry="2.5" style="stroke:#181818;stroke-width:0.5;" width="111" x="1083.5" y="392.95"/><text fill="#000000" font-family="sans-serif" font-size="14" lengthAdjust="spacing" textLength="91" x="1093.5" y="416.4852">BillOfMaterial</text></g><g id="elem_BomComponent"><rect fill="#F1F1F1" height="36.4883" rx="2.5" ry="2.5" style="stroke:#181818;stroke-width:0.5;" width="131" x="1014.5" y="296.46"/><text fill="#000000" font-family="sans-serif" font-size="14" lengthAdjust="spacing" textLength="111" x="1024.5" y="319.9952">BomComponent</text></g><g id="elem_Code"><rect fill="#F1F1F1" height="36.4883" rx="2.5" ry="2.5" style="stroke:#181818;stroke-width:0.5;" width="56" x="935" y="7"/><text fill="#000000" font-family="sans-serif" font-size="14" lengthAdjust="spacing" textLength="36" x="945" y="30.5352">Code</text></g><g id="elem_EffectivePeriod"><rect fill="#F1F1F1" height="36.4883" rx="2.5" ry="2.5" style="stroke:#181818;stroke-width:0.5;" width="121" x="820.5" y="199.98"/><text fill="#000000" font-family="sans-serif" font-size="14" lengthAdjust="spacing" textLength="101" x="830.5" y="223.5152">EffectivePeriod</text></g><g id="elem_Identifier"><rect fill="#F1F1F1" height="36.4883" rx="2.5" ry="2.5" style="stroke:#181818;stroke-width:0.5;" width="82" x="1026" y="7"/><text fill="#000000" font-family="sans-serif" font-size="14" lengthAdjust="spacing" textLength="62" x="1036" y="30.5352">Identifier</text></g><g id="elem_PartIdentifier"><rect fill="#F1F1F1" height="36.4883" rx="2.5" ry="2.5" style="stroke:#181818;stroke-width:0.5;" width="109" x="976.5" y="199.98"/><text fill="#000000" font-family="sans-serif" font-size="14" lengthAdjust="spacing" textLength="89" x="986.5" y="223.5152">PartIdentifier</text></g><g id="elem_PartIdentifierReference"><rect fill="#F1F1F1" height="36.4883" rx="2.5" ry="2.5" style="stroke:#181818;stroke-width:0.5;" width="177" x="1456.5" y="199.98"/><text fill="#000000" font-family="sans-serif" font-size="14" lengthAdjust="spacing" textLength="157" x="1466.5" y="223.5152">PartIdentifierReference</text></g><g id="elem_PartName"><rect fill="#F1F1F1" height="36.4883" rx="2.5" ry="2.5" style="stroke:#181818;stroke-width:0.5;" width="86" x="992" y="103.49"/><text fill="#000000" font-family="sans-serif" font-size="14" lengthAdjust="spacing" textLength="66" x="1002" y="127.0252">PartName</text></g><g id="elem_PartSpecification"><rect fill="#F1F1F1" height="36.4883" rx="2.5" ry="2.5" style="stroke:#181818;stroke-width:0.5;" width="134" x="482" y="199.98"/><text fill="#000000" font-family="sans-serif" font-size="14" lengthAdjust="spacing" textLength="114" x="492" y="223.5152">PartSpecification</text></g><g id="elem_TextualDetail"><rect fill="#F1F1F1" height="36.4883" rx="2.5" ry="2.5" style="stroke:#181818;stroke-width:0.5;" width="111" x="1120.5" y="199.98"/><text fill="#000000" font-family="sans-serif" font-size="14" lengthAdjust="spacing" textLength="91" x="1130.5" y="223.5152">TextualDetail</text></g><g id="elem_UnitOfMeasure"><rect fill="#F1F1F1" height="36.4883" rx="2.5" ry="2.5" style="stroke:#181818;stroke-width:0.5;" width="122" x="374" y="103.49"/><text fill="#000000" font-family="sans-serif" font-size="14" lengthAdjust="spacing" textLength="102" x="384" y="127.0252">UnitOfMeasure</text></g><g id="elem_ConditionGradeTypes"><rect fill="#FAFF91" height="36.4883" rx="2.5" ry="2.5" style="stroke:#181818;stroke-width:0.5;" width="169" x="601.5" y="103.49"/><text fill="#000000" font-family="sans-serif" font-size="14" lengthAdjust="spacing" textLength="149" x="611.5" y="127.0252">ConditionGradeTypes</text></g><g id="elem_ConditionTypes"><rect fill="#FAFF91" height="36.4883" rx="2.5" ry="2.5" style="stroke:#181818;stroke-width:0.5;" width="128" x="7" y="103.49"/><text fill="#000000" font-family="sans-serif" font-size="14" lengthAdjust="spacing" textLength="108" x="17" y="127.0252">ConditionTypes</text></g><g id="elem_DurationUomTypes"><rect fill="#FAFF91" height="36.4883" rx="2.5" ry="2.5" style="stroke:#181818;stroke-width:0.5;" width="152" x="805" y="103.49"/><text fill="#000000" font-family="sans-serif" font-size="14" lengthAdjust="spacing" textLength="132" x="815" y="127.0252">DurationUomTypes</text></g><g id="elem_PartIdentifierTypes"><rect fill="#FAFF91" height="36.4883" rx="2.5" ry="2.5" style="stroke:#181818;stroke-width:0.5;" width="149" x="1277.5" y="103.49"/><text fill="#000000" font-family="sans-serif" font-size="14" lengthAdjust="spacing" textLength="129" x="1287.5" y="127.0252">PartIdentifierTypes</text></g><g id="elem_PartInvoiceItemTypes"><rect fill="#FAFF91" height="36.4883" rx="2.5" ry="2.5" style="stroke:#181818;stroke-width:0.5;" width="165" x="1462.5" y="103.49"/><text fill="#000000" font-family="sans-serif" font-size="14" lengthAdjust="spacing" textLength="145" x="1472.5" y="127.0252">PartInvoiceItemTypes</text></g><g id="elem_PartNameTypes"><rect fill="#FAFF91" height="36.4883" rx="2.5" ry="2.5" style="stroke:#181818;stroke-width:0.5;" width="126" x="774" y="7"/><text fill="#000000" font-family="sans-serif" font-size="14" lengthAdjust="spacing" textLength="106" x="784" y="30.5352">PartNameTypes</text></g><g id="elem_PartStatusTypes"><rect fill="#FAFF91" height="36.4883" rx="2.5" ry="2.5" style="stroke:#181818;stroke-width:0.5;" width="129" x="1112.5" y="103.49"/><text fill="#000000" font-family="sans-serif" font-size="14" lengthAdjust="spacing" textLength="109" x="1122.5" y="127.0252">PartStatusTypes</text></g><g id="elem_ProductPackageTypes"><rect fill="#FAFF91" height="36.4883" rx="2.5" ry="2.5" style="stroke:#181818;stroke-width:0.5;" width="169" x="170.5" y="103.49"/><text fill="#000000" font-family="sans-serif" font-size="14" lengthAdjust="spacing" textLength="149" x="180.5" y="127.0252">ProductPackageTypes</text></g><g id="elem_ProductStatusTypes"><rect fill="#FAFF91" height="36.4883" rx="2.5" ry="2.5" style="stroke:#181818;stroke-width:0.5;" width="155" x="1266.5" y="199.98"/><text fill="#000000" font-family="sans-serif" font-size="14" lengthAdjust="spacing" textLength="135" x="1276.5" y="223.5152">ProductStatusTypes</text></g><g id="elem_UomQuantityCategoryTypes"><rect fill="#FAFF91" height="36.4883" rx="2.5" ry="2.5" style="stroke:#181818;stroke-width:0.5;" width="212" x="329" y="7"/><text fill="#000000" font-family="sans-serif" font-size="14" lengthAdjust="spacing" textLength="192" x="339" y="30.5352">UomQuantityCategoryTypes</text></g><g id="link_BomComponent_BillOfMaterial"><path d="M1097.1767,343.218 C1107.7567,360.158 1117.42,375.64 1128.05,392.66 " fill="none" id="BomComponent-backto-BillOfMaterial" style="stroke:#181818;stroke-width:1.0;"/><polygon fill="#181818" points="1090.82,333.04,1090.6057,340.2479,1097.1767,343.218,1097.391,336.0101,1090.82,333.04" style="stroke:#181818;stroke-width:1.0;"/></g><g id="link_ConditionGradeTypes_PartSpecification"><path d="M650.6723,147.094 C626.0723,164.064 598.87,182.82 574.31,199.76 " fill="none" id="ConditionGradeTypes-backto-PartSpecification" style="stroke:#181818;stroke-width:1.0;"/><polygon fill="#181818" points="660.55,140.28,653.3398,140.3944,650.6723,147.094,657.8825,146.9796,660.55,140.28" style="stroke:#181818;stroke-width:1.0;"/></g><g id="link_ConditionTypes_PartSpecification"><path d="M147.1938,138.7982 C153.1238,140.0182 147.3,138.82 153,139.98 C268.33,163.35 402.83,189.31 481.68,204.4 " fill="none" id="ConditionTypes-backto-PartSpecification" style="stroke:#181818;stroke-width:1.0;"/><polygon fill="#181818" points="135.44,136.38,140.5109,141.507,147.1938,138.7982,142.123,133.6711,135.44,136.38" style="stroke:#181818;stroke-width:1.0;"/></g><g id="link_DurationUomTypes_EffectivePeriod"><path d="M881,140.06 C881,157 881,182.66 881,199.68 " fill="none" id="DurationUomTypes-EffectivePeriod" style="stroke:#181818;stroke-width:1.0;"/></g><g id="link_EffectivePeriod_BomComponent"><path d="M917.96,236.77 C953.6,253.69 1007.22,279.15 1042.9,296.09 " fill="none" id="EffectivePeriod-BomComponent" style="stroke:#181818;stroke-width:1.0;"/></g><g id="link_PartIdentifierReference_BillOfMaterial"><path d="M1496.6717,241.9486 C1419.4317,278.2886 1254.09,356.06 1176.67,392.48 " fill="none" id="PartIdentifierReference-backto-BillOfMaterial" style="stroke:#181818;stroke-width:1.0;"/><polygon fill="#181818" points="1507.53,236.84,1500.398,235.7749,1496.6717,241.9486,1503.8037,243.0137,1507.53,236.84" style="stroke:#181818;stroke-width:1.0;"/></g><g id="link_PartIdentifierTypes_PartIdentifier"><path d="M1292,140.39 C1232.84,157.81 1143.21,184.19 1085.89,201.06 " fill="none" id="PartIdentifierTypes-PartIdentifier" style="stroke:#181818;stroke-width:1.0;"/></g><g id="link_PartIdentifierTypes_PartIdentifierReference"><path d="M1387.85,140.28 C1422.41,157.2 1474.41,182.66 1509.02,199.6 " fill="none" id="PartIdentifierTypes-PartIdentifierReference" style="stroke:#181818;stroke-width:1.0;"/></g><g id="link_PartIdentifier_BomComponent"><path d="M1045.512,247.204 C1054.292,264.144 1062.08,279.15 1070.9,296.17 " fill="none" id="PartIdentifier-backto-BomComponent" style="stroke:#181818;stroke-width:1.0;"/><polygon fill="#181818" points="1039.99,236.55,1039.1996,243.7177,1045.512,247.204,1046.3023,240.0363,1039.99,236.55" style="stroke:#181818;stroke-width:1.0;"/></g><g id="link_PartInvoiceItemTypes_PartIdentifierReference"><path d="M1545,140.06 C1545,157 1545,182.66 1545,199.68 " fill="none" id="PartInvoiceItemTypes-PartIdentifierReference" style="stroke:#181818;stroke-width:1.0;"/></g><g id="link_PartNameTypes_PartName"><path d="M873.78,43.79 C909.23,60.71 962.58,86.17 998.08,103.11 " fill="none" id="PartNameTypes-PartName" style="stroke:#181818;stroke-width:1.0;"/></g><g id="link_PartNameTypes_PartSpecification"><path d="M773.74,29.32 C716.77,35.44 634.47,53.13 584,103.49 C557.82,129.61 551.14,174.8 549.49,199.63 " fill="none" id="PartNameTypes-PartSpecification" style="stroke:#181818;stroke-width:1.0;"/></g><g id="link_PartName_PartIdentifier"><path d="M1033.7604,152.0492 C1033.0404,168.9892 1032.46,182.66 1031.74,199.68 " fill="none" id="PartName-backto-PartIdentifier" style="stroke:#181818;stroke-width:1.0;"/><polygon fill="#181818" points="1034.27,140.06,1030.0188,145.8847,1033.7604,152.0492,1038.0116,146.2244,1034.27,140.06" style="stroke:#181818;stroke-width:1.0;"/></g><g id="link_PartSpecification_BillOfMaterial"><path d="M603.71,236.93 C716.12,273.32 971.93,356.12 1084.32,392.5 " fill="none" id="PartSpecification-BillOfMaterial" style="stroke:#181818;stroke-width:1.0;"/></g><g id="link_PartSpecification_BomComponent"><path d="M616.25,231.19 C718.67,249.41 912.54,283.91 1014.13,301.99 " fill="none" id="PartSpecification-BomComponent" style="stroke:#181818;stroke-width:1.0;"/></g><g id="link_PartStatusTypes_PartIdentifier"><path d="M1149.88,140.28 C1123.66,157.25 1084.15,182.82 1057.97,199.76 " fill="none" id="PartStatusTypes-PartIdentifier" style="stroke:#181818;stroke-width:1.0;"/></g><g id="link_ProductPackageTypes_PartSpecification"><path d="M309.95,140.39 C362.47,157.27 441.22,182.58 493.82,199.48 " fill="none" id="ProductPackageTypes-PartSpecification" style="stroke:#181818;stroke-width:1.0;"/></g><g id="link_ProductStatusTypes_BillOfMaterial"><path d="M1325.08,236.84 C1286.03,273.23 1196.89,356.27 1157.87,392.61 " fill="none" id="ProductStatusTypes-BillOfMaterial" style="stroke:#181818;stroke-width:1.0;"/></g><g id="link_ProductStatusTypes_BomComponent"><path d="M1294.65,236.88 C1247.49,253.76 1176.78,279.07 1129.55,295.97 " fill="none" id="ProductStatusTypes-BomComponent" style="stroke:#181818;stroke-width:1.0;"/></g><g id="link_TextualDetail_BomComponent"><path d="M1149.8379,244.9679 C1132.6279,261.9079 1115.11,279.15 1097.82,296.17 " fill="none" id="TextualDetail-backto-BomComponent" style="stroke:#181818;stroke-width:1.0;"/><polygon fill="#181818" points="1158.39,236.55,1151.308,237.9083,1149.8379,244.9679,1156.9199,243.6097,1158.39,236.55" style="stroke:#181818;stroke-width:1.0;"/></g><g id="link_UnitOfMeasure_PartSpecification"><path d="M465.4182,147.9387 C485.8882,164.9087 507.5,182.82 527.94,199.76 " fill="none" id="UnitOfMeasure-backto-PartSpecification" style="stroke:#181818;stroke-width:1.0;"/><polygon fill="#181818" points="456.18,140.28,458.2462,147.1887,465.4182,147.9387,463.352,141.0299,456.18,140.28" style="stroke:#181818;stroke-width:1.0;"/></g><g id="link_UomQuantityCategoryTypes_UnitOfMeasure"><path d="M435,43.57 C435,60.52 435,86.18 435,103.19 " fill="none" id="UomQuantityCategoryTypes-UnitOfMeasure" style="stroke:#181818;stroke-width:1.0;"/></g></g></svg>
