<?xml version="1.0" encoding="us-ascii" standalone="no"?><svg xmlns="http://www.w3.org/2000/svg" xmlns:xlink="http://www.w3.org/1999/xlink" contentStyleType="text/css" height="1014px" preserveAspectRatio="none" style="width:3722px;height:1014px;background:#FFFFFF;" version="1.1" viewBox="0 0 3722 1014" width="3722px" zoomAndPan="magnify"><defs/><g><g id="elem_ActorReference"><rect fill="#F1F1F1" height="36.4883" rx="2.5" ry="2.5" style="stroke:#181818;stroke-width:0.5;" width="125" x="1709.5" y="392.95"/><text fill="#000000" font-family="sans-serif" font-size="14" lengthAdjust="spacing" textLength="105" x="1719.5" y="416.4852">ActorReference</text></g><g id="elem_AddressReference"><rect fill="#F1F1F1" height="36.4883" rx="2.5" ry="2.5" style="stroke:#181818;stroke-width:0.5;" width="144" x="315" y="392.95"/><text fill="#000000" font-family="sans-serif" font-size="14" lengthAdjust="spacing" textLength="124" x="325" y="416.4852">AddressReference</text></g><g id="elem_AuthorizationLevel"><rect fill="#F1F1F1" height="36.4883" rx="2.5" ry="2.5" style="stroke:#181818;stroke-width:0.5;" width="149" x="783.5" y="296.46"/><text fill="#000000" font-family="sans-serif" font-size="14" lengthAdjust="spacing" textLength="129" x="793.5" y="319.9952">AuthorizationLevel</text></g><g id="elem_BusinessContext"><rect fill="#F1F1F1" height="36.4883" rx="2.5" ry="2.5" style="stroke:#181818;stroke-width:0.5;" width="134" x="2087" y="392.95"/><text fill="#000000" font-family="sans-serif" font-size="14" lengthAdjust="spacing" textLength="114" x="2097" y="416.4852">BusinessContext</text></g><g id="elem_Code"><rect fill="#F1F1F1" height="36.4883" rx="2.5" ry="2.5" style="stroke:#181818;stroke-width:0.5;" width="56" x="2567" y="7"/><text fill="#000000" font-family="sans-serif" font-size="14" lengthAdjust="spacing" textLength="36" x="2577" y="30.5352">Code</text></g><g id="elem_CommunicationChannel"><rect fill="#F1F1F1" height="36.4883" rx="2.5" ry="2.5" style="stroke:#181818;stroke-width:0.5;" width="186" x="494" y="392.95"/><text fill="#000000" font-family="sans-serif" font-size="14" lengthAdjust="spacing" textLength="166" x="504" y="416.4852">CommunicationChannel</text></g><g id="elem_ConnectedVehicleReference"><rect fill="#F1F1F1" height="36.4883" rx="2.5" ry="2.5" style="stroke:#181818;stroke-width:0.5;" width="211" x="651.5" y="875.39"/><text fill="#000000" font-family="sans-serif" font-size="14" lengthAdjust="spacing" textLength="191" x="661.5" y="898.9252">ConnectedVehicleReference</text></g><g id="elem_CurrencyExchange"><rect fill="#F1F1F1" height="36.4883" rx="2.5" ry="2.5" style="stroke:#181818;stroke-width:0.5;" width="149" x="2579.5" y="296.46"/><text fill="#000000" font-family="sans-serif" font-size="14" lengthAdjust="spacing" textLength="129" x="2589.5" y="319.9952">CurrencyExchange</text></g><g id="elem_EffectivePeriod"><rect fill="#F1F1F1" height="36.4883" rx="2.5" ry="2.5" style="stroke:#181818;stroke-width:0.5;" width="121" x="2395.5" y="103.49"/><text fill="#000000" font-family="sans-serif" font-size="14" lengthAdjust="spacing" textLength="101" x="2405.5" y="127.0252">EffectivePeriod</text></g><g id="elem_FinancialEventSnapshot"><rect fill="#F1F1F1" height="36.4883" rx="2.5" ry="2.5" style="stroke:#181818;stroke-width:0.5;" width="182" x="1870" y="392.95"/><text fill="#000000" font-family="sans-serif" font-size="14" lengthAdjust="spacing" textLength="162" x="1880" y="416.4852">FinancialEventSnapshot</text></g><g id="elem_FleetVehicle"><rect fill="#F1F1F1" height="36.4883" rx="2.5" ry="2.5" style="stroke:#181818;stroke-width:0.5;" width="102" x="2619" y="971.88"/><text fill="#000000" font-family="sans-serif" font-size="14" lengthAdjust="spacing" textLength="82" x="2629" y="995.4152">FleetVehicle</text></g><g id="elem_GeneralAmount"><rect fill="#F1F1F1" height="36.4883" rx="2.5" ry="2.5" style="stroke:#181818;stroke-width:0.5;" width="128" x="2090" y="296.46"/><text fill="#000000" font-family="sans-serif" font-size="14" lengthAdjust="spacing" textLength="108" x="2100" y="319.9952">GeneralAmount</text></g><g id="elem_GeneralLedgerReference"><rect fill="#F1F1F1" height="36.4883" rx="2.5" ry="2.5" style="stroke:#181818;stroke-width:0.5;" width="188" x="1647" y="296.46"/><text fill="#000000" font-family="sans-serif" font-size="14" lengthAdjust="spacing" textLength="168" x="1657" y="319.9952">GeneralLedgerReference</text></g><g id="elem_Identifier"><rect fill="#F1F1F1" height="36.4883" rx="2.5" ry="2.5" style="stroke:#181818;stroke-width:0.5;" width="82" x="1537" y="199.98"/><text fill="#000000" font-family="sans-serif" font-size="14" lengthAdjust="spacing" textLength="62" x="1547" y="223.5152">Identifier</text></g><g id="elem_InsuranceReference"><rect fill="#F1F1F1" height="36.4883" rx="2.5" ry="2.5" style="stroke:#181818;stroke-width:0.5;" width="155" x="2754.5" y="875.39"/><text fill="#000000" font-family="sans-serif" font-size="14" lengthAdjust="spacing" textLength="135" x="2764.5" y="898.9252">InsuranceReference</text></g><g id="elem_JurisdictionProfile"><rect fill="#F1F1F1" height="36.4883" rx="2.5" ry="2.5" style="stroke:#181818;stroke-width:0.5;" width="141" x="1356.5" y="199.98"/><text fill="#000000" font-family="sans-serif" font-size="14" lengthAdjust="spacing" textLength="121" x="1366.5" y="223.5152">JurisdictionProfile</text></g><g id="elem_Locale"><rect fill="#F1F1F1" height="36.4883" rx="2.5" ry="2.5" style="stroke:#181818;stroke-width:0.5;" width="63" x="1228.5" y="296.46"/><text fill="#000000" font-family="sans-serif" font-size="14" lengthAdjust="spacing" textLength="43" x="1238.5" y="319.9952">Locale</text></g><g id="elem_MetricValue"><rect fill="#F1F1F1" height="36.4883" rx="2.5" ry="2.5" style="stroke:#181818;stroke-width:0.5;" width="100" x="3107" y="489.44"/><text fill="#000000" font-family="sans-serif" font-size="14" lengthAdjust="spacing" textLength="80" x="3117" y="512.9752">MetricValue</text></g><g id="elem_Money"><rect fill="#F1F1F1" height="36.4883" rx="2.5" ry="2.5" style="stroke:#181818;stroke-width:0.5;" width="65" x="2600.5" y="392.95"/><text fill="#000000" font-family="sans-serif" font-size="14" lengthAdjust="spacing" textLength="45" x="2610.5" y="416.4852">Money</text></g><g id="elem_OptionDescription"><rect fill="#F1F1F1" height="36.4883" rx="2.5" ry="2.5" style="stroke:#181818;stroke-width:0.5;" width="145" x="2926.5" y="489.44"/><text fill="#000000" font-family="sans-serif" font-size="14" lengthAdjust="spacing" textLength="125" x="2936.5" y="512.9752">OptionDescription</text></g><g id="elem_PartyReference"><rect fill="#F1F1F1" height="36.4883" rx="2.5" ry="2.5" style="stroke:#181818;stroke-width:0.5;" width="122" x="985" y="489.44"/><text fill="#000000" font-family="sans-serif" font-size="14" lengthAdjust="spacing" textLength="102" x="995" y="512.9752">PartyReference</text></g><g id="elem_PersonName"><rect fill="#F1F1F1" height="36.4883" rx="2.5" ry="2.5" style="stroke:#181818;stroke-width:0.5;" width="106" x="1128" y="392.95"/><text fill="#000000" font-family="sans-serif" font-size="14" lengthAdjust="spacing" textLength="86" x="1138" y="416.4852">PersonName</text></g><g id="elem_Position"><rect fill="#F1F1F1" height="36.4883" rx="2.5" ry="2.5" style="stroke:#181818;stroke-width:0.5;" width="75" x="2256.5" y="392.95"/><text fill="#000000" font-family="sans-serif" font-size="14" lengthAdjust="spacing" textLength="55" x="2266.5" y="416.4852">Position</text></g><g id="elem_Price"><rect fill="#F1F1F1" height="36.4883" rx="2.5" ry="2.5" style="stroke:#181818;stroke-width:0.5;" width="53" x="2838.5" y="489.44"/><text fill="#000000" font-family="sans-serif" font-size="14" lengthAdjust="spacing" textLength="33" x="2848.5" y="512.9752">Price</text></g><g id="elem_PrivacyPolicyRule"><rect fill="#F1F1F1" height="36.4883" rx="2.5" ry="2.5" style="stroke:#181818;stroke-width:0.5;" width="136" x="790" y="199.98"/><text fill="#000000" font-family="sans-serif" font-size="14" lengthAdjust="spacing" textLength="116" x="800" y="223.5152">PrivacyPolicyRule</text></g><g id="elem_ShipmentEvent"><rect fill="#F1F1F1" height="36.4883" rx="2.5" ry="2.5" style="stroke:#181818;stroke-width:0.5;" width="122" x="1972" y="489.44"/><text fill="#000000" font-family="sans-serif" font-size="14" lengthAdjust="spacing" textLength="102" x="1982" y="512.9752">ShipmentEvent</text></g><g id="elem_ShipmentReference"><rect fill="#F1F1F1" height="36.4883" rx="2.5" ry="2.5" style="stroke:#181818;stroke-width:0.5;" width="153" x="1826.5" y="585.93"/><text fill="#000000" font-family="sans-serif" font-size="14" lengthAdjust="spacing" textLength="133" x="1836.5" y="609.4652">ShipmentReference</text></g><g id="elem_TimeSlot"><rect fill="#F1F1F1" height="36.4883" rx="2.5" ry="2.5" style="stroke:#181818;stroke-width:0.5;" width="80" x="434" y="199.98"/><text fill="#000000" font-family="sans-serif" font-size="14" lengthAdjust="spacing" textLength="60" x="444" y="223.5152">TimeSlot</text></g><g id="elem_UnitOfMeasure"><rect fill="#F1F1F1" height="36.4883" rx="2.5" ry="2.5" style="stroke:#181818;stroke-width:0.5;" width="122" x="1393" y="489.44"/><text fill="#000000" font-family="sans-serif" font-size="14" lengthAdjust="spacing" textLength="102" x="1403" y="512.9752">UnitOfMeasure</text></g><g id="elem_VehicleBuildProfile"><rect fill="#F1F1F1" height="36.4883" rx="2.5" ry="2.5" style="stroke:#181818;stroke-width:0.5;" width="147" x="2565.5" y="682.42"/><text fill="#000000" font-family="sans-serif" font-size="14" lengthAdjust="spacing" textLength="127" x="2575.5" y="705.9552">VehicleBuildProfile</text></g><g id="elem_VehicleLedgerReference"><rect fill="#F1F1F1" height="36.4883" rx="2.5" ry="2.5" style="stroke:#181818;stroke-width:0.5;" width="184" x="2433" y="875.39"/><text fill="#000000" font-family="sans-serif" font-size="14" lengthAdjust="spacing" textLength="164" x="2443" y="898.9252">VehicleLedgerReference</text></g><g id="elem_VehicleLogisticsProfile"><rect fill="#F1F1F1" height="36.4883" rx="2.5" ry="2.5" style="stroke:#181818;stroke-width:0.5;" width="172" x="2105" y="682.42"/><text fill="#000000" font-family="sans-serif" font-size="14" lengthAdjust="spacing" textLength="152" x="2115" y="705.9552">VehicleLogisticsProfile</text></g><g id="elem_VehicleOption"><rect fill="#F1F1F1" height="36.4883" rx="2.5" ry="2.5" style="stroke:#181818;stroke-width:0.5;" width="116" x="2692" y="585.93"/><text fill="#000000" font-family="sans-serif" font-size="14" lengthAdjust="spacing" textLength="96" x="2702" y="609.4652">VehicleOption</text></g><g id="elem_VehicleReference"><rect fill="#F1F1F1" height="36.4883" rx="2.5" ry="2.5" style="stroke:#181818;stroke-width:0.5;" width="137" x="2570.5" y="778.91"/><text fill="#000000" font-family="sans-serif" font-size="14" lengthAdjust="spacing" textLength="117" x="2580.5" y="802.4452">VehicleReference</text></g><g id="elem_WarrantyReference"><rect fill="#F1F1F1" height="36.4883" rx="2.5" ry="2.5" style="stroke:#181818;stroke-width:0.5;" width="149" x="971.5" y="585.93"/><text fill="#000000" font-family="sans-serif" font-size="14" lengthAdjust="spacing" textLength="129" x="981.5" y="609.4652">WarrantyReference</text></g><g id="elem_ActorTypes"><rect fill="#FAFF91" height="36.4883" rx="2.5" ry="2.5" style="stroke:#181818;stroke-width:0.5;" width="97" x="1515.5" y="296.46"/><text fill="#000000" font-family="sans-serif" font-size="14" lengthAdjust="spacing" textLength="77" x="1525.5" y="319.9952">ActorTypes</text></g><g id="elem_AddressTypes"><rect fill="#FAFF91" height="36.4883" rx="2.5" ry="2.5" style="stroke:#181818;stroke-width:0.5;" width="116" x="315" y="296.46"/><text fill="#000000" font-family="sans-serif" font-size="14" lengthAdjust="spacing" textLength="96" x="325" y="319.9952">AddressTypes</text></g><g id="elem_CommunicationChannelTypes"><rect fill="#FAFF91" height="36.4883" rx="2.5" ry="2.5" style="stroke:#181818;stroke-width:0.5;" width="226" x="967" y="296.46"/><text fill="#000000" font-family="sans-serif" font-size="14" lengthAdjust="spacing" textLength="206" x="977" y="319.9952">CommunicationChannelTypes</text></g><g id="elem_CommunicationStatusTypes"><rect fill="#FAFF91" height="36.4883" rx="2.5" ry="2.5" style="stroke:#181818;stroke-width:0.5;" width="211" x="537.5" y="296.46"/><text fill="#000000" font-family="sans-serif" font-size="14" lengthAdjust="spacing" textLength="191" x="547.5" y="319.9952">CommunicationStatusTypes</text></g><g id="elem_ConditionGradeTypes"><rect fill="#FAFF91" height="36.4883" rx="2.5" ry="2.5" style="stroke:#181818;stroke-width:0.5;" width="169" x="3383.5" y="875.39"/><text fill="#000000" font-family="sans-serif" font-size="14" lengthAdjust="spacing" textLength="149" x="3393.5" y="898.9252">ConditionGradeTypes</text></g><g id="elem_ConditionTypes"><rect fill="#FAFF91" height="36.4883" rx="2.5" ry="2.5" style="stroke:#181818;stroke-width:0.5;" width="128" x="3588" y="875.39"/><text fill="#000000" font-family="sans-serif" font-size="14" lengthAdjust="spacing" textLength="108" x="3598" y="898.9252">ConditionTypes</text></g><g id="elem_ConnectedVehicleStatusTypes"><rect fill="#FAFF91" height="36.4883" rx="2.5" ry="2.5" style="stroke:#181818;stroke-width:0.5;" width="225" x="640.5" y="778.91"/><text fill="#000000" font-family="sans-serif" font-size="14" lengthAdjust="spacing" textLength="205" x="650.5" y="802.4452">ConnectedVehicleStatusTypes</text></g><g id="elem_DayOfWeekTypes"><rect fill="#FAFF91" height="36.4883" rx="2.5" ry="2.5" style="stroke:#181818;stroke-width:0.5;" width="137" x="220.5" y="103.49"/><text fill="#000000" font-family="sans-serif" font-size="14" lengthAdjust="spacing" textLength="117" x="230.5" y="127.0252">DayOfWeekTypes</text></g><g id="elem_DurationUomTypes"><rect fill="#FAFF91" height="36.4883" rx="2.5" ry="2.5" style="stroke:#181818;stroke-width:0.5;" width="152" x="2380" y="7"/><text fill="#000000" font-family="sans-serif" font-size="14" lengthAdjust="spacing" textLength="132" x="2390" y="30.5352">DurationUomTypes</text></g><g id="elem_FinancialCategoryTypes"><rect fill="#FAFF91" height="36.4883" rx="2.5" ry="2.5" style="stroke:#181818;stroke-width:0.5;" width="183" x="1870.5" y="296.46"/><text fill="#000000" font-family="sans-serif" font-size="14" lengthAdjust="spacing" textLength="163" x="1880.5" y="319.9952">FinancialCategoryTypes</text></g><g id="elem_InsuranceTypes"><rect fill="#FAFF91" height="36.4883" rx="2.5" ry="2.5" style="stroke:#181818;stroke-width:0.5;" width="127" x="2885.5" y="778.91"/><text fill="#000000" font-family="sans-serif" font-size="14" lengthAdjust="spacing" textLength="107" x="2895.5" y="802.4452">InsuranceTypes</text></g><g id="elem_LifecycleStatusTypes"><rect fill="#FAFF91" height="36.4883" rx="2.5" ry="2.5" style="stroke:#181818;stroke-width:0.5;" width="159" x="50.5" y="489.44"/><text fill="#000000" font-family="sans-serif" font-size="14" lengthAdjust="spacing" textLength="139" x="60.5" y="512.9752">LifecycleStatusTypes</text></g><g id="elem_MaskingStrategyTypes"><rect fill="#FAFF91" height="36.4883" rx="2.5" ry="2.5" style="stroke:#181818;stroke-width:0.5;" width="173" x="1125.5" y="103.49"/><text fill="#000000" font-family="sans-serif" font-size="14" lengthAdjust="spacing" textLength="153" x="1135.5" y="127.0252">MaskingStrategyTypes</text></g><g id="elem_NarrativeUomTypes"><rect fill="#FAFF91" height="36.4883" rx="2.5" ry="2.5" style="stroke:#181818;stroke-width:0.5;" width="154" x="3053" y="392.95"/><text fill="#000000" font-family="sans-serif" font-size="14" lengthAdjust="spacing" textLength="134" x="3063" y="416.4852">NarrativeUomTypes</text></g><g id="elem_OptionInstallationTypes"><rect fill="#FAFF91" height="36.4883" rx="2.5" ry="2.5" style="stroke:#181818;stroke-width:0.5;" width="183" x="2478.5" y="489.44"/><text fill="#000000" font-family="sans-serif" font-size="14" lengthAdjust="spacing" textLength="163" x="2488.5" y="512.9752">OptionInstallationTypes</text></g><g id="elem_OptionTypes"><rect fill="#FAFF91" height="36.4883" rx="2.5" ry="2.5" style="stroke:#181818;stroke-width:0.5;" width="107" x="2696.5" y="489.44"/><text fill="#000000" font-family="sans-serif" font-size="14" lengthAdjust="spacing" textLength="87" x="2706.5" y="512.9752">OptionTypes</text></g><g id="elem_PartyRelationshipTypes"><rect fill="#FAFF91" height="36.4883" rx="2.5" ry="2.5" style="stroke:#181818;stroke-width:0.5;" width="179" x="714.5" y="392.95"/><text fill="#000000" font-family="sans-serif" font-size="14" lengthAdjust="spacing" textLength="159" x="724.5" y="416.4852">PartyRelationshipTypes</text></g><g id="elem_PartyTypes"><rect fill="#FAFF91" height="36.4883" rx="2.5" ry="2.5" style="stroke:#181818;stroke-width:0.5;" width="94" x="999" y="392.95"/><text fill="#000000" font-family="sans-serif" font-size="14" lengthAdjust="spacing" textLength="74" x="1009" y="416.4852">PartyTypes</text></g><g id="elem_PayTypes"><rect fill="#FAFF91" height="36.4883" rx="2.5" ry="2.5" style="stroke:#181818;stroke-width:0.5;" width="83" x="2700.5" y="392.95"/><text fill="#000000" font-family="sans-serif" font-size="14" lengthAdjust="spacing" textLength="63" x="2710.5" y="416.4852">PayTypes</text></g><g id="elem_PriceTypes"><rect fill="#FAFF91" height="36.4883" rx="2.5" ry="2.5" style="stroke:#181818;stroke-width:0.5;" width="93" x="2818.5" y="392.95"/><text fill="#000000" font-family="sans-serif" font-size="14" lengthAdjust="spacing" textLength="73" x="2828.5" y="416.4852">PriceTypes</text></g><g id="elem_PrivacyAdapterTypes"><rect fill="#FAFF91" height="36.4883" rx="2.5" ry="2.5" style="stroke:#181818;stroke-width:0.5;" width="162" x="590" y="103.49"/><text fill="#000000" font-family="sans-serif" font-size="14" lengthAdjust="spacing" textLength="142" x="600" y="127.0252">PrivacyAdapterTypes</text></g><g id="elem_PrivacyPersonaTypes"><rect fill="#FAFF91" height="36.4883" rx="2.5" ry="2.5" style="stroke:#181818;stroke-width:0.5;" width="162" x="787" y="103.49"/><text fill="#000000" font-family="sans-serif" font-size="14" lengthAdjust="spacing" textLength="142" x="797" y="127.0252">PrivacyPersonaTypes</text></g><g id="elem_PrivacyTypes"><rect fill="#FAFF91" height="36.4883" rx="2.5" ry="2.5" style="stroke:#181818;stroke-width:0.5;" width="107" x="983.5" y="103.49"/><text fill="#000000" font-family="sans-serif" font-size="14" lengthAdjust="spacing" textLength="87" x="993.5" y="127.0252">PrivacyTypes</text></g><g id="elem_ServiceLevelTypes"><rect fill="#FAFF91" height="36.4883" rx="2.5" ry="2.5" style="stroke:#181818;stroke-width:0.5;" width="142" x="1795" y="489.44"/><text fill="#000000" font-family="sans-serif" font-size="14" lengthAdjust="spacing" textLength="122" x="1805" y="512.9752">ServiceLevelTypes</text></g><g id="elem_ShipmentStateTypes"><rect fill="#FAFF91" height="36.4883" rx="2.5" ry="2.5" style="stroke:#181818;stroke-width:0.5;" width="159" x="1515.5" y="392.95"/><text fill="#000000" font-family="sans-serif" font-size="14" lengthAdjust="spacing" textLength="139" x="1525.5" y="416.4852">ShipmentStateTypes</text></g><g id="elem_TimeSlotStatusTypes"><rect fill="#FAFF91" height="36.4883" rx="2.5" ry="2.5" style="stroke:#181818;stroke-width:0.5;" width="162" x="393" y="103.49"/><text fill="#000000" font-family="sans-serif" font-size="14" lengthAdjust="spacing" textLength="142" x="403" y="127.0252">TimeSlotStatusTypes</text></g><g id="elem_TimeslotDirectiveTypes"><rect fill="#FAFF91" height="36.4883" rx="2.5" ry="2.5" style="stroke:#181818;stroke-width:0.5;" width="178" x="7" y="103.49"/><text fill="#000000" font-family="sans-serif" font-size="14" lengthAdjust="spacing" textLength="158" x="17" y="127.0252">TimeslotDirectiveTypes</text></g><g id="elem_UomQuantityCategoryTypes"><rect fill="#FAFF91" height="36.4883" rx="2.5" ry="2.5" style="stroke:#181818;stroke-width:0.5;" width="212" x="1269" y="392.95"/><text fill="#000000" font-family="sans-serif" font-size="14" lengthAdjust="spacing" textLength="192" x="1279" y="416.4852">UomQuantityCategoryTypes</text></g><g id="elem_VehicleBuildStatusTypes"><rect fill="#FAFF91" height="36.4883" rx="2.5" ry="2.5" style="stroke:#181818;stroke-width:0.5;" width="185" x="2401.5" y="585.93"/><text fill="#000000" font-family="sans-serif" font-size="14" lengthAdjust="spacing" textLength="165" x="2411.5" y="609.4652">VehicleBuildStatusTypes</text></g><g id="elem_VehicleEventCategoryTypes"><rect fill="#FAFF91" height="36.4883" rx="2.5" ry="2.5" style="stroke:#181818;stroke-width:0.5;" width="208" x="2146" y="778.91"/><text fill="#000000" font-family="sans-serif" font-size="14" lengthAdjust="spacing" textLength="188" x="2156" y="802.4452">VehicleEventCategoryTypes</text></g><g id="elem_VehicleEventTypes"><rect fill="#FAFF91" height="36.4883" rx="2.5" ry="2.5" style="stroke:#181818;stroke-width:0.5;" width="146" x="2389" y="778.91"/><text fill="#000000" font-family="sans-serif" font-size="14" lengthAdjust="spacing" textLength="126" x="2399" y="802.4452">VehicleEventTypes</text></g><g id="elem_VehicleLogisticsStatusTypes"><rect fill="#FAFF91" height="36.4883" rx="2.5" ry="2.5" style="stroke:#181818;stroke-width:0.5;" width="210" x="2086" y="585.93"/><text fill="#000000" font-family="sans-serif" font-size="14" lengthAdjust="spacing" textLength="190" x="2096" y="609.4652">VehicleLogisticsStatusTypes</text></g><g id="link_ActorReference_ShipmentEvent"><path d="M1820.79,429.86 C1867.41,446.74 1937.32,472.05 1984.01,488.95 " fill="none" id="ActorReference-ShipmentEvent" style="stroke:#181818;stroke-width:1.0;"/></g><g id="link_ActorTypes_ActorReference"><path d="M1602.64,333.26 C1639.88,350.18 1695.93,375.64 1733.22,392.58 " fill="none" id="ActorTypes-ActorReference" style="stroke:#181818;stroke-width:1.0;"/></g><g id="link_AddressReference_PartyReference"><path d="M470.9654,428.4766 C476.9954,429.5466 471.19,428.49 477,429.44 C661.22,459.57 880.37,486.95 984.79,499.48 " fill="none" id="AddressReference-backto-PartyReference" style="stroke:#181818;stroke-width:1.0;"/><polygon fill="#181818" points="459.15,426.38,464.3588,431.3668,470.9654,428.4766,465.7566,423.4898,459.15,426.38" style="stroke:#181818;stroke-width:1.0;"/></g><g id="link_AddressTypes_AddressReference"><path d="M377.3288,344.9104 C379.8388,361.8504 381.88,375.64 384.4,392.66 " fill="none" id="AddressTypes-backto-AddressReference" style="stroke:#181818;stroke-width:1.0;"/><polygon fill="#181818" points="375.57,333.04,372.4926,339.5615,377.3288,344.9104,380.4062,338.3889,375.57,333.04" style="stroke:#181818;stroke-width:1.0;"/></g><g id="link_AuthorizationLevel_CommunicationChannel"><path d="M796.0091,337.321 C747.5991,354.201 686.35,375.56 637.87,392.46 " fill="none" id="AuthorizationLevel-backto-CommunicationChannel" style="stroke:#181818;stroke-width:1.0;"/><polygon fill="#181818" points="807.34,333.37,800.3575,331.5685,796.0091,337.321,802.9915,339.1225,807.34,333.37" style="stroke:#181818;stroke-width:1.0;"/></g><g id="link_BusinessContext_ShipmentEvent"><path d="M2131.52,429.75 C2109.79,446.72 2077.05,472.29 2055.36,489.23 " fill="none" id="BusinessContext-ShipmentEvent" style="stroke:#181818;stroke-width:1.0;"/></g><g id="link_CommunicationChannelTypes_CommunicationChannel"><path d="M987.56,333.42 C899.46,350.31 767.52,375.6 679.42,392.48 " fill="none" id="CommunicationChannelTypes-CommunicationChannel" style="stroke:#181818;stroke-width:1.0;"/></g><g id="link_CommunicationChannel_PartyReference"><path d="M684.8234,432.3301 C775.5434,451.0101 904.43,477.54 984.56,494.04 " fill="none" id="CommunicationChannel-backto-PartyReference" style="stroke:#181818;stroke-width:1.0;"/><polygon fill="#181818" points="673.07,429.91,678.14,435.0379,684.8234,432.3301,679.7534,427.2023,673.07,429.91" style="stroke:#181818;stroke-width:1.0;"/></g><g id="link_CommunicationStatusTypes_CommunicationChannel"><path d="M632.73,333.04 C622.69,349.98 607.48,375.64 597.4,392.66 " fill="none" id="CommunicationStatusTypes-CommunicationChannel" style="stroke:#181818;stroke-width:1.0;"/></g><g id="link_ConditionGradeTypes_FleetVehicle"><path d="M3383.21,908.19 C3374.37,909.49 3365.51,910.74 3357,911.88 C3119.97,943.6 2835.74,972.74 2721.37,984.1 " fill="none" id="ConditionGradeTypes-FleetVehicle" style="stroke:#181818;stroke-width:1.0;"/></g><g id="link_ConditionTypes_FleetVehicle"><path d="M3587.68,908.94 C3581.72,910.03 3575.76,911.03 3570,911.88 C3249.24,959.19 2859.56,980.47 2721.5,986.9 " fill="none" id="ConditionTypes-FleetVehicle" style="stroke:#181818;stroke-width:1.0;"/></g><g id="link_ConnectedVehicleReference_FleetVehicle"><path d="M862.71,908.91 C872.93,910.03 883.16,911.05 893,911.88 C1574.15,969.77 2406.07,985.3 2618.65,988.45 " fill="none" id="ConnectedVehicleReference-FleetVehicle" style="stroke:#181818;stroke-width:1.0;"/></g><g id="link_ConnectedVehicleStatusTypes_ConnectedVehicleReference"><path d="M753.73,815.48 C754.45,832.42 755.54,858.08 756.26,875.1 " fill="none" id="ConnectedVehicleStatusTypes-ConnectedVehicleReference" style="stroke:#181818;stroke-width:1.0;"/></g><g id="link_CurrencyExchange_Money"><path d="M2650.15,333.04 C2646.38,349.98 2640.68,375.64 2636.9,392.66 " fill="none" id="CurrencyExchange-Money" style="stroke:#181818;stroke-width:1.0;"/></g><g id="link_DayOfWeekTypes_TimeSlot"><path d="M323.36,140.28 C356.49,157.2 406.34,182.66 439.51,199.6 " fill="none" id="DayOfWeekTypes-TimeSlot" style="stroke:#181818;stroke-width:1.0;"/></g><g id="link_DurationUomTypes_EffectivePeriod"><path d="M2456,43.57 C2456,60.52 2456,86.18 2456,103.19 " fill="none" id="DurationUomTypes-EffectivePeriod" style="stroke:#181818;stroke-width:1.0;"/></g><g id="link_EffectivePeriod_FleetVehicle"><path d="M2516.83,123 C2715.26,125.51 3331,146.75 3331,313.71 C3331,313.71 3331,313.71 3331,798.15 C3331,924.92 2876.62,972.76 2721.32,985.41 " fill="none" id="EffectivePeriod-FleetVehicle" style="stroke:#181818;stroke-width:1.0;"/></g><g id="link_EffectivePeriod_InsuranceReference"><path d="M2516.76,124.16 C2704.06,130.21 3260,161 3260,313.71 C3260,313.71 3260,313.71 3260,701.66 C3260,853.41 3032.85,885.41 2909.51,891.61 " fill="none" id="EffectivePeriod-InsuranceReference" style="stroke:#181818;stroke-width:1.0;"/></g><g id="link_EffectivePeriod_JurisdictionProfile"><path d="M2395.2,125.57 C2245.62,133.02 1847.99,155.7 1519,199.98 C1512.16,200.9 1505.05,201.99 1497.95,203.17 " fill="none" id="EffectivePeriod-JurisdictionProfile" style="stroke:#181818;stroke-width:1.0;"/></g><g id="link_EffectivePeriod_Price"><path d="M2516.96,136.58 C2623.08,164.36 2839.04,237.95 2929,392.95 C2948.68,426.85 2912.53,466.87 2887.02,489.26 " fill="none" id="EffectivePeriod-Price" style="stroke:#181818;stroke-width:1.0;"/></g><g id="link_EffectivePeriod_ShipmentReference"><path d="M2450.13,140.19 C2428.5,204.37 2354.31,423.86 2349,429.44 C2249.18,534.33 2078.61,576.92 1979.86,593.43 " fill="none" id="EffectivePeriod-ShipmentReference" style="stroke:#181818;stroke-width:1.0;"/></g><g id="link_EffectivePeriod_TimeSlot"><path d="M2395.2,125.26 C2176.12,134.41 1406.6,167.06 772,199.98 C679.88,204.75 571.79,211.22 514.48,214.72 " fill="none" id="EffectivePeriod-TimeSlot" style="stroke:#181818;stroke-width:1.0;"/></g><g id="link_EffectivePeriod_VehicleBuildProfile"><path d="M2463.79,140.41 C2470.12,155.8 2478.55,178.89 2482,199.98 C2498.48,300.62 2499.09,328.9 2482,429.44 C2474.65,472.71 2436.7,489.38 2461,525.93 C2499.16,583.32 2557.73,534.85 2604,585.93 C2628.69,613.18 2635.97,657.52 2638.11,682.01 " fill="none" id="EffectivePeriod-VehicleBuildProfile" style="stroke:#181818;stroke-width:1.0;"/></g><g id="link_EffectivePeriod_VehicleLogisticsProfile"><path d="M2455.73,140.41 C2453.78,209.85 2438.13,467.64 2314,622.42 C2292.7,648.97 2259.66,669 2233.19,682 " fill="none" id="EffectivePeriod-VehicleLogisticsProfile" style="stroke:#181818;stroke-width:1.0;"/></g><g id="link_EffectivePeriod_WarrantyReference"><path d="M2395.12,126.44 C2226.94,136.79 1741.77,167.39 1339,199.98 C1339,199.98 298,296.46 298,296.46 C257.96,339.93 260.23,383.17 297,429.44 C318.28,456.22 785.78,551.52 971.2,588.42 " fill="none" id="EffectivePeriod-WarrantyReference" style="stroke:#181818;stroke-width:1.0;"/></g><g id="link_FinancialCategoryTypes_FinancialEventSnapshot"><path d="M1961.82,333.04 C1961.64,349.98 1961.37,375.64 1961.19,392.66 " fill="none" id="FinancialCategoryTypes-FinancialEventSnapshot" style="stroke:#181818;stroke-width:1.0;"/></g><g id="link_FinancialEventSnapshot_ShipmentEvent"><path d="M1974.21,429.53 C1987.12,446.47 2006.67,472.13 2019.63,489.14 " fill="none" id="FinancialEventSnapshot-ShipmentEvent" style="stroke:#181818;stroke-width:1.0;"/></g><g id="link_GeneralAmount_BusinessContext"><path d="M2154,333.04 C2154,349.98 2154,375.64 2154,392.66 " fill="none" id="GeneralAmount-BusinessContext" style="stroke:#181818;stroke-width:1.0;"/></g><g id="link_GeneralAmount_FinancialEventSnapshot"><path d="M2118.15,333.26 C2083.59,350.18 2031.59,375.64 1996.98,392.58 " fill="none" id="GeneralAmount-FinancialEventSnapshot" style="stroke:#181818;stroke-width:1.0;"/></g><g id="link_GeneralAmount_Money"><path d="M2218.1,328.35 C2321.48,348.74 2521.35,388.17 2600.03,403.69 " fill="none" id="GeneralAmount-Money" style="stroke:#181818;stroke-width:1.0;"/></g><g id="link_GeneralLedgerReference_FinancialEventSnapshot"><path d="M1782.12,333.37 C1821.42,350.25 1880.35,375.56 1919.71,392.46 " fill="none" id="GeneralLedgerReference-FinancialEventSnapshot" style="stroke:#181818;stroke-width:1.0;"/></g><g id="link_Identifier_GeneralLedgerReference"><path d="M1608.28,236.77 C1637.46,253.69 1681.39,279.15 1710.61,296.09 " fill="none" id="Identifier-GeneralLedgerReference" style="stroke:#181818;stroke-width:1.0;"/></g><g id="link_Identifier_PartyReference"><path d="M1543.23,236.84 C1492.83,261.71 1395.96,306.96 1309,332.95 C1167.01,375.4 1075.9,279.12 981,392.95 C955.37,423.7 995.7,465.92 1023.42,489.31 " fill="none" id="Identifier-PartyReference" style="stroke:#181818;stroke-width:1.0;"/></g><g id="link_InsuranceReference_FleetVehicle"><path d="M2791.5443,918.2358 C2762.5343,935.1558 2729.25,954.57 2700.2,971.51 " fill="none" id="InsuranceReference-backto-FleetVehicle" style="stroke:#181818;stroke-width:1.0;"/><polygon fill="#181818" points="2801.91,912.19,2794.7119,911.7576,2791.5443,918.2358,2798.7424,918.6681,2801.91,912.19" style="stroke:#181818;stroke-width:1.0;"/></g><g id="link_InsuranceTypes_InsuranceReference"><path d="M2927.27,815.7 C2906.25,832.67 2874.59,858.24 2853.62,875.18 " fill="none" id="InsuranceTypes-InsuranceReference" style="stroke:#181818;stroke-width:1.0;"/></g><g id="link_JurisdictionProfile_Locale"><path d="M1395.98,236.77 C1366.08,253.69 1321.08,279.15 1291.14,296.09 " fill="none" id="JurisdictionProfile-Locale" style="stroke:#181818;stroke-width:1.0;"/></g><g id="link_LifecycleStatusTypes_FleetVehicle"><path d="M210,511.14 C410.58,519.47 919,554.85 919,699.66 C919,699.66 919,699.66 919,798.15 C919,973.79 2329.32,987.99 2618.54,989.05 " fill="none" id="LifecycleStatusTypes-FleetVehicle" style="stroke:#181818;stroke-width:1.0;"/></g><g id="link_LifecycleStatusTypes_WarrantyReference"><path d="M209.78,522.34 C218.61,523.65 227.49,524.88 236,525.93 C549.85,564.68 631.3,545.95 945,585.93 C953.47,587.01 962.31,588.29 971.1,589.66 " fill="none" id="LifecycleStatusTypes-WarrantyReference" style="stroke:#181818;stroke-width:1.0;"/></g><g id="link_Locale_CommunicationChannel"><path d="M1228.15,328.06 C1222.5,329.92 1216.62,331.65 1211,332.95 C986.92,384.78 924.88,361.8 697,392.95 C691.54,393.7 685.94,394.49 680.28,395.31 " fill="none" id="Locale-CommunicationChannel" style="stroke:#181818;stroke-width:1.0;"/></g><g id="link_MaskingStrategyTypes_PrivacyPolicyRule"><path d="M1145.83,140.39 C1082.59,157.27 987.77,182.58 924.45,199.48 " fill="none" id="MaskingStrategyTypes-PrivacyPolicyRule" style="stroke:#181818;stroke-width:1.0;"/></g><g id="link_MetricValue_FleetVehicle"><path d="M3149.97,526.26 C3137.31,559.54 3112,634.26 3112,699.66 C3112,699.66 3112,699.66 3112,798.15 C3112,966.8 2837.48,988.24 2721.13,989.75 " fill="none" id="MetricValue-FleetVehicle" style="stroke:#181818;stroke-width:1.0;"/></g><g id="link_MetricValue_VehicleLedgerReference"><path d="M3136.22,526.34 C3075.98,576.86 2894.75,724.2 2725,815.39 C2678.77,840.23 2622.79,861.14 2581.83,874.92 " fill="none" id="MetricValue-VehicleLedgerReference" style="stroke:#181818;stroke-width:1.0;"/></g><g id="link_MetricValue_VehicleOption"><path d="M3106.53,521.63 C3100.63,523.1 3094.68,524.56 3089,525.93 C2990.7,549.59 2875.91,575.36 2808.29,590.34 " fill="none" id="MetricValue-VehicleOption" style="stroke:#181818;stroke-width:1.0;"/></g><g id="link_Money_Price"><path d="M2665.75,425.53 C2711.96,444.36 2795.44,478.35 2838.19,495.76 " fill="none" id="Money-Price" style="stroke:#181818;stroke-width:1.0;"/></g><g id="link_NarrativeUomTypes_MetricValue"><path d="M3134.95,429.53 C3139.79,446.47 3147.13,472.13 3151.99,489.14 " fill="none" id="NarrativeUomTypes-MetricValue" style="stroke:#181818;stroke-width:1.0;"/></g><g id="link_OptionDescription_VehicleOption"><path d="M2941.2407,530.6077 C2896.7607,547.4877 2841.28,568.53 2796.74,585.44 " fill="none" id="OptionDescription-backto-VehicleOption" style="stroke:#181818;stroke-width:1.0;"/><polygon fill="#181818" points="2952.46,526.35,2945.4311,524.7391,2941.2407,530.6077,2948.2696,532.2186,2952.46,526.35" style="stroke:#181818;stroke-width:1.0;"/></g><g id="link_OptionInstallationTypes_VehicleOption"><path d="M2614.0562,531.8152 C2646.2862,548.7252 2684.17,568.62 2716.44,585.56 " fill="none" id="OptionInstallationTypes-backto-VehicleOption" style="stroke:#181818;stroke-width:1.0;"/><polygon fill="#181818" points="2603.43,526.24,2606.8847,532.5697,2614.0562,531.8152,2610.6015,525.4855,2603.43,526.24" style="stroke:#181818;stroke-width:1.0;"/></g><g id="link_OptionTypes_VehicleOption"><path d="M2750,538.01 C2750,554.96 2750,568.62 2750,585.63 " fill="none" id="OptionTypes-backto-VehicleOption" style="stroke:#181818;stroke-width:1.0;"/><polygon fill="#181818" points="2750,526.01,2746,532.01,2750,538.01,2754,532.01,2750,526.01" style="stroke:#181818;stroke-width:1.0;"/></g><g id="link_PartyReference_InsuranceReference"><path d="M1107.4,513.19 C1252.2,524.21 1611.59,553.96 1728,585.93 C1766.07,596.38 1772.31,607.82 1809,622.42 C1930.52,670.77 1959.2,691.14 2087,718.91 C2365.31,779.37 2469.15,653.79 2725,778.91 C2769.32,800.58 2804.71,848.92 2821.46,875.06 " fill="none" id="PartyReference-InsuranceReference" style="stroke:#181818;stroke-width:1.0;"/></g><g id="link_PartyReference_ShipmentReference"><path d="M1107.15,513.66 C1235.6,524.4 1542.73,551.57 1799,585.93 C1807.8,587.11 1816.99,588.46 1826.12,589.88 " fill="none" id="PartyReference-ShipmentReference" style="stroke:#181818;stroke-width:1.0;"/></g><g id="link_PartyReference_WarrantyReference"><path d="M1046,526.01 C1046,542.96 1046,568.62 1046,585.63 " fill="none" id="PartyReference-WarrantyReference" style="stroke:#181818;stroke-width:1.0;"/></g><g id="link_PartyReference_FleetVehicle"><path d="M1119.3752,514.4059 C1282.4552,528.5359 1702,576.52 1702,699.66 C1702,699.66 1702,699.66 1702,798.15 C1702,892.47 2418.52,965.85 2618.64,984.51 " fill="none" id="PartyReference-backto-FleetVehicle" style="stroke:#181818;stroke-width:1.0;"/><polygon fill="#181818" points="1107.42,513.37,1113.0523,517.873,1119.3752,514.4059,1113.7429,509.9029,1107.42,513.37" style="stroke:#181818;stroke-width:1.0;"/></g><g id="link_PartyRelationshipTypes_PartyReference"><path d="M860.4081,434.2247 C903.6381,451.1047 957.28,472.05 1000.58,488.95 " fill="none" id="PartyRelationshipTypes-backto-PartyReference" style="stroke:#181818;stroke-width:1.0;"/><polygon fill="#181818" points="849.23,429.86,853.3641,435.7684,860.4081,434.2247,856.2739,428.3163,849.23,429.86" style="stroke:#181818;stroke-width:1.0;"/></g><g id="link_PartyTypes_PartyReference"><path d="M1046,429.53 C1046,446.47 1046,472.13 1046,489.14 " fill="none" id="PartyTypes-PartyReference" style="stroke:#181818;stroke-width:1.0;"/></g><g id="link_PayTypes_Price"><path d="M2764.85,429.75 C2786.94,446.72 2820.22,472.29 2842.28,489.23 " fill="none" id="PayTypes-Price" style="stroke:#181818;stroke-width:1.0;"/></g><g id="link_PersonName_PartyReference"><path d="M1155.92,429.75 C1131.68,446.72 1095.14,472.29 1070.94,489.23 " fill="none" id="PersonName-PartyReference" style="stroke:#181818;stroke-width:1.0;"/></g><g id="link_Position_ShipmentEvent"><path d="M2256.05,425.94 C2209.96,442.62 2132.13,470.8 2081.67,489.06 " fill="none" id="Position-ShipmentEvent" style="stroke:#181818;stroke-width:1.0;"/></g><g id="link_PriceTypes_Price"><path d="M2865,441.53 C2865,458.47 2865,472.13 2865,489.14 " fill="none" id="PriceTypes-backto-Price" style="stroke:#181818;stroke-width:1.0;"/><polygon fill="#181818" points="2865,429.53,2861,435.53,2865,441.53,2869,435.53,2865,429.53" style="stroke:#181818;stroke-width:1.0;"/></g><g id="link_Price_VehicleOption"><path d="M2834.3671,533.8567 C2813.7071,550.8267 2791.86,568.78 2771.25,585.72 " fill="none" id="Price-backto-VehicleOption" style="stroke:#181818;stroke-width:1.0;"/><polygon fill="#181818" points="2843.64,526.24,2836.4647,526.9574,2834.3671,533.8567,2841.5425,533.1393,2843.64,526.24" style="stroke:#181818;stroke-width:1.0;"/></g><g id="link_PrivacyAdapterTypes_PrivacyPolicyRule"><path d="M705.74,140.28 C739.22,157.2 789.61,182.66 823.13,199.6 " fill="none" id="PrivacyAdapterTypes-PrivacyPolicyRule" style="stroke:#181818;stroke-width:1.0;"/></g><g id="link_PrivacyPersonaTypes_PrivacyPolicyRule"><path d="M866.17,140.06 C864.37,157 861.66,182.66 859.86,199.68 " fill="none" id="PrivacyPersonaTypes-PrivacyPolicyRule" style="stroke:#181818;stroke-width:1.0;"/></g><g id="link_PrivacyPolicyRule_ActorReference"><path d="M938.1526,231.1704 C1026.7426,244.6904 1174.07,268.37 1309,296.46 C1453.04,326.45 1620.27,369.63 1709.04,393.22 " fill="none" id="PrivacyPolicyRule-backto-ActorReference" style="stroke:#181818;stroke-width:1.0;"/><polygon fill="#181818" points="926.29,229.36,931.6179,234.2194,938.1526,231.1704,932.8248,226.311,926.29,229.36" style="stroke:#181818;stroke-width:1.0;"/></g><g id="link_PrivacyPolicyRule_AuthorizationLevel"><path d="M858,248.55 C858,265.49 858,279.15 858,296.17 " fill="none" id="PrivacyPolicyRule-backto-AuthorizationLevel" style="stroke:#181818;stroke-width:1.0;"/><polygon fill="#181818" points="858,236.55,854,242.55,858,248.55,862,242.55,858,236.55" style="stroke:#181818;stroke-width:1.0;"/></g><g id="link_PrivacyTypes_PrivacyPolicyRule"><path d="M1003.75,140.28 C971.7,157.2 923.47,182.66 891.37,199.6 " fill="none" id="PrivacyTypes-PrivacyPolicyRule" style="stroke:#181818;stroke-width:1.0;"/></g><g id="link_ServiceLevelTypes_ShipmentReference"><path d="M1872.79,526.01 C1879.42,542.96 1889.47,568.62 1896.13,585.63 " fill="none" id="ServiceLevelTypes-ShipmentReference" style="stroke:#181818;stroke-width:1.0;"/></g><g id="link_ShipmentEvent_VehicleLogisticsProfile"><path d="M2036.0476,538.1099 C2038.9976,562.0499 2045.75,593.4 2068,622.42 C2088.56,649.23 2121.3,669.13 2147.83,682.02 " fill="none" id="ShipmentEvent-backto-VehicleLogisticsProfile" style="stroke:#181818;stroke-width:1.0;"/><polygon fill="#181818" points="2034.58,526.2,2031.3438,532.6442,2036.0476,538.1099,2039.2838,531.6658,2034.58,526.2" style="stroke:#181818;stroke-width:1.0;"/></g><g id="link_ShipmentReference_VehicleLogisticsProfile"><path d="M1968.232,626.5708 C2019.682,643.4508 2085.42,665.02 2136.94,681.93 " fill="none" id="ShipmentReference-backto-VehicleLogisticsProfile" style="stroke:#181818;stroke-width:1.0;"/><polygon fill="#181818" points="1956.83,622.83,1961.2841,628.5011,1968.232,626.5708,1963.778,620.8997,1956.83,622.83" style="stroke:#181818;stroke-width:1.0;"/></g><g id="link_ShipmentStateTypes_ShipmentEvent"><path d="M1674.86,429.31 C1747.62,444.92 1858.05,468.65 1954,489.44 C1959.76,490.69 1965.76,491.99 1971.76,493.3 " fill="none" id="ShipmentStateTypes-ShipmentEvent" style="stroke:#181818;stroke-width:1.0;"/></g><g id="link_ShipmentStateTypes_ShipmentReference"><path d="M1623.2,429.75 C1659.13,452.12 1723.15,491.94 1778,525.93 C1811.18,546.49 1849.35,570.06 1874.69,585.71 " fill="none" id="ShipmentStateTypes-ShipmentReference" style="stroke:#181818;stroke-width:1.0;"/></g><g id="link_TimeSlotStatusTypes_TimeSlot"><path d="M474,140.06 C474,157 474,182.66 474,199.68 " fill="none" id="TimeSlotStatusTypes-TimeSlot" style="stroke:#181818;stroke-width:1.0;"/></g><g id="link_TimeSlot_CommunicationChannel"><path d="M482.6047,248.0945 C489.7347,271.1545 500.54,301.16 520,332.95 C533.72,355.36 553.97,377.67 568.61,392.52 " fill="none" id="TimeSlot-backto-CommunicationChannel" style="stroke:#181818;stroke-width:1.0;"/><polygon fill="#181818" points="479.06,236.63,477.0109,243.5438,482.6047,248.0945,484.6539,241.1807,479.06,236.63" style="stroke:#181818;stroke-width:1.0;"/></g><g id="link_TimeslotDirectiveTypes_TimeSlot"><path d="M178.3015,143.3011 C257.0415,162.9911 370,191.22 433.66,207.14 " fill="none" id="TimeslotDirectiveTypes-backto-TimeSlot" style="stroke:#181818;stroke-width:1.0;"/><polygon fill="#181818" points="166.66,140.39,171.5104,145.7261,178.3015,143.3011,173.4511,137.965,166.66,140.39" style="stroke:#181818;stroke-width:1.0;"/></g><g id="link_UnitOfMeasure_ShipmentReference"><path d="M1527.2327,524.0915 C1608.0527,541.1015 1738.28,568.51 1826.11,586.99 " fill="none" id="UnitOfMeasure-backto-ShipmentReference" style="stroke:#181818;stroke-width:1.0;"/><polygon fill="#181818" points="1515.49,521.62,1520.5375,526.77,1527.2327,524.0915,1522.1852,518.9415,1515.49,521.62" style="stroke:#181818;stroke-width:1.0;"/></g><g id="link_UomQuantityCategoryTypes_UnitOfMeasure"><path d="M1389.49,429.53 C1403.65,446.47 1425.11,472.13 1439.33,489.14 " fill="none" id="UomQuantityCategoryTypes-UnitOfMeasure" style="stroke:#181818;stroke-width:1.0;"/></g><g id="link_VehicleBuildProfile_VehicleReference"><path d="M2639,718.99 C2639,735.93 2639,761.59 2639,778.61 " fill="none" id="VehicleBuildProfile-VehicleReference" style="stroke:#181818;stroke-width:1.0;"/></g><g id="link_VehicleBuildStatusTypes_VehicleBuildProfile"><path d="M2520.93,622.72 C2546.98,639.7 2586.22,665.26 2612.21,682.2 " fill="none" id="VehicleBuildStatusTypes-VehicleBuildProfile" style="stroke:#181818;stroke-width:1.0;"/></g><g id="link_VehicleEventCategoryTypes_VehicleLedgerReference"><path d="M2301.4,815.81 C2350.53,832.69 2424.19,858 2473.38,874.9 " fill="none" id="VehicleEventCategoryTypes-VehicleLedgerReference" style="stroke:#181818;stroke-width:1.0;"/></g><g id="link_VehicleEventTypes_VehicleLedgerReference"><path d="M2473.56,815.48 C2484.85,832.42 2501.96,858.08 2513.3,875.1 " fill="none" id="VehicleEventTypes-VehicleLedgerReference" style="stroke:#181818;stroke-width:1.0;"/></g><g id="link_VehicleLedgerReference_FleetVehicle"><path d="M2551.93,912.19 C2577.98,929.16 2617.22,954.73 2643.21,971.67 " fill="none" id="VehicleLedgerReference-FleetVehicle" style="stroke:#181818;stroke-width:1.0;"/></g><g id="link_VehicleLogisticsProfile_VehicleReference"><path d="M2275,719.38 C2360.26,737.36 2490.68,764.87 2570.07,781.61 " fill="none" id="VehicleLogisticsProfile-VehicleReference" style="stroke:#181818;stroke-width:1.0;"/></g><g id="link_VehicleLogisticsStatusTypes_VehicleLogisticsProfile"><path d="M2191,622.5 C2191,639.45 2191,665.11 2191,682.12 " fill="none" id="VehicleLogisticsStatusTypes-VehicleLogisticsProfile" style="stroke:#181818;stroke-width:1.0;"/></g><g id="link_VehicleOption_VehicleBuildProfile"><path d="M2720.2437,630.5 C2700.3037,647.48 2679.41,665.26 2659.51,682.2 " fill="none" id="VehicleOption-backto-VehicleBuildProfile" style="stroke:#181818;stroke-width:1.0;"/><polygon fill="#181818" points="2729.38,622.72,2722.2185,623.5646,2720.2437,630.5,2727.4052,629.6554,2729.38,622.72" style="stroke:#181818;stroke-width:1.0;"/></g><g id="link_VehicleReference_FleetVehicle"><path d="M2641.86,815.77 C2647.77,852.16 2661.25,935.2 2667.15,971.54 " fill="none" id="VehicleReference-FleetVehicle" style="stroke:#181818;stroke-width:1.0;"/></g><g id="link_VehicleReference_InsuranceReference"><path d="M2674.85,815.7 C2709.41,832.62 2761.41,858.08 2796.02,875.02 " fill="none" id="VehicleReference-InsuranceReference" style="stroke:#181818;stroke-width:1.0;"/></g><g id="link_VehicleReference_VehicleLedgerReference"><path d="M2617.82,815.7 C2597.35,832.67 2566.5,858.24 2546.06,875.18 " fill="none" id="VehicleReference-VehicleLedgerReference" style="stroke:#181818;stroke-width:1.0;"/></g><g id="link_WarrantyReference_FleetVehicle"><path d="M1082.8505,629.3858 C1167.2005,684.0458 1426.54,844.1 1676,911.88 C1856.61,960.95 2441.37,982.24 2618.61,987.67 " fill="none" id="WarrantyReference-backto-FleetVehicle" style="stroke:#181818;stroke-width:1.0;"/><polygon fill="#181818" points="1072.78,622.86,1075.64,629.4797,1082.8505,629.3858,1079.9905,622.7661,1072.78,622.86" style="stroke:#181818;stroke-width:1.0;"/></g></g></svg>
