<?xml version="1.0" encoding="us-ascii" standalone="no"?><svg xmlns="http://www.w3.org/2000/svg" xmlns:xlink="http://www.w3.org/1999/xlink" contentStyleType="text/css" height="821px" preserveAspectRatio="none" style="width:3056px;height:821px;background:#FFFFFF;" version="1.1" viewBox="0 0 3056 821" width="3056px" zoomAndPan="magnify"><defs/><g><g id="elem_AddressReference"><rect fill="#F1F1F1" height="36.4883" rx="2.5" ry="2.5" style="stroke:#181818;stroke-width:0.5;" width="144" x="1586" y="392.95"/><text fill="#000000" font-family="sans-serif" font-size="14" lengthAdjust="spacing" textLength="124" x="1596" y="416.4852">AddressReference</text></g><g id="elem_AdvanceSearchValue"><rect fill="#F1F1F1" height="36.4883" rx="2.5" ry="2.5" style="stroke:#181818;stroke-width:0.5;" width="162" x="698" y="489.44"/><text fill="#000000" font-family="sans-serif" font-size="14" lengthAdjust="spacing" textLength="142" x="708" y="512.9752">AdvanceSearchValue</text></g><g id="elem_AdvancedSearchCriteria"><rect fill="#F1F1F1" height="36.4883" rx="2.5" ry="2.5" style="stroke:#181818;stroke-width:0.5;" width="184" x="892" y="585.93"/><text fill="#000000" font-family="sans-serif" font-size="14" lengthAdjust="spacing" textLength="164" x="902" y="609.4652">AdvancedSearchCriteria</text></g><g id="elem_AuthorizationLevel"><rect fill="#F1F1F1" height="36.4883" rx="2.5" ry="2.5" style="stroke:#181818;stroke-width:0.5;" width="149" x="594.5" y="296.46"/><text fill="#000000" font-family="sans-serif" font-size="14" lengthAdjust="spacing" textLength="129" x="604.5" y="319.9952">AuthorizationLevel</text></g><g id="elem_Code"><rect fill="#F1F1F1" height="36.4883" rx="2.5" ry="2.5" style="stroke:#181818;stroke-width:0.5;" width="56" x="1506" y="7"/><text fill="#000000" font-family="sans-serif" font-size="14" lengthAdjust="spacing" textLength="36" x="1516" y="30.5352">Code</text></g><g id="elem_CommunicationChannel"><rect fill="#F1F1F1" height="36.4883" rx="2.5" ry="2.5" style="stroke:#181818;stroke-width:0.5;" width="186" x="881" y="392.95"/><text fill="#000000" font-family="sans-serif" font-size="14" lengthAdjust="spacing" textLength="166" x="891" y="416.4852">CommunicationChannel</text></g><g id="elem_EffectivePeriod"><rect fill="#F1F1F1" height="36.4883" rx="2.5" ry="2.5" style="stroke:#181818;stroke-width:0.5;" width="121" x="1334.5" y="103.48"/><text fill="#000000" font-family="sans-serif" font-size="14" lengthAdjust="spacing" textLength="101" x="1344.5" y="127.0152">EffectivePeriod</text></g><g id="elem_Identifier"><rect fill="#F1F1F1" height="36.4883" rx="2.5" ry="2.5" style="stroke:#181818;stroke-width:0.5;" width="82" x="1803" y="392.95"/><text fill="#000000" font-family="sans-serif" font-size="14" lengthAdjust="spacing" textLength="62" x="1813" y="416.4852">Identifier</text></g><g id="elem_JurisdictionProfile"><rect fill="#F1F1F1" height="36.4883" rx="2.5" ry="2.5" style="stroke:#181818;stroke-width:0.5;" width="141" x="1216.5" y="199.97"/><text fill="#000000" font-family="sans-serif" font-size="14" lengthAdjust="spacing" textLength="121" x="1226.5" y="223.5052">JurisdictionProfile</text></g><g id="elem_Locale"><rect fill="#F1F1F1" height="36.4883" rx="2.5" ry="2.5" style="stroke:#181818;stroke-width:0.5;" width="63" x="967.5" y="296.46"/><text fill="#000000" font-family="sans-serif" font-size="14" lengthAdjust="spacing" textLength="43" x="977.5" y="319.9952">Locale</text></g><g id="elem_PartIdentifier"><rect fill="#F1F1F1" height="36.4883" rx="2.5" ry="2.5" style="stroke:#181818;stroke-width:0.5;" width="109" x="2150.5" y="585.93"/><text fill="#000000" font-family="sans-serif" font-size="14" lengthAdjust="spacing" textLength="89" x="2160.5" y="609.4652">PartIdentifier</text></g><g id="elem_PartLifecycle"><rect fill="#F1F1F1" height="36.4883" rx="2.5" ry="2.5" style="stroke:#181818;stroke-width:0.5;" width="104" x="1585" y="682.41"/><text fill="#000000" font-family="sans-serif" font-size="14" lengthAdjust="spacing" textLength="84" x="1595" y="705.9452">PartLifecycle</text></g><g id="elem_PartLogisticsCriteria"><rect fill="#F1F1F1" height="36.4883" rx="2.5" ry="2.5" style="stroke:#181818;stroke-width:0.5;" width="157" x="2317.5" y="199.97"/><text fill="#000000" font-family="sans-serif" font-size="14" lengthAdjust="spacing" textLength="137" x="2327.5" y="223.5052">PartLogisticsCriteria</text></g><g id="elem_PartName"><rect fill="#F1F1F1" height="36.4883" rx="2.5" ry="2.5" style="stroke:#181818;stroke-width:0.5;" width="86" x="2226" y="489.44"/><text fill="#000000" font-family="sans-serif" font-size="14" lengthAdjust="spacing" textLength="66" x="2236" y="512.9752">PartName</text></g><g id="elem_PartPriceCriteria"><rect fill="#F1F1F1" height="36.4883" rx="2.5" ry="2.5" style="stroke:#181818;stroke-width:0.5;" width="131" x="1993.5" y="682.41"/><text fill="#000000" font-family="sans-serif" font-size="14" lengthAdjust="spacing" textLength="111" x="2003.5" y="705.9452">PartPriceCriteria</text></g><g id="elem_PartSearchCriteria"><rect fill="#F1F1F1" height="36.4883" rx="2.5" ry="2.5" style="stroke:#181818;stroke-width:0.5;" width="144" x="2133" y="778.9"/><text fill="#000000" font-family="sans-serif" font-size="14" lengthAdjust="spacing" textLength="124" x="2143" y="802.4352">PartSearchCriteria</text></g><g id="elem_PartSpecification"><rect fill="#F1F1F1" height="36.4883" rx="2.5" ry="2.5" style="stroke:#181818;stroke-width:0.5;" width="134" x="2516" y="682.41"/><text fill="#000000" font-family="sans-serif" font-size="14" lengthAdjust="spacing" textLength="114" x="2526" y="705.9452">PartSpecification</text></g><g id="elem_PartyReference"><rect fill="#F1F1F1" height="36.4883" rx="2.5" ry="2.5" style="stroke:#181818;stroke-width:0.5;" width="122" x="1094" y="489.44"/><text fill="#000000" font-family="sans-serif" font-size="14" lengthAdjust="spacing" textLength="102" x="1104" y="512.9752">PartyReference</text></g><g id="elem_PersonName"><rect fill="#F1F1F1" height="36.4883" rx="2.5" ry="2.5" style="stroke:#181818;stroke-width:0.5;" width="106" x="1102" y="392.95"/><text fill="#000000" font-family="sans-serif" font-size="14" lengthAdjust="spacing" textLength="86" x="1112" y="416.4852">PersonName</text></g><g id="elem_PrivacyPolicyRule"><rect fill="#F1F1F1" height="36.4883" rx="2.5" ry="2.5" style="stroke:#181818;stroke-width:0.5;" width="136" x="364" y="199.97"/><text fill="#000000" font-family="sans-serif" font-size="14" lengthAdjust="spacing" textLength="116" x="374" y="223.5052">PrivacyPolicyRule</text></g><g id="elem_SuperSession"><rect fill="#F1F1F1" height="36.4883" rx="2.5" ry="2.5" style="stroke:#181818;stroke-width:0.5;" width="112" x="1506" y="585.93"/><text fill="#000000" font-family="sans-serif" font-size="14" lengthAdjust="spacing" textLength="92" x="1516" y="609.4652">SuperSession</text></g><g id="elem_TimeSlot"><rect fill="#F1F1F1" height="36.4883" rx="2.5" ry="2.5" style="stroke:#181818;stroke-width:0.5;" width="80" x="993" y="199.97"/><text fill="#000000" font-family="sans-serif" font-size="14" lengthAdjust="spacing" textLength="60" x="1003" y="223.5052">TimeSlot</text></g><g id="elem_UnitOfMeasure"><rect fill="#F1F1F1" height="36.4883" rx="2.5" ry="2.5" style="stroke:#181818;stroke-width:0.5;" width="122" x="2640" y="585.93"/><text fill="#000000" font-family="sans-serif" font-size="14" lengthAdjust="spacing" textLength="102" x="2650" y="609.4652">UnitOfMeasure</text></g><g id="elem_WarehouseReference"><rect fill="#F1F1F1" height="36.4883" rx="2.5" ry="2.5" style="stroke:#181818;stroke-width:0.5;" width="164" x="1795" y="682.41"/><text fill="#000000" font-family="sans-serif" font-size="14" lengthAdjust="spacing" textLength="144" x="1805" y="705.9452">WarehouseReference</text></g><g id="elem_AddressTypes"><rect fill="#FAFF91" height="36.4883" rx="2.5" ry="2.5" style="stroke:#181818;stroke-width:0.5;" width="116" x="1600" y="296.46"/><text fill="#000000" font-family="sans-serif" font-size="14" lengthAdjust="spacing" textLength="96" x="1610" y="319.9952">AddressTypes</text></g><g id="elem_AdvanceSearchTypes"><rect fill="#FAFF91" height="36.4883" rx="2.5" ry="2.5" style="stroke:#181818;stroke-width:0.5;" width="164" x="682" y="392.95"/><text fill="#000000" font-family="sans-serif" font-size="14" lengthAdjust="spacing" textLength="144" x="692" y="416.4852">AdvanceSearchTypes</text></g><g id="elem_CommunicationChannelTypes"><rect fill="#FAFF91" height="36.4883" rx="2.5" ry="2.5" style="stroke:#181818;stroke-width:0.5;" width="226" x="1066" y="296.46"/><text fill="#000000" font-family="sans-serif" font-size="14" lengthAdjust="spacing" textLength="206" x="1076" y="319.9952">CommunicationChannelTypes</text></g><g id="elem_CommunicationStatusTypes"><rect fill="#FAFF91" height="36.4883" rx="2.5" ry="2.5" style="stroke:#181818;stroke-width:0.5;" width="211" x="1327.5" y="296.46"/><text fill="#000000" font-family="sans-serif" font-size="14" lengthAdjust="spacing" textLength="191" x="1337.5" y="319.9952">CommunicationStatusTypes</text></g><g id="elem_ConditionGradeTypes"><rect fill="#FAFF91" height="36.4883" rx="2.5" ry="2.5" style="stroke:#181818;stroke-width:0.5;" width="169" x="2365.5" y="585.93"/><text fill="#000000" font-family="sans-serif" font-size="14" lengthAdjust="spacing" textLength="149" x="2375.5" y="609.4652">ConditionGradeTypes</text></g><g id="elem_ConditionTypes"><rect fill="#FAFF91" height="36.4883" rx="2.5" ry="2.5" style="stroke:#181818;stroke-width:0.5;" width="128" x="2868" y="585.93"/><text fill="#000000" font-family="sans-serif" font-size="14" lengthAdjust="spacing" textLength="108" x="2878" y="609.4652">ConditionTypes</text></g><g id="elem_DayOfWeekTypes"><rect fill="#FAFF91" height="36.4883" rx="2.5" ry="2.5" style="stroke:#181818;stroke-width:0.5;" width="137" x="964.5" y="103.48"/><text fill="#000000" font-family="sans-serif" font-size="14" lengthAdjust="spacing" textLength="117" x="974.5" y="127.0152">DayOfWeekTypes</text></g><g id="elem_DurationUomTypes"><rect fill="#FAFF91" height="36.4883" rx="2.5" ry="2.5" style="stroke:#181818;stroke-width:0.5;" width="152" x="1319" y="7"/><text fill="#000000" font-family="sans-serif" font-size="14" lengthAdjust="spacing" textLength="132" x="1329" y="30.5352">DurationUomTypes</text></g><g id="elem_MaskingStrategyTypes"><rect fill="#FAFF91" height="36.4883" rx="2.5" ry="2.5" style="stroke:#181818;stroke-width:0.5;" width="173" x="345.5" y="103.48"/><text fill="#000000" font-family="sans-serif" font-size="14" lengthAdjust="spacing" textLength="153" x="355.5" y="127.0152">MaskingStrategyTypes</text></g><g id="elem_PartIdentifierTypes"><rect fill="#FAFF91" height="36.4883" rx="2.5" ry="2.5" style="stroke:#181818;stroke-width:0.5;" width="149" x="2042.5" y="489.44"/><text fill="#000000" font-family="sans-serif" font-size="14" lengthAdjust="spacing" textLength="129" x="2052.5" y="512.9752">PartIdentifierTypes</text></g><g id="elem_PartInventoryActionTypes"><rect fill="#FAFF91" height="36.4883" rx="2.5" ry="2.5" style="stroke:#181818;stroke-width:0.5;" width="195" x="2684.5" y="682.41"/><text fill="#000000" font-family="sans-serif" font-size="14" lengthAdjust="spacing" textLength="175" x="2694.5" y="705.9452">PartInventoryActionTypes</text></g><g id="elem_PartNameTypes"><rect fill="#FAFF91" height="36.4883" rx="2.5" ry="2.5" style="stroke:#181818;stroke-width:0.5;" width="126" x="2479" y="392.95"/><text fill="#000000" font-family="sans-serif" font-size="14" lengthAdjust="spacing" textLength="106" x="2489" y="416.4852">PartNameTypes</text></g><g id="elem_PartOrderConfigTypes"><rect fill="#FAFF91" height="36.4883" rx="2.5" ry="2.5" style="stroke:#181818;stroke-width:0.5;" width="173" x="1250.5" y="489.44"/><text fill="#000000" font-family="sans-serif" font-size="14" lengthAdjust="spacing" textLength="153" x="1260.5" y="512.9752">PartOrderConfigTypes</text></g><g id="elem_PartStatusTypes"><rect fill="#FAFF91" height="36.4883" rx="2.5" ry="2.5" style="stroke:#181818;stroke-width:0.5;" width="129" x="1700.5" y="489.44"/><text fill="#000000" font-family="sans-serif" font-size="14" lengthAdjust="spacing" textLength="109" x="1710.5" y="512.9752">PartStatusTypes</text></g><g id="elem_PartyRelationshipTypes"><rect fill="#FAFF91" height="36.4883" rx="2.5" ry="2.5" style="stroke:#181818;stroke-width:0.5;" width="179" x="1242.5" y="392.95"/><text fill="#000000" font-family="sans-serif" font-size="14" lengthAdjust="spacing" textLength="159" x="1252.5" y="416.4852">PartyRelationshipTypes</text></g><g id="elem_PartyTypes"><rect fill="#FAFF91" height="36.4883" rx="2.5" ry="2.5" style="stroke:#181818;stroke-width:0.5;" width="94" x="1457" y="392.95"/><text fill="#000000" font-family="sans-serif" font-size="14" lengthAdjust="spacing" textLength="74" x="1467" y="416.4852">PartyTypes</text></g><g id="elem_PriceTypes"><rect fill="#FAFF91" height="36.4883" rx="2.5" ry="2.5" style="stroke:#181818;stroke-width:0.5;" width="93" x="1866.5" y="585.93"/><text fill="#000000" font-family="sans-serif" font-size="14" lengthAdjust="spacing" textLength="73" x="1876.5" y="609.4652">PriceTypes</text></g><g id="elem_PrivacyAdapterTypes"><rect fill="#FAFF91" height="36.4883" rx="2.5" ry="2.5" style="stroke:#181818;stroke-width:0.5;" width="162" x="554" y="103.48"/><text fill="#000000" font-family="sans-serif" font-size="14" lengthAdjust="spacing" textLength="142" x="564" y="127.0152">PrivacyAdapterTypes</text></g><g id="elem_PrivacyPersonaTypes"><rect fill="#FAFF91" height="36.4883" rx="2.5" ry="2.5" style="stroke:#181818;stroke-width:0.5;" width="162" x="7" y="103.48"/><text fill="#000000" font-family="sans-serif" font-size="14" lengthAdjust="spacing" textLength="142" x="17" y="127.0152">PrivacyPersonaTypes</text></g><g id="elem_PrivacyTypes"><rect fill="#FAFF91" height="36.4883" rx="2.5" ry="2.5" style="stroke:#181818;stroke-width:0.5;" width="107" x="203.5" y="103.48"/><text fill="#000000" font-family="sans-serif" font-size="14" lengthAdjust="spacing" textLength="87" x="213.5" y="127.0152">PrivacyTypes</text></g><g id="elem_ProductConsumptionTypes"><rect fill="#FAFF91" height="36.4883" rx="2.5" ry="2.5" style="stroke:#181818;stroke-width:0.5;" width="206" x="1459" y="489.44"/><text fill="#000000" font-family="sans-serif" font-size="14" lengthAdjust="spacing" textLength="186" x="1469" y="512.9752">ProductConsumptionTypes</text></g><g id="elem_ProductPackageTypes"><rect fill="#FAFF91" height="36.4883" rx="2.5" ry="2.5" style="stroke:#181818;stroke-width:0.5;" width="169" x="2346.5" y="489.44"/><text fill="#000000" font-family="sans-serif" font-size="14" lengthAdjust="spacing" textLength="149" x="2356.5" y="512.9752">ProductPackageTypes</text></g><g id="elem_ProductStageTypes"><rect fill="#FAFF91" height="36.4883" rx="2.5" ry="2.5" style="stroke:#181818;stroke-width:0.5;" width="151" x="908.5" y="489.44"/><text fill="#000000" font-family="sans-serif" font-size="14" lengthAdjust="spacing" textLength="131" x="918.5" y="512.9752">ProductStageTypes</text></g><g id="elem_ShippingMethodTypes"><rect fill="#FAFF91" height="36.4883" rx="2.5" ry="2.5" style="stroke:#181818;stroke-width:0.5;" width="173" x="2118.5" y="103.48"/><text fill="#000000" font-family="sans-serif" font-size="14" lengthAdjust="spacing" textLength="153" x="2128.5" y="127.0152">ShippingMethodTypes</text></g><g id="elem_TimeSlotStatusTypes"><rect fill="#FAFF91" height="36.4883" rx="2.5" ry="2.5" style="stroke:#181818;stroke-width:0.5;" width="162" x="1137" y="103.48"/><text fill="#000000" font-family="sans-serif" font-size="14" lengthAdjust="spacing" textLength="142" x="1147" y="127.0152">TimeSlotStatusTypes</text></g><g id="elem_TimeslotDirectiveTypes"><rect fill="#FAFF91" height="36.4883" rx="2.5" ry="2.5" style="stroke:#181818;stroke-width:0.5;" width="178" x="751" y="103.48"/><text fill="#000000" font-family="sans-serif" font-size="14" lengthAdjust="spacing" textLength="158" x="761" y="127.0152">TimeslotDirectiveTypes</text></g><g id="elem_UomLengthTypes"><rect fill="#FAFF91" height="36.4883" rx="2.5" ry="2.5" style="stroke:#181818;stroke-width:0.5;" width="139" x="2326.5" y="103.48"/><text fill="#000000" font-family="sans-serif" font-size="14" lengthAdjust="spacing" textLength="119" x="2336.5" y="127.0152">UomLengthTypes</text></g><g id="elem_UomQuantityCategoryTypes"><rect fill="#FAFF91" height="36.4883" rx="2.5" ry="2.5" style="stroke:#181818;stroke-width:0.5;" width="212" x="2550" y="489.44"/><text fill="#000000" font-family="sans-serif" font-size="14" lengthAdjust="spacing" textLength="192" x="2560" y="512.9752">UomQuantityCategoryTypes</text></g><g id="elem_WarehouseTypes"><rect fill="#FAFF91" height="36.4883" rx="2.5" ry="2.5" style="stroke:#181818;stroke-width:0.5;" width="136" x="2501" y="103.48"/><text fill="#000000" font-family="sans-serif" font-size="14" lengthAdjust="spacing" textLength="116" x="2511" y="127.0152">WarehouseTypes</text></g><g id="elem_WarrantyTypes"><rect fill="#FAFF91" height="36.4883" rx="2.5" ry="2.5" style="stroke:#181818;stroke-width:0.5;" width="121" x="1994.5" y="585.93"/><text fill="#000000" font-family="sans-serif" font-size="14" lengthAdjust="spacing" textLength="101" x="2004.5" y="609.4652">WarrantyTypes</text></g><g id="link_AddressReference_PartyReference"><path d="M1573.851,428.5405 C1568.221,429.6105 1574.42,428.43 1569,429.44 C1419.87,457.2 1381.76,459.72 1233,489.44 C1227.56,490.52 1221.92,491.69 1216.26,492.89 " fill="none" id="AddressReference-backto-PartyReference" style="stroke:#181818;stroke-width:1.0;"/><polygon fill="#181818" points="1585.64,426.3,1578.9987,423.4906,1573.851,428.5405,1580.4924,431.3499,1585.64,426.3" style="stroke:#181818;stroke-width:1.0;"/></g><g id="link_AddressTypes_AddressReference"><path d="M1658,345.03 C1658,361.98 1658,375.64 1658,392.65 " fill="none" id="AddressTypes-backto-AddressReference" style="stroke:#181818;stroke-width:1.0;"/><polygon fill="#181818" points="1658,333.03,1654,339.03,1658,345.03,1662,339.03,1658,333.03" style="stroke:#181818;stroke-width:1.0;"/></g><g id="link_AdvanceSearchTypes_AdvanceSearchValue"><path d="M766.75,429.52 C769.44,446.47 773.51,472.13 776.22,489.14 " fill="none" id="AdvanceSearchTypes-AdvanceSearchValue" style="stroke:#181818;stroke-width:1.0;"/></g><g id="link_AdvanceSearchValue_AdvancedSearchCriteria"><path d="M827.9776,531.2542 C864.6776,548.1742 909.02,568.61 945.78,585.55 " fill="none" id="AdvanceSearchValue-backto-AdvancedSearchCriteria" style="stroke:#181818;stroke-width:1.0;"/><polygon fill="#181818" points="817.08,526.23,820.8541,532.3746,827.9776,531.2542,824.2035,525.1096,817.08,526.23" style="stroke:#181818;stroke-width:1.0;"/></g><g id="link_AdvancedSearchCriteria_PartSearchCriteria"><path d="M1026.57,622.81 C1090.7,648.56 1216.5,695.88 1328,718.9 C1622.14,779.62 1981.44,792.64 2132.56,795.41 " fill="none" id="AdvancedSearchCriteria-PartSearchCriteria" style="stroke:#181818;stroke-width:1.0;"/></g><g id="link_AuthorizationLevel_CommunicationChannel"><path d="M737.4724,336.9215 C791.9524,353.8015 862.19,375.55 916.75,392.46 " fill="none" id="AuthorizationLevel-backto-CommunicationChannel" style="stroke:#181818;stroke-width:1.0;"/><polygon fill="#181818" points="726.01,333.37,730.5574,338.9666,737.4724,336.9215,732.925,331.3249,726.01,333.37" style="stroke:#181818;stroke-width:1.0;"/></g><g id="link_CommunicationChannelTypes_CommunicationChannel"><path d="M1140.92,333.26 C1104.22,350.17 1048.98,375.64 1012.22,392.58 " fill="none" id="CommunicationChannelTypes-CommunicationChannel" style="stroke:#181818;stroke-width:1.0;"/></g><g id="link_CommunicationChannel_PartyReference"><path d="M1018.2576,435.2935 C1050.6676,452.2135 1088.8,472.12 1121.25,489.06 " fill="none" id="CommunicationChannel-backto-PartyReference" style="stroke:#181818;stroke-width:1.0;"/><polygon fill="#181818" points="1007.62,429.74,1011.0876,436.0626,1018.2576,435.2935,1014.79,428.9709,1007.62,429.74" style="stroke:#181818;stroke-width:1.0;"/></g><g id="link_CommunicationStatusTypes_CommunicationChannel"><path d="M1346.93,333.42 C1264.91,350.31 1142.07,375.59 1060.05,392.48 " fill="none" id="CommunicationStatusTypes-CommunicationChannel" style="stroke:#181818;stroke-width:1.0;"/></g><g id="link_ConditionGradeTypes_PartSpecification"><path d="M2484.483,629.6693 C2508.373,646.6393 2534.58,665.26 2558.43,682.2 " fill="none" id="ConditionGradeTypes-backto-PartSpecification" style="stroke:#181818;stroke-width:1.0;"/><polygon fill="#181818" points="2474.7,622.72,2477.2751,629.4556,2484.483,629.6693,2481.9079,622.9336,2474.7,622.72" style="stroke:#181818;stroke-width:1.0;"/></g><g id="link_ConditionGradeTypes_PartSearchCriteria"><path d="M2435.49,622.82 C2415.44,646.53 2377.35,689.12 2339,718.9 C2308.35,742.7 2269.61,764.24 2241.68,778.49 " fill="none" id="ConditionGradeTypes-PartSearchCriteria" style="stroke:#181818;stroke-width:1.0;"/></g><g id="link_ConditionTypes_PartSpecification"><path d="M2855.9971,625.7463 C2793.6571,642.6263 2711.23,664.94 2648.52,681.92 " fill="none" id="ConditionTypes-backto-PartSpecification" style="stroke:#181818;stroke-width:1.0;"/><polygon fill="#181818" points="2867.58,622.61,2860.7431,620.3172,2855.9971,625.7463,2862.834,628.0391,2867.58,622.61" style="stroke:#181818;stroke-width:1.0;"/></g><g id="link_ConditionTypes_PartSearchCriteria"><path d="M2932.16,622.59 C2931.37,648.07 2925.8,695.05 2897,718.9 C2849.93,757.89 2445.31,783.49 2277.48,792.52 " fill="none" id="ConditionTypes-PartSearchCriteria" style="stroke:#181818;stroke-width:1.0;"/></g><g id="link_DayOfWeekTypes_TimeSlot"><path d="M1033,140.06 C1033,157 1033,182.66 1033,199.68 " fill="none" id="DayOfWeekTypes-TimeSlot" style="stroke:#181818;stroke-width:1.0;"/></g><g id="link_DurationUomTypes_EffectivePeriod"><path d="M1395,43.57 C1395,60.51 1395,86.17 1395,103.19 " fill="none" id="DurationUomTypes-EffectivePeriod" style="stroke:#181818;stroke-width:1.0;"/></g><g id="link_EffectivePeriod_JurisdictionProfile"><path d="M1374.94,140.28 C1355.54,157.25 1326.32,182.82 1306.95,199.76 " fill="none" id="EffectivePeriod-JurisdictionProfile" style="stroke:#181818;stroke-width:1.0;"/></g><g id="link_EffectivePeriod_PartLogisticsCriteria"><path d="M1455.74,128.46 C1628.66,144.78 2123.63,191.51 2317.12,209.77 " fill="none" id="EffectivePeriod-PartLogisticsCriteria" style="stroke:#181818;stroke-width:1.0;"/></g><g id="link_EffectivePeriod_TimeSlot"><path d="M1334,138.65 C1259.85,158 1136.79,190.12 1073.44,206.66 " fill="none" id="EffectivePeriod-TimeSlot" style="stroke:#181818;stroke-width:1.0;"/></g><g id="link_Identifier_PartyReference"><path d="M1802.51,420.22 C1785.64,423.34 1765.92,426.79 1748,429.44 C1520.04,463.16 1460.24,451.18 1233,489.44 C1227.53,490.36 1221.86,491.41 1216.2,492.54 " fill="none" id="Identifier-PartyReference" style="stroke:#181818;stroke-width:1.0;"/></g><g id="link_Identifier_WarehouseReference"><path d="M1844.8,429.68 C1845.48,445.33 1846.45,468.91 1847,489.44 C1847.4,504.21 1846.33,607.88 1849,622.41 C1852.89,643.6 1861.93,666.67 1868.69,682.03 " fill="none" id="Identifier-WarehouseReference" style="stroke:#181818;stroke-width:1.0;"/></g><g id="link_JurisdictionProfile_Locale"><path d="M1230.85,236.91 C1182.33,252.31 1110.39,275.4 1048,296.46 C1042.45,298.33 1036.55,300.37 1030.85,302.36 " fill="none" id="JurisdictionProfile-Locale" style="stroke:#181818;stroke-width:1.0;"/></g><g id="link_Locale_CommunicationChannel"><path d="M994.41,333.03 C989.93,349.98 983.14,375.64 978.64,392.65 " fill="none" id="Locale-CommunicationChannel" style="stroke:#181818;stroke-width:1.0;"/></g><g id="link_MaskingStrategyTypes_PrivacyPolicyRule"><path d="M432,140.06 C432,157 432,182.66 432,199.68 " fill="none" id="MaskingStrategyTypes-PrivacyPolicyRule" style="stroke:#181818;stroke-width:1.0;"/></g><g id="link_PartIdentifierTypes_PartIdentifier"><path d="M2133.14,526.01 C2148.92,542.95 2172.82,568.61 2188.66,585.63 " fill="none" id="PartIdentifierTypes-PartIdentifier" style="stroke:#181818;stroke-width:1.0;"/></g><g id="link_PartIdentifier_PartSearchCriteria"><path d="M2205,634.79 C2205,671.18 2205,742.22 2205,778.56 " fill="none" id="PartIdentifier-backto-PartSearchCriteria" style="stroke:#181818;stroke-width:1.0;"/><polygon fill="#181818" points="2205,622.79,2201,628.79,2205,634.79,2209,628.79,2205,622.79" style="stroke:#181818;stroke-width:1.0;"/></g><g id="link_PartInventoryActionTypes_PartSearchCriteria"><path d="M2672.2776,719.6286 C2557.0076,738.4986 2380.11,767.47 2277.29,784.31 " fill="none" id="PartInventoryActionTypes-backto-PartSearchCriteria" style="stroke:#181818;stroke-width:1.0;"/><polygon fill="#181818" points="2684.12,717.69,2677.5526,714.7119,2672.2776,719.6286,2678.845,722.6068,2684.12,717.69" style="stroke:#181818;stroke-width:1.0;"/></g><g id="link_PartLifecycle_PartSearchCriteria"><path d="M1700.9199,715.9847 C1709.8499,717.8747 1707.31,717.27 1716,718.9 C1863.4,746.61 2037.06,772.43 2132.69,786.07 " fill="none" id="PartLifecycle-backto-PartSearchCriteria" style="stroke:#181818;stroke-width:1.0;"/><polygon fill="#181818" points="1689.18,713.5,1694.2217,718.6557,1700.9199,715.9847,1695.8782,710.829,1689.18,713.5" style="stroke:#181818;stroke-width:1.0;"/></g><g id="link_PartLogisticsCriteria_PartSearchCriteria"><path d="M2474.77,225.56 C2648.45,241.7 3049,291.78 3049,410.19 C3049,410.19 3049,410.19 3049,605.17 C3049,676.74 2999.6,688.11 2935,718.9 C2819.81,773.81 2438.16,790.08 2277.39,794.56 " fill="none" id="PartLogisticsCriteria-PartSearchCriteria" style="stroke:#181818;stroke-width:1.0;"/></g><g id="link_PartNameTypes_PartName"><path d="M2490.97,429.85 C2439.43,447.69 2360.67,474.95 2312.14,491.75 " fill="none" id="PartNameTypes-PartName" style="stroke:#181818;stroke-width:1.0;"/></g><g id="link_PartNameTypes_PartSpecification"><path d="M2605.43,413.45 C2661.28,418.34 2739.66,435.24 2779,489.44 C2813.72,537.27 2812.26,573.56 2779,622.41 C2763.77,644.79 2700.64,667.11 2650.09,681.96 " fill="none" id="PartNameTypes-PartSpecification" style="stroke:#181818;stroke-width:1.0;"/></g><g id="link_PartName_PartIdentifier"><path d="M2250.532,535.9465 C2239.062,552.8865 2228.4,568.61 2216.88,585.63 " fill="none" id="PartName-backto-PartIdentifier" style="stroke:#181818;stroke-width:1.0;"/><polygon fill="#181818" points="2257.26,526.01,2250.5838,528.7356,2250.532,535.9465,2257.2082,533.2209,2257.26,526.01" style="stroke:#181818;stroke-width:1.0;"/></g><g id="link_PartName_PartSearchCriteria"><path d="M2275.4886,537.9578 C2280.0786,560.4578 2283.68,588.83 2277,622.41 C2265.02,682.61 2231.81,748.09 2215.01,778.63 " fill="none" id="PartName-backto-PartSearchCriteria" style="stroke:#181818;stroke-width:1.0;"/><polygon fill="#181818" points="2273.09,526.2,2270.37,532.8785,2275.4886,537.9578,2278.2086,531.2794,2273.09,526.2" style="stroke:#181818;stroke-width:1.0;"/></g><g id="link_PartName_SuperSession"><path d="M2214.0084,525.0682 C2208.4484,526.5182 2214.42,524.83 2209,525.93 C1993.05,569.55 1731.23,591.5 1618.3,599.51 " fill="none" id="PartName-backto-SuperSession" style="stroke:#181818;stroke-width:1.0;"/><polygon fill="#181818" points="2225.62,522.04,2218.8048,519.6836,2214.0084,525.0682,2220.8236,527.4246,2225.62,522.04" style="stroke:#181818;stroke-width:1.0;"/></g><g id="link_PartOrderConfigTypes_SuperSession"><path d="M1379.06,526.34 C1419.25,543.22 1479.52,568.53 1519.77,585.43 " fill="none" id="PartOrderConfigTypes-SuperSession" style="stroke:#181818;stroke-width:1.0;"/></g><g id="link_PartPriceCriteria_PartSearchCriteria"><path d="M2086.12,719.21 C2112.34,736.18 2151.85,761.75 2178.03,778.69 " fill="none" id="PartPriceCriteria-PartSearchCriteria" style="stroke:#181818;stroke-width:1.0;"/></g><g id="link_PartSpecification_PartSearchCriteria"><path d="M2504.2182,721.35 C2436.6482,738.24 2344.49,761.28 2275.69,778.48 " fill="none" id="PartSpecification-backto-PartSearchCriteria" style="stroke:#181818;stroke-width:1.0;"/><polygon fill="#181818" points="2515.86,718.44,2509.0691,716.0144,2504.2182,721.35,2511.0091,723.7756,2515.86,718.44" style="stroke:#181818;stroke-width:1.0;"/></g><g id="link_PartStatusTypes_PartLifecycle"><path d="M1746.5077,536.2773 C1722.1177,572.6573 1673.14,645.73 1648.78,682.08 " fill="none" id="PartStatusTypes-backto-PartLifecycle" style="stroke:#181818;stroke-width:1.0;"/><polygon fill="#181818" points="1753.19,526.31,1746.5264,529.0662,1746.5077,536.2773,1753.1713,533.5211,1753.19,526.31" style="stroke:#181818;stroke-width:1.0;"/></g><g id="link_PartStatusTypes_PartSearchCriteria"><path d="M1756.3996,537.8654 C1745.3696,577.7254 1728.42,664.02 1777,718.9 C1822.92,770.77 2022.92,787.97 2132.51,793.55 " fill="none" id="PartStatusTypes-backto-PartSearchCriteria" style="stroke:#181818;stroke-width:1.0;"/><polygon fill="#181818" points="1759.6,526.3,1754.1447,531.0159,1756.3996,537.8654,1761.8549,533.1495,1759.6,526.3" style="stroke:#181818;stroke-width:1.0;"/></g><g id="link_PartStatusTypes_SuperSession"><path d="M1716.4114,531.2951 C1680.0714,548.2151 1636.24,568.61 1599.85,585.55 " fill="none" id="PartStatusTypes-backto-SuperSession" style="stroke:#181818;stroke-width:1.0;"/><polygon fill="#181818" points="1727.29,526.23,1720.1623,525.1363,1716.4114,531.2951,1723.5391,532.3888,1727.29,526.23" style="stroke:#181818;stroke-width:1.0;"/></g><g id="link_PartStatusTypes_PartIdentifier"><path d="M1829.93,521.73 C1903.55,536.67 2027.11,562.14 2133,585.93 C2138.52,587.16 2144.27,588.49 2150,589.83 " fill="none" id="PartStatusTypes-PartIdentifier" style="stroke:#181818;stroke-width:1.0;"/></g><g id="link_PartyReference_SuperSession"><path d="M1228.0593,525.6431 C1306.5593,543.8631 1429.73,572.46 1505.71,590.1 " fill="none" id="PartyReference-backto-SuperSession" style="stroke:#181818;stroke-width:1.0;"/><polygon fill="#181818" points="1216.37,522.93,1221.3103,528.183,1228.0593,525.6431,1223.119,520.3901,1216.37,522.93" style="stroke:#181818;stroke-width:1.0;"/></g><g id="link_PartyRelationshipTypes_PartyReference"><path d="M1288.5344,435.3919 C1256.8444,452.3119 1219.73,472.12 1188,489.06 " fill="none" id="PartyRelationshipTypes-backto-PartyReference" style="stroke:#181818;stroke-width:1.0;"/><polygon fill="#181818" points="1299.12,429.74,1291.9432,429.0374,1288.5344,435.3919,1295.7111,436.0945,1299.12,429.74" style="stroke:#181818;stroke-width:1.0;"/></g><g id="link_PartyTypes_PartyReference"><path d="M1456.57,425.03 C1394.32,441.89 1284.95,471.5 1216.43,490.05 " fill="none" id="PartyTypes-PartyReference" style="stroke:#181818;stroke-width:1.0;"/></g><g id="link_PersonName_PartyReference"><path d="M1155,429.52 C1155,446.47 1155,472.13 1155,489.14 " fill="none" id="PersonName-PartyReference" style="stroke:#181818;stroke-width:1.0;"/></g><g id="link_PriceTypes_PartPriceCriteria"><path d="M1950.1941,629.2401 C1976.4141,646.2101 2005.85,665.26 2032.03,682.2 " fill="none" id="PriceTypes-backto-PartPriceCriteria" style="stroke:#181818;stroke-width:1.0;"/><polygon fill="#181818" points="1940.12,622.72,1942.9837,629.3381,1950.1941,629.2401,1947.3304,622.622,1940.12,622.72" style="stroke:#181818;stroke-width:1.0;"/></g><g id="link_PrivacyAdapterTypes_PrivacyPolicyRule"><path d="M597.29,140.28 C560.95,157.2 506.24,182.66 469.85,199.6 " fill="none" id="PrivacyAdapterTypes-PrivacyPolicyRule" style="stroke:#181818;stroke-width:1.0;"/></g><g id="link_PrivacyPersonaTypes_PrivacyPolicyRule"><path d="M152.3,140.39 C213.75,157.27 305.89,182.58 367.43,199.48 " fill="none" id="PrivacyPersonaTypes-PrivacyPolicyRule" style="stroke:#181818;stroke-width:1.0;"/></g><g id="link_PrivacyPolicyRule_AuthorizationLevel"><path d="M487.4468,241.324 C529.7868,258.204 582.12,279.07 624.52,295.97 " fill="none" id="PrivacyPolicyRule-backto-AuthorizationLevel" style="stroke:#181818;stroke-width:1.0;"/><polygon fill="#181818" points="476.3,236.88,480.3921,242.8176,487.4468,241.324,483.3547,235.3864,476.3,236.88" style="stroke:#181818;stroke-width:1.0;"/></g><g id="link_PrivacyTypes_PrivacyPolicyRule"><path d="M289.51,140.28 C320.84,157.2 368,182.66 399.37,199.6 " fill="none" id="PrivacyTypes-PrivacyPolicyRule" style="stroke:#181818;stroke-width:1.0;"/></g><g id="link_ProductConsumptionTypes_SuperSession"><path d="M1562,526.01 C1562,542.95 1562,568.61 1562,585.63 " fill="none" id="ProductConsumptionTypes-SuperSession" style="stroke:#181818;stroke-width:1.0;"/></g><g id="link_ProductPackageTypes_PartSpecification"><path d="M2474.06,526.41 C2500.22,539.27 2532.28,559.13 2552,585.93 C2573.47,615.1 2580.07,658.3 2582.1,682.19 " fill="none" id="ProductPackageTypes-PartSpecification" style="stroke:#181818;stroke-width:1.0;"/></g><g id="link_ProductPackageTypes_SuperSession"><path d="M2346.19,523.46 C2340.38,524.34 2334.61,525.17 2329,525.93 C2064.06,561.62 1745.6,588.64 1618.45,598.79 " fill="none" id="ProductPackageTypes-SuperSession" style="stroke:#181818;stroke-width:1.0;"/></g><g id="link_ProductStageTypes_AdvancedSearchCriteria"><path d="M984,538.01 C984,554.95 984,568.61 984,585.63 " fill="none" id="ProductStageTypes-backto-AdvancedSearchCriteria" style="stroke:#181818;stroke-width:1.0;"/><polygon fill="#181818" points="984,526.01,980,532.01,984,538.01,988,532.01,984,526.01" style="stroke:#181818;stroke-width:1.0;"/></g><g id="link_ProductStageTypes_PartSearchCriteria"><path d="M1034.3905,531.2303 C1127.2205,572.1503 1356.74,668.75 1568,718.9 C1769.33,766.7 2013.86,785.8 2132.9,792.69 " fill="none" id="ProductStageTypes-backto-PartSearchCriteria" style="stroke:#181818;stroke-width:1.0;"/><polygon fill="#181818" points="1023.41,526.39,1027.2868,532.4703,1034.3905,531.2303,1030.5137,525.15,1023.41,526.39" style="stroke:#181818;stroke-width:1.0;"/></g><g id="link_ProductStageTypes_SuperSession"><path d="M1059.85,522.91 C1065.65,523.95 1071.42,524.96 1077,525.93 C1231.81,552.6 1415.01,580.89 1505.54,594.65 " fill="none" id="ProductStageTypes-SuperSession" style="stroke:#181818;stroke-width:1.0;"/></g><g id="link_ShippingMethodTypes_PartLogisticsCriteria"><path d="M2251.2357,145.6012 C2285.4357,162.5212 2326.14,182.66 2360.39,199.6 " fill="none" id="ShippingMethodTypes-backto-PartLogisticsCriteria" style="stroke:#181818;stroke-width:1.0;"/><polygon fill="#181818" points="2240.48,140.28,2244.0841,146.5258,2251.2357,145.6012,2247.6316,139.3554,2240.48,140.28" style="stroke:#181818;stroke-width:1.0;"/></g><g id="link_SuperSession_PartLifecycle"><path d="M1583.2184,631.9007 C1596.6584,648.8407 1609.57,665.1 1623.08,682.12 " fill="none" id="SuperSession-backto-PartLifecycle" style="stroke:#181818;stroke-width:1.0;"/><polygon fill="#181818" points="1575.76,622.5,1576.3556,629.6865,1583.2184,631.9007,1582.6227,624.7142,1575.76,622.5" style="stroke:#181818;stroke-width:1.0;"/></g><g id="link_TimeSlotStatusTypes_TimeSlot"><path d="M1183.64,140.28 C1150.51,157.2 1100.66,182.66 1067.49,199.6 " fill="none" id="TimeSlotStatusTypes-TimeSlot" style="stroke:#181818;stroke-width:1.0;"/></g><g id="link_TimeSlot_CommunicationChannel"><path d="M994.2891,243.7698 C974.9791,257.3698 961,271.19 950,296.46 C935.98,328.65 952.11,369.63 963.88,392.57 " fill="none" id="TimeSlot-backto-CommunicationChannel" style="stroke:#181818;stroke-width:1.0;"/><polygon fill="#181818" points="1004.1,236.86,996.8913,237.0446,994.2891,243.7698,1001.4978,243.5852,1004.1,236.86" style="stroke:#181818;stroke-width:1.0;"/></g><g id="link_TimeslotDirectiveTypes_TimeSlot"><path d="M886.6277,145.5566 C921.1877,162.4766 962.41,182.66 997.02,199.6 " fill="none" id="TimeslotDirectiveTypes-backto-TimeSlot" style="stroke:#181818;stroke-width:1.0;"/><polygon fill="#181818" points="875.85,140.28,879.48,146.5108,886.6277,145.5566,882.9977,139.3257,875.85,140.28" style="stroke:#181818;stroke-width:1.0;"/></g><g id="link_UnitOfMeasure_PartSpecification"><path d="M2669.7135,630.2212 C2648.5235,647.1912 2625.96,665.26 2604.8,682.2 " fill="none" id="UnitOfMeasure-backto-PartSpecification" style="stroke:#181818;stroke-width:1.0;"/><polygon fill="#181818" points="2679.08,622.72,2671.8963,623.3484,2669.7135,630.2212,2676.8971,629.5928,2679.08,622.72" style="stroke:#181818;stroke-width:1.0;"/></g><g id="link_UomLengthTypes_PartLogisticsCriteria"><path d="M2396,140.06 C2396,157 2396,182.66 2396,199.68 " fill="none" id="UomLengthTypes-PartLogisticsCriteria" style="stroke:#181818;stroke-width:1.0;"/></g><g id="link_UomQuantityCategoryTypes_UnitOfMeasure"><path d="M2664.25,526.01 C2672.32,542.95 2684.54,568.61 2692.65,585.63 " fill="none" id="UomQuantityCategoryTypes-UnitOfMeasure" style="stroke:#181818;stroke-width:1.0;"/></g><g id="link_WarehouseReference_PartSearchCriteria"><path d="M1938.31,719.32 C1996.9,736.2 2084.76,761.51 2143.44,778.41 " fill="none" id="WarehouseReference-PartSearchCriteria" style="stroke:#181818;stroke-width:1.0;"/></g><g id="link_WarehouseTypes_PartLogisticsCriteria"><path d="M2526.3384,146.0319 C2495.3584,162.9519 2459.27,182.66 2428.26,199.6 " fill="none" id="WarehouseTypes-backto-PartLogisticsCriteria" style="stroke:#181818;stroke-width:1.0;"/><polygon fill="#181818" points="2536.87,140.28,2529.6869,139.6454,2526.3384,146.0319,2533.5215,146.6665,2536.87,140.28" style="stroke:#181818;stroke-width:1.0;"/></g><g id="link_WarrantyTypes_PartPriceCriteria"><path d="M2056.2396,634.4892 C2056.9596,651.4292 2057.54,665.1 2058.26,682.12 " fill="none" id="WarrantyTypes-backto-PartPriceCriteria" style="stroke:#181818;stroke-width:1.0;"/><polygon fill="#181818" points="2055.73,622.5,2051.9884,628.6644,2056.2396,634.4892,2059.9812,628.3247,2055.73,622.5" style="stroke:#181818;stroke-width:1.0;"/></g></g></svg>
