<?xml version="1.0" encoding="us-ascii" standalone="no"?><svg xmlns="http://www.w3.org/2000/svg" xmlns:xlink="http://www.w3.org/1999/xlink" contentStyleType="text/css" height="724px" preserveAspectRatio="none" style="width:4453px;height:724px;background:#FFFFFF;" version="1.1" viewBox="0 0 4453 724" width="4453px" zoomAndPan="magnify"><defs/><g><g id="elem_AddressReference"><rect fill="#F1F1F1" height="36.4883" rx="2.5" ry="2.5" style="stroke:#181818;stroke-width:0.5;" width="144" x="3085.5" y="392.96"/><text fill="#000000" font-family="sans-serif" font-size="14" lengthAdjust="spacing" textLength="124" x="3095.5" y="416.4952">AddressReference</text></g><g id="elem_AuthorizationLevel"><rect fill="#F1F1F1" height="36.4883" rx="2.5" ry="2.5" style="stroke:#181818;stroke-width:0.5;" width="149" x="4052" y="296.47"/><text fill="#000000" font-family="sans-serif" font-size="14" lengthAdjust="spacing" textLength="129" x="4062" y="320.0052">AuthorizationLevel</text></g><g id="elem_Code"><rect fill="#F1F1F1" height="36.4883" rx="2.5" ry="2.5" style="stroke:#181818;stroke-width:0.5;" width="56" x="2023.5" y="7"/><text fill="#000000" font-family="sans-serif" font-size="14" lengthAdjust="spacing" textLength="36" x="2033.5" y="30.5352">Code</text></g><g id="elem_CommunicationChannel"><rect fill="#F1F1F1" height="36.4883" rx="2.5" ry="2.5" style="stroke:#181818;stroke-width:0.5;" width="186" x="3689.5" y="392.96"/><text fill="#000000" font-family="sans-serif" font-size="14" lengthAdjust="spacing" textLength="166" x="3699.5" y="416.4952">CommunicationChannel</text></g><g id="elem_ControlAccountReference"><rect fill="#F1F1F1" height="36.4883" rx="2.5" ry="2.5" style="stroke:#181818;stroke-width:0.5;" width="196" x="1708.5" y="489.45"/><text fill="#000000" font-family="sans-serif" font-size="14" lengthAdjust="spacing" textLength="176" x="1718.5" y="512.9852">ControlAccountReference</text></g><g id="elem_CreditReference"><rect fill="#F1F1F1" height="36.4883" rx="2.5" ry="2.5" style="stroke:#181818;stroke-width:0.5;" width="130" x="1939.5" y="489.45"/><text fill="#000000" font-family="sans-serif" font-size="14" lengthAdjust="spacing" textLength="110" x="1949.5" y="512.9852">CreditReference</text></g><g id="elem_CurrencyExchange"><rect fill="#F1F1F1" height="36.4883" rx="2.5" ry="2.5" style="stroke:#181818;stroke-width:0.5;" width="149" x="1025" y="199.98"/><text fill="#000000" font-family="sans-serif" font-size="14" lengthAdjust="spacing" textLength="129" x="1035" y="223.5152">CurrencyExchange</text></g><g id="elem_DiscountMetricValue"><rect fill="#F1F1F1" height="36.4883" rx="2.5" ry="2.5" style="stroke:#181818;stroke-width:0.5;" width="160" x="1699.5" y="392.96"/><text fill="#000000" font-family="sans-serif" font-size="14" lengthAdjust="spacing" textLength="140" x="1709.5" y="416.4952">DiscountMetricValue</text></g><g id="elem_DiscountReference"><rect fill="#F1F1F1" height="36.4883" rx="2.5" ry="2.5" style="stroke:#181818;stroke-width:0.5;" width="148" x="1383.5" y="489.45"/><text fill="#000000" font-family="sans-serif" font-size="14" lengthAdjust="spacing" textLength="128" x="1393.5" y="512.9852">DiscountReference</text></g><g id="elem_EffectivePeriod"><rect fill="#F1F1F1" height="36.4883" rx="2.5" ry="2.5" style="stroke:#181818;stroke-width:0.5;" width="121" x="1852" y="103.49"/><text fill="#000000" font-family="sans-serif" font-size="14" lengthAdjust="spacing" textLength="101" x="1862" y="127.0252">EffectivePeriod</text></g><g id="elem_EventMessage"><rect fill="#F1F1F1" height="36.4883" rx="2.5" ry="2.5" style="stroke:#181818;stroke-width:0.5;" width="116" x="285.5" y="392.96"/><text fill="#000000" font-family="sans-serif" font-size="14" lengthAdjust="spacing" textLength="96" x="295.5" y="416.4952">EventMessage</text></g><g id="elem_FeeReference"><rect fill="#F1F1F1" height="36.4883" rx="2.5" ry="2.5" style="stroke:#181818;stroke-width:0.5;" width="112" x="2104.5" y="489.45"/><text fill="#000000" font-family="sans-serif" font-size="14" lengthAdjust="spacing" textLength="92" x="2114.5" y="512.9852">FeeReference</text></g><g id="elem_FinancialCategoryReference"><rect fill="#F1F1F1" height="36.4883" rx="2.5" ry="2.5" style="stroke:#181818;stroke-width:0.5;" width="211" x="2489" y="489.45"/><text fill="#000000" font-family="sans-serif" font-size="14" lengthAdjust="spacing" textLength="191" x="2499" y="512.9852">FinancialCategoryReference</text></g><g id="elem_FinancialSplit"><rect fill="#F1F1F1" height="36.4883" rx="2.5" ry="2.5" style="stroke:#181818;stroke-width:0.5;" width="111" x="2105" y="585.93"/><text fill="#000000" font-family="sans-serif" font-size="14" lengthAdjust="spacing" textLength="91" x="2115" y="609.4652">FinancialSplit</text></g><g id="elem_GeneralAmount"><rect fill="#F1F1F1" height="36.4883" rx="2.5" ry="2.5" style="stroke:#181818;stroke-width:0.5;" width="128" x="1990.5" y="199.98"/><text fill="#000000" font-family="sans-serif" font-size="14" lengthAdjust="spacing" textLength="108" x="2000.5" y="223.5152">GeneralAmount</text></g><g id="elem_Identifier"><rect fill="#F1F1F1" height="36.4883" rx="2.5" ry="2.5" style="stroke:#181818;stroke-width:0.5;" width="82" x="2115.5" y="392.96"/><text fill="#000000" font-family="sans-serif" font-size="14" lengthAdjust="spacing" textLength="62" x="2125.5" y="416.4952">Identifier</text></g><g id="elem_JurisdictionProfile"><rect fill="#F1F1F1" height="36.4883" rx="2.5" ry="2.5" style="stroke:#181818;stroke-width:0.5;" width="141" x="2903" y="199.98"/><text fill="#000000" font-family="sans-serif" font-size="14" lengthAdjust="spacing" textLength="121" x="2913" y="223.5152">JurisdictionProfile</text></g><g id="elem_Locale"><rect fill="#F1F1F1" height="36.4883" rx="2.5" ry="2.5" style="stroke:#181818;stroke-width:0.5;" width="63" x="3375" y="296.47"/><text fill="#000000" font-family="sans-serif" font-size="14" lengthAdjust="spacing" textLength="43" x="3385" y="320.0052">Locale</text></g><g id="elem_Money"><rect fill="#F1F1F1" height="36.4883" rx="2.5" ry="2.5" style="stroke:#181818;stroke-width:0.5;" width="65" x="1047" y="296.47"/><text fill="#000000" font-family="sans-serif" font-size="14" lengthAdjust="spacing" textLength="45" x="1057" y="320.0052">Money</text></g><g id="elem_PartIdentifier"><rect fill="#F1F1F1" height="36.4883" rx="2.5" ry="2.5" style="stroke:#181818;stroke-width:0.5;" width="109" x="507" y="392.96"/><text fill="#000000" font-family="sans-serif" font-size="14" lengthAdjust="spacing" textLength="89" x="517" y="416.4952">PartIdentifier</text></g><g id="elem_PartName"><rect fill="#F1F1F1" height="36.4883" rx="2.5" ry="2.5" style="stroke:#181818;stroke-width:0.5;" width="86" x="702.5" y="296.47"/><text fill="#000000" font-family="sans-serif" font-size="14" lengthAdjust="spacing" textLength="66" x="712.5" y="320.0052">PartName</text></g><g id="elem_PartyReference"><rect fill="#F1F1F1" height="36.4883" rx="2.5" ry="2.5" style="stroke:#181818;stroke-width:0.5;" width="122" x="3377.5" y="489.45"/><text fill="#000000" font-family="sans-serif" font-size="14" lengthAdjust="spacing" textLength="102" x="3387.5" y="512.9852">PartyReference</text></g><g id="elem_PersonName"><rect fill="#F1F1F1" height="36.4883" rx="2.5" ry="2.5" style="stroke:#181818;stroke-width:0.5;" width="106" x="3477.5" y="392.96"/><text fill="#000000" font-family="sans-serif" font-size="14" lengthAdjust="spacing" textLength="86" x="3487.5" y="416.4952">PersonName</text></g><g id="elem_Price"><rect fill="#F1F1F1" height="36.4883" rx="2.5" ry="2.5" style="stroke:#181818;stroke-width:0.5;" width="53" x="946" y="392.96"/><text fill="#000000" font-family="sans-serif" font-size="14" lengthAdjust="spacing" textLength="33" x="956" y="416.4952">Price</text></g><g id="elem_PriceCriteria"><rect fill="#F1F1F1" height="36.4883" rx="2.5" ry="2.5" style="stroke:#181818;stroke-width:0.5;" width="104" x="1512.5" y="682.42"/><text fill="#000000" font-family="sans-serif" font-size="14" lengthAdjust="spacing" textLength="84" x="1522.5" y="705.9552">PriceCriteria</text></g><g id="elem_PriceCriteriaItem"><rect fill="#F1F1F1" height="36.4883" rx="2.5" ry="2.5" style="stroke:#181818;stroke-width:0.5;" width="134" x="714.5" y="489.45"/><text fill="#000000" font-family="sans-serif" font-size="14" lengthAdjust="spacing" textLength="114" x="724.5" y="512.9852">PriceCriteriaItem</text></g><g id="elem_PrivacyPolicyRule"><rect fill="#F1F1F1" height="36.4883" rx="2.5" ry="2.5" style="stroke:#181818;stroke-width:0.5;" width="136" x="4058.5" y="199.98"/><text fill="#000000" font-family="sans-serif" font-size="14" lengthAdjust="spacing" textLength="116" x="4068.5" y="223.5152">PrivacyPolicyRule</text></g><g id="elem_RebateReference"><rect fill="#F1F1F1" height="36.4883" rx="2.5" ry="2.5" style="stroke:#181818;stroke-width:0.5;" width="135" x="1115" y="489.45"/><text fill="#000000" font-family="sans-serif" font-size="14" lengthAdjust="spacing" textLength="115" x="1125" y="512.9852">RebateReference</text></g><g id="elem_RewardReference"><rect fill="#F1F1F1" height="36.4883" rx="2.5" ry="2.5" style="stroke:#181818;stroke-width:0.5;" width="139" x="3132" y="489.45"/><text fill="#000000" font-family="sans-serif" font-size="14" lengthAdjust="spacing" textLength="119" x="3142" y="512.9852">RewardReference</text></g><g id="elem_TaxSplit"><rect fill="#F1F1F1" height="36.4883" rx="2.5" ry="2.5" style="stroke:#181818;stroke-width:0.5;" width="76" x="2571.5" y="296.47"/><text fill="#000000" font-family="sans-serif" font-size="14" lengthAdjust="spacing" textLength="56" x="2581.5" y="320.0052">TaxSplit</text></g><g id="elem_TimeSlot"><rect fill="#F1F1F1" height="36.4883" rx="2.5" ry="2.5" style="stroke:#181818;stroke-width:0.5;" width="80" x="3186.5" y="199.98"/><text fill="#000000" font-family="sans-serif" font-size="14" lengthAdjust="spacing" textLength="60" x="3196.5" y="223.5152">TimeSlot</text></g><g id="elem_AddressTypes"><rect fill="#FAFF91" height="36.4883" rx="2.5" ry="2.5" style="stroke:#181818;stroke-width:0.5;" width="116" x="3099.5" y="296.47"/><text fill="#000000" font-family="sans-serif" font-size="14" lengthAdjust="spacing" textLength="96" x="3109.5" y="320.0052">AddressTypes</text></g><g id="elem_CommunicationChannelTypes"><rect fill="#FAFF91" height="36.4883" rx="2.5" ry="2.5" style="stroke:#181818;stroke-width:0.5;" width="226" x="3544.5" y="296.47"/><text fill="#000000" font-family="sans-serif" font-size="14" lengthAdjust="spacing" textLength="206" x="3554.5" y="320.0052">CommunicationChannelTypes</text></g><g id="elem_CommunicationStatusTypes"><rect fill="#FAFF91" height="36.4883" rx="2.5" ry="2.5" style="stroke:#181818;stroke-width:0.5;" width="211" x="3806" y="296.47"/><text fill="#000000" font-family="sans-serif" font-size="14" lengthAdjust="spacing" textLength="191" x="3816" y="320.0052">CommunicationStatusTypes</text></g><g id="elem_DayOfWeekTypes"><rect fill="#FAFF91" height="36.4883" rx="2.5" ry="2.5" style="stroke:#181818;stroke-width:0.5;" width="137" x="3158" y="103.49"/><text fill="#000000" font-family="sans-serif" font-size="14" lengthAdjust="spacing" textLength="117" x="3168" y="127.0252">DayOfWeekTypes</text></g><g id="elem_DurationUomTypes"><rect fill="#FAFF91" height="36.4883" rx="2.5" ry="2.5" style="stroke:#181818;stroke-width:0.5;" width="152" x="1836.5" y="7"/><text fill="#000000" font-family="sans-serif" font-size="14" lengthAdjust="spacing" textLength="132" x="1846.5" y="30.5352">DurationUomTypes</text></g><g id="elem_EventMessageTypes"><rect fill="#FAFF91" height="36.4883" rx="2.5" ry="2.5" style="stroke:#181818;stroke-width:0.5;" width="156" x="163.5" y="296.47"/><text fill="#000000" font-family="sans-serif" font-size="14" lengthAdjust="spacing" textLength="136" x="173.5" y="320.0052">EventMessageTypes</text></g><g id="elem_FinancialTransactionTypes"><rect fill="#FAFF91" height="36.4883" rx="2.5" ry="2.5" style="stroke:#181818;stroke-width:0.5;" width="202" x="2251.5" y="489.45"/><text fill="#000000" font-family="sans-serif" font-size="14" lengthAdjust="spacing" textLength="182" x="2261.5" y="512.9852">FinancialTransactionTypes</text></g><g id="elem_IncentiveTypes"><rect fill="#FAFF91" height="36.4883" rx="2.5" ry="2.5" style="stroke:#181818;stroke-width:0.5;" width="121" x="1034" y="392.96"/><text fill="#000000" font-family="sans-serif" font-size="14" lengthAdjust="spacing" textLength="101" x="1044" y="416.4952">IncentiveTypes</text></g><g id="elem_LedgerActionTypes"><rect fill="#FAFF91" height="36.4883" rx="2.5" ry="2.5" style="stroke:#181818;stroke-width:0.5;" width="151" x="2735" y="489.45"/><text fill="#000000" font-family="sans-serif" font-size="14" lengthAdjust="spacing" textLength="131" x="2745" y="512.9852">LedgerActionTypes</text></g><g id="elem_MaskingStrategyTypes"><rect fill="#FAFF91" height="36.4883" rx="2.5" ry="2.5" style="stroke:#181818;stroke-width:0.5;" width="173" x="3738" y="103.49"/><text fill="#000000" font-family="sans-serif" font-size="14" lengthAdjust="spacing" textLength="153" x="3748" y="127.0252">MaskingStrategyTypes</text></g><g id="elem_OrderCategoryTypes"><rect fill="#FAFF91" height="36.4883" rx="2.5" ry="2.5" style="stroke:#181818;stroke-width:0.5;" width="162" x="1190.5" y="392.96"/><text fill="#000000" font-family="sans-serif" font-size="14" lengthAdjust="spacing" textLength="142" x="1200.5" y="416.4952">OrderCategoryTypes</text></g><g id="elem_PartIdentifierTypes"><rect fill="#FAFF91" height="36.4883" rx="2.5" ry="2.5" style="stroke:#181818;stroke-width:0.5;" width="149" x="519" y="296.47"/><text fill="#000000" font-family="sans-serif" font-size="14" lengthAdjust="spacing" textLength="129" x="529" y="320.0052">PartIdentifierTypes</text></g><g id="elem_PartNameTypes"><rect fill="#FAFF91" height="36.4883" rx="2.5" ry="2.5" style="stroke:#181818;stroke-width:0.5;" width="126" x="682.5" y="199.98"/><text fill="#000000" font-family="sans-serif" font-size="14" lengthAdjust="spacing" textLength="106" x="692.5" y="223.5152">PartNameTypes</text></g><g id="elem_PartStatusTypes"><rect fill="#FAFF91" height="36.4883" rx="2.5" ry="2.5" style="stroke:#181818;stroke-width:0.5;" width="129" x="355" y="296.47"/><text fill="#000000" font-family="sans-serif" font-size="14" lengthAdjust="spacing" textLength="109" x="365" y="320.0052">PartStatusTypes</text></g><g id="elem_PartyRelationshipTypes"><rect fill="#FAFF91" height="36.4883" rx="2.5" ry="2.5" style="stroke:#181818;stroke-width:0.5;" width="179" x="3264" y="392.96"/><text fill="#000000" font-family="sans-serif" font-size="14" lengthAdjust="spacing" textLength="159" x="3274" y="416.4952">PartyRelationshipTypes</text></g><g id="elem_PartyTypes"><rect fill="#FAFF91" height="36.4883" rx="2.5" ry="2.5" style="stroke:#181818;stroke-width:0.5;" width="94" x="1570.5" y="392.96"/><text fill="#000000" font-family="sans-serif" font-size="14" lengthAdjust="spacing" textLength="74" x="1580.5" y="416.4952">PartyTypes</text></g><g id="elem_PayTypes"><rect fill="#FAFF91" height="36.4883" rx="2.5" ry="2.5" style="stroke:#181818;stroke-width:0.5;" width="83" x="1437" y="296.47"/><text fill="#000000" font-family="sans-serif" font-size="14" lengthAdjust="spacing" textLength="63" x="1447" y="320.0052">PayTypes</text></g><g id="elem_PaymentTypes"><rect fill="#FAFF91" height="36.4883" rx="2.5" ry="2.5" style="stroke:#181818;stroke-width:0.5;" width="118" x="722.5" y="392.96"/><text fill="#000000" font-family="sans-serif" font-size="14" lengthAdjust="spacing" textLength="98" x="732.5" y="416.4952">PaymentTypes</text></g><g id="elem_PriceTypes"><rect fill="#FAFF91" height="36.4883" rx="2.5" ry="2.5" style="stroke:#181818;stroke-width:0.5;" width="93" x="1147" y="296.47"/><text fill="#000000" font-family="sans-serif" font-size="14" lengthAdjust="spacing" textLength="73" x="1157" y="320.0052">PriceTypes</text></g><g id="elem_PrivacyAdapterTypes"><rect fill="#FAFF91" height="36.4883" rx="2.5" ry="2.5" style="stroke:#181818;stroke-width:0.5;" width="162" x="3946.5" y="103.49"/><text fill="#000000" font-family="sans-serif" font-size="14" lengthAdjust="spacing" textLength="142" x="3956.5" y="127.0252">PrivacyAdapterTypes</text></g><g id="elem_PrivacyPersonaTypes"><rect fill="#FAFF91" height="36.4883" rx="2.5" ry="2.5" style="stroke:#181818;stroke-width:0.5;" width="162" x="4143.5" y="103.49"/><text fill="#000000" font-family="sans-serif" font-size="14" lengthAdjust="spacing" textLength="142" x="4153.5" y="127.0252">PrivacyPersonaTypes</text></g><g id="elem_PrivacyTypes"><rect fill="#FAFF91" height="36.4883" rx="2.5" ry="2.5" style="stroke:#181818;stroke-width:0.5;" width="107" x="4340" y="103.49"/><text fill="#000000" font-family="sans-serif" font-size="14" lengthAdjust="spacing" textLength="87" x="4350" y="127.0252">PrivacyTypes</text></g><g id="elem_ProductPriceItemTypes"><rect fill="#FAFF91" height="36.4883" rx="2.5" ry="2.5" style="stroke:#181818;stroke-width:0.5;" width="176" x="2920.5" y="489.45"/><text fill="#000000" font-family="sans-serif" font-size="14" lengthAdjust="spacing" textLength="156" x="2930.5" y="512.9852">ProductPriceItemTypes</text></g><g id="elem_ProductStateTypes"><rect fill="#FAFF91" height="36.4883" rx="2.5" ry="2.5" style="stroke:#181818;stroke-width:0.5;" width="147" x="1388" y="392.96"/><text fill="#000000" font-family="sans-serif" font-size="14" lengthAdjust="spacing" textLength="127" x="1398" y="416.4952">ProductStateTypes</text></g><g id="elem_StaffRoleTypes"><rect fill="#FAFF91" height="36.4883" rx="2.5" ry="2.5" style="stroke:#181818;stroke-width:0.5;" width="121" x="7" y="296.47"/><text fill="#000000" font-family="sans-serif" font-size="14" lengthAdjust="spacing" textLength="101" x="17" y="320.0052">StaffRoleTypes</text></g><g id="elem_TaxTypes"><rect fill="#FAFF91" height="36.4883" rx="2.5" ry="2.5" style="stroke:#181818;stroke-width:0.5;" width="86" x="2566.5" y="199.98"/><text fill="#000000" font-family="sans-serif" font-size="14" lengthAdjust="spacing" textLength="66" x="2576.5" y="223.5152">TaxTypes</text></g><g id="elem_TimeSlotStatusTypes"><rect fill="#FAFF91" height="36.4883" rx="2.5" ry="2.5" style="stroke:#181818;stroke-width:0.5;" width="162" x="3330.5" y="103.49"/><text fill="#000000" font-family="sans-serif" font-size="14" lengthAdjust="spacing" textLength="142" x="3340.5" y="127.0252">TimeSlotStatusTypes</text></g><g id="elem_TimeslotDirectiveTypes"><rect fill="#FAFF91" height="36.4883" rx="2.5" ry="2.5" style="stroke:#181818;stroke-width:0.5;" width="178" x="2944.5" y="103.49"/><text fill="#000000" font-family="sans-serif" font-size="14" lengthAdjust="spacing" textLength="158" x="2954.5" y="127.0252">TimeslotDirectiveTypes</text></g><g id="elem_UnitOfMeasureTypes"><rect fill="#FAFF91" height="36.4883" rx="2.5" ry="2.5" style="stroke:#181818;stroke-width:0.5;" width="162" x="1697.5" y="296.47"/><text fill="#000000" font-family="sans-serif" font-size="14" lengthAdjust="spacing" textLength="142" x="1707.5" y="320.0052">UnitOfMeasureTypes</text></g><g id="link_AddressReference_PartyReference"><path d="M3221.3942,433.6846 C3271.5942,450.5646 3335.49,472.05 3385.76,488.95 " fill="none" id="AddressReference-backto-PartyReference" style="stroke:#181818;stroke-width:1.0;"/><polygon fill="#181818" points="3210.02,429.86,3214.4322,435.5637,3221.3942,433.6846,3216.982,427.9809,3210.02,429.86" style="stroke:#181818;stroke-width:1.0;"/></g><g id="link_AddressTypes_AddressReference"><path d="M3157.5,345.04 C3157.5,361.99 3157.5,375.65 3157.5,392.66 " fill="none" id="AddressTypes-backto-AddressReference" style="stroke:#181818;stroke-width:1.0;"/><polygon fill="#181818" points="3157.5,333.04,3153.5,339.04,3157.5,345.04,3161.5,339.04,3157.5,333.04" style="stroke:#181818;stroke-width:1.0;"/></g><g id="link_AuthorizationLevel_CommunicationChannel"><path d="M4050.6286,336.5486 C3989.1786,353.4286 3908.61,375.56 3847.07,392.47 " fill="none" id="AuthorizationLevel-backto-CommunicationChannel" style="stroke:#181818;stroke-width:1.0;"/><polygon fill="#181818" points="4062.2,333.37,4055.3548,331.1022,4050.6286,336.5486,4057.4738,338.8164,4062.2,333.37" style="stroke:#181818;stroke-width:1.0;"/></g><g id="link_CommunicationChannelTypes_CommunicationChannel"><path d="M3680.72,333.26 C3703.17,350.24 3737,375.8 3759.41,392.74 " fill="none" id="CommunicationChannelTypes-CommunicationChannel" style="stroke:#181818;stroke-width:1.0;"/></g><g id="link_CommunicationChannel_PartyReference"><path d="M3706.6289,433.0396 C3644.1089,450.2196 3561.39,472.93 3499.88,489.83 " fill="none" id="CommunicationChannel-backto-PartyReference" style="stroke:#181818;stroke-width:1.0;"/><polygon fill="#181818" points="3718.2,429.86,3711.3546,427.5928,3706.6289,433.0396,3713.4743,435.3068,3718.2,429.86" style="stroke:#181818;stroke-width:1.0;"/></g><g id="link_CommunicationStatusTypes_CommunicationChannel"><path d="M3887.54,333.26 C3864.37,350.24 3829.46,375.8 3806.33,392.74 " fill="none" id="CommunicationStatusTypes-CommunicationChannel" style="stroke:#181818;stroke-width:1.0;"/></g><g id="link_ControlAccountReference_FinancialSplit"><path d="M1872.67,526.35 C1939.51,544.19 2041.63,571.45 2104.56,588.25 " fill="none" id="ControlAccountReference-FinancialSplit" style="stroke:#181818;stroke-width:1.0;"/></g><g id="link_CreditReference_FinancialSplit"><path d="M2043.7436,532.4577 C2071.6736,549.3777 2103.45,568.62 2131.41,585.56 " fill="none" id="CreditReference-backto-FinancialSplit" style="stroke:#181818;stroke-width:1.0;"/><polygon fill="#181818" points="2033.48,526.24,2036.5392,532.77,2043.7436,532.4577,2040.6843,525.9276,2033.48,526.24" style="stroke:#181818;stroke-width:1.0;"/></g><g id="link_CurrencyExchange_Money"><path d="M1095.83,236.55 C1092.25,253.5 1086.81,279.16 1083.21,296.17 " fill="none" id="CurrencyExchange-Money" style="stroke:#181818;stroke-width:1.0;"/></g><g id="link_DayOfWeekTypes_TimeSlot"><path d="M3226.5,140.07 C3226.5,157.01 3226.5,182.67 3226.5,199.68 " fill="none" id="DayOfWeekTypes-TimeSlot" style="stroke:#181818;stroke-width:1.0;"/></g><g id="link_DiscountMetricValue_DiscountReference"><path d="M1707.7956,433.2391 C1650.2756,450.1191 1575.54,472.05 1517.94,488.95 " fill="none" id="DiscountMetricValue-backto-DiscountReference" style="stroke:#181818;stroke-width:1.0;"/><polygon fill="#181818" points="1719.31,429.86,1712.4264,427.7114,1707.7956,433.2391,1714.6791,435.3877,1719.31,429.86" style="stroke:#181818;stroke-width:1.0;"/></g><g id="link_DiscountReference_FinancialSplit"><path d="M1543.7513,523.6949 C1552.7013,525.1649 1549.88,524.64 1558.5,525.93 C1759.11,555.92 1998.41,584.48 2104.79,596.81 " fill="none" id="DiscountReference-backto-FinancialSplit" style="stroke:#181818;stroke-width:1.0;"/><polygon fill="#181818" points="1531.91,521.75,1537.1824,526.6696,1543.7513,523.6949,1538.479,518.7753,1531.91,521.75" style="stroke:#181818;stroke-width:1.0;"/></g><g id="link_DurationUomTypes_EffectivePeriod"><path d="M1912.5,43.58 C1912.5,60.52 1912.5,86.18 1912.5,103.2 " fill="none" id="DurationUomTypes-EffectivePeriod" style="stroke:#181818;stroke-width:1.0;"/></g><g id="link_EffectivePeriod_DiscountReference"><path d="M1916.72,140.18 C1928.14,192.06 1953.83,346.88 1876.5,429.45 C1853.18,454.35 1645.84,483.48 1531.84,497.81 " fill="none" id="EffectivePeriod-DiscountReference" style="stroke:#181818;stroke-width:1.0;"/></g><g id="link_EffectivePeriod_JurisdictionProfile"><path d="M1973.35,128.16 C2157.19,144.53 2706.24,193.42 2902.65,210.91 " fill="none" id="EffectivePeriod-JurisdictionProfile" style="stroke:#181818;stroke-width:1.0;"/></g><g id="link_EffectivePeriod_Price"><path d="M1851.74,123.68 C1658.87,127.26 1069.41,142.82 1007.5,199.98 C952.72,250.55 962.49,351.75 969.14,392.55 " fill="none" id="EffectivePeriod-Price" style="stroke:#181818;stroke-width:1.0;"/></g><g id="link_EffectivePeriod_RebateReference"><path d="M1851.71,123.65 C1654.27,127.17 1039.91,142.68 973.5,199.98 C894.81,267.87 866.62,345.95 928.5,429.45 C950.8,459.53 1047.13,482.55 1114.53,495.34 " fill="none" id="EffectivePeriod-RebateReference" style="stroke:#181818;stroke-width:1.0;"/></g><g id="link_EffectivePeriod_TimeSlot"><path d="M1973.29,126.03 C2144.6,135.48 2645.93,164.31 3061.5,199.98 C3104.11,203.64 3152.81,208.85 3186.19,212.59 " fill="none" id="EffectivePeriod-TimeSlot" style="stroke:#181818;stroke-width:1.0;"/></g><g id="link_EventMessageTypes_EventMessage"><path d="M260.21,333.04 C278.5,349.99 306.2,375.65 324.56,392.66 " fill="none" id="EventMessageTypes-EventMessage" style="stroke:#181818;stroke-width:1.0;"/></g><g id="link_EventMessage_PriceCriteria"><path d="M388.9278,435.2272 C471.6878,476.5172 677.47,574.12 870.5,622.42 C1105.12,681.13 1395.53,695.25 1512.29,698.62 " fill="none" id="EventMessage-backto-PriceCriteria" style="stroke:#181818;stroke-width:1.0;"/><polygon fill="#181818" points="378.19,429.87,381.7732,436.1279,388.9278,435.2272,385.3446,428.9693,378.19,429.87" style="stroke:#181818;stroke-width:1.0;"/></g><g id="link_EventMessage_PriceCriteriaItem"><path d="M413.3903,427.2797 C494.2603,444.7197 628.6,473.7 714.11,492.15 " fill="none" id="EventMessage-backto-PriceCriteriaItem" style="stroke:#181818;stroke-width:1.0;"/><polygon fill="#181818" points="401.66,424.75,406.6819,429.925,413.3903,427.2797,408.3684,422.1047,401.66,424.75" style="stroke:#181818;stroke-width:1.0;"/></g><g id="link_FeeReference_FinancialSplit"><path d="M2160.5,538.02 C2160.5,554.96 2160.5,568.62 2160.5,585.64 " fill="none" id="FeeReference-backto-FinancialSplit" style="stroke:#181818;stroke-width:1.0;"/><polygon fill="#181818" points="2160.5,526.02,2156.5,532.02,2160.5,538.02,2164.5,532.02,2160.5,526.02" style="stroke:#181818;stroke-width:1.0;"/></g><g id="link_FinancialCategoryReference_FinancialSplit"><path d="M2501.3946,528.9624 C2414.7546,547.8224 2291.69,574.62 2216.33,591.02 " fill="none" id="FinancialCategoryReference-backto-FinancialSplit" style="stroke:#181818;stroke-width:1.0;"/><polygon fill="#181818" points="2513.12,526.41,2506.4065,523.7777,2501.3946,528.9624,2508.1081,531.5947,2513.12,526.41" style="stroke:#181818;stroke-width:1.0;"/></g><g id="link_FinancialSplit_PriceCriteria"><path d="M2092.8481,615.8995 C1977.9581,634.1195 1728.31,673.7 1616.63,691.4 " fill="none" id="FinancialSplit-backto-PriceCriteria" style="stroke:#181818;stroke-width:1.0;"/><polygon fill="#181818" points="2104.7,614.02,2098.1475,611.0091,2092.8481,615.8995,2099.4006,618.9104,2104.7,614.02" style="stroke:#181818;stroke-width:1.0;"/></g><g id="link_FinancialTransactionTypes_FinancialSplit"><path d="M2316.84,526.24 C2282.46,543.16 2230.72,568.62 2196.3,585.56 " fill="none" id="FinancialTransactionTypes-FinancialSplit" style="stroke:#181818;stroke-width:1.0;"/></g><g id="link_GeneralAmount_FinancialSplit"><path d="M2047.31,236.7 C2029.76,277.14 1980.76,377.62 1907.5,429.45 C1821.67,490.17 1623.46,445.77 1691.5,525.93 C1743.96,587.75 1992.21,600.18 2104.77,602.62 " fill="none" id="GeneralAmount-FinancialSplit" style="stroke:#181818;stroke-width:1.0;"/></g><g id="link_GeneralAmount_Money"><path d="M1990.06,219.13 C1838.35,220.09 1447.43,229.46 1129.5,296.47 C1123.84,297.66 1117.94,299.31 1112.25,301.12 " fill="none" id="GeneralAmount-Money" style="stroke:#181818;stroke-width:1.0;"/></g><g id="link_GeneralAmount_TaxSplit"><path d="M2118.98,230.2 C2235.38,250.02 2477.22,291.19 2571.09,307.17 " fill="none" id="GeneralAmount-TaxSplit" style="stroke:#181818;stroke-width:1.0;"/></g><g id="link_Identifier_ControlAccountReference"><path d="M2115.32,423.32 C2055.33,439.51 1943.29,469.76 1871.92,489.03 " fill="none" id="Identifier-ControlAccountReference" style="stroke:#181818;stroke-width:1.0;"/></g><g id="link_Identifier_CreditReference"><path d="M2128.27,429.75 C2101.05,446.67 2060.09,472.13 2032.84,489.07 " fill="none" id="Identifier-CreditReference" style="stroke:#181818;stroke-width:1.0;"/></g><g id="link_Identifier_DiscountReference"><path d="M2115.13,417.79 C2000.67,433.26 1678.64,476.8 1531.96,496.62 " fill="none" id="Identifier-DiscountReference" style="stroke:#181818;stroke-width:1.0;"/></g><g id="link_Identifier_FeeReference"><path d="M2157.23,429.53 C2157.95,446.47 2159.04,472.13 2159.76,489.15 " fill="none" id="Identifier-FeeReference" style="stroke:#181818;stroke-width:1.0;"/></g><g id="link_Identifier_FinancialCategoryReference"><path d="M2197.71,421.09 C2269.47,436.57 2418.67,468.76 2512.27,488.95 " fill="none" id="Identifier-FinancialCategoryReference" style="stroke:#181818;stroke-width:1.0;"/></g><g id="link_Identifier_PartyReference"><path d="M2197.93,414.33 C2346.03,422.1 2863.07,450.5 3288.5,489.45 C3317.74,492.12 3350.1,495.76 3377.26,499 " fill="none" id="Identifier-PartyReference" style="stroke:#181818;stroke-width:1.0;"/></g><g id="link_Identifier_RebateReference"><path d="M2115.27,416.2 C1964.01,430.87 1438.62,481.84 1250.31,500.11 " fill="none" id="Identifier-RebateReference" style="stroke:#181818;stroke-width:1.0;"/></g><g id="link_Identifier_RewardReference"><path d="M2197.72,413.86 C2330.82,419.58 2760.96,440.83 3113.5,489.45 C3119.51,490.27 3125.74,491.25 3131.97,492.31 " fill="none" id="Identifier-RewardReference" style="stroke:#181818;stroke-width:1.0;"/></g><g id="link_IncentiveTypes_RebateReference"><path d="M1110.64,429.53 C1126.42,446.47 1150.32,472.13 1166.16,489.15 " fill="none" id="IncentiveTypes-RebateReference" style="stroke:#181818;stroke-width:1.0;"/></g><g id="link_JurisdictionProfile_Locale"><path d="M3044.03,234.62 C3139.29,255.4 3305.11,291.59 3374.52,306.73 " fill="none" id="JurisdictionProfile-Locale" style="stroke:#181818;stroke-width:1.0;"/></g><g id="link_LedgerActionTypes_FinancialSplit"><path d="M2734.67,523.04 C2728.87,524.05 2723.09,525.03 2717.5,525.93 C2534.64,555.55 2316.84,583.7 2216.36,596.29 " fill="none" id="LedgerActionTypes-FinancialSplit" style="stroke:#181818;stroke-width:1.0;"/></g><g id="link_Locale_CommunicationChannel"><path d="M3438.27,325.29 C3447.07,327.86 3456.63,330.58 3465.5,332.96 C3547.16,354.83 3641.35,377.45 3705.71,392.52 " fill="none" id="Locale-CommunicationChannel" style="stroke:#181818;stroke-width:1.0;"/></g><g id="link_Locale_PriceCriteria"><path d="M3438.25,329.16 C3441.37,330.45 3444.5,331.74 3447.5,332.96 C3515.17,360.45 3559.35,332.61 3600.5,392.96 C3642.5,454.55 3541.12,512.83 3516.5,525.93 C3344.09,617.71 1910.47,684.62 1616.9,697.44 " fill="none" id="Locale-PriceCriteria" style="stroke:#181818;stroke-width:1.0;"/></g><g id="link_MaskingStrategyTypes_PrivacyPolicyRule"><path d="M3880.95,140.4 C3934.9,157.28 4015.79,182.59 4069.82,199.49 " fill="none" id="MaskingStrategyTypes-PrivacyPolicyRule" style="stroke:#181818;stroke-width:1.0;"/></g><g id="link_Money_Price"><path d="M1059.62,333.26 C1040.41,350.24 1011.45,375.8 992.27,392.74 " fill="none" id="Money-Price" style="stroke:#181818;stroke-width:1.0;"/></g><g id="link_OrderCategoryTypes_DiscountReference"><path d="M1316.7482,435.1858 C1350.0482,452.1058 1389.47,472.13 1422.82,489.07 " fill="none" id="OrderCategoryTypes-backto-DiscountReference" style="stroke:#181818;stroke-width:1.0;"/><polygon fill="#181818" points="1306.05,429.75,1309.5872,436.034,1316.7482,435.1858,1313.2111,428.9019,1306.05,429.75" style="stroke:#181818;stroke-width:1.0;"/></g><g id="link_OrderCategoryTypes_RebateReference"><path d="M1255.18,429.53 C1239.22,446.47 1215.05,472.13 1199.02,489.15 " fill="none" id="OrderCategoryTypes-RebateReference" style="stroke:#181818;stroke-width:1.0;"/></g><g id="link_PartIdentifierTypes_PartIdentifier"><path d="M587.63,333.04 C581.89,349.99 573.2,375.65 567.44,392.66 " fill="none" id="PartIdentifierTypes-PartIdentifier" style="stroke:#181818;stroke-width:1.0;"/></g><g id="link_PartIdentifier_PriceCriteriaItem"><path d="M613.646,434.5958 C652.946,451.4758 700.85,472.05 740.21,488.95 " fill="none" id="PartIdentifier-backto-PriceCriteriaItem" style="stroke:#181818;stroke-width:1.0;"/><polygon fill="#181818" points="602.62,429.86,606.5544,435.9032,613.646,434.5958,609.7116,428.5526,602.62,429.86" style="stroke:#181818;stroke-width:1.0;"/></g><g id="link_PartNameTypes_PartName"><path d="M745.5,236.55 C745.5,253.5 745.5,279.16 745.5,296.17 " fill="none" id="PartNameTypes-PartName" style="stroke:#181818;stroke-width:1.0;"/></g><g id="link_PartName_PartIdentifier"><path d="M700.6458,338.7429 C667.7058,355.6629 628.8,375.64 595.81,392.58 " fill="none" id="PartName-backto-PartIdentifier" style="stroke:#181818;stroke-width:1.0;"/><polygon fill="#181818" points="711.32,333.26,704.1553,332.4434,700.6458,338.7429,707.8106,339.5595,711.32,333.26" style="stroke:#181818;stroke-width:1.0;"/></g><g id="link_PartName_PriceCriteriaItem"><path d="M723.8236,342.8651 C707.0636,365.3751 690.63,395.89 704.5,429.45 C714.77,454.29 737.34,475.34 755.4,489.16 " fill="none" id="PartName-backto-PriceCriteriaItem" style="stroke:#181818;stroke-width:1.0;"/><polygon fill="#181818" points="730.99,333.24,724.1984,335.6637,723.8236,342.8651,730.6151,340.4414,730.99,333.24" style="stroke:#181818;stroke-width:1.0;"/></g><g id="link_PartStatusTypes_PartIdentifier"><path d="M445.88,333.26 C471.38,350.24 509.81,375.8 535.26,392.74 " fill="none" id="PartStatusTypes-PartIdentifier" style="stroke:#181818;stroke-width:1.0;"/></g><g id="link_PartyReference_FinancialSplit"><path d="M3365.307,523.8704 C3356.407,525.4604 3359.15,524.81 3350.5,525.93 C2916.02,582.37 2386.67,598.28 2216.21,602.11 " fill="none" id="PartyReference-backto-FinancialSplit" style="stroke:#181818;stroke-width:1.0;"/><polygon fill="#181818" points="3377.12,521.76,3370.51,518.8775,3365.307,523.8704,3371.917,526.7529,3377.12,521.76" style="stroke:#181818;stroke-width:1.0;"/></g><g id="link_PartyReference_PriceCriteria"><path d="M3365.2863,523.6718 C3356.3863,525.3018 3359.13,524.67 3350.5,525.93 C2668.88,625.63 1832.25,682.72 1616.96,696.42 " fill="none" id="PartyReference-backto-PriceCriteria" style="stroke:#181818;stroke-width:1.0;"/><polygon fill="#181818" points="3377.09,521.51,3370.4676,518.6563,3365.2863,523.6718,3371.9088,526.5255,3377.09,521.51" style="stroke:#181818;stroke-width:1.0;"/></g><g id="link_PartyRelationshipTypes_PartyReference"><path d="M3377.1158,438.4511 C3392.3558,455.3911 3407.42,472.13 3422.72,489.15 " fill="none" id="PartyRelationshipTypes-backto-PartyReference" style="stroke:#181818;stroke-width:1.0;"/><polygon fill="#181818" points="3369.09,429.53,3370.1292,436.6658,3377.1158,438.4511,3376.0766,431.3153,3369.09,429.53" style="stroke:#181818;stroke-width:1.0;"/></g><g id="link_PartyTypes_PriceCriteriaItem"><path d="M1558.4576,428.4848 C1552.5476,429.8948 1558.24,428.4 1552.5,429.45 C1294.89,476.21 983.35,496.52 848.78,503.56 " fill="none" id="PartyTypes-backto-PriceCriteriaItem" style="stroke:#181818;stroke-width:1.0;"/><polygon fill="#181818" points="1570.13,425.7,1563.3655,423.2016,1558.4576,428.4848,1565.2221,430.9832,1570.13,425.7" style="stroke:#181818;stroke-width:1.0;"/></g><g id="link_PartyTypes_PartyReference"><path d="M1664.81,426.05 C1670.73,427.4 1676.73,428.58 1682.5,429.45 C2388.93,535.01 2576.28,435.28 3288.5,489.45 C3317.77,491.67 3350.14,495.25 3377.3,498.57 " fill="none" id="PartyTypes-PartyReference" style="stroke:#181818;stroke-width:1.0;"/></g><g id="link_PayTypes_FinancialSplit"><path d="M1520.41,320.82 C1617.99,333.13 1853.83,365.46 1876.5,392.96 C1955.82,489.15 1547.93,431.64 1629.5,525.93 C1690.52,596.48 1980.99,603.92 2104.6,603.82 " fill="none" id="PayTypes-FinancialSplit" style="stroke:#181818;stroke-width:1.0;"/></g><g id="link_PayTypes_Price"><path d="M1436.77,319.75 C1354.99,328.3 1168.37,350.99 1016.5,392.96 C1010.81,394.53 1004.83,396.58 999.19,398.72 " fill="none" id="PayTypes-Price" style="stroke:#181818;stroke-width:1.0;"/></g><g id="link_PaymentTypes_PriceCriteriaItem"><path d="M781.5,441.53 C781.5,458.47 781.5,472.13 781.5,489.15 " fill="none" id="PaymentTypes-backto-PriceCriteriaItem" style="stroke:#181818;stroke-width:1.0;"/><polygon fill="#181818" points="781.5,429.53,777.5,435.53,781.5,441.53,785.5,435.53,781.5,429.53" style="stroke:#181818;stroke-width:1.0;"/></g><g id="link_PaymentTypes_RebateReference"><path d="M852.3499,428.8934 C925.4399,446.1234 1037.84,472.6 1114.7,490.71 " fill="none" id="PaymentTypes-backto-RebateReference" style="stroke:#181818;stroke-width:1.0;"/><polygon fill="#181818" points="840.67,426.14,845.5921,431.41,852.3499,428.8934,847.4277,423.6234,840.67,426.14" style="stroke:#181818;stroke-width:1.0;"/></g><g id="link_PersonName_PartyReference"><path d="M3513.63,429.53 C3497.13,446.47 3472.14,472.13 3455.58,489.15 " fill="none" id="PersonName-PartyReference" style="stroke:#181818;stroke-width:1.0;"/></g><g id="link_Price_DiscountReference"><path d="M999.2,423.65 C1004.84,425.79 1010.81,427.85 1016.5,429.45 C1142.98,464.92 1294.66,487.22 1383.14,498.28 " fill="none" id="Price-DiscountReference" style="stroke:#181818;stroke-width:1.0;"/></g><g id="link_Price_PriceCriteria"><path d="M987.82,429.87 C1009.89,454.39 1052.9,498.76 1097.5,525.93 C1236.2,610.44 1422.64,664.44 1512.2,687.22 " fill="none" id="Price-PriceCriteria" style="stroke:#181818;stroke-width:1.0;"/></g><g id="link_Price_PriceCriteriaItem"><path d="M945.54,425.54 C911.91,442.17 854.33,470.66 817.1,489.08 " fill="none" id="Price-PriceCriteriaItem" style="stroke:#181818;stroke-width:1.0;"/></g><g id="link_Price_RebateReference"><path d="M999.1,424.17 C1035.52,440.56 1101.18,470.1 1143.26,489.03 " fill="none" id="Price-RebateReference" style="stroke:#181818;stroke-width:1.0;"/></g><g id="link_PriceCriteriaItem_PriceCriteria"><path d="M808.9929,534.0627 C837.8229,559.9227 887.33,599.88 946.5,622.42 C1049.82,661.77 1382.43,687.55 1512.08,696.32 " fill="none" id="PriceCriteriaItem-backto-PriceCriteria" style="stroke:#181818;stroke-width:1.0;"/><polygon fill="#181818" points="800.06,526.05,801.8556,533.034,808.9929,534.0627,807.1974,527.0787,800.06,526.05" style="stroke:#181818;stroke-width:1.0;"/></g><g id="link_PriceTypes_Price"><path d="M1141.1571,338.0896 C1096.4371,357.2196 1037.43,382.44 999.35,398.72 " fill="none" id="PriceTypes-backto-Price" style="stroke:#181818;stroke-width:1.0;"/><polygon fill="#181818" points="1152.19,333.37,1145.1003,332.0522,1141.1571,338.0896,1148.2467,339.4074,1152.19,333.37" style="stroke:#181818;stroke-width:1.0;"/></g><g id="link_PrivacyAdapterTypes_PrivacyPolicyRule"><path d="M4045.66,140.07 C4063.41,157.01 4090.3,182.67 4108.12,199.68 " fill="none" id="PrivacyAdapterTypes-PrivacyPolicyRule" style="stroke:#181818;stroke-width:1.0;"/></g><g id="link_PrivacyPersonaTypes_PrivacyPolicyRule"><path d="M4206.53,140.07 C4188.95,157.01 4162.34,182.67 4144.69,199.68 " fill="none" id="PrivacyPersonaTypes-PrivacyPolicyRule" style="stroke:#181818;stroke-width:1.0;"/></g><g id="link_PrivacyPolicyRule_AuthorizationLevel"><path d="M4126.5,248.55 C4126.5,265.5 4126.5,279.16 4126.5,296.17 " fill="none" id="PrivacyPolicyRule-backto-AuthorizationLevel" style="stroke:#181818;stroke-width:1.0;"/><polygon fill="#181818" points="4126.5,236.55,4122.5,242.55,4126.5,248.55,4130.5,242.55,4126.5,236.55" style="stroke:#181818;stroke-width:1.0;"/></g><g id="link_PrivacyTypes_PrivacyPolicyRule"><path d="M4343.59,140.4 C4295.9,157.28 4224.38,182.59 4176.62,199.49 " fill="none" id="PrivacyTypes-PrivacyPolicyRule" style="stroke:#181818;stroke-width:1.0;"/></g><g id="link_ProductPriceItemTypes_FinancialSplit"><path d="M2920.05,523.6 C2914.45,524.42 2908.9,525.21 2903.5,525.93 C2647.38,560.25 2339.85,587.94 2216.09,598.53 " fill="none" id="ProductPriceItemTypes-FinancialSplit" style="stroke:#181818;stroke-width:1.0;"/></g><g id="link_ProductStateTypes_DiscountReference"><path d="M1460.2604,441.5192 C1459.5404,458.4592 1458.96,472.13 1458.24,489.15 " fill="none" id="ProductStateTypes-backto-DiscountReference" style="stroke:#181818;stroke-width:1.0;"/><polygon fill="#181818" points="1460.77,429.53,1456.5188,435.3547,1460.2604,441.5192,1464.5116,435.6944,1460.77,429.53" style="stroke:#181818;stroke-width:1.0;"/></g><g id="link_ProductStateTypes_RebateReference"><path d="M1409.35,429.86 C1359.51,446.74 1284.78,472.05 1234.87,488.95 " fill="none" id="ProductStateTypes-RebateReference" style="stroke:#181818;stroke-width:1.0;"/></g><g id="link_RebateReference_FinancialSplit"><path d="M1262.4344,516.4137 C1445.8944,534.1337 1936.52,581.54 2104.78,597.79 " fill="none" id="RebateReference-backto-FinancialSplit" style="stroke:#181818;stroke-width:1.0;"/><polygon fill="#181818" points="1250.49,515.26,1256.0776,519.8183,1262.4344,516.4137,1256.8468,511.8554,1250.49,515.26" style="stroke:#181818;stroke-width:1.0;"/></g><g id="link_RewardReference_FinancialSplit"><path d="M3120.1432,525.0913 C3113.9132,526.1613 3119.51,525.1 3113.5,525.93 C2774.56,572.73 2363.59,594.24 2216.33,600.85 " fill="none" id="RewardReference-backto-FinancialSplit" style="stroke:#181818;stroke-width:1.0;"/><polygon fill="#181818" points="3131.97,523.06,3125.3795,520.1333,3120.1432,525.0913,3126.7337,528.0179,3131.97,523.06" style="stroke:#181818;stroke-width:1.0;"/></g><g id="link_StaffRoleTypes_EventMessage"><path d="M119.09,333.37 C168.39,350.25 242.32,375.56 291.7,392.47 " fill="none" id="StaffRoleTypes-EventMessage" style="stroke:#181818;stroke-width:1.0;"/></g><g id="link_TaxSplit_FinancialSplit"><path d="M2659.2786,328.0227 C2801.7586,363.2827 3283.39,482.87 3288.5,489.45 C3298.44,502.25 3299.57,514.08 3288.5,525.93 C3269.97,545.77 2440.92,589.02 2216.19,600.39 " fill="none" id="TaxSplit-backto-FinancialSplit" style="stroke:#181818;stroke-width:1.0;"/><polygon fill="#181818" points="2647.63,325.14,2652.4934,330.4642,2659.2786,328.0227,2654.4152,322.6985,2647.63,325.14" style="stroke:#181818;stroke-width:1.0;"/></g><g id="link_TaxTypes_TaxSplit"><path d="M2609.5,236.55 C2609.5,253.5 2609.5,279.16 2609.5,296.17 " fill="none" id="TaxTypes-TaxSplit" style="stroke:#181818;stroke-width:1.0;"/></g><g id="link_TimeSlotStatusTypes_TimeSlot"><path d="M3377.14,140.29 C3344.01,157.21 3294.16,182.67 3260.99,199.61 " fill="none" id="TimeSlotStatusTypes-TimeSlot" style="stroke:#181818;stroke-width:1.0;"/></g><g id="link_TimeSlot_CommunicationChannel"><path d="M3278.3917,234.2722 C3324.6717,248.0422 3390.96,269.18 3455.5,296.47 C3488.18,310.29 3493.6,319.67 3526.5,332.96 C3587.52,357.6 3659.45,378.64 3711.5,392.5 " fill="none" id="TimeSlot-backto-CommunicationChannel" style="stroke:#181818;stroke-width:1.0;"/><polygon fill="#181818" points="3266.89,230.85,3271.5001,236.395,3278.3917,234.2722,3273.7816,228.7272,3266.89,230.85" style="stroke:#181818;stroke-width:1.0;"/></g><g id="link_TimeslotDirectiveTypes_TimeSlot"><path d="M3080.1277,145.5666 C3114.6877,162.4866 3155.91,182.67 3190.52,199.61 " fill="none" id="TimeslotDirectiveTypes-backto-TimeSlot" style="stroke:#181818;stroke-width:1.0;"/><polygon fill="#181818" points="3069.35,140.29,3072.98,146.5208,3080.1277,145.5666,3076.4977,139.3357,3069.35,140.29" style="stroke:#181818;stroke-width:1.0;"/></g><g id="link_UnitOfMeasureTypes_DiscountMetricValue"><path d="M1778.68,333.04 C1778.86,349.99 1779.13,375.65 1779.31,392.66 " fill="none" id="UnitOfMeasureTypes-DiscountMetricValue" style="stroke:#181818;stroke-width:1.0;"/></g></g></svg>
