<svg xmlns="http://www.w3.org/2000/svg" xmlns:xlink="http://www.w3.org/1999/xlink" contentStyleType="text/css" data-diagram-type="STATE" height="782px" preserveAspectRatio="none" style="width:1035px;height:782px;background:#FFFFFF;" version="1.1" viewBox="0 0 1035 782" width="1035px" zoomAndPan="magnify"><title>Accounting Period Status</title><defs/><g><g class="title" data-source-line="9"><text fill="#808080" font-family="Arial" font-size="24" font-weight="bold" lengthAdjust="spacing" textLength="293.3555" x="364.1451" y="32.5117">Accounting Period Status</text></g><ellipse cx="698.67" cy="64.5977" fill="#222222" rx="10" ry="10" style="stroke:#222222;stroke-width:1;"/><g id="FUTURE"><rect fill="#F1F1F1" height="50" rx="12.5" ry="12.5" style="stroke:#181818;stroke-width:0.5;" width="72.1992" x="662.57" y="135.5977"/><line style="stroke:#181818;stroke-width:0.5;" x1="662.57" x2="734.7692" y1="162.0859" y2="162.0859"/><text fill="#000000" font-family="sans-serif" font-size="14" lengthAdjust="spacing" textLength="52.1992" x="672.57" y="154.1328">FUTURE</text></g><g id="OPEN"><rect fill="#F1F1F1" height="50" rx="12.5" ry="12.5" style="stroke:#181818;stroke-width:0.5;" width="56.5449" x="670.39" y="262.5977"/><line style="stroke:#181818;stroke-width:0.5;" x1="670.39" x2="726.9349" y1="289.0859" y2="289.0859"/><text fill="#000000" font-family="sans-serif" font-size="14" lengthAdjust="spacing" textLength="36.5449" x="680.39" y="281.1328">OPEN</text></g><g id="PENDING_CLOSURE"><rect fill="#F1F1F1" height="50" rx="12.5" ry="12.5" style="stroke:#181818;stroke-width:0.5;" width="149.3564" x="267.99" y="389.5977"/><line style="stroke:#181818;stroke-width:0.5;" x1="267.99" x2="417.3464" y1="416.0859" y2="416.0859"/><text fill="#000000" font-family="sans-serif" font-size="14" lengthAdjust="spacing" textLength="129.3564" x="277.99" y="408.1328">PENDING_CLOSURE</text></g><g id="ADJUSTMENT"><rect fill="#F1F1F1" height="50" rx="12.5" ry="12.5" style="stroke:#181818;stroke-width:0.5;" width="109.4346" x="566.95" y="516.5977"/><line style="stroke:#181818;stroke-width:0.5;" x1="566.95" x2="676.3846" y1="543.0859" y2="543.0859"/><text fill="#000000" font-family="sans-serif" font-size="14" lengthAdjust="spacing" textLength="89.4346" x="576.95" y="535.1328">ADJUSTMENT</text></g><g id="CLOSED"><rect fill="#F1F1F1" height="50" rx="12.5" ry="12.5" style="stroke:#181818;stroke-width:0.5;" width="73.6416" x="74.85" y="516.5977"/><line style="stroke:#181818;stroke-width:0.5;" x1="74.85" x2="148.4916" y1="543.0859" y2="543.0859"/><text fill="#000000" font-family="sans-serif" font-size="14" lengthAdjust="spacing" textLength="53.6416" x="84.85" y="535.1328">CLOSED</text></g><g id="LOCKED"><rect fill="#F1F1F1" height="50" rx="12.5" ry="12.5" style="stroke:#181818;stroke-width:0.5;" width="75.2412" x="74.05" y="643.5977"/><line style="stroke:#181818;stroke-width:0.5;" x1="74.05" x2="149.2912" y1="670.0859" y2="670.0859"/><text fill="#000000" font-family="sans-serif" font-size="14" lengthAdjust="spacing" textLength="55.2412" x="84.05" y="662.1328">LOCKED</text></g><ellipse cx="164.67" cy="765.5977" fill="none" rx="11" ry="11" style="stroke:#222222;stroke-width:1;"/><ellipse cx="164.67" cy="765.5977" fill="#222222" rx="6" ry="6" style="stroke:#222222;stroke-width:1;"/><g id="OTHER"><rect fill="#F1F1F1" height="50" rx="12.5" ry="12.5" style="stroke:#181818;stroke-width:0.5;" width="66.457" x="184.44" y="643.5977"/><line style="stroke:#181818;stroke-width:0.5;" x1="184.44" x2="250.897" y1="670.0859" y2="670.0859"/><text fill="#000000" font-family="sans-serif" font-size="14" lengthAdjust="spacing" textLength="46.457" x="194.44" y="662.1328">OTHER</text></g><!--link *start* to FUTURE--><g class="link" data-entity-1=".start." data-entity-2="FUTURE" data-source-line="10" data-uid="lnk4" id="link_.start._FUTURE"><path d="M698.67,74.9577 C698.67,88.8877 698.67,109.5477 698.67,129.2477" fill="none" id="*start*-to-FUTURE" style="stroke:#181818;stroke-width:1;"/><polygon fill="#181818" points="698.67,135.2477,702.67,126.2477,698.67,130.2477,694.67,126.2477,698.67,135.2477" style="stroke:#181818;stroke-width:1;"/></g><!--link FUTURE to OPEN--><g class="link" data-entity-1="FUTURE" data-entity-2="OPEN" data-source-line="11" data-uid="lnk6" id="link_FUTURE_OPEN"><path d="M698.67,185.9977 C698.67,208.0177 698.67,234.2577 698.67,256.2577" fill="none" id="FUTURE-to-OPEN" style="stroke:#181818;stroke-width:1;"/><polygon fill="#181818" points="698.67,262.2577,702.67,253.2577,698.67,257.2577,694.67,253.2577,698.67,262.2577" style="stroke:#181818;stroke-width:1;"/><text fill="#000000" font-family="sans-serif" font-size="13" lengthAdjust="spacing" textLength="94.0469" x="699.67" y="229.166">Activate Period</text></g><!--link OPEN to PENDING_CLOSURE--><g class="link" data-entity-1="OPEN" data-entity-2="PENDING_CLOSURE" data-source-line="12" data-uid="lnk8" id="link_OPEN_PENDING_CLOSURE"><path d="M670.14,298.6177 C614.61,318.1077 496.2812,359.6601 417.8112,387.2101" fill="none" id="OPEN-to-PENDING_CLOSURE" style="stroke:#181818;stroke-width:1;"/><polygon fill="#181818" points="412.15,389.1977,421.9669,389.9904,416.8677,387.5413,419.3168,382.4421,412.15,389.1977" style="stroke:#181818;stroke-width:1;"/><text fill="#000000" font-family="sans-serif" font-size="13" lengthAdjust="spacing" textLength="63.3496" x="542.98" y="356.166">Soft Close</text></g><!--link OPEN to ADJUSTMENT--><g class="link" data-entity-1="OPEN" data-entity-2="ADJUSTMENT" data-source-line="13" data-uid="lnk10" id="link_OPEN_ADJUSTMENT"><path d="M700.58,312.8377 C702.6,351.5977 702.36,429.0277 674.67,486.5977 C669.37,497.6077 665.2147,503.5475 656.6047,511.9875" fill="none" id="OPEN-to-ADJUSTMENT" style="stroke:#181818;stroke-width:1;"/><polygon fill="#181818" points="652.32,516.1877,661.5472,512.7439,655.8906,512.6875,655.947,507.031,652.32,516.1877" style="stroke:#181818;stroke-width:1;"/><text fill="#000000" font-family="sans-serif" font-size="13" lengthAdjust="spacing" textLength="148.2241" x="699.93" y="419.666">Restrict to Adjustments</text></g><!--link ADJUSTMENT to OPEN--><g class="link" data-entity-1="ADJUSTMENT" data-entity-2="OPEN" data-source-line="15" data-uid="lnk12" id="link_ADJUSTMENT_OPEN"><path d="M676.67,534.1777 C732.73,524.3877 816.91,499.9577 856.67,439.5977 C897.57,377.4877 788.7814,324.2195 732.9414,301.6095" fill="none" id="ADJUSTMENT-to-OPEN" style="stroke:#181818;stroke-width:1;"/><polygon fill="#181818" points="727.38,299.3577,734.2209,306.443,732.0145,301.2342,737.2233,299.0278,727.38,299.3577" style="stroke:#181818;stroke-width:1;"/><text fill="#000000" font-family="sans-serif" font-size="13" lengthAdjust="spacing" textLength="161.3257" x="866.32" y="419.666">Re-open for Transactions</text></g><!--link ADJUSTMENT to PENDING_CLOSURE--><g class="link" data-entity-1="ADJUSTMENT" data-entity-2="PENDING_CLOSURE" data-source-line="14" data-uid="lnk11" id="link_ADJUSTMENT_PENDING_CLOSURE"><path d="M586.54,516.1677 C564.12,501.3277 534.04,482.7677 505.67,469.5977 C477.68,456.6077 451.4034,447.0985 423.2134,438.2285" fill="none" id="ADJUSTMENT-to-PENDING_CLOSURE" style="stroke:#181818;stroke-width:1;"/><polygon fill="#181818" points="417.49,436.4277,424.8745,442.9445,422.2595,437.9284,427.2756,435.3134,417.49,436.4277" style="stroke:#181818;stroke-width:1;"/><text fill="#000000" font-family="sans-serif" font-size="13" lengthAdjust="spacing" textLength="129.4287" x="536.5" y="483.166">Initiate Final Closure</text></g><!--link PENDING_CLOSURE to ADJUSTMENT--><g class="link" data-entity-1="PENDING_CLOSURE" data-entity-2="ADJUSTMENT" data-source-line="17" data-uid="lnk15" id="link_PENDING_CLOSURE_ADJUSTMENT"><path d="M332.2,439.8977 C327.49,454.9677 325.07,473.8177 335.67,486.5977 C364.41,521.2677 485.7906,533.4818 560.5106,537.9218" fill="none" id="PENDING_CLOSURE-to-ADJUSTMENT" style="stroke:#181818;stroke-width:1;"/><polygon fill="#181818" points="566.5,538.2777,557.7531,533.7508,561.5088,537.9811,557.2786,541.7368,566.5,538.2777" style="stroke:#181818;stroke-width:1;"/><text fill="#000000" font-family="sans-serif" font-size="13" lengthAdjust="spacing" textLength="160.3735" x="336.67" y="483.166">Re-open for Adjustments</text></g><!--link PENDING_CLOSURE to CLOSED--><g class="link" data-entity-1="PENDING_CLOSURE" data-entity-2="CLOSED" data-source-line="16" data-uid="lnk14" id="link_PENDING_CLOSURE_CLOSED"><path d="M267.51,417.6177 C183.74,421.6377 56,433.6577 25.67,469.5977 C6,492.8977 37.5407,512.1021 68.9907,525.1921" fill="none" id="PENDING_CLOSURE-to-CLOSED" style="stroke:#181818;stroke-width:1;"/><polygon fill="#181818" points="74.53,527.4977,67.758,520.3464,69.9139,525.5764,64.6839,527.7322,74.53,527.4977" style="stroke:#181818;stroke-width:1;"/><text fill="#000000" font-family="sans-serif" font-size="13" lengthAdjust="spacing" textLength="124.1094" x="26.67" y="483.166">Confirm Hard Close</text></g><!--link CLOSED to PENDING_CLOSURE--><g class="link" data-entity-1="CLOSED" data-entity-2="PENDING_CLOSURE" data-source-line="19" data-uid="lnk18" id="link_CLOSED_PENDING_CLOSURE"><path d="M134.27,516.2277 C149.34,501.1377 170.26,482.2777 191.67,469.5977 C215.02,455.7677 236.8066,446.5609 261.8666,438.0809" fill="none" id="CLOSED-to-PENDING_CLOSURE" style="stroke:#181818;stroke-width:1;"/><polygon fill="#181818" points="267.55,436.1577,257.7427,435.2535,262.8138,437.7603,260.307,442.8314,267.55,436.1577" style="stroke:#181818;stroke-width:1;"/><text fill="#000000" font-family="sans-serif" font-size="13" lengthAdjust="spacing" textLength="106.3105" x="192.67" y="483.166">Undo Hard Close</text></g><!--link CLOSED to LOCKED--><g class="link" data-entity-1="CLOSED" data-entity-2="LOCKED" data-source-line="18" data-uid="lnk17" id="link_CLOSED_LOCKED"><path d="M111.67,566.9977 C111.67,589.0177 111.67,615.2577 111.67,637.2577" fill="none" id="CLOSED-to-LOCKED" style="stroke:#181818;stroke-width:1;"/><polygon fill="#181818" points="111.67,643.2577,115.67,634.2577,111.67,638.2577,107.67,634.2577,111.67,643.2577" style="stroke:#181818;stroke-width:1;"/><text fill="#000000" font-family="sans-serif" font-size="13" lengthAdjust="spacing" textLength="151.0742" x="112.67" y="610.166">Final Lock for Reporting</text></g><!--link LOCKED to *end*--><g class="link" data-entity-1="LOCKED" data-entity-2=".end." data-source-line="20" data-uid="lnk20" id="link_LOCKED_.end."><path d="M125.32,694.0577 C136.48,714.0777 148.7379,736.0373 156.5779,750.0973" fill="none" id="LOCKED-to-*end*" style="stroke:#181818;stroke-width:1;"/><polygon fill="#181818" points="159.5,755.3377,158.6105,745.5291,157.0649,750.9707,151.6233,749.4252,159.5,755.3377" style="stroke:#181818;stroke-width:1;"/></g><!--link OTHER to *end*--><g class="link" data-entity-1="OTHER" data-entity-2=".end." data-source-line="21" data-uid="lnk22" id="link_OTHER_.end."><path d="M204.02,694.0577 C192.85,714.0777 180.5921,736.0373 172.7521,750.0973" fill="none" id="OTHER-to-*end*" style="stroke:#181818;stroke-width:1;"/><polygon fill="#181818" points="169.83,755.3377,177.7067,749.4252,172.2651,750.9707,170.7195,745.5291,169.83,755.3377" style="stroke:#181818;stroke-width:1;"/></g><!--SRC=[RP5DIyGm48Rl-HK3teG54G-oo4BjTZ-qjai_JY8IsjarjasMPEf1yR-RjDKjQyaXoUHvP-QTc4h88zUy0KES4BuOm3qlgeDMhInzLIjzTvUXReJazM81eJYyqKx8QehRIa7YXAqrecJVZ9c_8fcW6bTAKgU0YzihjwQ0L7mYNDzCFKMyGV2qhSJ8nS0h2ji52Nc07MgXIaYjcTQmvyiNcCqMiCgpF0bOltMHU1T4CBTA4X_ETwzZNTYzstsvZTQlVXYdJZE7LEq9_5ePF57UyY5FiwSWoYoGe24j2W9Iu9NlhQ469HasWgOpzsEpJQpSaBiQhSPptT1nWZDrH0bxExvCSscujQ2aOUTvdSQTWwLL-KhkXMvWmtKvc9ZYp_oSAetz34aT7yR-OvU_xpnKHTNX2HwLTlynXlyRpsMfnYqDwHniVux5sIP8Vcy_]--></g></svg>