<?xml version="1.0" encoding="us-ascii" standalone="no"?><svg xmlns="http://www.w3.org/2000/svg" xmlns:xlink="http://www.w3.org/1999/xlink" contentStyleType="text/css" height="242px" preserveAspectRatio="none" style="width:1119px;height:242px;background:#FFFFFF;" version="1.1" viewBox="0 0 1119 242" width="1119px" zoomAndPan="magnify"><defs/><g><g id="elem_CreditAuthorization"><rect fill="#F1F1F1" height="36.4883" rx="2.5" ry="2.5" style="stroke:#181818;stroke-width:0.5;" width="157" x="347" y="199.97"/><text fill="#000000" font-family="sans-serif" font-size="14" lengthAdjust="spacing" textLength="137" x="357" y="223.5052">CreditAuthorization</text></g><g id="elem_Money"><rect fill="#F1F1F1" height="36.4883" rx="2.5" ry="2.5" style="stroke:#181818;stroke-width:0.5;" width="65" x="42" y="103.48"/><text fill="#000000" font-family="sans-serif" font-size="14" lengthAdjust="spacing" textLength="45" x="52" y="127.0152">Money</text></g><g id="elem_PartyReference"><rect fill="#F1F1F1" height="36.4883" rx="2.5" ry="2.5" style="stroke:#181818;stroke-width:0.5;" width="122" x="141.5" y="103.48"/><text fill="#000000" font-family="sans-serif" font-size="14" lengthAdjust="spacing" textLength="102" x="151.5" y="127.0152">PartyReference</text></g><g id="elem_Price"><rect fill="#F1F1F1" height="36.4883" rx="2.5" ry="2.5" style="stroke:#181818;stroke-width:0.5;" width="53" x="298" y="103.48"/><text fill="#000000" font-family="sans-serif" font-size="14" lengthAdjust="spacing" textLength="33" x="308" y="127.0152">Price</text></g><g id="elem_Program"><rect fill="#F1F1F1" height="36.4883" rx="2.5" ry="2.5" style="stroke:#181818;stroke-width:0.5;" width="79" x="386" y="103.48"/><text fill="#000000" font-family="sans-serif" font-size="14" lengthAdjust="spacing" textLength="59" x="396" y="127.0152">Program</text></g><g id="elem_CreditAuthorizationStatusTypes"><rect fill="#FAFF91" height="36.4883" rx="2.5" ry="2.5" style="stroke:#181818;stroke-width:0.5;" width="239" x="500" y="103.48"/><text fill="#000000" font-family="sans-serif" font-size="14" lengthAdjust="spacing" textLength="219" x="510" y="127.0152">CreditAuthorizationStatusTypes</text></g><g id="elem_CreditAuthorizationTypes"><rect fill="#FAFF91" height="36.4883" rx="2.5" ry="2.5" style="stroke:#181818;stroke-width:0.5;" width="197" x="774" y="103.48"/><text fill="#000000" font-family="sans-serif" font-size="14" lengthAdjust="spacing" textLength="177" x="784" y="127.0152">CreditAuthorizationTypes</text></g><g id="elem_InvoiceTypes"><rect fill="#FAFF91" height="36.4883" rx="2.5" ry="2.5" style="stroke:#181818;stroke-width:0.5;" width="108" x="1005.5" y="103.48"/><text fill="#000000" font-family="sans-serif" font-size="14" lengthAdjust="spacing" textLength="88" x="1015.5" y="127.0152">InvoiceTypes</text></g><g id="elem_PartyRelationshipTypes"><rect fill="#FAFF91" height="36.4883" rx="2.5" ry="2.5" style="stroke:#181818;stroke-width:0.5;" width="179" x="7" y="7"/><text fill="#000000" font-family="sans-serif" font-size="14" lengthAdjust="spacing" textLength="159" x="17" y="30.5352">PartyRelationshipTypes</text></g><g id="elem_PayTypes"><rect fill="#FAFF91" height="36.4883" rx="2.5" ry="2.5" style="stroke:#181818;stroke-width:0.5;" width="83" x="221" y="7"/><text fill="#000000" font-family="sans-serif" font-size="14" lengthAdjust="spacing" textLength="63" x="231" y="30.5352">PayTypes</text></g><g id="elem_PriceTypes"><rect fill="#FAFF91" height="36.4883" rx="2.5" ry="2.5" style="stroke:#181818;stroke-width:0.5;" width="93" x="339" y="7"/><text fill="#000000" font-family="sans-serif" font-size="14" lengthAdjust="spacing" textLength="73" x="349" y="30.5352">PriceTypes</text></g><g id="elem_ProgramTypes"><rect fill="#FAFF91" height="36.4883" rx="2.5" ry="2.5" style="stroke:#181818;stroke-width:0.5;" width="119" x="467" y="7"/><text fill="#000000" font-family="sans-serif" font-size="14" lengthAdjust="spacing" textLength="99" x="477" y="30.5352">ProgramTypes</text></g><g id="link_CreditAuthorizationStatusTypes_CreditAuthorization"><path d="M583.46,140.28 C548.73,157.2 496.45,182.66 461.67,199.6 " fill="none" id="CreditAuthorizationStatusTypes-CreditAuthorization" style="stroke:#181818;stroke-width:1.0;"/></g><g id="link_CreditAuthorizationTypes_CreditAuthorization"><path d="M788.69,140.44 C707.16,157.68 584.24,183.66 504.42,200.53 " fill="none" id="CreditAuthorizationTypes-CreditAuthorization" style="stroke:#181818;stroke-width:1.0;"/></g><g id="link_InvoiceTypes_CreditAuthorization"><path d="M1005.35,136.48 C999.68,137.74 993.98,138.93 988.5,139.97 C816.93,172.49 613.47,196.97 504.24,208.98 " fill="none" id="InvoiceTypes-CreditAuthorization" style="stroke:#181818;stroke-width:1.0;"/></g><g id="link_Money_CreditAuthorization"><path d="M107.46,134.52 C113.12,136.42 118.96,138.31 124.5,139.97 C200.46,162.78 288.43,184.86 349.57,199.53 " fill="none" id="Money-CreditAuthorization" style="stroke:#181818;stroke-width:1.0;"/></g><g id="link_PartyReference_CreditAuthorization"><path d="M255.2292,145.0715 C295.0692,161.9515 343.75,182.58 383.64,199.48 " fill="none" id="PartyReference-backto-CreditAuthorization" style="stroke:#181818;stroke-width:1.0;"/><polygon fill="#181818" points="244.18,140.39,248.1441,146.4138,255.2292,145.0715,251.2651,139.0477,244.18,140.39" style="stroke:#181818;stroke-width:1.0;"/></g><g id="link_PartyRelationshipTypes_PartyReference"><path d="M124.899,51.5535 C143.909,68.4935 163.74,86.17 182.82,103.19 " fill="none" id="PartyRelationshipTypes-backto-PartyReference" style="stroke:#181818;stroke-width:1.0;"/><polygon fill="#181818" points="115.94,43.57,117.7584,50.5481,124.899,51.5535,123.0807,44.5754,115.94,43.57" style="stroke:#181818;stroke-width:1.0;"/></g><g id="link_PayTypes_Price"><path d="M273.87,43.57 C284.99,60.51 301.83,86.17 312.99,103.19 " fill="none" id="PayTypes-Price" style="stroke:#181818;stroke-width:1.0;"/></g><g id="link_Price_CreditAuthorization"><path d="M343.02,140.06 C361.13,157 388.56,182.66 406.75,199.68 " fill="none" id="Price-CreditAuthorization" style="stroke:#181818;stroke-width:1.0;"/></g><g id="link_PriceTypes_Price"><path d="M367.7999,53.6506 C356.8599,70.5906 346.81,86.17 335.82,103.19 " fill="none" id="PriceTypes-backto-Price" style="stroke:#181818;stroke-width:1.0;"/><polygon fill="#181818" points="374.31,43.57,367.6947,46.4402,367.7999,53.6506,374.4151,50.7803,374.31,43.57" style="stroke:#181818;stroke-width:1.0;"/></g><g id="link_Program_CreditAuthorization"><path d="M425.5,140.06 C425.5,157 425.5,182.66 425.5,199.68 " fill="none" id="Program-CreditAuthorization" style="stroke:#181818;stroke-width:1.0;"/></g><g id="link_ProgramTypes_Program"><path d="M507.98,43.57 C489.87,60.51 462.44,86.17 444.25,103.19 " fill="none" id="ProgramTypes-Program" style="stroke:#181818;stroke-width:1.0;"/></g></g></svg>
