<svg xmlns="http://www.w3.org/2000/svg" xmlns:xlink="http://www.w3.org/1999/xlink" contentStyleType="text/css" data-diagram-type="STATE" height="800px" preserveAspectRatio="none" style="width:885px;height:800px;background:#FFFFFF;" version="1.1" viewBox="0 0 885 800" width="885px" zoomAndPan="magnify"><defs/><g><ellipse cx="276" cy="16" fill="#222222" rx="10" ry="10" style="stroke:#222222;stroke-width:1;"/><g id="VALIDATION"><rect fill="#F1F1F1" height="50" rx="12.5" ry="12.5" style="stroke:#181818;stroke-width:0.5;" width="104.5605" x="223.72" y="87"/><line style="stroke:#181818;stroke-width:0.5;" x1="223.72" x2="328.2805" y1="113.4883" y2="113.4883"/><text fill="#000000" font-family="sans-serif" font-size="14" lengthAdjust="spacing" textLength="84.5605" x="233.72" y="105.5352">VALIDATION</text></g><g id="FUND_VERIFICATION"><rect fill="#F1F1F1" height="50" rx="12.5" ry="12.5" style="stroke:#181818;stroke-width:0.5;" width="159.6514" x="318.17" y="214"/><line style="stroke:#181818;stroke-width:0.5;" x1="318.17" x2="477.8214" y1="240.4883" y2="240.4883"/><text fill="#000000" font-family="sans-serif" font-size="14" lengthAdjust="spacing" textLength="139.6514" x="328.17" y="232.5352">FUND_VERIFICATION</text></g><g id="FAILED_TECHNICAL"><rect fill="#F1F1F1" height="50" rx="12.5" ry="12.5" style="stroke:#181818;stroke-width:0.5;" width="151.3389" x="42.33" y="294"/><line style="stroke:#181818;stroke-width:0.5;" x1="42.33" x2="193.6689" y1="320.4883" y2="320.4883"/><text fill="#000000" font-family="sans-serif" font-size="14" lengthAdjust="spacing" textLength="131.3389" x="52.33" y="312.5352">FAILED_TECHNICAL</text></g><g id="PENDING_EXTERNAL"><rect fill="#F1F1F1" height="50" rx="12.5" ry="12.5" style="stroke:#181818;stroke-width:0.5;" width="156.7598" x="319.62" y="374"/><line style="stroke:#181818;stroke-width:0.5;" x1="319.62" x2="476.3798" y1="400.4883" y2="400.4883"/><text fill="#000000" font-family="sans-serif" font-size="14" lengthAdjust="spacing" textLength="136.7598" x="329.62" y="392.5352">PENDING_EXTERNAL</text></g><g id="DECLINED"><rect fill="#F1F1F1" height="50" rx="12.5" ry="12.5" style="stroke:#181818;stroke-width:0.5;" width="87.6758" x="715.16" y="501"/><line style="stroke:#181818;stroke-width:0.5;" x1="715.16" x2="802.8358" y1="527.4883" y2="527.4883"/><text fill="#000000" font-family="sans-serif" font-size="14" lengthAdjust="spacing" textLength="67.6758" x="725.16" y="519.5352">DECLINED</text></g><g id="AUTHORIZED"><rect fill="#F1F1F1" height="50" rx="12.5" ry="12.5" style="stroke:#181818;stroke-width:0.5;" width="108.7988" x="267.6" y="501"/><line style="stroke:#181818;stroke-width:0.5;" x1="267.6" x2="376.3988" y1="527.4883" y2="527.4883"/><text fill="#000000" font-family="sans-serif" font-size="14" lengthAdjust="spacing" textLength="88.7988" x="277.6" y="519.5352">AUTHORIZED</text></g><g id="PARTIALLY_AUTHORIZED"><rect fill="#F1F1F1" height="50" rx="12.5" ry="12.5" style="stroke:#181818;stroke-width:0.5;" width="188.2461" x="434.88" y="501"/><line style="stroke:#181818;stroke-width:0.5;" x1="434.88" x2="623.1261" y1="527.4883" y2="527.4883"/><text fill="#000000" font-family="sans-serif" font-size="14" lengthAdjust="spacing" textLength="168.2461" x="444.88" y="519.5352">PARTIALLY_AUTHORIZED</text></g><g id="FRAUD_REJECTED"><rect fill="#F1F1F1" height="50" rx="12.5" ry="12.5" style="stroke:#181818;stroke-width:0.5;" width="138.2002" x="28.9" y="581"/><line style="stroke:#181818;stroke-width:0.5;" x1="28.9" x2="167.1002" y1="607.4883" y2="607.4883"/><text fill="#000000" font-family="sans-serif" font-size="14" lengthAdjust="spacing" textLength="118.2002" x="38.9" y="599.5352">FRAUD_REJECTED</text></g><g id="CAPTURED"><rect fill="#F1F1F1" height="50" rx="12.5" ry="12.5" style="stroke:#181818;stroke-width:0.5;" width="92.5635" x="407.72" y="661"/><line style="stroke:#181818;stroke-width:0.5;" x1="407.72" x2="500.2835" y1="687.4883" y2="687.4883"/><text fill="#000000" font-family="sans-serif" font-size="14" lengthAdjust="spacing" textLength="72.5635" x="417.72" y="679.5352">CAPTURED</text></g><g id="VOIDED"><rect fill="#F1F1F1" height="50" rx="12.5" ry="12.5" style="stroke:#181818;stroke-width:0.5;" width="72.623" x="299.69" y="661"/><line style="stroke:#181818;stroke-width:0.5;" x1="299.69" x2="372.313" y1="687.4883" y2="687.4883"/><text fill="#000000" font-family="sans-serif" font-size="14" lengthAdjust="spacing" textLength="52.623" x="309.69" y="679.5352">VOIDED</text></g><g id="EXPIRED"><rect fill="#F1F1F1" height="50" rx="12.5" ry="12.5" style="stroke:#181818;stroke-width:0.5;" width="75.0498" x="179.48" y="661"/><line style="stroke:#181818;stroke-width:0.5;" x1="179.48" x2="254.5298" y1="687.4883" y2="687.4883"/><text fill="#000000" font-family="sans-serif" font-size="14" lengthAdjust="spacing" textLength="55.0498" x="189.48" y="679.5352">EXPIRED</text></g><ellipse cx="336" cy="783" fill="none" rx="11" ry="11" style="stroke:#222222;stroke-width:1;"/><ellipse cx="336" cy="783" fill="#222222" rx="6" ry="6" style="stroke:#222222;stroke-width:1;"/><g id="OTHER"><rect fill="#F1F1F1" height="50" rx="12.5" ry="12.5" style="stroke:#181818;stroke-width:0.5;" width="66.457" x="811.77" y="661"/><line style="stroke:#181818;stroke-width:0.5;" x1="811.77" x2="878.227" y1="687.4883" y2="687.4883"/><text fill="#000000" font-family="sans-serif" font-size="14" lengthAdjust="spacing" textLength="46.457" x="821.77" y="679.5352">OTHER</text></g><!--link *start* to VALIDATION--><g class="link" data-entity-1=".start." data-entity-2="VALIDATION" data-source-line="6" data-uid="lnk4" id="link_.start._VALIDATION"><path d="M276,26.36 C276,40.29 276,60.95 276,80.65" fill="none" id="*start*-to-VALIDATION" style="stroke:#181818;stroke-width:1;"/><polygon fill="#181818" points="276,86.65,280,77.65,276,81.65,272,77.65,276,86.65" style="stroke:#181818;stroke-width:1;"/></g><!--link VALIDATION to FUND_VERIFICATION--><g class="link" data-entity-1="VALIDATION" data-entity-2="FUND_VERIFICATION" data-source-line="7" data-uid="lnk6" id="link_VALIDATION_FUND_VERIFICATION"><path d="M299.81,137.4 C321.31,159.42 348.5784,187.3669 370.0584,209.3669" fill="none" id="VALIDATION-to-FUND_VERIFICATION" style="stroke:#181818;stroke-width:1;"/><polygon fill="#181818" points="374.25,213.66,370.8246,204.426,370.757,210.0824,365.1005,210.0148,374.25,213.66" style="stroke:#181818;stroke-width:1;"/><text fill="#000000" font-family="sans-serif" font-size="13" lengthAdjust="spacing" textLength="109.8335" x="345.3" y="180.5684">Request Received</text></g><!--link VALIDATION to FAILED_TECHNICAL--><g class="link" data-entity-1="VALIDATION" data-entity-2="FAILED_TECHNICAL" data-source-line="8" data-uid="lnk8" id="link_VALIDATION_FAILED_TECHNICAL"><path d="M257.25,137.32 C226.85,176.78 170.7727,249.5277 140.3827,288.9577" fill="none" id="VALIDATION-to-FAILED_TECHNICAL" style="stroke:#181818;stroke-width:1;"/><polygon fill="#181818" points="136.72,293.71,145.3823,289.0234,139.7723,289.7498,139.0459,284.1397,136.72,293.71" style="stroke:#181818;stroke-width:1;"/><text fill="#000000" font-family="sans-serif" font-size="13" lengthAdjust="spacing" textLength="79.7646" x="234.02" y="180.5684">System Error</text></g><!--link FUND_VERIFICATION to PENDING_EXTERNAL--><g class="link" data-entity-1="FUND_VERIFICATION" data-entity-2="PENDING_EXTERNAL" data-source-line="9" data-uid="lnk10" id="link_FUND_VERIFICATION_PENDING_EXTERNAL"><path d="M398,264.34 C398,294.03 398,337.93 398,367.63" fill="none" id="FUND_VERIFICATION-to-PENDING_EXTERNAL" style="stroke:#181818;stroke-width:1;"/><polygon fill="#181818" points="398,373.63,402,364.63,398,368.63,394,364.63,398,373.63" style="stroke:#181818;stroke-width:1;"/><text fill="#000000" font-family="sans-serif" font-size="13" lengthAdjust="spacing" textLength="98.7822" x="399" y="324.0684">Funds Available</text></g><!--link FUND_VERIFICATION to DECLINED--><g class="link" data-entity-1="FUND_VERIFICATION" data-entity-2="DECLINED" data-source-line="10" data-uid="lnk12" id="link_FUND_VERIFICATION_DECLINED"><path d="M472.35,264.5 C553.29,295.27 679.85,356.23 745,454 C754.13,467.7 757.0916,479.9899 758.2816,494.5599" fill="none" id="FUND_VERIFICATION-to-DECLINED" style="stroke:#181818;stroke-width:1;"/><polygon fill="#181818" points="758.77,500.54,762.0241,491.2443,758.363,495.5566,754.0506,491.8955,758.77,500.54" style="stroke:#181818;stroke-width:1;"/><text fill="#000000" font-family="sans-serif" font-size="13" lengthAdjust="spacing" textLength="112.4424" x="720.09" y="404.0684">Insufficient Funds</text></g><!--link PENDING_EXTERNAL to AUTHORIZED--><g class="link" data-entity-1="PENDING_EXTERNAL" data-entity-2="AUTHORIZED" data-source-line="11" data-uid="lnk14" id="link_PENDING_EXTERNAL_AUTHORIZED"><path d="M341.18,424.27 C329.51,432 318.74,441.81 312,454 C304.17,468.16 305.0552,480.531 309.6152,494.901" fill="none" id="PENDING_EXTERNAL-to-AUTHORIZED" style="stroke:#181818;stroke-width:1;"/><polygon fill="#181818" points="311.43,500.62,312.5205,490.8317,309.9177,495.8542,304.8952,493.2514,311.43,500.62" style="stroke:#181818;stroke-width:1;"/><text fill="#000000" font-family="sans-serif" font-size="13" lengthAdjust="spacing" textLength="125.855" x="313" y="467.5684">Processor Approved</text></g><!--link PENDING_EXTERNAL to PARTIALLY_AUTHORIZED--><g class="link" data-entity-1="PENDING_EXTERNAL" data-entity-2="PARTIALLY_AUTHORIZED" data-source-line="12" data-uid="lnk16" id="link_PENDING_EXTERNAL_PARTIALLY_AUTHORIZED"><path d="M423.57,424.4 C446.65,446.42 476.0879,474.5192 499.1579,496.5192" fill="none" id="PENDING_EXTERNAL-to-PARTIALLY_AUTHORIZED" style="stroke:#181818;stroke-width:1;"/><polygon fill="#181818" points="503.5,500.66,499.7473,491.5541,499.8815,497.2094,494.2263,497.3436,503.5,500.66" style="stroke:#181818;stroke-width:1;"/><text fill="#000000" font-family="sans-serif" font-size="13" lengthAdjust="spacing" textLength="99.6582" x="472.34" y="467.5684">Partial Approval</text></g><!--link PENDING_EXTERNAL to DECLINED--><g class="link" data-entity-1="PENDING_EXTERNAL" data-entity-2="DECLINED" data-source-line="13" data-uid="lnk17" id="link_PENDING_EXTERNAL_DECLINED"><path d="M476.57,421.2 C508.88,430.46 546.5,441.96 580,454 C598.18,460.54 602.11,463.72 620,471 C651.54,483.82 681.7471,495.5734 709.1271,506.0634" fill="none" id="PENDING_EXTERNAL-to-DECLINED" style="stroke:#181818;stroke-width:1;"/><polygon fill="#181818" points="714.73,508.21,707.7568,501.2548,710.0609,506.4212,704.8946,508.7253,714.73,508.21" style="stroke:#181818;stroke-width:1;"/><text fill="#000000" font-family="sans-serif" font-size="13" lengthAdjust="spacing" textLength="119.7104" x="621" y="467.5684">Processor Declined</text></g><!--link PENDING_EXTERNAL to FRAUD_REJECTED--><g class="link" data-entity-1="PENDING_EXTERNAL" data-entity-2="FRAUD_REJECTED" data-source-line="14" data-uid="lnk19" id="link_PENDING_EXTERNAL_FRAUD_REJECTED"><path d="M319.42,410.27 C283.06,417.91 240.77,431.14 208,454 C160.65,487.03 128.6369,541.7602 111.9069,575.3202" fill="none" id="PENDING_EXTERNAL-to-FRAUD_REJECTED" style="stroke:#181818;stroke-width:1;"/><polygon fill="#181818" points="109.23,580.69,116.8252,574.4199,111.4607,576.2152,109.6655,570.8508,109.23,580.69" style="stroke:#181818;stroke-width:1;"/><text fill="#000000" font-family="sans-serif" font-size="13" lengthAdjust="spacing" textLength="89.375" x="209" y="467.5684">Fraud Flagged</text></g><!--link AUTHORIZED to CAPTURED--><g class="link" data-entity-1="AUTHORIZED" data-entity-2="CAPTURED" data-source-line="15" data-uid="lnk21" id="link_AUTHORIZED_CAPTURED"><path d="M376.67,551.03 C390.25,559.01 403.82,569 414,581 C433.65,604.16 442.8873,632.1845 448.1473,654.9145" fill="none" id="AUTHORIZED-to-CAPTURED" style="stroke:#181818;stroke-width:1;"/><polygon fill="#181818" points="449.5,660.76,451.3679,651.0899,448.3727,655.8887,443.5739,652.8935,449.5,660.76" style="stroke:#181818;stroke-width:1;"/><text fill="#000000" font-family="sans-serif" font-size="13" lengthAdjust="spacing" textLength="34.9692" x="440.99" y="611.0684">Settle</text></g><!--link AUTHORIZED to VOIDED--><g class="link" data-entity-1="AUTHORIZED" data-entity-2="VOIDED" data-source-line="16" data-uid="lnk23" id="link_AUTHORIZED_VOIDED"><path d="M324.16,551.34 C326.79,581.03 330.6808,624.9534 333.3108,654.6534" fill="none" id="AUTHORIZED-to-VOIDED" style="stroke:#181818;stroke-width:1;"/><polygon fill="#181818" points="333.84,660.63,337.0305,651.3123,333.399,655.6495,329.0617,652.0179,333.84,660.63" style="stroke:#181818;stroke-width:1;"/><text fill="#000000" font-family="sans-serif" font-size="13" lengthAdjust="spacing" textLength="75.9814" x="332.07" y="611.0684">Cancel Auth</text></g><!--link AUTHORIZED to EXPIRED--><g class="link" data-entity-1="AUTHORIZED" data-entity-2="EXPIRED" data-source-line="17" data-uid="lnk25" id="link_AUTHORIZED_EXPIRED"><path d="M267.2,548.38 C252.94,556.51 239.06,567.23 230,581 C214.39,604.71 212.6392,632.1497 213.9192,654.6497" fill="none" id="AUTHORIZED-to-EXPIRED" style="stroke:#181818;stroke-width:1;"/><polygon fill="#181818" points="214.26,660.64,217.7424,651.4273,213.976,655.6481,209.7553,651.8817,214.26,660.64" style="stroke:#181818;stroke-width:1;"/><text fill="#000000" font-family="sans-serif" font-size="13" lengthAdjust="spacing" textLength="87.2549" x="231" y="611.0684">TTL Exceeded</text></g><!--link PARTIALLY_AUTHORIZED to CAPTURED--><g class="link" data-entity-1="PARTIALLY_AUTHORIZED" data-entity-2="CAPTURED" data-source-line="18" data-uid="lnk26" id="link_PARTIALLY_AUTHORIZED_CAPTURED"><path d="M587.57,551.32 C599.34,559.02 610.17,568.8 617,581 C627.85,600.39 630.01,612.98 617,631 C590.65,667.49 544.639,679.1106 506.439,683.0106" fill="none" id="PARTIALLY_AUTHORIZED-to-CAPTURED" style="stroke:#181818;stroke-width:1;"/><polygon fill="#181818" points="500.47,683.62,509.8297,686.6852,505.4441,683.1122,509.0172,678.7266,500.47,683.62" style="stroke:#181818;stroke-width:1;"/><text fill="#000000" font-family="sans-serif" font-size="13" lengthAdjust="spacing" textLength="78.3237" x="626.97" y="611.0684">Settle Partial</text></g><!--link PARTIALLY_AUTHORIZED to VOIDED--><g class="link" data-entity-1="PARTIALLY_AUTHORIZED" data-entity-2="VOIDED" data-source-line="19" data-uid="lnk27" id="link_PARTIALLY_AUTHORIZED_VOIDED"><path d="M524.5,551.44 C518.93,574.97 507.19,610.01 484,631 C451.49,660.43 430.99,645.4 390,661 C384.34,663.15 383.9329,663.2219 378.1829,665.6919" fill="none" id="PARTIALLY_AUTHORIZED-to-VOIDED" style="stroke:#181818;stroke-width:1;"/><polygon fill="#181818" points="372.67,668.06,382.5181,668.183,377.2641,666.0865,379.3606,660.8325,372.67,668.06" style="stroke:#181818;stroke-width:1;"/><text fill="#000000" font-family="sans-serif" font-size="13" lengthAdjust="spacing" textLength="85.2554" x="515.92" y="611.0684">Cancel Partial</text></g><!--link CAPTURED to *end*--><g class="link" data-entity-1="CAPTURED" data-entity-2=".end." data-source-line="20" data-uid="lnk29" id="link_CAPTURED_.end."><path d="M423.61,711.46 C397.12,732.8 365.1314,758.5346 348.9414,771.5846" fill="none" id="CAPTURED-to-*end*" style="stroke:#181818;stroke-width:1;"/><polygon fill="#181818" points="344.27,775.35,353.7873,772.8162,348.1628,772.2122,348.7668,766.5877,344.27,775.35" style="stroke:#181818;stroke-width:1;"/></g><!--link VOIDED to *end*--><g class="link" data-entity-1="VOIDED" data-entity-2=".end." data-source-line="21" data-uid="lnk30" id="link_VOIDED_.end."><path d="M336,711.46 C336,731.04 336,751.49 336,765.8" fill="none" id="VOIDED-to-*end*" style="stroke:#181818;stroke-width:1;"/><polygon fill="#181818" points="336,771.8,340,762.8,336,766.8,332,762.8,336,771.8" style="stroke:#181818;stroke-width:1;"/></g><!--link EXPIRED to *end*--><g class="link" data-entity-1="EXPIRED" data-entity-2=".end." data-source-line="22" data-uid="lnk31" id="link_EXPIRED_.end."><path d="M247.65,711.46 C274.37,732.8 306.6428,758.5543 322.9728,771.6043" fill="none" id="EXPIRED-to-*end*" style="stroke:#181818;stroke-width:1;"/><polygon fill="#181818" points="327.66,775.35,323.1264,766.6066,323.754,772.2286,318.1321,772.8562,327.66,775.35" style="stroke:#181818;stroke-width:1;"/></g><!--link DECLINED to *end*--><g class="link" data-entity-1="DECLINED" data-entity-2=".end." data-source-line="23" data-uid="lnk32" id="link_DECLINED_.end."><path d="M754.03,551.49 C748.14,574.73 736.21,609.25 714,631 C600.91,741.76 402.2702,773.5288 352.8902,779.9288" fill="none" id="DECLINED-to-*end*" style="stroke:#181818;stroke-width:1;"/><polygon fill="#181818" points="346.94,780.7,356.3795,783.51,351.8985,780.0573,355.3512,775.5764,346.94,780.7" style="stroke:#181818;stroke-width:1;"/></g><!--link FAILED_TECHNICAL to *end*--><g class="link" data-entity-1="FAILED_TECHNICAL" data-entity-2=".end." data-source-line="24" data-uid="lnk33" id="link_FAILED_TECHNICAL_.end."><path d="M81.64,344.33 C48.93,369.43 6,411.84 6,461.5 C6,461.5 6,461.5 6,687 C6,754.82 260.6251,776.6941 318.6551,780.8241" fill="none" id="FAILED_TECHNICAL-to-*end*" style="stroke:#181818;stroke-width:1;"/><polygon fill="#181818" points="324.64,781.25,315.9467,776.6212,319.6526,780.895,315.3787,784.601,324.64,781.25" style="stroke:#181818;stroke-width:1;"/></g><!--link FRAUD_REJECTED to *end*--><g class="link" data-entity-1="FRAUD_REJECTED" data-entity-2=".end." data-source-line="25" data-uid="lnk34" id="link_FRAUD_REJECTED_.end."><path d="M107.53,631.09 C117.83,654.36 136.29,689.2 162,711 C213.51,754.68 289.5946,772.9729 319.0946,778.8229" fill="none" id="FRAUD_REJECTED-to-*end*" style="stroke:#181818;stroke-width:1;"/><polygon fill="#181818" points="324.98,779.99,316.93,774.3157,320.0755,779.0174,315.3738,782.1629,324.98,779.99" style="stroke:#181818;stroke-width:1;"/></g><!--link OTHER to *end*--><g class="link" data-entity-1="OTHER" data-entity-2=".end." data-source-line="26" data-uid="lnk36" id="link_OTHER_.end."><path d="M825.33,711.28 C814.67,722.64 800.51,735.16 785,742 C703.01,778.16 414.4199,781.6077 353.1899,781.9377" fill="none" id="OTHER-to-*end*" style="stroke:#181818;stroke-width:1;"/><polygon fill="#181818" points="347.19,781.97,356.2114,785.9214,352.1899,781.9431,356.1683,777.9216,347.19,781.97" style="stroke:#181818;stroke-width:1;"/></g><!--SRC=[TP9lRu8m4CRVyodwUebVO34c7ItQXG2frRWj2-dmn4OihXIpPTbtNy7XNtm5T_VyxfwxjDeelPD6Rb5bfGNquo7q9BDDRifQB_soACrmAC1ibPR5Q8H2bQzjelIcJyUqikea6ni0xVrwtjl3EneCHcYEGqQmO77adNxRIZ2BI3gdd0NCFsGV4OVF6YhhlXceFInl6Cn2Ib91_KdagD0Xq-_AmXPHOqhZtVPig8H6X4NZb2u4vL5B1Mw32k6zL8NyAE0EIAWVieWI1p1TrQkLoXHeUw2zcxODWcTY4dFssaA9AJEegj8WlDkPibce5qem5mo7uKjwYKlJtFOVbaK_V6RoD8z0LYXzRrx0yOoad3vJNxHWO6IzH44XyzmnPoOQjOyJCUEjRWhMkcjT2UOn8stPbpe3vxUswsiDNIJiq4E84D6l363PsElRl7TeTutxoBMD3ZYsQaJkNNh_mYxih7NnyQ1TukRL7GkNT-pIiPXGtaL_]--></g></svg>