<?xml version="1.0" encoding="us-ascii" standalone="no"?><svg xmlns="http://www.w3.org/2000/svg" xmlns:xlink="http://www.w3.org/1999/xlink" contentStyleType="text/css" height="242px" preserveAspectRatio="none" style="width:1405px;height:242px;background:#FFFFFF;" version="1.1" viewBox="0 0 1405 242" width="1405px" zoomAndPan="magnify"><defs/><g><g id="elem_CreditAuthorization"><rect fill="#F1F1F1" height="36.4883" rx="2.5" ry="2.5" style="stroke:#181818;stroke-width:0.5;" width="157" x="531.5" y="199.97"/><text fill="#000000" font-family="sans-serif" font-size="14" lengthAdjust="spacing" textLength="137" x="541.5" y="223.5052">CreditAuthorization</text></g><g id="elem_EventMessage"><rect fill="#F1F1F1" height="36.4883" rx="2.5" ry="2.5" style="stroke:#181818;stroke-width:0.5;" width="116" x="176" y="103.48"/><text fill="#000000" font-family="sans-serif" font-size="14" lengthAdjust="spacing" textLength="96" x="186" y="127.0152">EventMessage</text></g><g id="elem_Money"><rect fill="#F1F1F1" height="36.4883" rx="2.5" ry="2.5" style="stroke:#181818;stroke-width:0.5;" width="65" x="327.5" y="103.48"/><text fill="#000000" font-family="sans-serif" font-size="14" lengthAdjust="spacing" textLength="45" x="337.5" y="127.0152">Money</text></g><g id="elem_PartyReference"><rect fill="#F1F1F1" height="36.4883" rx="2.5" ry="2.5" style="stroke:#181818;stroke-width:0.5;" width="122" x="427" y="103.48"/><text fill="#000000" font-family="sans-serif" font-size="14" lengthAdjust="spacing" textLength="102" x="437" y="127.0152">PartyReference</text></g><g id="elem_Price"><rect fill="#F1F1F1" height="36.4883" rx="2.5" ry="2.5" style="stroke:#181818;stroke-width:0.5;" width="53" x="583.5" y="103.48"/><text fill="#000000" font-family="sans-serif" font-size="14" lengthAdjust="spacing" textLength="33" x="593.5" y="127.0152">Price</text></g><g id="elem_Program"><rect fill="#F1F1F1" height="36.4883" rx="2.5" ry="2.5" style="stroke:#181818;stroke-width:0.5;" width="79" x="671.5" y="103.48"/><text fill="#000000" font-family="sans-serif" font-size="14" lengthAdjust="spacing" textLength="59" x="681.5" y="127.0152">Program</text></g><g id="elem_CreditAuthorizationStatusTypes"><rect fill="#FAFF91" height="36.4883" rx="2.5" ry="2.5" style="stroke:#181818;stroke-width:0.5;" width="239" x="785.5" y="103.48"/><text fill="#000000" font-family="sans-serif" font-size="14" lengthAdjust="spacing" textLength="219" x="795.5" y="127.0152">CreditAuthorizationStatusTypes</text></g><g id="elem_CreditAuthorizationTypes"><rect fill="#FAFF91" height="36.4883" rx="2.5" ry="2.5" style="stroke:#181818;stroke-width:0.5;" width="197" x="1059.5" y="103.48"/><text fill="#000000" font-family="sans-serif" font-size="14" lengthAdjust="spacing" textLength="177" x="1069.5" y="127.0152">CreditAuthorizationTypes</text></g><g id="elem_EventMessageTypes"><rect fill="#FAFF91" height="36.4883" rx="2.5" ry="2.5" style="stroke:#181818;stroke-width:0.5;" width="156" x="7" y="7"/><text fill="#000000" font-family="sans-serif" font-size="14" lengthAdjust="spacing" textLength="136" x="17" y="30.5352">EventMessageTypes</text></g><g id="elem_InvoiceTypes"><rect fill="#FAFF91" height="36.4883" rx="2.5" ry="2.5" style="stroke:#181818;stroke-width:0.5;" width="108" x="1291" y="103.48"/><text fill="#000000" font-family="sans-serif" font-size="14" lengthAdjust="spacing" textLength="88" x="1301" y="127.0152">InvoiceTypes</text></g><g id="elem_PartyRelationshipTypes"><rect fill="#FAFF91" height="36.4883" rx="2.5" ry="2.5" style="stroke:#181818;stroke-width:0.5;" width="179" x="354.5" y="7"/><text fill="#000000" font-family="sans-serif" font-size="14" lengthAdjust="spacing" textLength="159" x="364.5" y="30.5352">PartyRelationshipTypes</text></g><g id="elem_PayTypes"><rect fill="#FAFF91" height="36.4883" rx="2.5" ry="2.5" style="stroke:#181818;stroke-width:0.5;" width="83" x="568.5" y="7"/><text fill="#000000" font-family="sans-serif" font-size="14" lengthAdjust="spacing" textLength="63" x="578.5" y="30.5352">PayTypes</text></g><g id="elem_PriceTypes"><rect fill="#FAFF91" height="36.4883" rx="2.5" ry="2.5" style="stroke:#181818;stroke-width:0.5;" width="93" x="686.5" y="7"/><text fill="#000000" font-family="sans-serif" font-size="14" lengthAdjust="spacing" textLength="73" x="696.5" y="30.5352">PriceTypes</text></g><g id="elem_ProgramTypes"><rect fill="#FAFF91" height="36.4883" rx="2.5" ry="2.5" style="stroke:#181818;stroke-width:0.5;" width="119" x="814.5" y="7"/><text fill="#000000" font-family="sans-serif" font-size="14" lengthAdjust="spacing" textLength="99" x="824.5" y="30.5352">ProgramTypes</text></g><g id="elem_StaffRoleTypes"><rect fill="#FAFF91" height="36.4883" rx="2.5" ry="2.5" style="stroke:#181818;stroke-width:0.5;" width="121" x="198.5" y="7"/><text fill="#000000" font-family="sans-serif" font-size="14" lengthAdjust="spacing" textLength="101" x="208.5" y="30.5352">StaffRoleTypes</text></g><g id="link_CreditAuthorizationStatusTypes_CreditAuthorization"><path d="M849.86,140.39 C797.16,157.27 718.14,182.58 665.37,199.48 " fill="none" id="CreditAuthorizationStatusTypes-CreditAuthorization" style="stroke:#181818;stroke-width:1.0;"/></g><g id="link_CreditAuthorizationTypes_CreditAuthorization"><path d="M1059.08,139.78 C952.87,158.1 786.28,186.82 688.64,203.66 " fill="none" id="CreditAuthorizationTypes-CreditAuthorization" style="stroke:#181818;stroke-width:1.0;"/></g><g id="link_EventMessage_CreditAuthorization"><path d="M292.34,137.39 C359.07,154.16 468.29,181.6 539.67,199.54 " fill="none" id="EventMessage-CreditAuthorization" style="stroke:#181818;stroke-width:1.0;"/></g><g id="link_EventMessageTypes_CreditAuthorization"><path d="M91.16,43.77 C101.14,69.39 123.38,116.54 159,139.97 C218.9,179.37 418.54,201.61 531.09,211.3 " fill="none" id="EventMessageTypes-CreditAuthorization" style="stroke:#181818;stroke-width:1.0;"/></g><g id="link_EventMessageTypes_EventMessage"><path d="M112.68,43.79 C139.36,60.71 179.51,86.17 206.22,103.11 " fill="none" id="EventMessageTypes-EventMessage" style="stroke:#181818;stroke-width:1.0;"/></g><g id="link_InvoiceTypes_CreditAuthorization"><path d="M1290.87,136.6 C1285.2,137.83 1279.49,138.99 1274,139.97 C1064.22,177.5 813.76,200.93 688.91,211.18 " fill="none" id="InvoiceTypes-CreditAuthorization" style="stroke:#181818;stroke-width:1.0;"/></g><g id="link_Money_CreditAuthorization"><path d="M392.94,135.18 C436.56,151.66 513.75,180.84 563.35,199.59 " fill="none" id="Money-CreditAuthorization" style="stroke:#181818;stroke-width:1.0;"/></g><g id="link_PartyReference_CreditAuthorization"><path d="M520.1471,147.6281 C542.0571,164.5981 565.59,182.82 587.46,199.76 " fill="none" id="PartyReference-backto-CreditAuthorization" style="stroke:#181818;stroke-width:1.0;"/><polygon fill="#181818" points="510.66,140.28,512.9542,147.1164,520.1471,147.6281,517.8529,140.7917,510.66,140.28" style="stroke:#181818;stroke-width:1.0;"/></g><g id="link_PartyRelationshipTypes_PartyReference"><path d="M457.1365,54.448 C465.0265,71.388 471.91,86.17 479.83,103.19 " fill="none" id="PartyRelationshipTypes-backto-PartyReference" style="stroke:#181818;stroke-width:1.0;"/><polygon fill="#181818" points="452.07,43.57,450.9773,50.6978,457.1365,54.448,458.2293,47.3201,452.07,43.57" style="stroke:#181818;stroke-width:1.0;"/></g><g id="link_PayTypes_Price"><path d="M610,43.57 C610,60.51 610,86.17 610,103.19 " fill="none" id="PayTypes-Price" style="stroke:#181818;stroke-width:1.0;"/></g><g id="link_Price_CreditAuthorization"><path d="M610,140.06 C610,157 610,182.66 610,199.68 " fill="none" id="Price-CreditAuthorization" style="stroke:#181818;stroke-width:1.0;"/></g><g id="link_PriceTypes_Price"><path d="M700.6339,51.1005 C678.5439,68.0705 654.78,86.33 632.72,103.27 " fill="none" id="PriceTypes-backto-Price" style="stroke:#181818;stroke-width:1.0;"/><polygon fill="#181818" points="710.15,43.79,702.9551,44.2732,700.6339,51.1005,707.8288,50.6173,710.15,43.79" style="stroke:#181818;stroke-width:1.0;"/></g><g id="link_Program_CreditAuthorization"><path d="M692.48,140.06 C674.37,157 646.94,182.66 628.75,199.68 " fill="none" id="Program-CreditAuthorization" style="stroke:#181818;stroke-width:1.0;"/></g><g id="link_ProgramTypes_Program"><path d="M843.72,43.79 C814.54,60.71 770.61,86.17 741.39,103.11 " fill="none" id="ProgramTypes-Program" style="stroke:#181818;stroke-width:1.0;"/></g><g id="link_StaffRoleTypes_EventMessage"><path d="M254.41,43.57 C249.93,60.51 243.14,86.17 238.64,103.19 " fill="none" id="StaffRoleTypes-EventMessage" style="stroke:#181818;stroke-width:1.0;"/></g></g></svg>
